G04 #@! TF.GenerationSoftware,KiCad,Pcbnew,7.0.2*
G04 #@! TF.CreationDate,2024-02-08T16:58:35+01:00*
G04 #@! TF.ProjectId,FilterAndHalfBuffer,46696c74-6572-4416-9e64-48616c664275,rev?*
G04 #@! TF.SameCoordinates,Original*
G04 #@! TF.FileFunction,Soldermask,Bot*
G04 #@! TF.FilePolarity,Negative*
%FSLAX46Y46*%
G04 Gerber Fmt 4.6, Leading zero omitted, Abs format (unit mm)*
G04 Created by KiCad (PCBNEW 7.0.2) date 2024-02-08 16:58:35*
%MOMM*%
%LPD*%
G01*
G04 APERTURE LIST*
G04 Aperture macros list*
%AMRoundRect*
0 Rectangle with rounded corners*
0 $1 Rounding radius*
0 $2 $3 $4 $5 $6 $7 $8 $9 X,Y pos of 4 corners*
0 Add a 4 corners polygon primitive as box body*
4,1,4,$2,$3,$4,$5,$6,$7,$8,$9,$2,$3,0*
0 Add four circle primitives for the rounded corners*
1,1,$1+$1,$2,$3*
1,1,$1+$1,$4,$5*
1,1,$1+$1,$6,$7*
1,1,$1+$1,$8,$9*
0 Add four rect primitives between the rounded corners*
20,1,$1+$1,$2,$3,$4,$5,0*
20,1,$1+$1,$4,$5,$6,$7,0*
20,1,$1+$1,$6,$7,$8,$9,0*
20,1,$1+$1,$8,$9,$2,$3,0*%
G04 Aperture macros list end*
%ADD10R,1.700000X1.700000*%
%ADD11O,1.700000X1.700000*%
%ADD12C,5.600000*%
%ADD13RoundRect,0.200100X0.949900X-0.949900X0.949900X0.949900X-0.949900X0.949900X-0.949900X-0.949900X0*%
%ADD14C,2.500000*%
%ADD15R,1.905000X2.000000*%
%ADD16O,1.905000X2.000000*%
%ADD17C,1.600000*%
%ADD18R,2.200000X2.200000*%
%ADD19O,2.200000X2.200000*%
G04 APERTURE END LIST*
D10*
G04 #@! TO.C,J9*
X126492000Y-65781000D03*
D11*
X126492000Y-68321000D03*
G04 #@! TD*
G04 #@! TO.C,J8*
X126492000Y-61209000D03*
D10*
X126492000Y-58669000D03*
G04 #@! TD*
D12*
G04 #@! TO.C,REF\u002A\u002A*
X123825000Y-80645000D03*
G04 #@! TD*
G04 #@! TO.C,REF\u002A\u002A*
X105410000Y-60325000D03*
G04 #@! TD*
G04 #@! TO.C,REF\u002A\u002A*
X90170000Y-80645000D03*
G04 #@! TD*
D10*
G04 #@! TO.C,J3*
X92710000Y-105410000D03*
D11*
X90170000Y-105410000D03*
G04 #@! TD*
D13*
G04 #@! TO.C,J2*
X77216000Y-102870000D03*
D14*
X79756000Y-105410000D03*
X74676000Y-105410000D03*
X74676000Y-100330000D03*
X79756000Y-100330000D03*
G04 #@! TD*
D13*
G04 #@! TO.C,J1*
X77470000Y-74676000D03*
D14*
X80010000Y-77216000D03*
X74930000Y-77216000D03*
X74930000Y-72136000D03*
X80010000Y-72136000D03*
G04 #@! TD*
D15*
G04 #@! TO.C,U2*
X120650000Y-105410000D03*
D16*
X118110000Y-105410000D03*
X115570000Y-105410000D03*
G04 #@! TD*
D10*
G04 #@! TO.C,JP1*
X117475000Y-67945000D03*
D11*
X114935000Y-67945000D03*
X112395000Y-67945000D03*
G04 #@! TD*
D13*
G04 #@! TO.C,J7*
X77470000Y-88900000D03*
D14*
X80010000Y-91440000D03*
X74930000Y-91440000D03*
X74930000Y-86360000D03*
X80010000Y-86360000D03*
G04 #@! TD*
D13*
G04 #@! TO.C,J5*
X77470000Y-60960000D03*
D14*
X80010000Y-63500000D03*
X74930000Y-63500000D03*
X74930000Y-58420000D03*
X80010000Y-58420000D03*
G04 #@! TD*
D10*
G04 #@! TO.C,J4*
X117475000Y-58420000D03*
D11*
X114935000Y-58420000D03*
G04 #@! TD*
D17*
G04 #@! TO.C,F1*
X97155000Y-101600000D03*
X102155000Y-101600000D03*
G04 #@! TD*
D18*
G04 #@! TO.C,D3*
X116840000Y-85725000D03*
D19*
X127000000Y-85725000D03*
G04 #@! TD*
D18*
G04 #@! TO.C,D2*
X116840000Y-99695000D03*
D19*
X116840000Y-89535000D03*
G04 #@! TD*
D18*
G04 #@! TO.C,D1*
X109855000Y-105410000D03*
D19*
X97155000Y-105410000D03*
G04 #@! TD*
M02*
