G04 #@! TF.GenerationSoftware,KiCad,Pcbnew,7.0.2*
G04 #@! TF.CreationDate,2024-02-08T16:58:34+01:00*
G04 #@! TF.ProjectId,FilterAndHalfBuffer,46696c74-6572-4416-9e64-48616c664275,rev?*
G04 #@! TF.SameCoordinates,Original*
G04 #@! TF.FileFunction,Copper,L2,Bot*
G04 #@! TF.FilePolarity,Positive*
%FSLAX46Y46*%
G04 Gerber Fmt 4.6, Leading zero omitted, Abs format (unit mm)*
G04 Created by KiCad (PCBNEW 7.0.2) date 2024-02-08 16:58:34*
%MOMM*%
%LPD*%
G01*
G04 APERTURE LIST*
G04 Aperture macros list*
%AMRoundRect*
0 Rectangle with rounded corners*
0 $1 Rounding radius*
0 $2 $3 $4 $5 $6 $7 $8 $9 X,Y pos of 4 corners*
0 Add a 4 corners polygon primitive as box body*
4,1,4,$2,$3,$4,$5,$6,$7,$8,$9,$2,$3,0*
0 Add four circle primitives for the rounded corners*
1,1,$1+$1,$2,$3*
1,1,$1+$1,$4,$5*
1,1,$1+$1,$6,$7*
1,1,$1+$1,$8,$9*
0 Add four rect primitives between the rounded corners*
20,1,$1+$1,$2,$3,$4,$5,0*
20,1,$1+$1,$4,$5,$6,$7,0*
20,1,$1+$1,$6,$7,$8,$9,0*
20,1,$1+$1,$8,$9,$2,$3,0*%
G04 Aperture macros list end*
G04 #@! TA.AperFunction,ComponentPad*
%ADD10R,1.700000X1.700000*%
G04 #@! TD*
G04 #@! TA.AperFunction,ComponentPad*
%ADD11O,1.700000X1.700000*%
G04 #@! TD*
G04 #@! TA.AperFunction,ComponentPad*
%ADD12C,5.600000*%
G04 #@! TD*
G04 #@! TA.AperFunction,ComponentPad*
%ADD13RoundRect,0.200100X0.949900X-0.949900X0.949900X0.949900X-0.949900X0.949900X-0.949900X-0.949900X0*%
G04 #@! TD*
G04 #@! TA.AperFunction,ComponentPad*
%ADD14C,2.500000*%
G04 #@! TD*
G04 #@! TA.AperFunction,ComponentPad*
%ADD15R,1.905000X2.000000*%
G04 #@! TD*
G04 #@! TA.AperFunction,ComponentPad*
%ADD16O,1.905000X2.000000*%
G04 #@! TD*
G04 #@! TA.AperFunction,ComponentPad*
%ADD17C,1.600000*%
G04 #@! TD*
G04 #@! TA.AperFunction,ComponentPad*
%ADD18R,2.200000X2.200000*%
G04 #@! TD*
G04 #@! TA.AperFunction,ComponentPad*
%ADD19O,2.200000X2.200000*%
G04 #@! TD*
G04 #@! TA.AperFunction,ViaPad*
%ADD20C,0.800000*%
G04 #@! TD*
G04 #@! TA.AperFunction,Conductor*
%ADD21C,0.250000*%
G04 #@! TD*
G04 APERTURE END LIST*
D10*
G04 #@! TO.P,J9,1,Pin_1*
G04 #@! TO.N,GND*
X126492000Y-65781000D03*
D11*
G04 #@! TO.P,J9,2,Pin_2*
G04 #@! TO.N,Net-(J9-Pin_2)*
X126492000Y-68321000D03*
G04 #@! TD*
G04 #@! TO.P,J8,2,Pin_2*
G04 #@! TO.N,GND*
X126492000Y-61209000D03*
D10*
G04 #@! TO.P,J8,1,Pin_1*
G04 #@! TO.N,Net-(J8-Pin_1)*
X126492000Y-58669000D03*
G04 #@! TD*
D12*
G04 #@! TO.P,REF\u002A\u002A,1*
G04 #@! TO.N,GND*
X123825000Y-80645000D03*
G04 #@! TD*
G04 #@! TO.P,REF\u002A\u002A,1*
G04 #@! TO.N,GND*
X105410000Y-60325000D03*
G04 #@! TD*
G04 #@! TO.P,REF\u002A\u002A,1*
G04 #@! TO.N,GND*
X90170000Y-80645000D03*
G04 #@! TD*
D10*
G04 #@! TO.P,J3,1,Pin_1*
G04 #@! TO.N,GND*
X92710000Y-105410000D03*
D11*
G04 #@! TO.P,J3,2,Pin_2*
G04 #@! TO.N,VCC*
X90170000Y-105410000D03*
G04 #@! TD*
D13*
G04 #@! TO.P,J2,1,In*
G04 #@! TO.N,Net-(J2-In)*
X77216000Y-102870000D03*
D14*
G04 #@! TO.P,J2,2,Ext*
G04 #@! TO.N,GND*
X79756000Y-105410000D03*
X74676000Y-105410000D03*
X74676000Y-100330000D03*
X79756000Y-100330000D03*
G04 #@! TD*
D13*
G04 #@! TO.P,J1,1,In*
G04 #@! TO.N,Net-(J1-In)*
X77470000Y-74676000D03*
D14*
G04 #@! TO.P,J1,2,Ext*
G04 #@! TO.N,GND*
X80010000Y-77216000D03*
X74930000Y-77216000D03*
X74930000Y-72136000D03*
X80010000Y-72136000D03*
G04 #@! TD*
D15*
G04 #@! TO.P,U2,1,ADJ*
G04 #@! TO.N,Net-(D3-A)*
X120650000Y-105410000D03*
D16*
G04 #@! TO.P,U2,2,VO*
G04 #@! TO.N,+3V3*
X118110000Y-105410000D03*
G04 #@! TO.P,U2,3,VI*
G04 #@! TO.N,Net-(D1-K)*
X115570000Y-105410000D03*
G04 #@! TD*
D10*
G04 #@! TO.P,JP1,1,A*
G04 #@! TO.N,Net-(J4-Pin_1)*
X117475000Y-67945000D03*
D11*
G04 #@! TO.P,JP1,2,C*
G04 #@! TO.N,Net-(JP1-C)*
X114935000Y-67945000D03*
G04 #@! TO.P,JP1,3,B*
G04 #@! TO.N,Net-(D4-A)*
X112395000Y-67945000D03*
G04 #@! TD*
D13*
G04 #@! TO.P,J7,1,In*
G04 #@! TO.N,Net-(J7-In)*
X77470000Y-88900000D03*
D14*
G04 #@! TO.P,J7,2,Ext*
G04 #@! TO.N,GND*
X80010000Y-91440000D03*
X74930000Y-91440000D03*
X74930000Y-86360000D03*
X80010000Y-86360000D03*
G04 #@! TD*
D13*
G04 #@! TO.P,J5,1,In*
G04 #@! TO.N,Net-(J5-In)*
X77470000Y-60960000D03*
D14*
G04 #@! TO.P,J5,2,Ext*
G04 #@! TO.N,GND*
X80010000Y-63500000D03*
X74930000Y-63500000D03*
X74930000Y-58420000D03*
X80010000Y-58420000D03*
G04 #@! TD*
D10*
G04 #@! TO.P,J4,1,Pin_1*
G04 #@! TO.N,Net-(J4-Pin_1)*
X117475000Y-58420000D03*
D11*
G04 #@! TO.P,J4,2,Pin_2*
G04 #@! TO.N,GND*
X114935000Y-58420000D03*
G04 #@! TD*
D17*
G04 #@! TO.P,F1,1*
G04 #@! TO.N,VCC*
X97155000Y-101600000D03*
G04 #@! TO.P,F1,2*
G04 #@! TO.N,Net-(D1-K)*
X102155000Y-101600000D03*
G04 #@! TD*
D18*
G04 #@! TO.P,D3,1,K*
G04 #@! TO.N,+3V3*
X116840000Y-85725000D03*
D19*
G04 #@! TO.P,D3,2,A*
G04 #@! TO.N,Net-(D3-A)*
X127000000Y-85725000D03*
G04 #@! TD*
D18*
G04 #@! TO.P,D2,1,K*
G04 #@! TO.N,Net-(D1-K)*
X116840000Y-99695000D03*
D19*
G04 #@! TO.P,D2,2,A*
G04 #@! TO.N,+3V3*
X116840000Y-89535000D03*
G04 #@! TD*
D18*
G04 #@! TO.P,D1,1,K*
G04 #@! TO.N,Net-(D1-K)*
X109855000Y-105410000D03*
D19*
G04 #@! TO.P,D1,2,A*
G04 #@! TO.N,GND*
X97155000Y-105410000D03*
G04 #@! TD*
D20*
G04 #@! TO.N,+3V3*
X118745000Y-93980000D03*
X117475000Y-73025000D03*
X116840000Y-78105000D03*
G04 #@! TO.N,GND*
X111760000Y-75565000D03*
X98425000Y-73660000D03*
X105410000Y-75565000D03*
X112395000Y-92710000D03*
X81915000Y-104775000D03*
X90170000Y-91440000D03*
X82550000Y-91440000D03*
X90170000Y-71755000D03*
X82550000Y-71755000D03*
X106680000Y-102870000D03*
G04 #@! TO.N,Net-(J9-Pin_2)*
X97790000Y-82550000D03*
X101689500Y-82550000D03*
G04 #@! TO.N,Net-(U3A--)*
X100240500Y-67310000D03*
X102235000Y-69215000D03*
G04 #@! TD*
D21*
G04 #@! TO.N,GND*
X123825000Y-68580000D02*
X123825000Y-63876000D01*
X123825000Y-63876000D02*
X126492000Y-61209000D01*
X123825000Y-68580000D02*
X123825000Y-68448000D01*
X123825000Y-68448000D02*
X126492000Y-65781000D01*
X111220000Y-70485000D02*
X121920000Y-70485000D01*
X121920000Y-70485000D02*
X123825000Y-68580000D01*
X123825000Y-68580000D02*
X123825000Y-80645000D01*
X111220000Y-62135000D02*
X109410000Y-60325000D01*
X109410000Y-60325000D02*
X105410000Y-60325000D01*
X90170000Y-80645000D02*
X90170000Y-71755000D01*
G04 #@! TO.N,+3V3*
X118745000Y-93980000D02*
X116840000Y-92075000D01*
X116840000Y-92075000D02*
X116840000Y-89535000D01*
G04 #@! TO.N,GND*
X111220000Y-70485000D02*
X111220000Y-62135000D01*
X111220000Y-75025000D02*
X111220000Y-70485000D01*
G04 #@! TO.N,+3V3*
X116840000Y-78105000D02*
X117475000Y-77470000D01*
X117475000Y-77470000D02*
X117475000Y-73025000D01*
G04 #@! TO.N,GND*
X111760000Y-75565000D02*
X111220000Y-75025000D01*
X111220000Y-62135000D02*
X114935000Y-58420000D01*
G04 #@! TO.N,+3V3*
X116840000Y-85725000D02*
X116840000Y-78105000D01*
G04 #@! TO.N,GND*
X105410000Y-75565000D02*
X100330000Y-75565000D01*
X100330000Y-75565000D02*
X98425000Y-73660000D01*
X112395000Y-97155000D02*
X112395000Y-92710000D01*
X106680000Y-102870000D02*
X112395000Y-97155000D01*
X81915000Y-104775000D02*
X82455000Y-104235000D01*
X82455000Y-104235000D02*
X91535000Y-104235000D01*
X91535000Y-104235000D02*
X92710000Y-105410000D01*
X82550000Y-91440000D02*
X90170000Y-91440000D01*
X82550000Y-71755000D02*
X90170000Y-71755000D01*
X104140000Y-105410000D02*
X97155000Y-105410000D01*
X106680000Y-102870000D02*
X104140000Y-105410000D01*
G04 #@! TO.N,Net-(J9-Pin_2)*
X97790000Y-82550000D02*
X101689500Y-82550000D01*
G04 #@! TO.N,Net-(U3A--)*
X102235000Y-69215000D02*
X100330000Y-67310000D01*
X100330000Y-67310000D02*
X100240500Y-67310000D01*
G04 #@! TD*
G04 #@! TA.AperFunction,Conductor*
G04 #@! TO.N,GND*
G36*
X73175703Y-86646113D02*
G01*
X73213477Y-86704891D01*
X73215391Y-86712233D01*
X73253060Y-86877270D01*
X73348882Y-87121424D01*
X73480027Y-87348573D01*
X73527873Y-87408571D01*
X73527874Y-87408571D01*
X74178766Y-86757679D01*
X74222316Y-86839822D01*
X74342009Y-86980735D01*
X74489195Y-87092623D01*
X74531402Y-87112150D01*
X73880831Y-87762720D01*
X74052546Y-87879793D01*
X74288860Y-87993596D01*
X74539496Y-88070908D01*
X74798856Y-88110000D01*
X75061144Y-88110000D01*
X75320503Y-88070908D01*
X75571136Y-87993597D01*
X75641697Y-87959617D01*
X75710639Y-87948265D01*
X75774773Y-87975986D01*
X75813739Y-88033981D01*
X75819500Y-88071337D01*
X75819500Y-89728662D01*
X75799815Y-89795701D01*
X75747011Y-89841456D01*
X75677853Y-89851400D01*
X75641699Y-89840382D01*
X75571142Y-89806404D01*
X75320503Y-89729091D01*
X75061144Y-89690000D01*
X74798856Y-89690000D01*
X74539496Y-89729091D01*
X74288860Y-89806403D01*
X74052545Y-89920206D01*
X73880831Y-90037278D01*
X74531390Y-90687837D01*
X74412569Y-90759331D01*
X74278342Y-90886477D01*
X74175138Y-91038692D01*
X73527873Y-90391427D01*
X73480028Y-90451424D01*
X73348882Y-90678576D01*
X73253059Y-90922729D01*
X73215391Y-91087766D01*
X73181282Y-91148744D01*
X73119621Y-91181602D01*
X73049983Y-91175907D01*
X72994480Y-91133467D01*
X72970732Y-91067757D01*
X72970500Y-91060173D01*
X72970500Y-86739826D01*
X72990185Y-86672787D01*
X73042989Y-86627032D01*
X73112147Y-86617088D01*
X73175703Y-86646113D01*
G37*
G04 #@! TD.AperFunction*
G04 #@! TA.AperFunction,Conductor*
G36*
X73175703Y-72422113D02*
G01*
X73213477Y-72480891D01*
X73215391Y-72488233D01*
X73253060Y-72653270D01*
X73348882Y-72897424D01*
X73480027Y-73124573D01*
X73527873Y-73184571D01*
X73527874Y-73184571D01*
X74178766Y-72533679D01*
X74222316Y-72615822D01*
X74342009Y-72756735D01*
X74489195Y-72868623D01*
X74531402Y-72888150D01*
X73880831Y-73538720D01*
X74052546Y-73655793D01*
X74288860Y-73769596D01*
X74539496Y-73846908D01*
X74798856Y-73886000D01*
X75061144Y-73886000D01*
X75320503Y-73846908D01*
X75571136Y-73769597D01*
X75641697Y-73735617D01*
X75710639Y-73724265D01*
X75774773Y-73751986D01*
X75813739Y-73809981D01*
X75819500Y-73847337D01*
X75819500Y-75504662D01*
X75799815Y-75571701D01*
X75747011Y-75617456D01*
X75677853Y-75627400D01*
X75641699Y-75616382D01*
X75571142Y-75582404D01*
X75320503Y-75505091D01*
X75061144Y-75466000D01*
X74798856Y-75466000D01*
X74539496Y-75505091D01*
X74288860Y-75582403D01*
X74052545Y-75696206D01*
X73880831Y-75813278D01*
X74531390Y-76463837D01*
X74412569Y-76535331D01*
X74278342Y-76662477D01*
X74175138Y-76814692D01*
X73527873Y-76167427D01*
X73480028Y-76227424D01*
X73348882Y-76454576D01*
X73253059Y-76698729D01*
X73215391Y-76863766D01*
X73181282Y-76924744D01*
X73119621Y-76957602D01*
X73049983Y-76951907D01*
X72994480Y-76909467D01*
X72970732Y-76843757D01*
X72970500Y-76836173D01*
X72970500Y-72515826D01*
X72990185Y-72448787D01*
X73042989Y-72403032D01*
X73112147Y-72393088D01*
X73175703Y-72422113D01*
G37*
G04 #@! TD.AperFunction*
G04 #@! TA.AperFunction,Conductor*
G36*
X73175703Y-58706113D02*
G01*
X73213477Y-58764891D01*
X73215391Y-58772233D01*
X73253060Y-58937270D01*
X73348882Y-59181424D01*
X73480027Y-59408573D01*
X73527873Y-59468571D01*
X73527874Y-59468571D01*
X74178766Y-58817679D01*
X74222316Y-58899822D01*
X74342009Y-59040735D01*
X74489195Y-59152623D01*
X74531402Y-59172150D01*
X73880831Y-59822720D01*
X74052546Y-59939793D01*
X74288860Y-60053596D01*
X74539496Y-60130908D01*
X74798856Y-60170000D01*
X75061144Y-60170000D01*
X75320503Y-60130908D01*
X75571136Y-60053597D01*
X75641697Y-60019617D01*
X75710639Y-60008265D01*
X75774773Y-60035986D01*
X75813739Y-60093981D01*
X75819500Y-60131337D01*
X75819500Y-61788662D01*
X75799815Y-61855701D01*
X75747011Y-61901456D01*
X75677853Y-61911400D01*
X75641699Y-61900382D01*
X75571142Y-61866404D01*
X75320503Y-61789091D01*
X75061144Y-61750000D01*
X74798856Y-61750000D01*
X74539496Y-61789091D01*
X74288860Y-61866403D01*
X74052545Y-61980206D01*
X73880831Y-62097278D01*
X74531390Y-62747837D01*
X74412569Y-62819331D01*
X74278342Y-62946477D01*
X74175138Y-63098692D01*
X73527873Y-62451427D01*
X73480028Y-62511424D01*
X73348882Y-62738576D01*
X73253059Y-62982729D01*
X73215391Y-63147766D01*
X73181282Y-63208744D01*
X73119621Y-63241602D01*
X73049983Y-63235907D01*
X72994480Y-63193467D01*
X72970732Y-63127757D01*
X72970500Y-63120173D01*
X72970500Y-58799826D01*
X72990185Y-58732787D01*
X73042989Y-58687032D01*
X73112147Y-58677088D01*
X73175703Y-58706113D01*
G37*
G04 #@! TD.AperFunction*
G04 #@! TA.AperFunction,Conductor*
G36*
X128212539Y-55900185D02*
G01*
X128258294Y-55952989D01*
X128269500Y-56004500D01*
X128269500Y-84435482D01*
X128249815Y-84502521D01*
X128197011Y-84548276D01*
X128127853Y-84558220D01*
X128064968Y-84529772D01*
X127943659Y-84426164D01*
X127728859Y-84294534D01*
X127612484Y-84246330D01*
X127496110Y-84198126D01*
X127251149Y-84139317D01*
X127062882Y-84124500D01*
X127000000Y-84119551D01*
X126999999Y-84119551D01*
X126748850Y-84139317D01*
X126503889Y-84198126D01*
X126271139Y-84294535D01*
X126056342Y-84426163D01*
X125864776Y-84589776D01*
X125701163Y-84781342D01*
X125569535Y-84996139D01*
X125473126Y-85228889D01*
X125414317Y-85473850D01*
X125394551Y-85725000D01*
X125414317Y-85976149D01*
X125473126Y-86221110D01*
X125473360Y-86221674D01*
X125569534Y-86453859D01*
X125701164Y-86668659D01*
X125864776Y-86860224D01*
X126056341Y-87023836D01*
X126271141Y-87155466D01*
X126503889Y-87251873D01*
X126748852Y-87310683D01*
X127000000Y-87330449D01*
X127251148Y-87310683D01*
X127496111Y-87251873D01*
X127728859Y-87155466D01*
X127943659Y-87023836D01*
X128064971Y-86920225D01*
X128128729Y-86891656D01*
X128197815Y-86902093D01*
X128250291Y-86948223D01*
X128269500Y-87014517D01*
X128269500Y-107045500D01*
X128249815Y-107112539D01*
X128197011Y-107158294D01*
X128145500Y-107169500D01*
X111281744Y-107169500D01*
X111214705Y-107149815D01*
X111168950Y-107097011D01*
X111159006Y-107027853D01*
X111188031Y-106964297D01*
X111207429Y-106946236D01*
X111312546Y-106867546D01*
X111398796Y-106752331D01*
X111449091Y-106617483D01*
X111455500Y-106557873D01*
X111455500Y-105517600D01*
X114117000Y-105517600D01*
X114125472Y-105619844D01*
X114131905Y-105697477D01*
X114191017Y-105930906D01*
X114259851Y-106087830D01*
X114287745Y-106151422D01*
X114419449Y-106353010D01*
X114582537Y-106530171D01*
X114772561Y-106678072D01*
X114984336Y-106792679D01*
X115212087Y-106870866D01*
X115449601Y-106910500D01*
X115690399Y-106910500D01*
X115927913Y-106870866D01*
X116155664Y-106792679D01*
X116367439Y-106678072D01*
X116557463Y-106530171D01*
X116720551Y-106353010D01*
X116736191Y-106329070D01*
X116789337Y-106283714D01*
X116858569Y-106274290D01*
X116921905Y-106303792D01*
X116943808Y-106329070D01*
X116959449Y-106353010D01*
X117122537Y-106530171D01*
X117312561Y-106678072D01*
X117524336Y-106792679D01*
X117752087Y-106870866D01*
X117989601Y-106910500D01*
X118230399Y-106910500D01*
X118467913Y-106870866D01*
X118695664Y-106792679D01*
X118907439Y-106678072D01*
X119049930Y-106567166D01*
X119114924Y-106541524D01*
X119183464Y-106555090D01*
X119233788Y-106603559D01*
X119242273Y-106621685D01*
X119253702Y-106652328D01*
X119253703Y-106652330D01*
X119253704Y-106652331D01*
X119339954Y-106767546D01*
X119455169Y-106853796D01*
X119590017Y-106904091D01*
X119649627Y-106910500D01*
X121650372Y-106910499D01*
X121709983Y-106904091D01*
X121844831Y-106853796D01*
X121960046Y-106767546D01*
X122046296Y-106652331D01*
X122096591Y-106517483D01*
X122103000Y-106457873D01*
X122102999Y-104362128D01*
X122096591Y-104302517D01*
X122046296Y-104167669D01*
X121960046Y-104052454D01*
X121844831Y-103966204D01*
X121709983Y-103915909D01*
X121650373Y-103909500D01*
X121647050Y-103909500D01*
X119652939Y-103909500D01*
X119652920Y-103909500D01*
X119649628Y-103909501D01*
X119646348Y-103909853D01*
X119646340Y-103909854D01*
X119590015Y-103915909D01*
X119455169Y-103966204D01*
X119339954Y-104052454D01*
X119253703Y-104167670D01*
X119242273Y-104198315D01*
X119200400Y-104254248D01*
X119134936Y-104278663D01*
X119066663Y-104263810D01*
X119049930Y-104252833D01*
X118985661Y-104202811D01*
X118907439Y-104141928D01*
X118695664Y-104027321D01*
X118695660Y-104027319D01*
X118695659Y-104027319D01*
X118467915Y-103949134D01*
X118230399Y-103909500D01*
X117989601Y-103909500D01*
X117752084Y-103949134D01*
X117524340Y-104027319D01*
X117524336Y-104027320D01*
X117524336Y-104027321D01*
X117383152Y-104103725D01*
X117312559Y-104141929D01*
X117122536Y-104289829D01*
X116959445Y-104466994D01*
X116943805Y-104490932D01*
X116890657Y-104536287D01*
X116821426Y-104545708D01*
X116758091Y-104516204D01*
X116736192Y-104490930D01*
X116720551Y-104466990D01*
X116557463Y-104289829D01*
X116367439Y-104141928D01*
X116155664Y-104027321D01*
X116155660Y-104027319D01*
X116155659Y-104027319D01*
X115927915Y-103949134D01*
X115690399Y-103909500D01*
X115449601Y-103909500D01*
X115212084Y-103949134D01*
X114984340Y-104027319D01*
X114984336Y-104027320D01*
X114984336Y-104027321D01*
X114843152Y-104103725D01*
X114772559Y-104141929D01*
X114582536Y-104289829D01*
X114419448Y-104466991D01*
X114287745Y-104668577D01*
X114191017Y-104889093D01*
X114131905Y-105122522D01*
X114127038Y-105181260D01*
X114117000Y-105302400D01*
X114117000Y-105517600D01*
X111455500Y-105517600D01*
X111455499Y-104262128D01*
X111449091Y-104202517D01*
X111398796Y-104067669D01*
X111312546Y-103952454D01*
X111197331Y-103866204D01*
X111062483Y-103815909D01*
X111021066Y-103811456D01*
X111006166Y-103809854D01*
X111006165Y-103809853D01*
X111002873Y-103809500D01*
X110999550Y-103809500D01*
X108710439Y-103809500D01*
X108710420Y-103809500D01*
X108707128Y-103809501D01*
X108703848Y-103809853D01*
X108703840Y-103809854D01*
X108647515Y-103815909D01*
X108512669Y-103866204D01*
X108397454Y-103952454D01*
X108311204Y-104067668D01*
X108260910Y-104202515D01*
X108260909Y-104202517D01*
X108254500Y-104262127D01*
X108254500Y-104265448D01*
X108254500Y-104265449D01*
X108254500Y-106554560D01*
X108254500Y-106554578D01*
X108254501Y-106557872D01*
X108260909Y-106617483D01*
X108311204Y-106752331D01*
X108397454Y-106867546D01*
X108502568Y-106946234D01*
X108544438Y-107002167D01*
X108549422Y-107071858D01*
X108515937Y-107133181D01*
X108454614Y-107166666D01*
X108428256Y-107169500D01*
X97711584Y-107169500D01*
X97644545Y-107149815D01*
X97598790Y-107097011D01*
X97588846Y-107027853D01*
X97617871Y-106964297D01*
X97664131Y-106930939D01*
X97883632Y-106840017D01*
X98098364Y-106708430D01*
X98289869Y-106544869D01*
X98453430Y-106353364D01*
X98585017Y-106138632D01*
X98681396Y-105905956D01*
X98740188Y-105661068D01*
X98740272Y-105660000D01*
X97649852Y-105660000D01*
X97698559Y-105522953D01*
X97708877Y-105372114D01*
X97678116Y-105224085D01*
X97644910Y-105160000D01*
X98740271Y-105160000D01*
X98740271Y-105159999D01*
X98740188Y-105158931D01*
X98681396Y-104914043D01*
X98585017Y-104681367D01*
X98453430Y-104466635D01*
X98289869Y-104275130D01*
X98098364Y-104111569D01*
X97883632Y-103979982D01*
X97650956Y-103883603D01*
X97406070Y-103824812D01*
X97405000Y-103824727D01*
X97404999Y-104918315D01*
X97376181Y-104900791D01*
X97230596Y-104860000D01*
X97117378Y-104860000D01*
X97005217Y-104875416D01*
X96905000Y-104918946D01*
X96905000Y-103824727D01*
X96903929Y-103824812D01*
X96659043Y-103883603D01*
X96426367Y-103979982D01*
X96211635Y-104111569D01*
X96020130Y-104275130D01*
X95856569Y-104466635D01*
X95724982Y-104681367D01*
X95628603Y-104914043D01*
X95569811Y-105158931D01*
X95569728Y-105159999D01*
X95569729Y-105160000D01*
X96660148Y-105160000D01*
X96611441Y-105297047D01*
X96601123Y-105447886D01*
X96631884Y-105595915D01*
X96665090Y-105660000D01*
X95569728Y-105660000D01*
X95569811Y-105661068D01*
X95628603Y-105905956D01*
X95724982Y-106138632D01*
X95856569Y-106353364D01*
X96020130Y-106544869D01*
X96211635Y-106708430D01*
X96426367Y-106840017D01*
X96645869Y-106930939D01*
X96700272Y-106974780D01*
X96722337Y-107041074D01*
X96705058Y-107108774D01*
X96653920Y-107156384D01*
X96598416Y-107169500D01*
X80678978Y-107169500D01*
X80611939Y-107149815D01*
X80566184Y-107097011D01*
X80556240Y-107027853D01*
X80585265Y-106964297D01*
X80625178Y-106933779D01*
X80633456Y-106929792D01*
X80805167Y-106812720D01*
X80154609Y-106162161D01*
X80273431Y-106090669D01*
X80407658Y-105963523D01*
X80510861Y-105811308D01*
X81158124Y-106458571D01*
X81205972Y-106398572D01*
X81337117Y-106171423D01*
X81432940Y-105927270D01*
X81491306Y-105671552D01*
X81510907Y-105410000D01*
X81510907Y-105409999D01*
X88814340Y-105409999D01*
X88834936Y-105645407D01*
X88866240Y-105762233D01*
X88896097Y-105873663D01*
X88995965Y-106087830D01*
X89131505Y-106281401D01*
X89298599Y-106448495D01*
X89492170Y-106584035D01*
X89706337Y-106683903D01*
X89934592Y-106745063D01*
X90170000Y-106765659D01*
X90405408Y-106745063D01*
X90633663Y-106683903D01*
X90847830Y-106584035D01*
X91041401Y-106448495D01*
X91163717Y-106326178D01*
X91225036Y-106292696D01*
X91294728Y-106297680D01*
X91350662Y-106339551D01*
X91367577Y-106370528D01*
X91416647Y-106502088D01*
X91502811Y-106617188D01*
X91617910Y-106703352D01*
X91752628Y-106753599D01*
X91808867Y-106759645D01*
X91815482Y-106760000D01*
X92460000Y-106760000D01*
X92460000Y-105845501D01*
X92567685Y-105894680D01*
X92674237Y-105910000D01*
X92745763Y-105910000D01*
X92852315Y-105894680D01*
X92960000Y-105845501D01*
X92960000Y-106760000D01*
X93604518Y-106760000D01*
X93611132Y-106759645D01*
X93667371Y-106753599D01*
X93802089Y-106703352D01*
X93917188Y-106617188D01*
X94003352Y-106502089D01*
X94053599Y-106367371D01*
X94059645Y-106311132D01*
X94060000Y-106304518D01*
X94060000Y-105660000D01*
X93143686Y-105660000D01*
X93169493Y-105619844D01*
X93210000Y-105481889D01*
X93210000Y-105338111D01*
X93169493Y-105200156D01*
X93143686Y-105160000D01*
X94059999Y-105160000D01*
X94060000Y-104515481D01*
X94059645Y-104508867D01*
X94053599Y-104452628D01*
X94003352Y-104317910D01*
X93917188Y-104202811D01*
X93802089Y-104116647D01*
X93667371Y-104066400D01*
X93611132Y-104060354D01*
X93604518Y-104060000D01*
X92960000Y-104060000D01*
X92960000Y-104974498D01*
X92852315Y-104925320D01*
X92745763Y-104910000D01*
X92674237Y-104910000D01*
X92567685Y-104925320D01*
X92460000Y-104974498D01*
X92460000Y-104060000D01*
X91815482Y-104060000D01*
X91808867Y-104060354D01*
X91752628Y-104066400D01*
X91617910Y-104116647D01*
X91502811Y-104202811D01*
X91416646Y-104317913D01*
X91367576Y-104449472D01*
X91325705Y-104505405D01*
X91260240Y-104529821D01*
X91191967Y-104514969D01*
X91163714Y-104493818D01*
X91041404Y-104371508D01*
X91041401Y-104371505D01*
X90847830Y-104235965D01*
X90633663Y-104136097D01*
X90561074Y-104116647D01*
X90405407Y-104074936D01*
X90170000Y-104054340D01*
X89934592Y-104074936D01*
X89706336Y-104136097D01*
X89492170Y-104235965D01*
X89298598Y-104371505D01*
X89131505Y-104538598D01*
X88995965Y-104732170D01*
X88896097Y-104946336D01*
X88834936Y-105174592D01*
X88814340Y-105409999D01*
X81510907Y-105409999D01*
X81491306Y-105148447D01*
X81432940Y-104892729D01*
X81337117Y-104648575D01*
X81205972Y-104421426D01*
X81158125Y-104361427D01*
X80507232Y-105012319D01*
X80463684Y-104930178D01*
X80343991Y-104789265D01*
X80196805Y-104677377D01*
X80154596Y-104657849D01*
X80805167Y-104007278D01*
X80633451Y-103890205D01*
X80397139Y-103776403D01*
X80146503Y-103699091D01*
X79887144Y-103660000D01*
X79624856Y-103660000D01*
X79365496Y-103699091D01*
X79114857Y-103776404D01*
X79044301Y-103810382D01*
X78975360Y-103821734D01*
X78911226Y-103794012D01*
X78872260Y-103736016D01*
X78866500Y-103698662D01*
X78866500Y-102041337D01*
X78886185Y-101974298D01*
X78938989Y-101928543D01*
X79008147Y-101918599D01*
X79044303Y-101929617D01*
X79114863Y-101963597D01*
X79365496Y-102040908D01*
X79624856Y-102080000D01*
X79887144Y-102080000D01*
X80146503Y-102040908D01*
X80397139Y-101963596D01*
X80633456Y-101849792D01*
X80805167Y-101732720D01*
X80672447Y-101600000D01*
X95849531Y-101600000D01*
X95869364Y-101826689D01*
X95928261Y-102046497D01*
X96024432Y-102252735D01*
X96154953Y-102439140D01*
X96315859Y-102600046D01*
X96502264Y-102730567D01*
X96502265Y-102730567D01*
X96502266Y-102730568D01*
X96708504Y-102826739D01*
X96928308Y-102885635D01*
X97079435Y-102898857D01*
X97154999Y-102905468D01*
X97154999Y-102905467D01*
X97155000Y-102905468D01*
X97381692Y-102885635D01*
X97601496Y-102826739D01*
X97807734Y-102730568D01*
X97994139Y-102600047D01*
X98155047Y-102439139D01*
X98285568Y-102252734D01*
X98381739Y-102046496D01*
X98440635Y-101826692D01*
X98460468Y-101600000D01*
X100849531Y-101600000D01*
X100869364Y-101826689D01*
X100928261Y-102046497D01*
X101024432Y-102252735D01*
X101154953Y-102439140D01*
X101315859Y-102600046D01*
X101502264Y-102730567D01*
X101502265Y-102730567D01*
X101502266Y-102730568D01*
X101708504Y-102826739D01*
X101928308Y-102885635D01*
X102155000Y-102905468D01*
X102381692Y-102885635D01*
X102601496Y-102826739D01*
X102807734Y-102730568D01*
X102994139Y-102600047D01*
X103155047Y-102439139D01*
X103285568Y-102252734D01*
X103381739Y-102046496D01*
X103440635Y-101826692D01*
X103460468Y-101600000D01*
X103440635Y-101373308D01*
X103381739Y-101153504D01*
X103285568Y-100947266D01*
X103215547Y-100847264D01*
X103210165Y-100839578D01*
X115239500Y-100839578D01*
X115239501Y-100842872D01*
X115239853Y-100846152D01*
X115239854Y-100846159D01*
X115243871Y-100883523D01*
X115245909Y-100902483D01*
X115296204Y-101037331D01*
X115382454Y-101152546D01*
X115497669Y-101238796D01*
X115632517Y-101289091D01*
X115692127Y-101295500D01*
X117987872Y-101295499D01*
X118047483Y-101289091D01*
X118182331Y-101238796D01*
X118297546Y-101152546D01*
X118383796Y-101037331D01*
X118434091Y-100902483D01*
X118440500Y-100842873D01*
X118440499Y-98547128D01*
X118434091Y-98487517D01*
X118383796Y-98352669D01*
X118297546Y-98237454D01*
X118182331Y-98151204D01*
X118047483Y-98100909D01*
X117987873Y-98094500D01*
X117984550Y-98094500D01*
X115695439Y-98094500D01*
X115695420Y-98094500D01*
X115692128Y-98094501D01*
X115688848Y-98094853D01*
X115688840Y-98094854D01*
X115632515Y-98100909D01*
X115497669Y-98151204D01*
X115382454Y-98237454D01*
X115296204Y-98352668D01*
X115245910Y-98487515D01*
X115245909Y-98487517D01*
X115239500Y-98547127D01*
X115239500Y-98550448D01*
X115239500Y-98550449D01*
X115239500Y-100839560D01*
X115239500Y-100839578D01*
X103210165Y-100839578D01*
X103155046Y-100760859D01*
X102994140Y-100599953D01*
X102807735Y-100469432D01*
X102601497Y-100373261D01*
X102381689Y-100314364D01*
X102155000Y-100294531D01*
X101928310Y-100314364D01*
X101708502Y-100373261D01*
X101502264Y-100469432D01*
X101315859Y-100599953D01*
X101154953Y-100760859D01*
X101024432Y-100947264D01*
X100928261Y-101153502D01*
X100869364Y-101373310D01*
X100849531Y-101600000D01*
X98460468Y-101600000D01*
X98440635Y-101373308D01*
X98381739Y-101153504D01*
X98285568Y-100947266D01*
X98215547Y-100847264D01*
X98155046Y-100760859D01*
X97994140Y-100599953D01*
X97807735Y-100469432D01*
X97601497Y-100373261D01*
X97381689Y-100314364D01*
X97154999Y-100294531D01*
X96928310Y-100314364D01*
X96708502Y-100373261D01*
X96502264Y-100469432D01*
X96315859Y-100599953D01*
X96154953Y-100760859D01*
X96024432Y-100947264D01*
X95928261Y-101153502D01*
X95869364Y-101373310D01*
X95849531Y-101600000D01*
X80672447Y-101600000D01*
X80154609Y-101082162D01*
X80273431Y-101010669D01*
X80407658Y-100883523D01*
X80510861Y-100731308D01*
X81158124Y-101378571D01*
X81205972Y-101318572D01*
X81337117Y-101091423D01*
X81432940Y-100847270D01*
X81491306Y-100591552D01*
X81510907Y-100330000D01*
X81491306Y-100068447D01*
X81432940Y-99812729D01*
X81337117Y-99568575D01*
X81205972Y-99341426D01*
X81158125Y-99281427D01*
X80507232Y-99932319D01*
X80463684Y-99850178D01*
X80343991Y-99709265D01*
X80196805Y-99597377D01*
X80154596Y-99577849D01*
X80805167Y-98927278D01*
X80633451Y-98810205D01*
X80397139Y-98696403D01*
X80146503Y-98619091D01*
X79887144Y-98580000D01*
X79624856Y-98580000D01*
X79365496Y-98619091D01*
X79114860Y-98696403D01*
X78878545Y-98810206D01*
X78706832Y-98927278D01*
X79357391Y-99577837D01*
X79238569Y-99649331D01*
X79104342Y-99776477D01*
X79001138Y-99928691D01*
X78353874Y-99281428D01*
X78306026Y-99341428D01*
X78174882Y-99568576D01*
X78079059Y-99812729D01*
X78020693Y-100068447D01*
X78001092Y-100330000D01*
X78020693Y-100591552D01*
X78079058Y-100847264D01*
X78158703Y-101050198D01*
X78164871Y-101119795D01*
X78132433Y-101181678D01*
X78071687Y-101216201D01*
X78043274Y-101219500D01*
X76388726Y-101219500D01*
X76321687Y-101199815D01*
X76275932Y-101147011D01*
X76265988Y-101077853D01*
X76273297Y-101050198D01*
X76352941Y-100847264D01*
X76411306Y-100591552D01*
X76430907Y-100330000D01*
X76411306Y-100068447D01*
X76352940Y-99812729D01*
X76257117Y-99568575D01*
X76125972Y-99341426D01*
X76078125Y-99281427D01*
X75427232Y-99932319D01*
X75383684Y-99850178D01*
X75263991Y-99709265D01*
X75116805Y-99597377D01*
X75074596Y-99577849D01*
X75725167Y-98927278D01*
X75553451Y-98810205D01*
X75317139Y-98696403D01*
X75066503Y-98619091D01*
X74807144Y-98580000D01*
X74544856Y-98580000D01*
X74285496Y-98619091D01*
X74034860Y-98696403D01*
X73798545Y-98810206D01*
X73626832Y-98927278D01*
X74277391Y-99577837D01*
X74158569Y-99649331D01*
X74024342Y-99776477D01*
X73921138Y-99928691D01*
X73273874Y-99281428D01*
X73226026Y-99341428D01*
X73094882Y-99568576D01*
X72999059Y-99812729D01*
X72961391Y-99977766D01*
X72927282Y-100038744D01*
X72865621Y-100071602D01*
X72795983Y-100065907D01*
X72740480Y-100023467D01*
X72716732Y-99957757D01*
X72716500Y-99950173D01*
X72716500Y-93200099D01*
X72969500Y-93200099D01*
X72969617Y-93200383D01*
X72969808Y-93200462D01*
X72969999Y-93200541D01*
X72970000Y-93200541D01*
X72970001Y-93200541D01*
X72970127Y-93200488D01*
X72970383Y-93200383D01*
X72970500Y-93200099D01*
X72970500Y-91819826D01*
X72990185Y-91752787D01*
X73042989Y-91707032D01*
X73112147Y-91697088D01*
X73175703Y-91726113D01*
X73213477Y-91784891D01*
X73215391Y-91792233D01*
X73253060Y-91957270D01*
X73348882Y-92201424D01*
X73480027Y-92428573D01*
X73527873Y-92488571D01*
X73527874Y-92488571D01*
X74178766Y-91837679D01*
X74222316Y-91919822D01*
X74342009Y-92060735D01*
X74489195Y-92172623D01*
X74531402Y-92192150D01*
X73880831Y-92842720D01*
X74052546Y-92959793D01*
X74288860Y-93073596D01*
X74539496Y-93150908D01*
X74798856Y-93190000D01*
X75061144Y-93190000D01*
X75320503Y-93150908D01*
X75571139Y-93073596D01*
X75807456Y-92959792D01*
X75979167Y-92842720D01*
X75328609Y-92192161D01*
X75447431Y-92120669D01*
X75581658Y-91993523D01*
X75684861Y-91841308D01*
X76332124Y-92488571D01*
X76379972Y-92428572D01*
X76511117Y-92201423D01*
X76606940Y-91957270D01*
X76665306Y-91701552D01*
X76684907Y-91440000D01*
X76665306Y-91178447D01*
X76606941Y-90922735D01*
X76527297Y-90719802D01*
X76521129Y-90650205D01*
X76553567Y-90588322D01*
X76614313Y-90553799D01*
X76642726Y-90550500D01*
X78297274Y-90550500D01*
X78364313Y-90570185D01*
X78410068Y-90622989D01*
X78420012Y-90692147D01*
X78412703Y-90719802D01*
X78333058Y-90922735D01*
X78274693Y-91178447D01*
X78255092Y-91440000D01*
X78274693Y-91701552D01*
X78333059Y-91957270D01*
X78428882Y-92201424D01*
X78560027Y-92428573D01*
X78607873Y-92488571D01*
X79258766Y-91837678D01*
X79302316Y-91919822D01*
X79422009Y-92060735D01*
X79569195Y-92172623D01*
X79611402Y-92192150D01*
X78960831Y-92842720D01*
X79132546Y-92959793D01*
X79368860Y-93073596D01*
X79619496Y-93150908D01*
X79878856Y-93190000D01*
X80141144Y-93190000D01*
X80400503Y-93150908D01*
X80651139Y-93073596D01*
X80887456Y-92959792D01*
X81059167Y-92842720D01*
X80408609Y-92192161D01*
X80527431Y-92120669D01*
X80661658Y-91993523D01*
X80764861Y-91841308D01*
X81412124Y-92488571D01*
X81459972Y-92428572D01*
X81591117Y-92201423D01*
X81686940Y-91957270D01*
X81745306Y-91701552D01*
X81764907Y-91440000D01*
X81745306Y-91178447D01*
X81686940Y-90922729D01*
X81591117Y-90678575D01*
X81459972Y-90451426D01*
X81412125Y-90391427D01*
X80761232Y-91042319D01*
X80717684Y-90960178D01*
X80597991Y-90819265D01*
X80450805Y-90707377D01*
X80408596Y-90687849D01*
X81059167Y-90037278D01*
X80887451Y-89920205D01*
X80651139Y-89806403D01*
X80400503Y-89729091D01*
X80141144Y-89690000D01*
X79878856Y-89690000D01*
X79619496Y-89729091D01*
X79368857Y-89806404D01*
X79298301Y-89840382D01*
X79229360Y-89851734D01*
X79165226Y-89824012D01*
X79126260Y-89766016D01*
X79120500Y-89728662D01*
X79120500Y-89534999D01*
X115234551Y-89534999D01*
X115254317Y-89786149D01*
X115313126Y-90031110D01*
X115315681Y-90037278D01*
X115409534Y-90263859D01*
X115541164Y-90478659D01*
X115704776Y-90670224D01*
X115896341Y-90833836D01*
X116041401Y-90922729D01*
X116102511Y-90960178D01*
X116111141Y-90965466D01*
X116137949Y-90976570D01*
X116192353Y-91020409D01*
X116214420Y-91086703D01*
X116214499Y-91091132D01*
X116214500Y-91992256D01*
X116212235Y-92012766D01*
X116214439Y-92082872D01*
X116214500Y-92086767D01*
X116214500Y-92114350D01*
X116214988Y-92118219D01*
X116214989Y-92118225D01*
X116215004Y-92118343D01*
X116215918Y-92129967D01*
X116217290Y-92173626D01*
X116222879Y-92192860D01*
X116226825Y-92211916D01*
X116229335Y-92231792D01*
X116245414Y-92272404D01*
X116249197Y-92283451D01*
X116261382Y-92325391D01*
X116271580Y-92342635D01*
X116280136Y-92360100D01*
X116287514Y-92378732D01*
X116287515Y-92378733D01*
X116313180Y-92414059D01*
X116319593Y-92423822D01*
X116341826Y-92461416D01*
X116341829Y-92461419D01*
X116341830Y-92461420D01*
X116355995Y-92475585D01*
X116368627Y-92490375D01*
X116380406Y-92506587D01*
X116414058Y-92534426D01*
X116422699Y-92542289D01*
X117806038Y-93925629D01*
X117839523Y-93986952D01*
X117841678Y-94000348D01*
X117859326Y-94168257D01*
X117917820Y-94348284D01*
X118012466Y-94512216D01*
X118139129Y-94652889D01*
X118292269Y-94764151D01*
X118465197Y-94841144D01*
X118650352Y-94880500D01*
X118650354Y-94880500D01*
X118839648Y-94880500D01*
X118963084Y-94854262D01*
X119024803Y-94841144D01*
X119197730Y-94764151D01*
X119350871Y-94652888D01*
X119477533Y-94512216D01*
X119572179Y-94348284D01*
X119630674Y-94168256D01*
X119650460Y-93980000D01*
X119630674Y-93791744D01*
X119572179Y-93611716D01*
X119572179Y-93611715D01*
X119477533Y-93447783D01*
X119350870Y-93307110D01*
X119197730Y-93195848D01*
X119024802Y-93118855D01*
X118839648Y-93079500D01*
X118839646Y-93079500D01*
X118780452Y-93079500D01*
X118713413Y-93059815D01*
X118692771Y-93043181D01*
X117501819Y-91852228D01*
X117468334Y-91790905D01*
X117465500Y-91764547D01*
X117465500Y-91091132D01*
X117485185Y-91024093D01*
X117537989Y-90978338D01*
X117542001Y-90976590D01*
X117568859Y-90965466D01*
X117783659Y-90833836D01*
X117975224Y-90670224D01*
X118138836Y-90478659D01*
X118270466Y-90263859D01*
X118366873Y-90031111D01*
X118425683Y-89786148D01*
X118445449Y-89535000D01*
X118425683Y-89283852D01*
X118366873Y-89038889D01*
X118270466Y-88806141D01*
X118138836Y-88591341D01*
X117975224Y-88399776D01*
X117783659Y-88236164D01*
X117568859Y-88104534D01*
X117452484Y-88056330D01*
X117336110Y-88008126D01*
X117091149Y-87949317D01*
X116965574Y-87939434D01*
X116840000Y-87929551D01*
X116839999Y-87929551D01*
X116588850Y-87949317D01*
X116343889Y-88008126D01*
X116111139Y-88104535D01*
X115896342Y-88236163D01*
X115704776Y-88399776D01*
X115541163Y-88591342D01*
X115409535Y-88806139D01*
X115313126Y-89038889D01*
X115254317Y-89283850D01*
X115234551Y-89534999D01*
X79120500Y-89534999D01*
X79120500Y-88071337D01*
X79140185Y-88004298D01*
X79192989Y-87958543D01*
X79262147Y-87948599D01*
X79298303Y-87959617D01*
X79368863Y-87993597D01*
X79619496Y-88070908D01*
X79878856Y-88110000D01*
X80141144Y-88110000D01*
X80400503Y-88070908D01*
X80651139Y-87993596D01*
X80887456Y-87879792D01*
X81059167Y-87762720D01*
X80408609Y-87112162D01*
X80527431Y-87040669D01*
X80661658Y-86913523D01*
X80764861Y-86761308D01*
X81412124Y-87408571D01*
X81459972Y-87348572D01*
X81591117Y-87121423D01*
X81686940Y-86877270D01*
X81688696Y-86869578D01*
X115239500Y-86869578D01*
X115239501Y-86872872D01*
X115239853Y-86876152D01*
X115239854Y-86876159D01*
X115245909Y-86932484D01*
X115263906Y-86980735D01*
X115296204Y-87067331D01*
X115382454Y-87182546D01*
X115497669Y-87268796D01*
X115632517Y-87319091D01*
X115692127Y-87325500D01*
X117987872Y-87325499D01*
X118047483Y-87319091D01*
X118182331Y-87268796D01*
X118297546Y-87182546D01*
X118383796Y-87067331D01*
X118434091Y-86932483D01*
X118440500Y-86872873D01*
X118440499Y-84577128D01*
X118434091Y-84517517D01*
X118383796Y-84382669D01*
X118297546Y-84267454D01*
X118182331Y-84181204D01*
X118047483Y-84130909D01*
X117987873Y-84124500D01*
X117984551Y-84124500D01*
X117589500Y-84124500D01*
X117522461Y-84104815D01*
X117476706Y-84052011D01*
X117465500Y-84000500D01*
X117465500Y-80648356D01*
X120520335Y-80648356D01*
X120539343Y-80998958D01*
X120540069Y-81005630D01*
X120596874Y-81352130D01*
X120598317Y-81358684D01*
X120692251Y-81697001D01*
X120694396Y-81703368D01*
X120824360Y-82029552D01*
X120827169Y-82035626D01*
X120991649Y-82345868D01*
X120995102Y-82351606D01*
X121192147Y-82642225D01*
X121196207Y-82647566D01*
X121321441Y-82795003D01*
X121321442Y-82795004D01*
X122527266Y-81589180D01*
X122690130Y-81779870D01*
X122880818Y-81942732D01*
X121672255Y-83151295D01*
X121683047Y-83161518D01*
X121688157Y-83165858D01*
X121967694Y-83378357D01*
X121973240Y-83382117D01*
X122274099Y-83563137D01*
X122280038Y-83566285D01*
X122598695Y-83713712D01*
X122604937Y-83716199D01*
X122937684Y-83828315D01*
X122944129Y-83830104D01*
X123287053Y-83905588D01*
X123293677Y-83906674D01*
X123642740Y-83944636D01*
X123649437Y-83945000D01*
X124000563Y-83945000D01*
X124007259Y-83944636D01*
X124356322Y-83906674D01*
X124362946Y-83905588D01*
X124705870Y-83830104D01*
X124712315Y-83828315D01*
X125045062Y-83716199D01*
X125051304Y-83713712D01*
X125369961Y-83566285D01*
X125375900Y-83563137D01*
X125676759Y-83382117D01*
X125682305Y-83378357D01*
X125961846Y-83165856D01*
X125966950Y-83161519D01*
X125977742Y-83151296D01*
X125977743Y-83151295D01*
X124769180Y-81942733D01*
X124959870Y-81779870D01*
X125122733Y-81589180D01*
X126328556Y-82795003D01*
X126328557Y-82795003D01*
X126453792Y-82647566D01*
X126457852Y-82642225D01*
X126654897Y-82351606D01*
X126658350Y-82345868D01*
X126822830Y-82035626D01*
X126825639Y-82029552D01*
X126955603Y-81703368D01*
X126957748Y-81697001D01*
X127051682Y-81358684D01*
X127053125Y-81352130D01*
X127109930Y-81005630D01*
X127110656Y-80998958D01*
X127129664Y-80648356D01*
X127129664Y-80641643D01*
X127110656Y-80291041D01*
X127109930Y-80284369D01*
X127053125Y-79937869D01*
X127051682Y-79931315D01*
X126957748Y-79592998D01*
X126955603Y-79586631D01*
X126825639Y-79260447D01*
X126822830Y-79254373D01*
X126658350Y-78944131D01*
X126654897Y-78938393D01*
X126457852Y-78647774D01*
X126453792Y-78642433D01*
X126328557Y-78494995D01*
X126328556Y-78494994D01*
X125122732Y-79700818D01*
X124959870Y-79510130D01*
X124769180Y-79347266D01*
X125977743Y-78138703D01*
X125966942Y-78128473D01*
X125961842Y-78124141D01*
X125682305Y-77911642D01*
X125676759Y-77907882D01*
X125375900Y-77726862D01*
X125369961Y-77723714D01*
X125051304Y-77576287D01*
X125045062Y-77573800D01*
X124712315Y-77461684D01*
X124705870Y-77459895D01*
X124362946Y-77384411D01*
X124356322Y-77383325D01*
X124007259Y-77345363D01*
X124000563Y-77345000D01*
X123649437Y-77345000D01*
X123642740Y-77345363D01*
X123293677Y-77383325D01*
X123287053Y-77384411D01*
X122944129Y-77459895D01*
X122937684Y-77461684D01*
X122604937Y-77573800D01*
X122598695Y-77576287D01*
X122280038Y-77723714D01*
X122274099Y-77726862D01*
X121973240Y-77907882D01*
X121967694Y-77911642D01*
X121688149Y-78124146D01*
X121683054Y-78128474D01*
X121672256Y-78138702D01*
X121672255Y-78138703D01*
X122880819Y-79347266D01*
X122690130Y-79510130D01*
X122527266Y-79700818D01*
X121321442Y-78494994D01*
X121321441Y-78494995D01*
X121196207Y-78642433D01*
X121192147Y-78647774D01*
X120995102Y-78938393D01*
X120991649Y-78944131D01*
X120827169Y-79254373D01*
X120824360Y-79260447D01*
X120694396Y-79586631D01*
X120692251Y-79592998D01*
X120598317Y-79931315D01*
X120596874Y-79937869D01*
X120540069Y-80284369D01*
X120539343Y-80291041D01*
X120520335Y-80641643D01*
X120520335Y-80648356D01*
X117465500Y-80648356D01*
X117465500Y-78803687D01*
X117485185Y-78736648D01*
X117497350Y-78720714D01*
X117563026Y-78647774D01*
X117572533Y-78637216D01*
X117667179Y-78473284D01*
X117725674Y-78293256D01*
X117743321Y-78125345D01*
X117769905Y-78060732D01*
X117778952Y-78050636D01*
X117858786Y-77970802D01*
X117874886Y-77957905D01*
X117876874Y-77955787D01*
X117876877Y-77955786D01*
X117922964Y-77906707D01*
X117925549Y-77904039D01*
X117945120Y-77884470D01*
X117947565Y-77881316D01*
X117955154Y-77872429D01*
X117985062Y-77840582D01*
X117994713Y-77823026D01*
X118005393Y-77806767D01*
X118017674Y-77790936D01*
X118035018Y-77750851D01*
X118040160Y-77740356D01*
X118044056Y-77733270D01*
X118061197Y-77702092D01*
X118066178Y-77682688D01*
X118072480Y-77664283D01*
X118080438Y-77645895D01*
X118087270Y-77602748D01*
X118089639Y-77591315D01*
X118094398Y-77572784D01*
X118100500Y-77549019D01*
X118100499Y-77528987D01*
X118102025Y-77509591D01*
X118105160Y-77489804D01*
X118101050Y-77446324D01*
X118100500Y-77434655D01*
X118100500Y-73723687D01*
X118120185Y-73656648D01*
X118132350Y-73640714D01*
X118207533Y-73557216D01*
X118302179Y-73393284D01*
X118360674Y-73213256D01*
X118380460Y-73025000D01*
X118360674Y-72836744D01*
X118302179Y-72656716D01*
X118302179Y-72656715D01*
X118207533Y-72492783D01*
X118080870Y-72352110D01*
X117927730Y-72240848D01*
X117754802Y-72163855D01*
X117569648Y-72124500D01*
X117569646Y-72124500D01*
X117380354Y-72124500D01*
X117380352Y-72124500D01*
X117195197Y-72163855D01*
X117022269Y-72240848D01*
X116869129Y-72352110D01*
X116742466Y-72492783D01*
X116647820Y-72656715D01*
X116589326Y-72836742D01*
X116569540Y-73025000D01*
X116589326Y-73213257D01*
X116647820Y-73393284D01*
X116742464Y-73557213D01*
X116817650Y-73640714D01*
X116847880Y-73703706D01*
X116849500Y-73723687D01*
X116849500Y-77081949D01*
X116829815Y-77148988D01*
X116777011Y-77194743D01*
X116751281Y-77203239D01*
X116560197Y-77243855D01*
X116387269Y-77320848D01*
X116234129Y-77432110D01*
X116107466Y-77572783D01*
X116012820Y-77736715D01*
X115954326Y-77916742D01*
X115934540Y-78104999D01*
X115954326Y-78293257D01*
X116012820Y-78473284D01*
X116107464Y-78637213D01*
X116182650Y-78720714D01*
X116212880Y-78783706D01*
X116214500Y-78803687D01*
X116214500Y-84000500D01*
X116194815Y-84067539D01*
X116142011Y-84113294D01*
X116090500Y-84124500D01*
X115695439Y-84124500D01*
X115695420Y-84124500D01*
X115692128Y-84124501D01*
X115688848Y-84124853D01*
X115688840Y-84124854D01*
X115632515Y-84130909D01*
X115497669Y-84181204D01*
X115382454Y-84267454D01*
X115296204Y-84382668D01*
X115245910Y-84517515D01*
X115245909Y-84517517D01*
X115239500Y-84577127D01*
X115239500Y-84580448D01*
X115239500Y-84580449D01*
X115239500Y-86869560D01*
X115239500Y-86869578D01*
X81688696Y-86869578D01*
X81745306Y-86621552D01*
X81764907Y-86360000D01*
X81745306Y-86098447D01*
X81686940Y-85842729D01*
X81591117Y-85598575D01*
X81459972Y-85371426D01*
X81412125Y-85311427D01*
X80761232Y-85962319D01*
X80717684Y-85880178D01*
X80597991Y-85739265D01*
X80450805Y-85627377D01*
X80408596Y-85607849D01*
X81059167Y-84957278D01*
X80887451Y-84840205D01*
X80651139Y-84726403D01*
X80400503Y-84649091D01*
X80141144Y-84610000D01*
X79878856Y-84610000D01*
X79619496Y-84649091D01*
X79368860Y-84726403D01*
X79132545Y-84840206D01*
X78960832Y-84957278D01*
X79611391Y-85607837D01*
X79492569Y-85679331D01*
X79358342Y-85806477D01*
X79255138Y-85958691D01*
X78607874Y-85311428D01*
X78560026Y-85371428D01*
X78428882Y-85598576D01*
X78333059Y-85842729D01*
X78274693Y-86098447D01*
X78255092Y-86360000D01*
X78274693Y-86621552D01*
X78333058Y-86877264D01*
X78412703Y-87080198D01*
X78418871Y-87149795D01*
X78386433Y-87211678D01*
X78325687Y-87246201D01*
X78297274Y-87249500D01*
X76642726Y-87249500D01*
X76575687Y-87229815D01*
X76529932Y-87177011D01*
X76519988Y-87107853D01*
X76527297Y-87080198D01*
X76606941Y-86877264D01*
X76665306Y-86621552D01*
X76684907Y-86360000D01*
X76665306Y-86098447D01*
X76606940Y-85842729D01*
X76511117Y-85598575D01*
X76379972Y-85371426D01*
X76332125Y-85311427D01*
X75681232Y-85962319D01*
X75637684Y-85880178D01*
X75517991Y-85739265D01*
X75370805Y-85627377D01*
X75328596Y-85607849D01*
X75979167Y-84957278D01*
X75807451Y-84840205D01*
X75571139Y-84726403D01*
X75320503Y-84649091D01*
X75061144Y-84610000D01*
X74798856Y-84610000D01*
X74539496Y-84649091D01*
X74288860Y-84726403D01*
X74052545Y-84840206D01*
X73880832Y-84957278D01*
X74531391Y-85607837D01*
X74412569Y-85679331D01*
X74278342Y-85806477D01*
X74175138Y-85958692D01*
X73527873Y-85311427D01*
X73480028Y-85371424D01*
X73348882Y-85598576D01*
X73253059Y-85842729D01*
X73215391Y-86007766D01*
X73181282Y-86068744D01*
X73119621Y-86101602D01*
X73049983Y-86095907D01*
X72994480Y-86053467D01*
X72970732Y-85987757D01*
X72970500Y-85980173D01*
X72970500Y-84599900D01*
X72970383Y-84599618D01*
X72970383Y-84599617D01*
X72970381Y-84599616D01*
X72970001Y-84599459D01*
X72969999Y-84599459D01*
X72969618Y-84599616D01*
X72969616Y-84599618D01*
X72969500Y-84599900D01*
X72969500Y-84599901D01*
X72969500Y-93200099D01*
X72716500Y-93200099D01*
X72716500Y-80648356D01*
X86865335Y-80648356D01*
X86884343Y-80998958D01*
X86885069Y-81005630D01*
X86941874Y-81352130D01*
X86943317Y-81358684D01*
X87037251Y-81697001D01*
X87039396Y-81703368D01*
X87169360Y-82029552D01*
X87172169Y-82035626D01*
X87336649Y-82345868D01*
X87340102Y-82351606D01*
X87537147Y-82642225D01*
X87541207Y-82647566D01*
X87666441Y-82795003D01*
X87666442Y-82795004D01*
X88872266Y-81589180D01*
X89035130Y-81779870D01*
X89225818Y-81942732D01*
X88017255Y-83151295D01*
X88028047Y-83161518D01*
X88033157Y-83165858D01*
X88312694Y-83378357D01*
X88318240Y-83382117D01*
X88619099Y-83563137D01*
X88625038Y-83566285D01*
X88943695Y-83713712D01*
X88949937Y-83716199D01*
X89282684Y-83828315D01*
X89289129Y-83830104D01*
X89632053Y-83905588D01*
X89638677Y-83906674D01*
X89987740Y-83944636D01*
X89994437Y-83945000D01*
X90345563Y-83945000D01*
X90352259Y-83944636D01*
X90701322Y-83906674D01*
X90707946Y-83905588D01*
X91050870Y-83830104D01*
X91057315Y-83828315D01*
X91390062Y-83716199D01*
X91396304Y-83713712D01*
X91714961Y-83566285D01*
X91720900Y-83563137D01*
X92021759Y-83382117D01*
X92027305Y-83378357D01*
X92306846Y-83165856D01*
X92311950Y-83161519D01*
X92322742Y-83151296D01*
X92322743Y-83151295D01*
X91114180Y-81942733D01*
X91304870Y-81779870D01*
X91467733Y-81589180D01*
X92673556Y-82795003D01*
X92673557Y-82795003D01*
X92798792Y-82647566D01*
X92802852Y-82642225D01*
X92865383Y-82549999D01*
X96884540Y-82549999D01*
X96904326Y-82738257D01*
X96962820Y-82918284D01*
X97057466Y-83082216D01*
X97184129Y-83222889D01*
X97337269Y-83334151D01*
X97510197Y-83411144D01*
X97695352Y-83450500D01*
X97695354Y-83450500D01*
X97884648Y-83450500D01*
X98008083Y-83424262D01*
X98069803Y-83411144D01*
X98242730Y-83334151D01*
X98395871Y-83222888D01*
X98401598Y-83216527D01*
X98461084Y-83179879D01*
X98493747Y-83175500D01*
X100985753Y-83175500D01*
X101052792Y-83195185D01*
X101077900Y-83216526D01*
X101083629Y-83222888D01*
X101236770Y-83334151D01*
X101236771Y-83334151D01*
X101236772Y-83334152D01*
X101409697Y-83411144D01*
X101594852Y-83450500D01*
X101594854Y-83450500D01*
X101784148Y-83450500D01*
X101907584Y-83424262D01*
X101969303Y-83411144D01*
X102142230Y-83334151D01*
X102295371Y-83222888D01*
X102422033Y-83082216D01*
X102516679Y-82918284D01*
X102575174Y-82738256D01*
X102594960Y-82550000D01*
X102575174Y-82361744D01*
X102516679Y-82181716D01*
X102516679Y-82181715D01*
X102422033Y-82017783D01*
X102295370Y-81877110D01*
X102142230Y-81765848D01*
X101969302Y-81688855D01*
X101784148Y-81649500D01*
X101784146Y-81649500D01*
X101594854Y-81649500D01*
X101594852Y-81649500D01*
X101409697Y-81688855D01*
X101236772Y-81765847D01*
X101134676Y-81840024D01*
X101083629Y-81877112D01*
X101077901Y-81883472D01*
X101018416Y-81920121D01*
X100985753Y-81924500D01*
X98493747Y-81924500D01*
X98426708Y-81904815D01*
X98401599Y-81883473D01*
X98395871Y-81877112D01*
X98242730Y-81765849D01*
X98242729Y-81765848D01*
X98242727Y-81765847D01*
X98069802Y-81688855D01*
X97884648Y-81649500D01*
X97884646Y-81649500D01*
X97695354Y-81649500D01*
X97695352Y-81649500D01*
X97510197Y-81688855D01*
X97337269Y-81765848D01*
X97184129Y-81877110D01*
X97057466Y-82017783D01*
X96962820Y-82181715D01*
X96904326Y-82361742D01*
X96884540Y-82549999D01*
X92865383Y-82549999D01*
X92999897Y-82351606D01*
X93003350Y-82345868D01*
X93167830Y-82035626D01*
X93170639Y-82029552D01*
X93300603Y-81703368D01*
X93302748Y-81697001D01*
X93396682Y-81358684D01*
X93398125Y-81352130D01*
X93454930Y-81005630D01*
X93455656Y-80998958D01*
X93474664Y-80648356D01*
X93474664Y-80641643D01*
X93455656Y-80291041D01*
X93454930Y-80284369D01*
X93398125Y-79937869D01*
X93396682Y-79931315D01*
X93302748Y-79592998D01*
X93300603Y-79586631D01*
X93170639Y-79260447D01*
X93167830Y-79254373D01*
X93003350Y-78944131D01*
X92999897Y-78938393D01*
X92802852Y-78647774D01*
X92798792Y-78642433D01*
X92673557Y-78494995D01*
X92673556Y-78494994D01*
X91467732Y-79700818D01*
X91304870Y-79510130D01*
X91114180Y-79347266D01*
X92322743Y-78138703D01*
X92311942Y-78128473D01*
X92306842Y-78124141D01*
X92027305Y-77911642D01*
X92021759Y-77907882D01*
X91720900Y-77726862D01*
X91714961Y-77723714D01*
X91396304Y-77576287D01*
X91390062Y-77573800D01*
X91057315Y-77461684D01*
X91050870Y-77459895D01*
X90707946Y-77384411D01*
X90701322Y-77383325D01*
X90352259Y-77345363D01*
X90345563Y-77345000D01*
X89994437Y-77345000D01*
X89987740Y-77345363D01*
X89638677Y-77383325D01*
X89632053Y-77384411D01*
X89289129Y-77459895D01*
X89282684Y-77461684D01*
X88949937Y-77573800D01*
X88943695Y-77576287D01*
X88625038Y-77723714D01*
X88619099Y-77726862D01*
X88318240Y-77907882D01*
X88312694Y-77911642D01*
X88033149Y-78124146D01*
X88028054Y-78128474D01*
X88017256Y-78138702D01*
X88017255Y-78138703D01*
X89225819Y-79347266D01*
X89035130Y-79510130D01*
X88872266Y-79700818D01*
X87666442Y-78494994D01*
X87666441Y-78494995D01*
X87541207Y-78642433D01*
X87537147Y-78647774D01*
X87340102Y-78938393D01*
X87336649Y-78944131D01*
X87172169Y-79254373D01*
X87169360Y-79260447D01*
X87039396Y-79586631D01*
X87037251Y-79592998D01*
X86943317Y-79931315D01*
X86941874Y-79937869D01*
X86885069Y-80284369D01*
X86884343Y-80291041D01*
X86865335Y-80641643D01*
X86865335Y-80648356D01*
X72716500Y-80648356D01*
X72716500Y-78976099D01*
X72969500Y-78976099D01*
X72969617Y-78976383D01*
X72969808Y-78976462D01*
X72969999Y-78976541D01*
X72970000Y-78976541D01*
X72970001Y-78976541D01*
X72970127Y-78976488D01*
X72970383Y-78976383D01*
X72970500Y-78976099D01*
X72970500Y-77595826D01*
X72990185Y-77528787D01*
X73042989Y-77483032D01*
X73112147Y-77473088D01*
X73175703Y-77502113D01*
X73213477Y-77560891D01*
X73215391Y-77568233D01*
X73253060Y-77733270D01*
X73348882Y-77977424D01*
X73480027Y-78204573D01*
X73527873Y-78264571D01*
X73527874Y-78264571D01*
X74178766Y-77613679D01*
X74222316Y-77695822D01*
X74342009Y-77836735D01*
X74489195Y-77948623D01*
X74531402Y-77968150D01*
X73880831Y-78618720D01*
X74052546Y-78735793D01*
X74288860Y-78849596D01*
X74539496Y-78926908D01*
X74798856Y-78966000D01*
X75061144Y-78966000D01*
X75320503Y-78926908D01*
X75571139Y-78849596D01*
X75807456Y-78735792D01*
X75979167Y-78618720D01*
X75328609Y-77968161D01*
X75447431Y-77896669D01*
X75581658Y-77769523D01*
X75684861Y-77617308D01*
X76332124Y-78264571D01*
X76379972Y-78204572D01*
X76511117Y-77977423D01*
X76606940Y-77733270D01*
X76665306Y-77477552D01*
X76684907Y-77216000D01*
X76665306Y-76954447D01*
X76606941Y-76698735D01*
X76527297Y-76495802D01*
X76521129Y-76426205D01*
X76553567Y-76364322D01*
X76614313Y-76329799D01*
X76642726Y-76326500D01*
X78297274Y-76326500D01*
X78364313Y-76346185D01*
X78410068Y-76398989D01*
X78420012Y-76468147D01*
X78412703Y-76495802D01*
X78333058Y-76698735D01*
X78274693Y-76954447D01*
X78255092Y-77216000D01*
X78274693Y-77477552D01*
X78333059Y-77733270D01*
X78428882Y-77977424D01*
X78560027Y-78204573D01*
X78607873Y-78264571D01*
X79258766Y-77613678D01*
X79302316Y-77695822D01*
X79422009Y-77836735D01*
X79569195Y-77948623D01*
X79611402Y-77968150D01*
X78960831Y-78618720D01*
X79132546Y-78735793D01*
X79368860Y-78849596D01*
X79619496Y-78926908D01*
X79878856Y-78966000D01*
X80141144Y-78966000D01*
X80400503Y-78926908D01*
X80651139Y-78849596D01*
X80887456Y-78735792D01*
X81059167Y-78618720D01*
X80408609Y-77968161D01*
X80527431Y-77896669D01*
X80661658Y-77769523D01*
X80764861Y-77617308D01*
X81412124Y-78264571D01*
X81459972Y-78204572D01*
X81591117Y-77977423D01*
X81686940Y-77733270D01*
X81745306Y-77477552D01*
X81764907Y-77216000D01*
X81745306Y-76954447D01*
X81686940Y-76698729D01*
X81591117Y-76454575D01*
X81459972Y-76227426D01*
X81412125Y-76167427D01*
X80761232Y-76818319D01*
X80717684Y-76736178D01*
X80597991Y-76595265D01*
X80450805Y-76483377D01*
X80408596Y-76463849D01*
X81059167Y-75813278D01*
X80887451Y-75696205D01*
X80651139Y-75582403D01*
X80400503Y-75505091D01*
X80141144Y-75466000D01*
X79878856Y-75466000D01*
X79619496Y-75505091D01*
X79368857Y-75582404D01*
X79298301Y-75616382D01*
X79229360Y-75627734D01*
X79165226Y-75600012D01*
X79126260Y-75542016D01*
X79120500Y-75504662D01*
X79120500Y-73847337D01*
X79140185Y-73780298D01*
X79192989Y-73734543D01*
X79262147Y-73724599D01*
X79298303Y-73735617D01*
X79368863Y-73769597D01*
X79619496Y-73846908D01*
X79878856Y-73886000D01*
X80141144Y-73886000D01*
X80400503Y-73846908D01*
X80651139Y-73769596D01*
X80887456Y-73655792D01*
X81059167Y-73538720D01*
X80408609Y-72888162D01*
X80527431Y-72816669D01*
X80661658Y-72689523D01*
X80764861Y-72537308D01*
X81412124Y-73184571D01*
X81459972Y-73124572D01*
X81591117Y-72897423D01*
X81686940Y-72653270D01*
X81745306Y-72397552D01*
X81764907Y-72136000D01*
X81745306Y-71874447D01*
X81686940Y-71618729D01*
X81591117Y-71374575D01*
X81459972Y-71147426D01*
X81412125Y-71087427D01*
X80761232Y-71738319D01*
X80717684Y-71656178D01*
X80597991Y-71515265D01*
X80450805Y-71403377D01*
X80408596Y-71383849D01*
X81059167Y-70733278D01*
X80887451Y-70616205D01*
X80651139Y-70502403D01*
X80400503Y-70425091D01*
X80141144Y-70386000D01*
X79878856Y-70386000D01*
X79619496Y-70425091D01*
X79368860Y-70502403D01*
X79132545Y-70616206D01*
X78960832Y-70733278D01*
X79611391Y-71383837D01*
X79492569Y-71455331D01*
X79358342Y-71582477D01*
X79255138Y-71734691D01*
X78607874Y-71087428D01*
X78560026Y-71147428D01*
X78428882Y-71374576D01*
X78333059Y-71618729D01*
X78274693Y-71874447D01*
X78255092Y-72136000D01*
X78274693Y-72397552D01*
X78333058Y-72653264D01*
X78412703Y-72856198D01*
X78418871Y-72925795D01*
X78386433Y-72987678D01*
X78325687Y-73022201D01*
X78297274Y-73025500D01*
X76642726Y-73025500D01*
X76575687Y-73005815D01*
X76529932Y-72953011D01*
X76519988Y-72883853D01*
X76527297Y-72856198D01*
X76606941Y-72653264D01*
X76665306Y-72397552D01*
X76684907Y-72136000D01*
X76665306Y-71874447D01*
X76606940Y-71618729D01*
X76511117Y-71374575D01*
X76379972Y-71147426D01*
X76332125Y-71087427D01*
X75681232Y-71738319D01*
X75637684Y-71656178D01*
X75517991Y-71515265D01*
X75370805Y-71403377D01*
X75328596Y-71383849D01*
X75979167Y-70733278D01*
X75807451Y-70616205D01*
X75571139Y-70502403D01*
X75320503Y-70425091D01*
X75061144Y-70386000D01*
X74798856Y-70386000D01*
X74539496Y-70425091D01*
X74288860Y-70502403D01*
X74052545Y-70616206D01*
X73880832Y-70733278D01*
X74531391Y-71383837D01*
X74412569Y-71455331D01*
X74278342Y-71582477D01*
X74175138Y-71734692D01*
X73527873Y-71087427D01*
X73480028Y-71147424D01*
X73348882Y-71374576D01*
X73253059Y-71618729D01*
X73215391Y-71783766D01*
X73181282Y-71844744D01*
X73119621Y-71877602D01*
X73049983Y-71871907D01*
X72994480Y-71829467D01*
X72970732Y-71763757D01*
X72970500Y-71756173D01*
X72970500Y-70375900D01*
X72970383Y-70375618D01*
X72970383Y-70375617D01*
X72970381Y-70375616D01*
X72970001Y-70375459D01*
X72969999Y-70375459D01*
X72969618Y-70375616D01*
X72969616Y-70375618D01*
X72969500Y-70375900D01*
X72969500Y-70375901D01*
X72969500Y-78976099D01*
X72716500Y-78976099D01*
X72716500Y-67310000D01*
X99335040Y-67310000D01*
X99354826Y-67498257D01*
X99413320Y-67678284D01*
X99507966Y-67842216D01*
X99634629Y-67982889D01*
X99787769Y-68094151D01*
X99960697Y-68171144D01*
X100145852Y-68210500D01*
X100294547Y-68210500D01*
X100361586Y-68230185D01*
X100382228Y-68246819D01*
X101296038Y-69160629D01*
X101329523Y-69221952D01*
X101331678Y-69235348D01*
X101349326Y-69403257D01*
X101407820Y-69583284D01*
X101502466Y-69747216D01*
X101629129Y-69887889D01*
X101782269Y-69999151D01*
X101955197Y-70076144D01*
X102140352Y-70115500D01*
X102140354Y-70115500D01*
X102329648Y-70115500D01*
X102453083Y-70089262D01*
X102514803Y-70076144D01*
X102687730Y-69999151D01*
X102840871Y-69887888D01*
X102967533Y-69747216D01*
X103062179Y-69583284D01*
X103120674Y-69403256D01*
X103140460Y-69215000D01*
X103120674Y-69026744D01*
X103062179Y-68846716D01*
X103062179Y-68846715D01*
X102967533Y-68682783D01*
X102840870Y-68542110D01*
X102687730Y-68430848D01*
X102514802Y-68353855D01*
X102329648Y-68314500D01*
X102329646Y-68314500D01*
X102270452Y-68314500D01*
X102203413Y-68294815D01*
X102182771Y-68278181D01*
X101849589Y-67944999D01*
X111039340Y-67944999D01*
X111059936Y-68180407D01*
X111086135Y-68278181D01*
X111121097Y-68408663D01*
X111220965Y-68622830D01*
X111356505Y-68816401D01*
X111523599Y-68983495D01*
X111717170Y-69119035D01*
X111931337Y-69218903D01*
X112159592Y-69280063D01*
X112395000Y-69300659D01*
X112630408Y-69280063D01*
X112858663Y-69218903D01*
X113072830Y-69119035D01*
X113266401Y-68983495D01*
X113433495Y-68816401D01*
X113563426Y-68630839D01*
X113618002Y-68587216D01*
X113687500Y-68580022D01*
X113749855Y-68611545D01*
X113766571Y-68630837D01*
X113896505Y-68816401D01*
X114063599Y-68983495D01*
X114257170Y-69119035D01*
X114471337Y-69218903D01*
X114699592Y-69280062D01*
X114699592Y-69280063D01*
X114934999Y-69300659D01*
X114934999Y-69300658D01*
X114935000Y-69300659D01*
X115170408Y-69280063D01*
X115398663Y-69218903D01*
X115612830Y-69119035D01*
X115806401Y-68983495D01*
X115928329Y-68861566D01*
X115989648Y-68828084D01*
X116059340Y-68833068D01*
X116115274Y-68874939D01*
X116132189Y-68905916D01*
X116181204Y-69037331D01*
X116267454Y-69152546D01*
X116382669Y-69238796D01*
X116517517Y-69289091D01*
X116577127Y-69295500D01*
X118372872Y-69295499D01*
X118432483Y-69289091D01*
X118567331Y-69238796D01*
X118682546Y-69152546D01*
X118768796Y-69037331D01*
X118819091Y-68902483D01*
X118825500Y-68842873D01*
X118825500Y-68321000D01*
X125136340Y-68321000D01*
X125156936Y-68556407D01*
X125190799Y-68682784D01*
X125218097Y-68784663D01*
X125317965Y-68998830D01*
X125453505Y-69192401D01*
X125620599Y-69359495D01*
X125814170Y-69495035D01*
X126028337Y-69594903D01*
X126256592Y-69656063D01*
X126492000Y-69676659D01*
X126727408Y-69656063D01*
X126955663Y-69594903D01*
X127169830Y-69495035D01*
X127363401Y-69359495D01*
X127530495Y-69192401D01*
X127666035Y-68998830D01*
X127765903Y-68784663D01*
X127827063Y-68556408D01*
X127847659Y-68321000D01*
X127827063Y-68085592D01*
X127765903Y-67857337D01*
X127666035Y-67643171D01*
X127530495Y-67449599D01*
X127408180Y-67327284D01*
X127374696Y-67265962D01*
X127379680Y-67196270D01*
X127421552Y-67140337D01*
X127452528Y-67123422D01*
X127584089Y-67074352D01*
X127699188Y-66988188D01*
X127785352Y-66873089D01*
X127835599Y-66738371D01*
X127841645Y-66682132D01*
X127842000Y-66675518D01*
X127842000Y-66031000D01*
X126925686Y-66031000D01*
X126951493Y-65990844D01*
X126992000Y-65852889D01*
X126992000Y-65709111D01*
X126951493Y-65571156D01*
X126925686Y-65531000D01*
X127842000Y-65531000D01*
X127842000Y-64886481D01*
X127841645Y-64879867D01*
X127835599Y-64823628D01*
X127785352Y-64688910D01*
X127699188Y-64573811D01*
X127584089Y-64487647D01*
X127449371Y-64437400D01*
X127393132Y-64431354D01*
X127386518Y-64431000D01*
X126742000Y-64431000D01*
X126742000Y-65345498D01*
X126634315Y-65296320D01*
X126527763Y-65281000D01*
X126456237Y-65281000D01*
X126349685Y-65296320D01*
X126242000Y-65345498D01*
X126242000Y-64431000D01*
X125597482Y-64431000D01*
X125590867Y-64431354D01*
X125534628Y-64437400D01*
X125399910Y-64487647D01*
X125284811Y-64573811D01*
X125198647Y-64688910D01*
X125148400Y-64823628D01*
X125142354Y-64879867D01*
X125142000Y-64886481D01*
X125142000Y-65531000D01*
X126058314Y-65531000D01*
X126032507Y-65571156D01*
X125992000Y-65709111D01*
X125992000Y-65852889D01*
X126032507Y-65990844D01*
X126058314Y-66031000D01*
X125142000Y-66031000D01*
X125142000Y-66675518D01*
X125142354Y-66682132D01*
X125148400Y-66738371D01*
X125198647Y-66873089D01*
X125284811Y-66988188D01*
X125399911Y-67074352D01*
X125531471Y-67123422D01*
X125587404Y-67165294D01*
X125611821Y-67230758D01*
X125596969Y-67299031D01*
X125575819Y-67327285D01*
X125453503Y-67449601D01*
X125317965Y-67643170D01*
X125218097Y-67857336D01*
X125156936Y-68085592D01*
X125136340Y-68321000D01*
X118825500Y-68321000D01*
X118825499Y-67047128D01*
X118819091Y-66987517D01*
X118768796Y-66852669D01*
X118682546Y-66737454D01*
X118567331Y-66651204D01*
X118432483Y-66600909D01*
X118372873Y-66594500D01*
X118369550Y-66594500D01*
X116580439Y-66594500D01*
X116580420Y-66594500D01*
X116577128Y-66594501D01*
X116573848Y-66594853D01*
X116573840Y-66594854D01*
X116517515Y-66600909D01*
X116382669Y-66651204D01*
X116267454Y-66737454D01*
X116181204Y-66852669D01*
X116132189Y-66984083D01*
X116090317Y-67040016D01*
X116024852Y-67064433D01*
X115956580Y-67049581D01*
X115928326Y-67028430D01*
X115806404Y-66906508D01*
X115806403Y-66906508D01*
X115806401Y-66906505D01*
X115612830Y-66770965D01*
X115398663Y-66671097D01*
X115337502Y-66654709D01*
X115170407Y-66609936D01*
X114934999Y-66589340D01*
X114699592Y-66609936D01*
X114471336Y-66671097D01*
X114257170Y-66770965D01*
X114063598Y-66906505D01*
X113896505Y-67073598D01*
X113766575Y-67259159D01*
X113711998Y-67302784D01*
X113642500Y-67309978D01*
X113580145Y-67278455D01*
X113563425Y-67259159D01*
X113433494Y-67073598D01*
X113266404Y-66906508D01*
X113266401Y-66906505D01*
X113072830Y-66770965D01*
X112858663Y-66671097D01*
X112797501Y-66654709D01*
X112630407Y-66609936D01*
X112395000Y-66589340D01*
X112159592Y-66609936D01*
X111931336Y-66671097D01*
X111717170Y-66770965D01*
X111523598Y-66906505D01*
X111356505Y-67073598D01*
X111220965Y-67267170D01*
X111121097Y-67481336D01*
X111059936Y-67709592D01*
X111039340Y-67944999D01*
X101849589Y-67944999D01*
X101168949Y-67264358D01*
X101135464Y-67203035D01*
X101133309Y-67189637D01*
X101126174Y-67121742D01*
X101067679Y-66941715D01*
X100973033Y-66777783D01*
X100846370Y-66637110D01*
X100693230Y-66525848D01*
X100520302Y-66448855D01*
X100335148Y-66409500D01*
X100335146Y-66409500D01*
X100145854Y-66409500D01*
X100145852Y-66409500D01*
X99960697Y-66448855D01*
X99787769Y-66525848D01*
X99634629Y-66637110D01*
X99507966Y-66777783D01*
X99413320Y-66941715D01*
X99354826Y-67121742D01*
X99335040Y-67310000D01*
X72716500Y-67310000D01*
X72716500Y-65260099D01*
X72969500Y-65260099D01*
X72969617Y-65260383D01*
X72969808Y-65260462D01*
X72969999Y-65260541D01*
X72970000Y-65260541D01*
X72970001Y-65260541D01*
X72970127Y-65260488D01*
X72970383Y-65260383D01*
X72970500Y-65260099D01*
X72970500Y-63879826D01*
X72990185Y-63812787D01*
X73042989Y-63767032D01*
X73112147Y-63757088D01*
X73175703Y-63786113D01*
X73213477Y-63844891D01*
X73215391Y-63852233D01*
X73253060Y-64017270D01*
X73348882Y-64261424D01*
X73480027Y-64488573D01*
X73527873Y-64548571D01*
X73527874Y-64548571D01*
X74178766Y-63897679D01*
X74222316Y-63979822D01*
X74342009Y-64120735D01*
X74489195Y-64232623D01*
X74531402Y-64252150D01*
X73880831Y-64902720D01*
X74052546Y-65019793D01*
X74288860Y-65133596D01*
X74539496Y-65210908D01*
X74798856Y-65250000D01*
X75061144Y-65250000D01*
X75320503Y-65210908D01*
X75571139Y-65133596D01*
X75807456Y-65019792D01*
X75979167Y-64902720D01*
X75328609Y-64252161D01*
X75447431Y-64180669D01*
X75581658Y-64053523D01*
X75684861Y-63901308D01*
X76332124Y-64548571D01*
X76379972Y-64488572D01*
X76511117Y-64261423D01*
X76606940Y-64017270D01*
X76665306Y-63761552D01*
X76684907Y-63500000D01*
X76665306Y-63238447D01*
X76606941Y-62982735D01*
X76527297Y-62779802D01*
X76521129Y-62710205D01*
X76553567Y-62648322D01*
X76614313Y-62613799D01*
X76642726Y-62610500D01*
X78297274Y-62610500D01*
X78364313Y-62630185D01*
X78410068Y-62682989D01*
X78420012Y-62752147D01*
X78412703Y-62779802D01*
X78333058Y-62982735D01*
X78274693Y-63238447D01*
X78255092Y-63500000D01*
X78274693Y-63761552D01*
X78333059Y-64017270D01*
X78428882Y-64261424D01*
X78560027Y-64488573D01*
X78607873Y-64548571D01*
X79258766Y-63897678D01*
X79302316Y-63979822D01*
X79422009Y-64120735D01*
X79569195Y-64232623D01*
X79611402Y-64252150D01*
X78960831Y-64902720D01*
X79132546Y-65019793D01*
X79368860Y-65133596D01*
X79619496Y-65210908D01*
X79878856Y-65250000D01*
X80141144Y-65250000D01*
X80400503Y-65210908D01*
X80651139Y-65133596D01*
X80887456Y-65019792D01*
X81059167Y-64902720D01*
X80408609Y-64252161D01*
X80527431Y-64180669D01*
X80661658Y-64053523D01*
X80764861Y-63901308D01*
X81412124Y-64548571D01*
X81459972Y-64488572D01*
X81591117Y-64261423D01*
X81686940Y-64017270D01*
X81745306Y-63761552D01*
X81764907Y-63500000D01*
X81745306Y-63238447D01*
X81686940Y-62982729D01*
X81591117Y-62738575D01*
X81459972Y-62511426D01*
X81412125Y-62451427D01*
X80761232Y-63102319D01*
X80717684Y-63020178D01*
X80597991Y-62879265D01*
X80450805Y-62767377D01*
X80408596Y-62747849D01*
X81059167Y-62097278D01*
X80887451Y-61980205D01*
X80651139Y-61866403D01*
X80400503Y-61789091D01*
X80141144Y-61750000D01*
X79878856Y-61750000D01*
X79619496Y-61789091D01*
X79368857Y-61866404D01*
X79298301Y-61900382D01*
X79229360Y-61911734D01*
X79165226Y-61884012D01*
X79126260Y-61826016D01*
X79120500Y-61788662D01*
X79120500Y-60328356D01*
X102105335Y-60328356D01*
X102124343Y-60678958D01*
X102125069Y-60685630D01*
X102181874Y-61032130D01*
X102183317Y-61038684D01*
X102277251Y-61377001D01*
X102279396Y-61383368D01*
X102409360Y-61709552D01*
X102412169Y-61715626D01*
X102576649Y-62025868D01*
X102580102Y-62031606D01*
X102777147Y-62322225D01*
X102781207Y-62327566D01*
X102906441Y-62475003D01*
X102906442Y-62475004D01*
X104112266Y-61269180D01*
X104275130Y-61459870D01*
X104465818Y-61622732D01*
X103257255Y-62831295D01*
X103268047Y-62841518D01*
X103273157Y-62845858D01*
X103552694Y-63058357D01*
X103558240Y-63062117D01*
X103859099Y-63243137D01*
X103865038Y-63246285D01*
X104183695Y-63393712D01*
X104189937Y-63396199D01*
X104522684Y-63508315D01*
X104529129Y-63510104D01*
X104872053Y-63585588D01*
X104878677Y-63586674D01*
X105227740Y-63624636D01*
X105234437Y-63625000D01*
X105585563Y-63625000D01*
X105592259Y-63624636D01*
X105941322Y-63586674D01*
X105947946Y-63585588D01*
X106290870Y-63510104D01*
X106297315Y-63508315D01*
X106630062Y-63396199D01*
X106636304Y-63393712D01*
X106954961Y-63246285D01*
X106960900Y-63243137D01*
X107261759Y-63062117D01*
X107267305Y-63058357D01*
X107546846Y-62845856D01*
X107551950Y-62841519D01*
X107562742Y-62831296D01*
X107562743Y-62831295D01*
X106354180Y-61622733D01*
X106544870Y-61459870D01*
X106707733Y-61269180D01*
X107913556Y-62475003D01*
X107913557Y-62475003D01*
X108038792Y-62327566D01*
X108042852Y-62322225D01*
X108239897Y-62031606D01*
X108243350Y-62025868D01*
X108407830Y-61715626D01*
X108410639Y-61709552D01*
X108540603Y-61383368D01*
X108542748Y-61377001D01*
X108636682Y-61038684D01*
X108638125Y-61032130D01*
X108694930Y-60685630D01*
X108695656Y-60678958D01*
X108714664Y-60328356D01*
X108714664Y-60321643D01*
X108695656Y-59971041D01*
X108694930Y-59964369D01*
X108638125Y-59617869D01*
X108636682Y-59611315D01*
X108542748Y-59272998D01*
X108540603Y-59266631D01*
X108410639Y-58940447D01*
X108407830Y-58934373D01*
X108267668Y-58670000D01*
X113604364Y-58670000D01*
X113661569Y-58883492D01*
X113761399Y-59097576D01*
X113896893Y-59291081D01*
X114063918Y-59458106D01*
X114257423Y-59593600D01*
X114471509Y-59693430D01*
X114685000Y-59750634D01*
X114685000Y-58855501D01*
X114792685Y-58904680D01*
X114899237Y-58920000D01*
X114970763Y-58920000D01*
X115077315Y-58904680D01*
X115185000Y-58855501D01*
X115185000Y-59750633D01*
X115398490Y-59693430D01*
X115612576Y-59593600D01*
X115806077Y-59458109D01*
X115928133Y-59336053D01*
X115989456Y-59302568D01*
X116059148Y-59307552D01*
X116115082Y-59349423D01*
X116131996Y-59380399D01*
X116181204Y-59512331D01*
X116267454Y-59627546D01*
X116382669Y-59713796D01*
X116517517Y-59764091D01*
X116577127Y-59770500D01*
X118372872Y-59770499D01*
X118432483Y-59764091D01*
X118567331Y-59713796D01*
X118682546Y-59627546D01*
X118730432Y-59563578D01*
X125141500Y-59563578D01*
X125141501Y-59566872D01*
X125147909Y-59626483D01*
X125198204Y-59761331D01*
X125284454Y-59876546D01*
X125399669Y-59962796D01*
X125531598Y-60012002D01*
X125587532Y-60053873D01*
X125611949Y-60119337D01*
X125597097Y-60187610D01*
X125575947Y-60215865D01*
X125453888Y-60337924D01*
X125318400Y-60531421D01*
X125218569Y-60745507D01*
X125161364Y-60958999D01*
X125161364Y-60959000D01*
X126058314Y-60959000D01*
X126032507Y-60999156D01*
X125992000Y-61137111D01*
X125992000Y-61280889D01*
X126032507Y-61418844D01*
X126058314Y-61459000D01*
X125161364Y-61459000D01*
X125218569Y-61672492D01*
X125318399Y-61886576D01*
X125453893Y-62080081D01*
X125620918Y-62247106D01*
X125814423Y-62382600D01*
X126028509Y-62482430D01*
X126242000Y-62539634D01*
X126242000Y-61644501D01*
X126349685Y-61693680D01*
X126456237Y-61709000D01*
X126527763Y-61709000D01*
X126634315Y-61693680D01*
X126742000Y-61644501D01*
X126742000Y-62539633D01*
X126955490Y-62482430D01*
X127169576Y-62382600D01*
X127363081Y-62247106D01*
X127530106Y-62080081D01*
X127665600Y-61886576D01*
X127765430Y-61672492D01*
X127822636Y-61459000D01*
X126925686Y-61459000D01*
X126951493Y-61418844D01*
X126992000Y-61280889D01*
X126992000Y-61137111D01*
X126951493Y-60999156D01*
X126925686Y-60959000D01*
X127822636Y-60959000D01*
X127822635Y-60958999D01*
X127765430Y-60745507D01*
X127665599Y-60531421D01*
X127530109Y-60337921D01*
X127408053Y-60215865D01*
X127374568Y-60154542D01*
X127379552Y-60084850D01*
X127421424Y-60028917D01*
X127452397Y-60012004D01*
X127584331Y-59962796D01*
X127699546Y-59876546D01*
X127785796Y-59761331D01*
X127836091Y-59626483D01*
X127842500Y-59566873D01*
X127842499Y-57771128D01*
X127836091Y-57711517D01*
X127785796Y-57576669D01*
X127699546Y-57461454D01*
X127584331Y-57375204D01*
X127449483Y-57324909D01*
X127389873Y-57318500D01*
X127386550Y-57318500D01*
X125597439Y-57318500D01*
X125597420Y-57318500D01*
X125594128Y-57318501D01*
X125590848Y-57318853D01*
X125590840Y-57318854D01*
X125534515Y-57324909D01*
X125399669Y-57375204D01*
X125284454Y-57461454D01*
X125198204Y-57576668D01*
X125147909Y-57711516D01*
X125144919Y-57739331D01*
X125141500Y-57771127D01*
X125141500Y-57774448D01*
X125141500Y-57774449D01*
X125141500Y-59563560D01*
X125141500Y-59563578D01*
X118730432Y-59563578D01*
X118768796Y-59512331D01*
X118819091Y-59377483D01*
X118825500Y-59317873D01*
X118825499Y-57522128D01*
X118819091Y-57462517D01*
X118768796Y-57327669D01*
X118682546Y-57212454D01*
X118567331Y-57126204D01*
X118432483Y-57075909D01*
X118372873Y-57069500D01*
X118369550Y-57069500D01*
X116580439Y-57069500D01*
X116580420Y-57069500D01*
X116577128Y-57069501D01*
X116573848Y-57069853D01*
X116573840Y-57069854D01*
X116517515Y-57075909D01*
X116382669Y-57126204D01*
X116267454Y-57212454D01*
X116181204Y-57327669D01*
X116131997Y-57459599D01*
X116090125Y-57515532D01*
X116024661Y-57539949D01*
X115956388Y-57525097D01*
X115928134Y-57503946D01*
X115806081Y-57381893D01*
X115612576Y-57246399D01*
X115398492Y-57146569D01*
X115185000Y-57089364D01*
X115185000Y-57984498D01*
X115077315Y-57935320D01*
X114970763Y-57920000D01*
X114899237Y-57920000D01*
X114792685Y-57935320D01*
X114685000Y-57984498D01*
X114685000Y-57089364D01*
X114684999Y-57089364D01*
X114471507Y-57146569D01*
X114257421Y-57246400D01*
X114063921Y-57381890D01*
X113896890Y-57548921D01*
X113761400Y-57742421D01*
X113661569Y-57956507D01*
X113604364Y-58169999D01*
X113604364Y-58170000D01*
X114501314Y-58170000D01*
X114475507Y-58210156D01*
X114435000Y-58348111D01*
X114435000Y-58491889D01*
X114475507Y-58629844D01*
X114501314Y-58670000D01*
X113604364Y-58670000D01*
X108267668Y-58670000D01*
X108243350Y-58624131D01*
X108239897Y-58618393D01*
X108042852Y-58327774D01*
X108038792Y-58322433D01*
X107913557Y-58174995D01*
X107913556Y-58174994D01*
X106707732Y-59380818D01*
X106544870Y-59190130D01*
X106354180Y-59027266D01*
X107562743Y-57818703D01*
X107551942Y-57808473D01*
X107546842Y-57804141D01*
X107267305Y-57591642D01*
X107261759Y-57587882D01*
X106960900Y-57406862D01*
X106954961Y-57403714D01*
X106636304Y-57256287D01*
X106630062Y-57253800D01*
X106297315Y-57141684D01*
X106290870Y-57139895D01*
X105947946Y-57064411D01*
X105941322Y-57063325D01*
X105592259Y-57025363D01*
X105585563Y-57025000D01*
X105234437Y-57025000D01*
X105227740Y-57025363D01*
X104878677Y-57063325D01*
X104872053Y-57064411D01*
X104529129Y-57139895D01*
X104522684Y-57141684D01*
X104189937Y-57253800D01*
X104183695Y-57256287D01*
X103865038Y-57403714D01*
X103859099Y-57406862D01*
X103558240Y-57587882D01*
X103552694Y-57591642D01*
X103273149Y-57804146D01*
X103268054Y-57808474D01*
X103257256Y-57818702D01*
X103257255Y-57818703D01*
X104465819Y-59027266D01*
X104275130Y-59190130D01*
X104112266Y-59380818D01*
X102906442Y-58174994D01*
X102906441Y-58174995D01*
X102781207Y-58322433D01*
X102777147Y-58327774D01*
X102580102Y-58618393D01*
X102576649Y-58624131D01*
X102412169Y-58934373D01*
X102409360Y-58940447D01*
X102279396Y-59266631D01*
X102277251Y-59272998D01*
X102183317Y-59611315D01*
X102181874Y-59617869D01*
X102125069Y-59964369D01*
X102124343Y-59971041D01*
X102105335Y-60321643D01*
X102105335Y-60328356D01*
X79120500Y-60328356D01*
X79120500Y-60131337D01*
X79140185Y-60064298D01*
X79192989Y-60018543D01*
X79262147Y-60008599D01*
X79298303Y-60019617D01*
X79368863Y-60053597D01*
X79619496Y-60130908D01*
X79878856Y-60170000D01*
X80141144Y-60170000D01*
X80400503Y-60130908D01*
X80651139Y-60053596D01*
X80887456Y-59939792D01*
X81059167Y-59822720D01*
X80408609Y-59172162D01*
X80527431Y-59100669D01*
X80661658Y-58973523D01*
X80764861Y-58821308D01*
X81412124Y-59468571D01*
X81459972Y-59408572D01*
X81591117Y-59181423D01*
X81686940Y-58937270D01*
X81745306Y-58681552D01*
X81764907Y-58420000D01*
X81745306Y-58158447D01*
X81686940Y-57902729D01*
X81591117Y-57658575D01*
X81459972Y-57431426D01*
X81412125Y-57371427D01*
X80761232Y-58022319D01*
X80717684Y-57940178D01*
X80597991Y-57799265D01*
X80450805Y-57687377D01*
X80408596Y-57667849D01*
X81059167Y-57017278D01*
X80887451Y-56900205D01*
X80651139Y-56786403D01*
X80400503Y-56709091D01*
X80141144Y-56670000D01*
X79878856Y-56670000D01*
X79619496Y-56709091D01*
X79368860Y-56786403D01*
X79132545Y-56900206D01*
X78960832Y-57017278D01*
X79611391Y-57667837D01*
X79492569Y-57739331D01*
X79358342Y-57866477D01*
X79255138Y-58018691D01*
X78607874Y-57371428D01*
X78560026Y-57431428D01*
X78428882Y-57658576D01*
X78333059Y-57902729D01*
X78274693Y-58158447D01*
X78255092Y-58420000D01*
X78274693Y-58681552D01*
X78333058Y-58937264D01*
X78412703Y-59140198D01*
X78418871Y-59209795D01*
X78386433Y-59271678D01*
X78325687Y-59306201D01*
X78297274Y-59309500D01*
X76642726Y-59309500D01*
X76575687Y-59289815D01*
X76529932Y-59237011D01*
X76519988Y-59167853D01*
X76527297Y-59140198D01*
X76606941Y-58937264D01*
X76665306Y-58681552D01*
X76684907Y-58420000D01*
X76665306Y-58158447D01*
X76606940Y-57902729D01*
X76511117Y-57658575D01*
X76379972Y-57431426D01*
X76332125Y-57371427D01*
X75681232Y-58022319D01*
X75637684Y-57940178D01*
X75517991Y-57799265D01*
X75370805Y-57687377D01*
X75328596Y-57667849D01*
X75979167Y-57017278D01*
X75807451Y-56900205D01*
X75571139Y-56786403D01*
X75320503Y-56709091D01*
X75061144Y-56670000D01*
X74798856Y-56670000D01*
X74539496Y-56709091D01*
X74288860Y-56786403D01*
X74052545Y-56900206D01*
X73880832Y-57017278D01*
X74531391Y-57667837D01*
X74412569Y-57739331D01*
X74278342Y-57866477D01*
X74175138Y-58018692D01*
X73527873Y-57371427D01*
X73480028Y-57431424D01*
X73348882Y-57658576D01*
X73253059Y-57902729D01*
X73215391Y-58067766D01*
X73181282Y-58128744D01*
X73119621Y-58161602D01*
X73049983Y-58155907D01*
X72994480Y-58113467D01*
X72970732Y-58047757D01*
X72970500Y-58040173D01*
X72970500Y-56659900D01*
X72970383Y-56659618D01*
X72970383Y-56659617D01*
X72970381Y-56659616D01*
X72970001Y-56659459D01*
X72969999Y-56659459D01*
X72969618Y-56659616D01*
X72969616Y-56659618D01*
X72969500Y-56659900D01*
X72969500Y-56659901D01*
X72969500Y-65260099D01*
X72716500Y-65260099D01*
X72716500Y-56004500D01*
X72736185Y-55937461D01*
X72788989Y-55891706D01*
X72840500Y-55880500D01*
X128145500Y-55880500D01*
X128212539Y-55900185D01*
G37*
G04 #@! TD.AperFunction*
G04 #@! TA.AperFunction,Conductor*
G36*
X72921703Y-105696113D02*
G01*
X72959477Y-105754891D01*
X72961391Y-105762233D01*
X72999060Y-105927270D01*
X73094882Y-106171424D01*
X73226027Y-106398573D01*
X73273873Y-106458571D01*
X73924766Y-105807678D01*
X73968316Y-105889822D01*
X74088009Y-106030735D01*
X74235195Y-106142623D01*
X74277402Y-106162150D01*
X73626831Y-106812720D01*
X73798549Y-106929795D01*
X73806825Y-106933781D01*
X73858684Y-106980604D01*
X73876996Y-107048031D01*
X73855947Y-107114655D01*
X73802220Y-107159322D01*
X73753022Y-107169500D01*
X72840500Y-107169500D01*
X72773461Y-107149815D01*
X72727706Y-107097011D01*
X72716500Y-107045500D01*
X72716500Y-105789826D01*
X72736185Y-105722787D01*
X72788989Y-105677032D01*
X72858147Y-105667088D01*
X72921703Y-105696113D01*
G37*
G04 #@! TD.AperFunction*
G04 #@! TA.AperFunction,Conductor*
G36*
X72921703Y-100616113D02*
G01*
X72959477Y-100674891D01*
X72961391Y-100682233D01*
X72999060Y-100847270D01*
X73094882Y-101091424D01*
X73226027Y-101318573D01*
X73273873Y-101378571D01*
X73924766Y-100727678D01*
X73968316Y-100809822D01*
X74088009Y-100950735D01*
X74235195Y-101062623D01*
X74277402Y-101082150D01*
X73626831Y-101732720D01*
X73798546Y-101849793D01*
X74034860Y-101963596D01*
X74285496Y-102040908D01*
X74544856Y-102080000D01*
X74807144Y-102080000D01*
X75066503Y-102040908D01*
X75317136Y-101963597D01*
X75387697Y-101929617D01*
X75456639Y-101918265D01*
X75520773Y-101945986D01*
X75559739Y-102003981D01*
X75565500Y-102041337D01*
X75565500Y-103698662D01*
X75545815Y-103765701D01*
X75493011Y-103811456D01*
X75423853Y-103821400D01*
X75387699Y-103810382D01*
X75317142Y-103776404D01*
X75066503Y-103699091D01*
X74807144Y-103660000D01*
X74544856Y-103660000D01*
X74285496Y-103699091D01*
X74034860Y-103776403D01*
X73798545Y-103890206D01*
X73626831Y-104007278D01*
X74277390Y-104657837D01*
X74158569Y-104729331D01*
X74024342Y-104856477D01*
X73921138Y-105008691D01*
X73273874Y-104361428D01*
X73226026Y-104421428D01*
X73094882Y-104648576D01*
X72999059Y-104892729D01*
X72961391Y-105057766D01*
X72927282Y-105118744D01*
X72865621Y-105151602D01*
X72795983Y-105145907D01*
X72740480Y-105103467D01*
X72716732Y-105037757D01*
X72716500Y-105030173D01*
X72716500Y-100709826D01*
X72736185Y-100642787D01*
X72788989Y-100597032D01*
X72858147Y-100587088D01*
X72921703Y-100616113D01*
G37*
G04 #@! TD.AperFunction*
G04 #@! TA.AperFunction,Conductor*
G36*
X78110313Y-104540185D02*
G01*
X78156068Y-104592989D01*
X78166012Y-104662147D01*
X78158703Y-104689802D01*
X78079058Y-104892735D01*
X78020693Y-105148447D01*
X78001092Y-105410000D01*
X78020693Y-105671552D01*
X78079059Y-105927270D01*
X78174882Y-106171424D01*
X78306027Y-106398573D01*
X78353873Y-106458571D01*
X79004766Y-105807678D01*
X79048316Y-105889822D01*
X79168009Y-106030735D01*
X79315195Y-106142623D01*
X79357402Y-106162150D01*
X78706831Y-106812720D01*
X78878549Y-106929795D01*
X78886825Y-106933781D01*
X78938684Y-106980604D01*
X78956996Y-107048031D01*
X78935947Y-107114655D01*
X78882220Y-107159322D01*
X78833022Y-107169500D01*
X75598978Y-107169500D01*
X75531939Y-107149815D01*
X75486184Y-107097011D01*
X75476240Y-107027853D01*
X75505265Y-106964297D01*
X75545178Y-106933779D01*
X75553456Y-106929792D01*
X75725167Y-106812720D01*
X75074609Y-106162161D01*
X75193431Y-106090669D01*
X75327658Y-105963523D01*
X75430861Y-105811308D01*
X76078124Y-106458571D01*
X76125972Y-106398572D01*
X76257117Y-106171423D01*
X76352940Y-105927270D01*
X76411306Y-105671552D01*
X76430907Y-105410000D01*
X76411306Y-105148447D01*
X76352941Y-104892735D01*
X76273297Y-104689802D01*
X76267129Y-104620205D01*
X76299567Y-104558322D01*
X76360313Y-104523799D01*
X76388726Y-104520500D01*
X78043274Y-104520500D01*
X78110313Y-104540185D01*
G37*
G04 #@! TD.AperFunction*
G04 #@! TD*
M02*
