G04 #@! TF.GenerationSoftware,KiCad,Pcbnew,7.0.2*
G04 #@! TF.CreationDate,2024-02-08T16:58:34+01:00*
G04 #@! TF.ProjectId,FilterAndHalfBuffer,46696c74-6572-4416-9e64-48616c664275,rev?*
G04 #@! TF.SameCoordinates,Original*
G04 #@! TF.FileFunction,Legend,Top*
G04 #@! TF.FilePolarity,Positive*
%FSLAX46Y46*%
G04 Gerber Fmt 4.6, Leading zero omitted, Abs format (unit mm)*
G04 Created by KiCad (PCBNEW 7.0.2) date 2024-02-08 16:58:34*
%MOMM*%
%LPD*%
G01*
G04 APERTURE LIST*
%ADD10C,0.150000*%
%ADD11C,0.120000*%
G04 APERTURE END LIST*
D10*
X109369904Y-80835476D02*
X110169904Y-80835476D01*
X110208000Y-81787856D02*
X109179428Y-81102142D01*
X109293714Y-82587856D02*
X109331809Y-82511666D01*
X109331809Y-82511666D02*
X109408000Y-82435475D01*
X109408000Y-82435475D02*
X109522285Y-82321189D01*
X109522285Y-82321189D02*
X109560380Y-82244999D01*
X109560380Y-82244999D02*
X109560380Y-82168808D01*
X109369904Y-82206904D02*
X109408000Y-82130713D01*
X109408000Y-82130713D02*
X109484190Y-82054523D01*
X109484190Y-82054523D02*
X109636571Y-82016427D01*
X109636571Y-82016427D02*
X109903238Y-82016427D01*
X109903238Y-82016427D02*
X110055619Y-82054523D01*
X110055619Y-82054523D02*
X110131809Y-82130713D01*
X110131809Y-82130713D02*
X110169904Y-82206904D01*
X110169904Y-82206904D02*
X110169904Y-82359285D01*
X110169904Y-82359285D02*
X110131809Y-82435475D01*
X110131809Y-82435475D02*
X110055619Y-82511666D01*
X110055619Y-82511666D02*
X109903238Y-82549761D01*
X109903238Y-82549761D02*
X109636571Y-82549761D01*
X109636571Y-82549761D02*
X109484190Y-82511666D01*
X109484190Y-82511666D02*
X109408000Y-82435475D01*
X109408000Y-82435475D02*
X109369904Y-82359285D01*
X109369904Y-82359285D02*
X109369904Y-82206904D01*
X109598476Y-83464046D02*
X109598476Y-83844999D01*
X109369904Y-83387856D02*
X110169904Y-83654523D01*
X110169904Y-83654523D02*
X109369904Y-83921189D01*
X109369904Y-84187856D02*
X110169904Y-84187856D01*
X110169904Y-84187856D02*
X110169904Y-84378332D01*
X110169904Y-84378332D02*
X110131809Y-84492618D01*
X110131809Y-84492618D02*
X110055619Y-84568808D01*
X110055619Y-84568808D02*
X109979428Y-84606903D01*
X109979428Y-84606903D02*
X109827047Y-84644999D01*
X109827047Y-84644999D02*
X109712761Y-84644999D01*
X109712761Y-84644999D02*
X109560380Y-84606903D01*
X109560380Y-84606903D02*
X109484190Y-84568808D01*
X109484190Y-84568808D02*
X109408000Y-84492618D01*
X109408000Y-84492618D02*
X109369904Y-84378332D01*
X109369904Y-84378332D02*
X109369904Y-84187856D01*
X109446095Y-85444999D02*
X109408000Y-85406903D01*
X109408000Y-85406903D02*
X109369904Y-85292618D01*
X109369904Y-85292618D02*
X109369904Y-85216427D01*
X109369904Y-85216427D02*
X109408000Y-85102141D01*
X109408000Y-85102141D02*
X109484190Y-85025951D01*
X109484190Y-85025951D02*
X109560380Y-84987856D01*
X109560380Y-84987856D02*
X109712761Y-84949760D01*
X109712761Y-84949760D02*
X109827047Y-84949760D01*
X109827047Y-84949760D02*
X109979428Y-84987856D01*
X109979428Y-84987856D02*
X110055619Y-85025951D01*
X110055619Y-85025951D02*
X110131809Y-85102141D01*
X110131809Y-85102141D02*
X110169904Y-85216427D01*
X110169904Y-85216427D02*
X110169904Y-85292618D01*
X110169904Y-85292618D02*
X110131809Y-85406903D01*
X110131809Y-85406903D02*
X110093714Y-85444999D01*
X109369904Y-86397380D02*
X110169904Y-86397380D01*
X110169904Y-86397380D02*
X110169904Y-86702142D01*
X110169904Y-86702142D02*
X110131809Y-86778332D01*
X110131809Y-86778332D02*
X110093714Y-86816427D01*
X110093714Y-86816427D02*
X110017523Y-86854523D01*
X110017523Y-86854523D02*
X109903238Y-86854523D01*
X109903238Y-86854523D02*
X109827047Y-86816427D01*
X109827047Y-86816427D02*
X109788952Y-86778332D01*
X109788952Y-86778332D02*
X109750857Y-86702142D01*
X109750857Y-86702142D02*
X109750857Y-86397380D01*
X109369904Y-87197380D02*
X109903238Y-87197380D01*
X109750857Y-87197380D02*
X109827047Y-87235475D01*
X109827047Y-87235475D02*
X109865142Y-87273570D01*
X109865142Y-87273570D02*
X109903238Y-87349761D01*
X109903238Y-87349761D02*
X109903238Y-87425951D01*
X109408000Y-87997380D02*
X109369904Y-87921189D01*
X109369904Y-87921189D02*
X109369904Y-87768808D01*
X109369904Y-87768808D02*
X109408000Y-87692618D01*
X109408000Y-87692618D02*
X109484190Y-87654522D01*
X109484190Y-87654522D02*
X109788952Y-87654522D01*
X109788952Y-87654522D02*
X109865142Y-87692618D01*
X109865142Y-87692618D02*
X109903238Y-87768808D01*
X109903238Y-87768808D02*
X109903238Y-87921189D01*
X109903238Y-87921189D02*
X109865142Y-87997380D01*
X109865142Y-87997380D02*
X109788952Y-88035475D01*
X109788952Y-88035475D02*
X109712761Y-88035475D01*
X109712761Y-88035475D02*
X109636571Y-87654522D01*
X109903238Y-88264046D02*
X109903238Y-88568808D01*
X109369904Y-88378332D02*
X110055619Y-88378332D01*
X110055619Y-88378332D02*
X110131809Y-88416427D01*
X110131809Y-88416427D02*
X110169904Y-88492617D01*
X110169904Y-88492617D02*
X110169904Y-88568808D01*
X109369904Y-88835475D02*
X109903238Y-88835475D01*
X110169904Y-88835475D02*
X110131809Y-88797379D01*
X110131809Y-88797379D02*
X110093714Y-88835475D01*
X110093714Y-88835475D02*
X110131809Y-88873570D01*
X110131809Y-88873570D02*
X110169904Y-88835475D01*
X110169904Y-88835475D02*
X110093714Y-88835475D01*
X109369904Y-89330712D02*
X109408000Y-89254522D01*
X109408000Y-89254522D02*
X109484190Y-89216427D01*
X109484190Y-89216427D02*
X110169904Y-89216427D01*
X109903238Y-89521189D02*
X109903238Y-89825951D01*
X110169904Y-89635475D02*
X109484190Y-89635475D01*
X109484190Y-89635475D02*
X109408000Y-89673570D01*
X109408000Y-89673570D02*
X109369904Y-89749760D01*
X109369904Y-89749760D02*
X109369904Y-89825951D01*
X109408000Y-90397380D02*
X109369904Y-90321189D01*
X109369904Y-90321189D02*
X109369904Y-90168808D01*
X109369904Y-90168808D02*
X109408000Y-90092618D01*
X109408000Y-90092618D02*
X109484190Y-90054522D01*
X109484190Y-90054522D02*
X109788952Y-90054522D01*
X109788952Y-90054522D02*
X109865142Y-90092618D01*
X109865142Y-90092618D02*
X109903238Y-90168808D01*
X109903238Y-90168808D02*
X109903238Y-90321189D01*
X109903238Y-90321189D02*
X109865142Y-90397380D01*
X109865142Y-90397380D02*
X109788952Y-90435475D01*
X109788952Y-90435475D02*
X109712761Y-90435475D01*
X109712761Y-90435475D02*
X109636571Y-90054522D01*
X109369904Y-90778332D02*
X109903238Y-90778332D01*
X109750857Y-90778332D02*
X109827047Y-90816427D01*
X109827047Y-90816427D02*
X109865142Y-90854522D01*
X109865142Y-90854522D02*
X109903238Y-90930713D01*
X109903238Y-90930713D02*
X109903238Y-91006903D01*
X109369904Y-92225951D02*
X109788952Y-92225951D01*
X109788952Y-92225951D02*
X109865142Y-92187856D01*
X109865142Y-92187856D02*
X109903238Y-92111665D01*
X109903238Y-92111665D02*
X109903238Y-91959284D01*
X109903238Y-91959284D02*
X109865142Y-91883094D01*
X109408000Y-92225951D02*
X109369904Y-92149760D01*
X109369904Y-92149760D02*
X109369904Y-91959284D01*
X109369904Y-91959284D02*
X109408000Y-91883094D01*
X109408000Y-91883094D02*
X109484190Y-91844998D01*
X109484190Y-91844998D02*
X109560380Y-91844998D01*
X109560380Y-91844998D02*
X109636571Y-91883094D01*
X109636571Y-91883094D02*
X109674666Y-91959284D01*
X109674666Y-91959284D02*
X109674666Y-92149760D01*
X109674666Y-92149760D02*
X109712761Y-92225951D01*
X109903238Y-92606904D02*
X109369904Y-92606904D01*
X109827047Y-92606904D02*
X109865142Y-92644999D01*
X109865142Y-92644999D02*
X109903238Y-92721189D01*
X109903238Y-92721189D02*
X109903238Y-92835475D01*
X109903238Y-92835475D02*
X109865142Y-92911666D01*
X109865142Y-92911666D02*
X109788952Y-92949761D01*
X109788952Y-92949761D02*
X109369904Y-92949761D01*
X109369904Y-93673571D02*
X110169904Y-93673571D01*
X109408000Y-93673571D02*
X109369904Y-93597380D01*
X109369904Y-93597380D02*
X109369904Y-93444999D01*
X109369904Y-93444999D02*
X109408000Y-93368809D01*
X109408000Y-93368809D02*
X109446095Y-93330714D01*
X109446095Y-93330714D02*
X109522285Y-93292618D01*
X109522285Y-93292618D02*
X109750857Y-93292618D01*
X109750857Y-93292618D02*
X109827047Y-93330714D01*
X109827047Y-93330714D02*
X109865142Y-93368809D01*
X109865142Y-93368809D02*
X109903238Y-93444999D01*
X109903238Y-93444999D02*
X109903238Y-93597380D01*
X109903238Y-93597380D02*
X109865142Y-93673571D01*
X109369904Y-95083095D02*
X109369904Y-94625952D01*
X109369904Y-94854524D02*
X110169904Y-94854524D01*
X110169904Y-94854524D02*
X110055619Y-94778333D01*
X110055619Y-94778333D02*
X109979428Y-94702143D01*
X109979428Y-94702143D02*
X109941333Y-94625952D01*
X109446095Y-95425953D02*
X109408000Y-95464048D01*
X109408000Y-95464048D02*
X109369904Y-95425953D01*
X109369904Y-95425953D02*
X109408000Y-95387857D01*
X109408000Y-95387857D02*
X109446095Y-95425953D01*
X109446095Y-95425953D02*
X109369904Y-95425953D01*
X109865142Y-95425953D02*
X109827047Y-95464048D01*
X109827047Y-95464048D02*
X109788952Y-95425953D01*
X109788952Y-95425953D02*
X109827047Y-95387857D01*
X109827047Y-95387857D02*
X109865142Y-95425953D01*
X109865142Y-95425953D02*
X109788952Y-95425953D01*
X110093714Y-95768809D02*
X110131809Y-95806905D01*
X110131809Y-95806905D02*
X110169904Y-95883095D01*
X110169904Y-95883095D02*
X110169904Y-96073571D01*
X110169904Y-96073571D02*
X110131809Y-96149762D01*
X110131809Y-96149762D02*
X110093714Y-96187857D01*
X110093714Y-96187857D02*
X110017523Y-96225952D01*
X110017523Y-96225952D02*
X109941333Y-96225952D01*
X109941333Y-96225952D02*
X109827047Y-96187857D01*
X109827047Y-96187857D02*
X109369904Y-95730714D01*
X109369904Y-95730714D02*
X109369904Y-96225952D01*
X109369904Y-97521191D02*
X110169904Y-97521191D01*
X109408000Y-97521191D02*
X109369904Y-97445000D01*
X109369904Y-97445000D02*
X109369904Y-97292619D01*
X109369904Y-97292619D02*
X109408000Y-97216429D01*
X109408000Y-97216429D02*
X109446095Y-97178334D01*
X109446095Y-97178334D02*
X109522285Y-97140238D01*
X109522285Y-97140238D02*
X109750857Y-97140238D01*
X109750857Y-97140238D02*
X109827047Y-97178334D01*
X109827047Y-97178334D02*
X109865142Y-97216429D01*
X109865142Y-97216429D02*
X109903238Y-97292619D01*
X109903238Y-97292619D02*
X109903238Y-97445000D01*
X109903238Y-97445000D02*
X109865142Y-97521191D01*
X109369904Y-97902144D02*
X109903238Y-97902144D01*
X110169904Y-97902144D02*
X110131809Y-97864048D01*
X110131809Y-97864048D02*
X110093714Y-97902144D01*
X110093714Y-97902144D02*
X110131809Y-97940239D01*
X110131809Y-97940239D02*
X110169904Y-97902144D01*
X110169904Y-97902144D02*
X110093714Y-97902144D01*
X109903238Y-98206905D02*
X109369904Y-98397381D01*
X109369904Y-98397381D02*
X109903238Y-98587858D01*
X109369904Y-98892620D02*
X109903238Y-98892620D01*
X110169904Y-98892620D02*
X110131809Y-98854524D01*
X110131809Y-98854524D02*
X110093714Y-98892620D01*
X110093714Y-98892620D02*
X110131809Y-98930715D01*
X110131809Y-98930715D02*
X110169904Y-98892620D01*
X110169904Y-98892620D02*
X110093714Y-98892620D01*
X109369904Y-99616429D02*
X110169904Y-99616429D01*
X109408000Y-99616429D02*
X109369904Y-99540238D01*
X109369904Y-99540238D02*
X109369904Y-99387857D01*
X109369904Y-99387857D02*
X109408000Y-99311667D01*
X109408000Y-99311667D02*
X109446095Y-99273572D01*
X109446095Y-99273572D02*
X109522285Y-99235476D01*
X109522285Y-99235476D02*
X109750857Y-99235476D01*
X109750857Y-99235476D02*
X109827047Y-99273572D01*
X109827047Y-99273572D02*
X109865142Y-99311667D01*
X109865142Y-99311667D02*
X109903238Y-99387857D01*
X109903238Y-99387857D02*
X109903238Y-99540238D01*
X109903238Y-99540238D02*
X109865142Y-99616429D01*
X109408000Y-100302144D02*
X109369904Y-100225953D01*
X109369904Y-100225953D02*
X109369904Y-100073572D01*
X109369904Y-100073572D02*
X109408000Y-99997382D01*
X109408000Y-99997382D02*
X109484190Y-99959286D01*
X109484190Y-99959286D02*
X109788952Y-99959286D01*
X109788952Y-99959286D02*
X109865142Y-99997382D01*
X109865142Y-99997382D02*
X109903238Y-100073572D01*
X109903238Y-100073572D02*
X109903238Y-100225953D01*
X109903238Y-100225953D02*
X109865142Y-100302144D01*
X109865142Y-100302144D02*
X109788952Y-100340239D01*
X109788952Y-100340239D02*
X109712761Y-100340239D01*
X109712761Y-100340239D02*
X109636571Y-99959286D01*
X109369904Y-100683096D02*
X109903238Y-100683096D01*
X109750857Y-100683096D02*
X109827047Y-100721191D01*
X109827047Y-100721191D02*
X109865142Y-100759286D01*
X109865142Y-100759286D02*
X109903238Y-100835477D01*
X109903238Y-100835477D02*
X109903238Y-100911667D01*
X108873904Y-80721190D02*
X108873904Y-81178333D01*
X108073904Y-80949761D02*
X108873904Y-80949761D01*
X108073904Y-81445000D02*
X108873904Y-81445000D01*
X108073904Y-81787857D02*
X108492952Y-81787857D01*
X108492952Y-81787857D02*
X108569142Y-81749762D01*
X108569142Y-81749762D02*
X108607238Y-81673571D01*
X108607238Y-81673571D02*
X108607238Y-81559285D01*
X108607238Y-81559285D02*
X108569142Y-81483095D01*
X108569142Y-81483095D02*
X108531047Y-81445000D01*
X108073904Y-82283095D02*
X108112000Y-82206905D01*
X108112000Y-82206905D02*
X108150095Y-82168810D01*
X108150095Y-82168810D02*
X108226285Y-82130714D01*
X108226285Y-82130714D02*
X108454857Y-82130714D01*
X108454857Y-82130714D02*
X108531047Y-82168810D01*
X108531047Y-82168810D02*
X108569142Y-82206905D01*
X108569142Y-82206905D02*
X108607238Y-82283095D01*
X108607238Y-82283095D02*
X108607238Y-82397381D01*
X108607238Y-82397381D02*
X108569142Y-82473572D01*
X108569142Y-82473572D02*
X108531047Y-82511667D01*
X108531047Y-82511667D02*
X108454857Y-82549762D01*
X108454857Y-82549762D02*
X108226285Y-82549762D01*
X108226285Y-82549762D02*
X108150095Y-82511667D01*
X108150095Y-82511667D02*
X108112000Y-82473572D01*
X108112000Y-82473572D02*
X108073904Y-82397381D01*
X108073904Y-82397381D02*
X108073904Y-82283095D01*
X108073904Y-82892620D02*
X108607238Y-82892620D01*
X108531047Y-82892620D02*
X108569142Y-82930715D01*
X108569142Y-82930715D02*
X108607238Y-83006905D01*
X108607238Y-83006905D02*
X108607238Y-83121191D01*
X108607238Y-83121191D02*
X108569142Y-83197382D01*
X108569142Y-83197382D02*
X108492952Y-83235477D01*
X108492952Y-83235477D02*
X108073904Y-83235477D01*
X108492952Y-83235477D02*
X108569142Y-83273572D01*
X108569142Y-83273572D02*
X108607238Y-83349763D01*
X108607238Y-83349763D02*
X108607238Y-83464048D01*
X108607238Y-83464048D02*
X108569142Y-83540239D01*
X108569142Y-83540239D02*
X108492952Y-83578334D01*
X108492952Y-83578334D02*
X108073904Y-83578334D01*
X108073904Y-84302144D02*
X108492952Y-84302144D01*
X108492952Y-84302144D02*
X108569142Y-84264049D01*
X108569142Y-84264049D02*
X108607238Y-84187858D01*
X108607238Y-84187858D02*
X108607238Y-84035477D01*
X108607238Y-84035477D02*
X108569142Y-83959287D01*
X108112000Y-84302144D02*
X108073904Y-84225953D01*
X108073904Y-84225953D02*
X108073904Y-84035477D01*
X108073904Y-84035477D02*
X108112000Y-83959287D01*
X108112000Y-83959287D02*
X108188190Y-83921191D01*
X108188190Y-83921191D02*
X108264380Y-83921191D01*
X108264380Y-83921191D02*
X108340571Y-83959287D01*
X108340571Y-83959287D02*
X108378666Y-84035477D01*
X108378666Y-84035477D02*
X108378666Y-84225953D01*
X108378666Y-84225953D02*
X108416761Y-84302144D01*
X108112000Y-84645001D02*
X108073904Y-84721192D01*
X108073904Y-84721192D02*
X108073904Y-84873573D01*
X108073904Y-84873573D02*
X108112000Y-84949763D01*
X108112000Y-84949763D02*
X108188190Y-84987859D01*
X108188190Y-84987859D02*
X108226285Y-84987859D01*
X108226285Y-84987859D02*
X108302476Y-84949763D01*
X108302476Y-84949763D02*
X108340571Y-84873573D01*
X108340571Y-84873573D02*
X108340571Y-84759287D01*
X108340571Y-84759287D02*
X108378666Y-84683097D01*
X108378666Y-84683097D02*
X108454857Y-84645001D01*
X108454857Y-84645001D02*
X108492952Y-84645001D01*
X108492952Y-84645001D02*
X108569142Y-84683097D01*
X108569142Y-84683097D02*
X108607238Y-84759287D01*
X108607238Y-84759287D02*
X108607238Y-84873573D01*
X108607238Y-84873573D02*
X108569142Y-84949763D01*
X108112000Y-85902144D02*
X108073904Y-86016430D01*
X108073904Y-86016430D02*
X108073904Y-86206906D01*
X108073904Y-86206906D02*
X108112000Y-86283097D01*
X108112000Y-86283097D02*
X108150095Y-86321192D01*
X108150095Y-86321192D02*
X108226285Y-86359287D01*
X108226285Y-86359287D02*
X108302476Y-86359287D01*
X108302476Y-86359287D02*
X108378666Y-86321192D01*
X108378666Y-86321192D02*
X108416761Y-86283097D01*
X108416761Y-86283097D02*
X108454857Y-86206906D01*
X108454857Y-86206906D02*
X108492952Y-86054525D01*
X108492952Y-86054525D02*
X108531047Y-85978335D01*
X108531047Y-85978335D02*
X108569142Y-85940240D01*
X108569142Y-85940240D02*
X108645333Y-85902144D01*
X108645333Y-85902144D02*
X108721523Y-85902144D01*
X108721523Y-85902144D02*
X108797714Y-85940240D01*
X108797714Y-85940240D02*
X108835809Y-85978335D01*
X108835809Y-85978335D02*
X108873904Y-86054525D01*
X108873904Y-86054525D02*
X108873904Y-86245002D01*
X108873904Y-86245002D02*
X108835809Y-86359287D01*
X108607238Y-86702145D02*
X107807238Y-86702145D01*
X108569142Y-86702145D02*
X108607238Y-86778335D01*
X108607238Y-86778335D02*
X108607238Y-86930716D01*
X108607238Y-86930716D02*
X108569142Y-87006907D01*
X108569142Y-87006907D02*
X108531047Y-87045002D01*
X108531047Y-87045002D02*
X108454857Y-87083097D01*
X108454857Y-87083097D02*
X108226285Y-87083097D01*
X108226285Y-87083097D02*
X108150095Y-87045002D01*
X108150095Y-87045002D02*
X108112000Y-87006907D01*
X108112000Y-87006907D02*
X108073904Y-86930716D01*
X108073904Y-86930716D02*
X108073904Y-86778335D01*
X108073904Y-86778335D02*
X108112000Y-86702145D01*
X108073904Y-87425955D02*
X108607238Y-87425955D01*
X108873904Y-87425955D02*
X108835809Y-87387859D01*
X108835809Y-87387859D02*
X108797714Y-87425955D01*
X108797714Y-87425955D02*
X108835809Y-87464050D01*
X108835809Y-87464050D02*
X108873904Y-87425955D01*
X108873904Y-87425955D02*
X108797714Y-87425955D01*
X108112000Y-88111669D02*
X108073904Y-88035478D01*
X108073904Y-88035478D02*
X108073904Y-87883097D01*
X108073904Y-87883097D02*
X108112000Y-87806907D01*
X108112000Y-87806907D02*
X108188190Y-87768811D01*
X108188190Y-87768811D02*
X108492952Y-87768811D01*
X108492952Y-87768811D02*
X108569142Y-87806907D01*
X108569142Y-87806907D02*
X108607238Y-87883097D01*
X108607238Y-87883097D02*
X108607238Y-88035478D01*
X108607238Y-88035478D02*
X108569142Y-88111669D01*
X108569142Y-88111669D02*
X108492952Y-88149764D01*
X108492952Y-88149764D02*
X108416761Y-88149764D01*
X108416761Y-88149764D02*
X108340571Y-87768811D01*
X108073904Y-88606906D02*
X108112000Y-88530716D01*
X108112000Y-88530716D02*
X108188190Y-88492621D01*
X108188190Y-88492621D02*
X108873904Y-88492621D01*
X108073904Y-89254526D02*
X108492952Y-89254526D01*
X108492952Y-89254526D02*
X108569142Y-89216431D01*
X108569142Y-89216431D02*
X108607238Y-89140240D01*
X108607238Y-89140240D02*
X108607238Y-88987859D01*
X108607238Y-88987859D02*
X108569142Y-88911669D01*
X108112000Y-89254526D02*
X108073904Y-89178335D01*
X108073904Y-89178335D02*
X108073904Y-88987859D01*
X108073904Y-88987859D02*
X108112000Y-88911669D01*
X108112000Y-88911669D02*
X108188190Y-88873573D01*
X108188190Y-88873573D02*
X108264380Y-88873573D01*
X108264380Y-88873573D02*
X108340571Y-88911669D01*
X108340571Y-88911669D02*
X108378666Y-88987859D01*
X108378666Y-88987859D02*
X108378666Y-89178335D01*
X108378666Y-89178335D02*
X108416761Y-89254526D01*
X108607238Y-89978336D02*
X108073904Y-89978336D01*
X108607238Y-89635479D02*
X108188190Y-89635479D01*
X108188190Y-89635479D02*
X108112000Y-89673574D01*
X108112000Y-89673574D02*
X108073904Y-89749764D01*
X108073904Y-89749764D02*
X108073904Y-89864050D01*
X108073904Y-89864050D02*
X108112000Y-89940241D01*
X108112000Y-89940241D02*
X108150095Y-89978336D01*
X108112000Y-90664051D02*
X108073904Y-90587860D01*
X108073904Y-90587860D02*
X108073904Y-90435479D01*
X108073904Y-90435479D02*
X108112000Y-90359289D01*
X108112000Y-90359289D02*
X108188190Y-90321193D01*
X108188190Y-90321193D02*
X108492952Y-90321193D01*
X108492952Y-90321193D02*
X108569142Y-90359289D01*
X108569142Y-90359289D02*
X108607238Y-90435479D01*
X108607238Y-90435479D02*
X108607238Y-90587860D01*
X108607238Y-90587860D02*
X108569142Y-90664051D01*
X108569142Y-90664051D02*
X108492952Y-90702146D01*
X108492952Y-90702146D02*
X108416761Y-90702146D01*
X108416761Y-90702146D02*
X108340571Y-90321193D01*
X108073904Y-91045003D02*
X108607238Y-91045003D01*
X108454857Y-91045003D02*
X108531047Y-91083098D01*
X108531047Y-91083098D02*
X108569142Y-91121193D01*
X108569142Y-91121193D02*
X108607238Y-91197384D01*
X108607238Y-91197384D02*
X108607238Y-91273574D01*
X107769142Y-92378336D02*
X107807238Y-92340241D01*
X107807238Y-92340241D02*
X107921523Y-92264050D01*
X107921523Y-92264050D02*
X107997714Y-92225955D01*
X107997714Y-92225955D02*
X108112000Y-92187860D01*
X108112000Y-92187860D02*
X108302476Y-92149765D01*
X108302476Y-92149765D02*
X108454857Y-92149765D01*
X108454857Y-92149765D02*
X108645333Y-92187860D01*
X108645333Y-92187860D02*
X108759619Y-92225955D01*
X108759619Y-92225955D02*
X108835809Y-92264050D01*
X108835809Y-92264050D02*
X108950095Y-92340241D01*
X108950095Y-92340241D02*
X108988190Y-92378336D01*
X108607238Y-92568812D02*
X108607238Y-92873574D01*
X108873904Y-92683098D02*
X108188190Y-92683098D01*
X108188190Y-92683098D02*
X108112000Y-92721193D01*
X108112000Y-92721193D02*
X108073904Y-92797383D01*
X108073904Y-92797383D02*
X108073904Y-92873574D01*
X108112000Y-93102145D02*
X108073904Y-93178336D01*
X108073904Y-93178336D02*
X108073904Y-93330717D01*
X108073904Y-93330717D02*
X108112000Y-93406907D01*
X108112000Y-93406907D02*
X108188190Y-93445003D01*
X108188190Y-93445003D02*
X108226285Y-93445003D01*
X108226285Y-93445003D02*
X108302476Y-93406907D01*
X108302476Y-93406907D02*
X108340571Y-93330717D01*
X108340571Y-93330717D02*
X108340571Y-93216431D01*
X108340571Y-93216431D02*
X108378666Y-93140241D01*
X108378666Y-93140241D02*
X108454857Y-93102145D01*
X108454857Y-93102145D02*
X108492952Y-93102145D01*
X108492952Y-93102145D02*
X108569142Y-93140241D01*
X108569142Y-93140241D02*
X108607238Y-93216431D01*
X108607238Y-93216431D02*
X108607238Y-93330717D01*
X108607238Y-93330717D02*
X108569142Y-93406907D01*
X108607238Y-93787860D02*
X107807238Y-93787860D01*
X108569142Y-93787860D02*
X108607238Y-93864050D01*
X108607238Y-93864050D02*
X108607238Y-94016431D01*
X108607238Y-94016431D02*
X108569142Y-94092622D01*
X108569142Y-94092622D02*
X108531047Y-94130717D01*
X108531047Y-94130717D02*
X108454857Y-94168812D01*
X108454857Y-94168812D02*
X108226285Y-94168812D01*
X108226285Y-94168812D02*
X108150095Y-94130717D01*
X108150095Y-94130717D02*
X108112000Y-94092622D01*
X108112000Y-94092622D02*
X108073904Y-94016431D01*
X108073904Y-94016431D02*
X108073904Y-93864050D01*
X108073904Y-93864050D02*
X108112000Y-93787860D01*
X108073904Y-94511670D02*
X108607238Y-94511670D01*
X108873904Y-94511670D02*
X108835809Y-94473574D01*
X108835809Y-94473574D02*
X108797714Y-94511670D01*
X108797714Y-94511670D02*
X108835809Y-94549765D01*
X108835809Y-94549765D02*
X108873904Y-94511670D01*
X108873904Y-94511670D02*
X108797714Y-94511670D01*
X108150095Y-94892622D02*
X108112000Y-94930717D01*
X108112000Y-94930717D02*
X108073904Y-94892622D01*
X108073904Y-94892622D02*
X108112000Y-94854526D01*
X108112000Y-94854526D02*
X108150095Y-94892622D01*
X108150095Y-94892622D02*
X108073904Y-94892622D01*
X108073904Y-95616431D02*
X108492952Y-95616431D01*
X108492952Y-95616431D02*
X108569142Y-95578336D01*
X108569142Y-95578336D02*
X108607238Y-95502145D01*
X108607238Y-95502145D02*
X108607238Y-95349764D01*
X108607238Y-95349764D02*
X108569142Y-95273574D01*
X108112000Y-95616431D02*
X108073904Y-95540240D01*
X108073904Y-95540240D02*
X108073904Y-95349764D01*
X108073904Y-95349764D02*
X108112000Y-95273574D01*
X108112000Y-95273574D02*
X108188190Y-95235478D01*
X108188190Y-95235478D02*
X108264380Y-95235478D01*
X108264380Y-95235478D02*
X108340571Y-95273574D01*
X108340571Y-95273574D02*
X108378666Y-95349764D01*
X108378666Y-95349764D02*
X108378666Y-95540240D01*
X108378666Y-95540240D02*
X108416761Y-95616431D01*
X108607238Y-95883098D02*
X108607238Y-96187860D01*
X108873904Y-95997384D02*
X108188190Y-95997384D01*
X108188190Y-95997384D02*
X108112000Y-96035479D01*
X108112000Y-96035479D02*
X108073904Y-96111669D01*
X108073904Y-96111669D02*
X108073904Y-96187860D01*
X107769142Y-96378336D02*
X107807238Y-96416431D01*
X107807238Y-96416431D02*
X107921523Y-96492622D01*
X107921523Y-96492622D02*
X107997714Y-96530717D01*
X107997714Y-96530717D02*
X108112000Y-96568812D01*
X108112000Y-96568812D02*
X108302476Y-96606908D01*
X108302476Y-96606908D02*
X108454857Y-96606908D01*
X108454857Y-96606908D02*
X108645333Y-96568812D01*
X108645333Y-96568812D02*
X108759619Y-96530717D01*
X108759619Y-96530717D02*
X108835809Y-96492622D01*
X108835809Y-96492622D02*
X108950095Y-96416431D01*
X108950095Y-96416431D02*
X108988190Y-96378336D01*
X107501714Y-80797380D02*
X107539809Y-80835476D01*
X107539809Y-80835476D02*
X107577904Y-80911666D01*
X107577904Y-80911666D02*
X107577904Y-81102142D01*
X107577904Y-81102142D02*
X107539809Y-81178333D01*
X107539809Y-81178333D02*
X107501714Y-81216428D01*
X107501714Y-81216428D02*
X107425523Y-81254523D01*
X107425523Y-81254523D02*
X107349333Y-81254523D01*
X107349333Y-81254523D02*
X107235047Y-81216428D01*
X107235047Y-81216428D02*
X106777904Y-80759285D01*
X106777904Y-80759285D02*
X106777904Y-81254523D01*
X107577904Y-81749762D02*
X107577904Y-81825952D01*
X107577904Y-81825952D02*
X107539809Y-81902143D01*
X107539809Y-81902143D02*
X107501714Y-81940238D01*
X107501714Y-81940238D02*
X107425523Y-81978333D01*
X107425523Y-81978333D02*
X107273142Y-82016428D01*
X107273142Y-82016428D02*
X107082666Y-82016428D01*
X107082666Y-82016428D02*
X106930285Y-81978333D01*
X106930285Y-81978333D02*
X106854095Y-81940238D01*
X106854095Y-81940238D02*
X106816000Y-81902143D01*
X106816000Y-81902143D02*
X106777904Y-81825952D01*
X106777904Y-81825952D02*
X106777904Y-81749762D01*
X106777904Y-81749762D02*
X106816000Y-81673571D01*
X106816000Y-81673571D02*
X106854095Y-81635476D01*
X106854095Y-81635476D02*
X106930285Y-81597381D01*
X106930285Y-81597381D02*
X107082666Y-81559285D01*
X107082666Y-81559285D02*
X107273142Y-81559285D01*
X107273142Y-81559285D02*
X107425523Y-81597381D01*
X107425523Y-81597381D02*
X107501714Y-81635476D01*
X107501714Y-81635476D02*
X107539809Y-81673571D01*
X107539809Y-81673571D02*
X107577904Y-81749762D01*
X107501714Y-82321190D02*
X107539809Y-82359286D01*
X107539809Y-82359286D02*
X107577904Y-82435476D01*
X107577904Y-82435476D02*
X107577904Y-82625952D01*
X107577904Y-82625952D02*
X107539809Y-82702143D01*
X107539809Y-82702143D02*
X107501714Y-82740238D01*
X107501714Y-82740238D02*
X107425523Y-82778333D01*
X107425523Y-82778333D02*
X107349333Y-82778333D01*
X107349333Y-82778333D02*
X107235047Y-82740238D01*
X107235047Y-82740238D02*
X106777904Y-82283095D01*
X106777904Y-82283095D02*
X106777904Y-82778333D01*
X107311238Y-83464048D02*
X106777904Y-83464048D01*
X107616000Y-83273572D02*
X107044571Y-83083095D01*
X107044571Y-83083095D02*
X107044571Y-83578334D01*
X107082666Y-83883096D02*
X107082666Y-84492620D01*
X107577904Y-85025953D02*
X107577904Y-85102143D01*
X107577904Y-85102143D02*
X107539809Y-85178334D01*
X107539809Y-85178334D02*
X107501714Y-85216429D01*
X107501714Y-85216429D02*
X107425523Y-85254524D01*
X107425523Y-85254524D02*
X107273142Y-85292619D01*
X107273142Y-85292619D02*
X107082666Y-85292619D01*
X107082666Y-85292619D02*
X106930285Y-85254524D01*
X106930285Y-85254524D02*
X106854095Y-85216429D01*
X106854095Y-85216429D02*
X106816000Y-85178334D01*
X106816000Y-85178334D02*
X106777904Y-85102143D01*
X106777904Y-85102143D02*
X106777904Y-85025953D01*
X106777904Y-85025953D02*
X106816000Y-84949762D01*
X106816000Y-84949762D02*
X106854095Y-84911667D01*
X106854095Y-84911667D02*
X106930285Y-84873572D01*
X106930285Y-84873572D02*
X107082666Y-84835476D01*
X107082666Y-84835476D02*
X107273142Y-84835476D01*
X107273142Y-84835476D02*
X107425523Y-84873572D01*
X107425523Y-84873572D02*
X107501714Y-84911667D01*
X107501714Y-84911667D02*
X107539809Y-84949762D01*
X107539809Y-84949762D02*
X107577904Y-85025953D01*
X107501714Y-85597381D02*
X107539809Y-85635477D01*
X107539809Y-85635477D02*
X107577904Y-85711667D01*
X107577904Y-85711667D02*
X107577904Y-85902143D01*
X107577904Y-85902143D02*
X107539809Y-85978334D01*
X107539809Y-85978334D02*
X107501714Y-86016429D01*
X107501714Y-86016429D02*
X107425523Y-86054524D01*
X107425523Y-86054524D02*
X107349333Y-86054524D01*
X107349333Y-86054524D02*
X107235047Y-86016429D01*
X107235047Y-86016429D02*
X106777904Y-85559286D01*
X106777904Y-85559286D02*
X106777904Y-86054524D01*
X107082666Y-86397382D02*
X107082666Y-87006906D01*
X107577904Y-87540239D02*
X107577904Y-87616429D01*
X107577904Y-87616429D02*
X107539809Y-87692620D01*
X107539809Y-87692620D02*
X107501714Y-87730715D01*
X107501714Y-87730715D02*
X107425523Y-87768810D01*
X107425523Y-87768810D02*
X107273142Y-87806905D01*
X107273142Y-87806905D02*
X107082666Y-87806905D01*
X107082666Y-87806905D02*
X106930285Y-87768810D01*
X106930285Y-87768810D02*
X106854095Y-87730715D01*
X106854095Y-87730715D02*
X106816000Y-87692620D01*
X106816000Y-87692620D02*
X106777904Y-87616429D01*
X106777904Y-87616429D02*
X106777904Y-87540239D01*
X106777904Y-87540239D02*
X106816000Y-87464048D01*
X106816000Y-87464048D02*
X106854095Y-87425953D01*
X106854095Y-87425953D02*
X106930285Y-87387858D01*
X106930285Y-87387858D02*
X107082666Y-87349762D01*
X107082666Y-87349762D02*
X107273142Y-87349762D01*
X107273142Y-87349762D02*
X107425523Y-87387858D01*
X107425523Y-87387858D02*
X107501714Y-87425953D01*
X107501714Y-87425953D02*
X107539809Y-87464048D01*
X107539809Y-87464048D02*
X107577904Y-87540239D01*
X107235047Y-88264048D02*
X107273142Y-88187858D01*
X107273142Y-88187858D02*
X107311238Y-88149763D01*
X107311238Y-88149763D02*
X107387428Y-88111667D01*
X107387428Y-88111667D02*
X107425523Y-88111667D01*
X107425523Y-88111667D02*
X107501714Y-88149763D01*
X107501714Y-88149763D02*
X107539809Y-88187858D01*
X107539809Y-88187858D02*
X107577904Y-88264048D01*
X107577904Y-88264048D02*
X107577904Y-88416429D01*
X107577904Y-88416429D02*
X107539809Y-88492620D01*
X107539809Y-88492620D02*
X107501714Y-88530715D01*
X107501714Y-88530715D02*
X107425523Y-88568810D01*
X107425523Y-88568810D02*
X107387428Y-88568810D01*
X107387428Y-88568810D02*
X107311238Y-88530715D01*
X107311238Y-88530715D02*
X107273142Y-88492620D01*
X107273142Y-88492620D02*
X107235047Y-88416429D01*
X107235047Y-88416429D02*
X107235047Y-88264048D01*
X107235047Y-88264048D02*
X107196952Y-88187858D01*
X107196952Y-88187858D02*
X107158857Y-88149763D01*
X107158857Y-88149763D02*
X107082666Y-88111667D01*
X107082666Y-88111667D02*
X106930285Y-88111667D01*
X106930285Y-88111667D02*
X106854095Y-88149763D01*
X106854095Y-88149763D02*
X106816000Y-88187858D01*
X106816000Y-88187858D02*
X106777904Y-88264048D01*
X106777904Y-88264048D02*
X106777904Y-88416429D01*
X106777904Y-88416429D02*
X106816000Y-88492620D01*
X106816000Y-88492620D02*
X106854095Y-88530715D01*
X106854095Y-88530715D02*
X106930285Y-88568810D01*
X106930285Y-88568810D02*
X107082666Y-88568810D01*
X107082666Y-88568810D02*
X107158857Y-88530715D01*
X107158857Y-88530715D02*
X107196952Y-88492620D01*
X107196952Y-88492620D02*
X107235047Y-88416429D01*
G04 #@! TO.C,J9*
X126158666Y-62913619D02*
X126158666Y-63627904D01*
X126158666Y-63627904D02*
X126111047Y-63770761D01*
X126111047Y-63770761D02*
X126015809Y-63866000D01*
X126015809Y-63866000D02*
X125872952Y-63913619D01*
X125872952Y-63913619D02*
X125777714Y-63913619D01*
X126682476Y-63913619D02*
X126872952Y-63913619D01*
X126872952Y-63913619D02*
X126968190Y-63866000D01*
X126968190Y-63866000D02*
X127015809Y-63818380D01*
X127015809Y-63818380D02*
X127111047Y-63675523D01*
X127111047Y-63675523D02*
X127158666Y-63485047D01*
X127158666Y-63485047D02*
X127158666Y-63104095D01*
X127158666Y-63104095D02*
X127111047Y-63008857D01*
X127111047Y-63008857D02*
X127063428Y-62961238D01*
X127063428Y-62961238D02*
X126968190Y-62913619D01*
X126968190Y-62913619D02*
X126777714Y-62913619D01*
X126777714Y-62913619D02*
X126682476Y-62961238D01*
X126682476Y-62961238D02*
X126634857Y-63008857D01*
X126634857Y-63008857D02*
X126587238Y-63104095D01*
X126587238Y-63104095D02*
X126587238Y-63342190D01*
X126587238Y-63342190D02*
X126634857Y-63437428D01*
X126634857Y-63437428D02*
X126682476Y-63485047D01*
X126682476Y-63485047D02*
X126777714Y-63532666D01*
X126777714Y-63532666D02*
X126968190Y-63532666D01*
X126968190Y-63532666D02*
X127063428Y-63485047D01*
X127063428Y-63485047D02*
X127111047Y-63437428D01*
X127111047Y-63437428D02*
X127158666Y-63342190D01*
G04 #@! TO.C,J8*
X123110666Y-56866619D02*
X123110666Y-57580904D01*
X123110666Y-57580904D02*
X123063047Y-57723761D01*
X123063047Y-57723761D02*
X122967809Y-57819000D01*
X122967809Y-57819000D02*
X122824952Y-57866619D01*
X122824952Y-57866619D02*
X122729714Y-57866619D01*
X123729714Y-57295190D02*
X123634476Y-57247571D01*
X123634476Y-57247571D02*
X123586857Y-57199952D01*
X123586857Y-57199952D02*
X123539238Y-57104714D01*
X123539238Y-57104714D02*
X123539238Y-57057095D01*
X123539238Y-57057095D02*
X123586857Y-56961857D01*
X123586857Y-56961857D02*
X123634476Y-56914238D01*
X123634476Y-56914238D02*
X123729714Y-56866619D01*
X123729714Y-56866619D02*
X123920190Y-56866619D01*
X123920190Y-56866619D02*
X124015428Y-56914238D01*
X124015428Y-56914238D02*
X124063047Y-56961857D01*
X124063047Y-56961857D02*
X124110666Y-57057095D01*
X124110666Y-57057095D02*
X124110666Y-57104714D01*
X124110666Y-57104714D02*
X124063047Y-57199952D01*
X124063047Y-57199952D02*
X124015428Y-57247571D01*
X124015428Y-57247571D02*
X123920190Y-57295190D01*
X123920190Y-57295190D02*
X123729714Y-57295190D01*
X123729714Y-57295190D02*
X123634476Y-57342809D01*
X123634476Y-57342809D02*
X123586857Y-57390428D01*
X123586857Y-57390428D02*
X123539238Y-57485666D01*
X123539238Y-57485666D02*
X123539238Y-57676142D01*
X123539238Y-57676142D02*
X123586857Y-57771380D01*
X123586857Y-57771380D02*
X123634476Y-57819000D01*
X123634476Y-57819000D02*
X123729714Y-57866619D01*
X123729714Y-57866619D02*
X123920190Y-57866619D01*
X123920190Y-57866619D02*
X124015428Y-57819000D01*
X124015428Y-57819000D02*
X124063047Y-57771380D01*
X124063047Y-57771380D02*
X124110666Y-57676142D01*
X124110666Y-57676142D02*
X124110666Y-57485666D01*
X124110666Y-57485666D02*
X124063047Y-57390428D01*
X124063047Y-57390428D02*
X124015428Y-57342809D01*
X124015428Y-57342809D02*
X123920190Y-57295190D01*
G04 #@! TO.C,REF\u002A\u002A*
X122491666Y-77307619D02*
X122158333Y-76831428D01*
X121920238Y-77307619D02*
X121920238Y-76307619D01*
X121920238Y-76307619D02*
X122301190Y-76307619D01*
X122301190Y-76307619D02*
X122396428Y-76355238D01*
X122396428Y-76355238D02*
X122444047Y-76402857D01*
X122444047Y-76402857D02*
X122491666Y-76498095D01*
X122491666Y-76498095D02*
X122491666Y-76640952D01*
X122491666Y-76640952D02*
X122444047Y-76736190D01*
X122444047Y-76736190D02*
X122396428Y-76783809D01*
X122396428Y-76783809D02*
X122301190Y-76831428D01*
X122301190Y-76831428D02*
X121920238Y-76831428D01*
X122920238Y-76783809D02*
X123253571Y-76783809D01*
X123396428Y-77307619D02*
X122920238Y-77307619D01*
X122920238Y-77307619D02*
X122920238Y-76307619D01*
X122920238Y-76307619D02*
X123396428Y-76307619D01*
X124158333Y-76783809D02*
X123825000Y-76783809D01*
X123825000Y-77307619D02*
X123825000Y-76307619D01*
X123825000Y-76307619D02*
X124301190Y-76307619D01*
X124825000Y-76307619D02*
X124825000Y-76545714D01*
X124586905Y-76450476D02*
X124825000Y-76545714D01*
X124825000Y-76545714D02*
X125063095Y-76450476D01*
X124682143Y-76736190D02*
X124825000Y-76545714D01*
X124825000Y-76545714D02*
X124967857Y-76736190D01*
X125586905Y-76307619D02*
X125586905Y-76545714D01*
X125348810Y-76450476D02*
X125586905Y-76545714D01*
X125586905Y-76545714D02*
X125825000Y-76450476D01*
X125444048Y-76736190D02*
X125586905Y-76545714D01*
X125586905Y-76545714D02*
X125729762Y-76736190D01*
X104076666Y-56987619D02*
X103743333Y-56511428D01*
X103505238Y-56987619D02*
X103505238Y-55987619D01*
X103505238Y-55987619D02*
X103886190Y-55987619D01*
X103886190Y-55987619D02*
X103981428Y-56035238D01*
X103981428Y-56035238D02*
X104029047Y-56082857D01*
X104029047Y-56082857D02*
X104076666Y-56178095D01*
X104076666Y-56178095D02*
X104076666Y-56320952D01*
X104076666Y-56320952D02*
X104029047Y-56416190D01*
X104029047Y-56416190D02*
X103981428Y-56463809D01*
X103981428Y-56463809D02*
X103886190Y-56511428D01*
X103886190Y-56511428D02*
X103505238Y-56511428D01*
X104505238Y-56463809D02*
X104838571Y-56463809D01*
X104981428Y-56987619D02*
X104505238Y-56987619D01*
X104505238Y-56987619D02*
X104505238Y-55987619D01*
X104505238Y-55987619D02*
X104981428Y-55987619D01*
X105743333Y-56463809D02*
X105410000Y-56463809D01*
X105410000Y-56987619D02*
X105410000Y-55987619D01*
X105410000Y-55987619D02*
X105886190Y-55987619D01*
X106410000Y-55987619D02*
X106410000Y-56225714D01*
X106171905Y-56130476D02*
X106410000Y-56225714D01*
X106410000Y-56225714D02*
X106648095Y-56130476D01*
X106267143Y-56416190D02*
X106410000Y-56225714D01*
X106410000Y-56225714D02*
X106552857Y-56416190D01*
X107171905Y-55987619D02*
X107171905Y-56225714D01*
X106933810Y-56130476D02*
X107171905Y-56225714D01*
X107171905Y-56225714D02*
X107410000Y-56130476D01*
X107029048Y-56416190D02*
X107171905Y-56225714D01*
X107171905Y-56225714D02*
X107314762Y-56416190D01*
X88836666Y-77307619D02*
X88503333Y-76831428D01*
X88265238Y-77307619D02*
X88265238Y-76307619D01*
X88265238Y-76307619D02*
X88646190Y-76307619D01*
X88646190Y-76307619D02*
X88741428Y-76355238D01*
X88741428Y-76355238D02*
X88789047Y-76402857D01*
X88789047Y-76402857D02*
X88836666Y-76498095D01*
X88836666Y-76498095D02*
X88836666Y-76640952D01*
X88836666Y-76640952D02*
X88789047Y-76736190D01*
X88789047Y-76736190D02*
X88741428Y-76783809D01*
X88741428Y-76783809D02*
X88646190Y-76831428D01*
X88646190Y-76831428D02*
X88265238Y-76831428D01*
X89265238Y-76783809D02*
X89598571Y-76783809D01*
X89741428Y-77307619D02*
X89265238Y-77307619D01*
X89265238Y-77307619D02*
X89265238Y-76307619D01*
X89265238Y-76307619D02*
X89741428Y-76307619D01*
X90503333Y-76783809D02*
X90170000Y-76783809D01*
X90170000Y-77307619D02*
X90170000Y-76307619D01*
X90170000Y-76307619D02*
X90646190Y-76307619D01*
X91170000Y-76307619D02*
X91170000Y-76545714D01*
X90931905Y-76450476D02*
X91170000Y-76545714D01*
X91170000Y-76545714D02*
X91408095Y-76450476D01*
X91027143Y-76736190D02*
X91170000Y-76545714D01*
X91170000Y-76545714D02*
X91312857Y-76736190D01*
X91931905Y-76307619D02*
X91931905Y-76545714D01*
X91693810Y-76450476D02*
X91931905Y-76545714D01*
X91931905Y-76545714D02*
X92170000Y-76450476D01*
X91789048Y-76736190D02*
X91931905Y-76545714D01*
X91931905Y-76545714D02*
X92074762Y-76736190D01*
G04 #@! TO.C,J3*
X86457619Y-103203333D02*
X87171904Y-103203333D01*
X87171904Y-103203333D02*
X87314761Y-103250952D01*
X87314761Y-103250952D02*
X87410000Y-103346190D01*
X87410000Y-103346190D02*
X87457619Y-103489047D01*
X87457619Y-103489047D02*
X87457619Y-103584285D01*
X86457619Y-102822380D02*
X86457619Y-102203333D01*
X86457619Y-102203333D02*
X86838571Y-102536666D01*
X86838571Y-102536666D02*
X86838571Y-102393809D01*
X86838571Y-102393809D02*
X86886190Y-102298571D01*
X86886190Y-102298571D02*
X86933809Y-102250952D01*
X86933809Y-102250952D02*
X87029047Y-102203333D01*
X87029047Y-102203333D02*
X87267142Y-102203333D01*
X87267142Y-102203333D02*
X87362380Y-102250952D01*
X87362380Y-102250952D02*
X87410000Y-102298571D01*
X87410000Y-102298571D02*
X87457619Y-102393809D01*
X87457619Y-102393809D02*
X87457619Y-102679523D01*
X87457619Y-102679523D02*
X87410000Y-102774761D01*
X87410000Y-102774761D02*
X87362380Y-102822380D01*
G04 #@! TO.C,J2*
X76882666Y-107532619D02*
X76882666Y-108246904D01*
X76882666Y-108246904D02*
X76835047Y-108389761D01*
X76835047Y-108389761D02*
X76739809Y-108485000D01*
X76739809Y-108485000D02*
X76596952Y-108532619D01*
X76596952Y-108532619D02*
X76501714Y-108532619D01*
X77311238Y-107627857D02*
X77358857Y-107580238D01*
X77358857Y-107580238D02*
X77454095Y-107532619D01*
X77454095Y-107532619D02*
X77692190Y-107532619D01*
X77692190Y-107532619D02*
X77787428Y-107580238D01*
X77787428Y-107580238D02*
X77835047Y-107627857D01*
X77835047Y-107627857D02*
X77882666Y-107723095D01*
X77882666Y-107723095D02*
X77882666Y-107818333D01*
X77882666Y-107818333D02*
X77835047Y-107961190D01*
X77835047Y-107961190D02*
X77263619Y-108532619D01*
X77263619Y-108532619D02*
X77882666Y-108532619D01*
G04 #@! TO.C,J1*
X77136666Y-79338619D02*
X77136666Y-80052904D01*
X77136666Y-80052904D02*
X77089047Y-80195761D01*
X77089047Y-80195761D02*
X76993809Y-80291000D01*
X76993809Y-80291000D02*
X76850952Y-80338619D01*
X76850952Y-80338619D02*
X76755714Y-80338619D01*
X78136666Y-80338619D02*
X77565238Y-80338619D01*
X77850952Y-80338619D02*
X77850952Y-79338619D01*
X77850952Y-79338619D02*
X77755714Y-79481476D01*
X77755714Y-79481476D02*
X77660476Y-79576714D01*
X77660476Y-79576714D02*
X77565238Y-79624333D01*
G04 #@! TO.C,U3*
X104872619Y-80771904D02*
X105682142Y-80771904D01*
X105682142Y-80771904D02*
X105777380Y-80724285D01*
X105777380Y-80724285D02*
X105825000Y-80676666D01*
X105825000Y-80676666D02*
X105872619Y-80581428D01*
X105872619Y-80581428D02*
X105872619Y-80390952D01*
X105872619Y-80390952D02*
X105825000Y-80295714D01*
X105825000Y-80295714D02*
X105777380Y-80248095D01*
X105777380Y-80248095D02*
X105682142Y-80200476D01*
X105682142Y-80200476D02*
X104872619Y-80200476D01*
X104872619Y-79819523D02*
X104872619Y-79200476D01*
X104872619Y-79200476D02*
X105253571Y-79533809D01*
X105253571Y-79533809D02*
X105253571Y-79390952D01*
X105253571Y-79390952D02*
X105301190Y-79295714D01*
X105301190Y-79295714D02*
X105348809Y-79248095D01*
X105348809Y-79248095D02*
X105444047Y-79200476D01*
X105444047Y-79200476D02*
X105682142Y-79200476D01*
X105682142Y-79200476D02*
X105777380Y-79248095D01*
X105777380Y-79248095D02*
X105825000Y-79295714D01*
X105825000Y-79295714D02*
X105872619Y-79390952D01*
X105872619Y-79390952D02*
X105872619Y-79676666D01*
X105872619Y-79676666D02*
X105825000Y-79771904D01*
X105825000Y-79771904D02*
X105777380Y-79819523D01*
G04 #@! TO.C,U2*
X123698095Y-104872619D02*
X123698095Y-105682142D01*
X123698095Y-105682142D02*
X123745714Y-105777380D01*
X123745714Y-105777380D02*
X123793333Y-105825000D01*
X123793333Y-105825000D02*
X123888571Y-105872619D01*
X123888571Y-105872619D02*
X124079047Y-105872619D01*
X124079047Y-105872619D02*
X124174285Y-105825000D01*
X124174285Y-105825000D02*
X124221904Y-105777380D01*
X124221904Y-105777380D02*
X124269523Y-105682142D01*
X124269523Y-105682142D02*
X124269523Y-104872619D01*
X124698095Y-104967857D02*
X124745714Y-104920238D01*
X124745714Y-104920238D02*
X124840952Y-104872619D01*
X124840952Y-104872619D02*
X125079047Y-104872619D01*
X125079047Y-104872619D02*
X125174285Y-104920238D01*
X125174285Y-104920238D02*
X125221904Y-104967857D01*
X125221904Y-104967857D02*
X125269523Y-105063095D01*
X125269523Y-105063095D02*
X125269523Y-105158333D01*
X125269523Y-105158333D02*
X125221904Y-105301190D01*
X125221904Y-105301190D02*
X124650476Y-105872619D01*
X124650476Y-105872619D02*
X125269523Y-105872619D01*
G04 #@! TO.C,R19*
X97782142Y-86567619D02*
X97448809Y-86091428D01*
X97210714Y-86567619D02*
X97210714Y-85567619D01*
X97210714Y-85567619D02*
X97591666Y-85567619D01*
X97591666Y-85567619D02*
X97686904Y-85615238D01*
X97686904Y-85615238D02*
X97734523Y-85662857D01*
X97734523Y-85662857D02*
X97782142Y-85758095D01*
X97782142Y-85758095D02*
X97782142Y-85900952D01*
X97782142Y-85900952D02*
X97734523Y-85996190D01*
X97734523Y-85996190D02*
X97686904Y-86043809D01*
X97686904Y-86043809D02*
X97591666Y-86091428D01*
X97591666Y-86091428D02*
X97210714Y-86091428D01*
X98734523Y-86567619D02*
X98163095Y-86567619D01*
X98448809Y-86567619D02*
X98448809Y-85567619D01*
X98448809Y-85567619D02*
X98353571Y-85710476D01*
X98353571Y-85710476D02*
X98258333Y-85805714D01*
X98258333Y-85805714D02*
X98163095Y-85853333D01*
X99210714Y-86567619D02*
X99401190Y-86567619D01*
X99401190Y-86567619D02*
X99496428Y-86520000D01*
X99496428Y-86520000D02*
X99544047Y-86472380D01*
X99544047Y-86472380D02*
X99639285Y-86329523D01*
X99639285Y-86329523D02*
X99686904Y-86139047D01*
X99686904Y-86139047D02*
X99686904Y-85758095D01*
X99686904Y-85758095D02*
X99639285Y-85662857D01*
X99639285Y-85662857D02*
X99591666Y-85615238D01*
X99591666Y-85615238D02*
X99496428Y-85567619D01*
X99496428Y-85567619D02*
X99305952Y-85567619D01*
X99305952Y-85567619D02*
X99210714Y-85615238D01*
X99210714Y-85615238D02*
X99163095Y-85662857D01*
X99163095Y-85662857D02*
X99115476Y-85758095D01*
X99115476Y-85758095D02*
X99115476Y-85996190D01*
X99115476Y-85996190D02*
X99163095Y-86091428D01*
X99163095Y-86091428D02*
X99210714Y-86139047D01*
X99210714Y-86139047D02*
X99305952Y-86186666D01*
X99305952Y-86186666D02*
X99496428Y-86186666D01*
X99496428Y-86186666D02*
X99591666Y-86139047D01*
X99591666Y-86139047D02*
X99639285Y-86091428D01*
X99639285Y-86091428D02*
X99686904Y-85996190D01*
G04 #@! TO.C,R18*
X95369142Y-92410619D02*
X95035809Y-91934428D01*
X94797714Y-92410619D02*
X94797714Y-91410619D01*
X94797714Y-91410619D02*
X95178666Y-91410619D01*
X95178666Y-91410619D02*
X95273904Y-91458238D01*
X95273904Y-91458238D02*
X95321523Y-91505857D01*
X95321523Y-91505857D02*
X95369142Y-91601095D01*
X95369142Y-91601095D02*
X95369142Y-91743952D01*
X95369142Y-91743952D02*
X95321523Y-91839190D01*
X95321523Y-91839190D02*
X95273904Y-91886809D01*
X95273904Y-91886809D02*
X95178666Y-91934428D01*
X95178666Y-91934428D02*
X94797714Y-91934428D01*
X96321523Y-92410619D02*
X95750095Y-92410619D01*
X96035809Y-92410619D02*
X96035809Y-91410619D01*
X96035809Y-91410619D02*
X95940571Y-91553476D01*
X95940571Y-91553476D02*
X95845333Y-91648714D01*
X95845333Y-91648714D02*
X95750095Y-91696333D01*
X96892952Y-91839190D02*
X96797714Y-91791571D01*
X96797714Y-91791571D02*
X96750095Y-91743952D01*
X96750095Y-91743952D02*
X96702476Y-91648714D01*
X96702476Y-91648714D02*
X96702476Y-91601095D01*
X96702476Y-91601095D02*
X96750095Y-91505857D01*
X96750095Y-91505857D02*
X96797714Y-91458238D01*
X96797714Y-91458238D02*
X96892952Y-91410619D01*
X96892952Y-91410619D02*
X97083428Y-91410619D01*
X97083428Y-91410619D02*
X97178666Y-91458238D01*
X97178666Y-91458238D02*
X97226285Y-91505857D01*
X97226285Y-91505857D02*
X97273904Y-91601095D01*
X97273904Y-91601095D02*
X97273904Y-91648714D01*
X97273904Y-91648714D02*
X97226285Y-91743952D01*
X97226285Y-91743952D02*
X97178666Y-91791571D01*
X97178666Y-91791571D02*
X97083428Y-91839190D01*
X97083428Y-91839190D02*
X96892952Y-91839190D01*
X96892952Y-91839190D02*
X96797714Y-91886809D01*
X96797714Y-91886809D02*
X96750095Y-91934428D01*
X96750095Y-91934428D02*
X96702476Y-92029666D01*
X96702476Y-92029666D02*
X96702476Y-92220142D01*
X96702476Y-92220142D02*
X96750095Y-92315380D01*
X96750095Y-92315380D02*
X96797714Y-92363000D01*
X96797714Y-92363000D02*
X96892952Y-92410619D01*
X96892952Y-92410619D02*
X97083428Y-92410619D01*
X97083428Y-92410619D02*
X97178666Y-92363000D01*
X97178666Y-92363000D02*
X97226285Y-92315380D01*
X97226285Y-92315380D02*
X97273904Y-92220142D01*
X97273904Y-92220142D02*
X97273904Y-92029666D01*
X97273904Y-92029666D02*
X97226285Y-91934428D01*
X97226285Y-91934428D02*
X97178666Y-91886809D01*
X97178666Y-91886809D02*
X97083428Y-91839190D01*
G04 #@! TO.C,R17*
X95369142Y-95458619D02*
X95035809Y-94982428D01*
X94797714Y-95458619D02*
X94797714Y-94458619D01*
X94797714Y-94458619D02*
X95178666Y-94458619D01*
X95178666Y-94458619D02*
X95273904Y-94506238D01*
X95273904Y-94506238D02*
X95321523Y-94553857D01*
X95321523Y-94553857D02*
X95369142Y-94649095D01*
X95369142Y-94649095D02*
X95369142Y-94791952D01*
X95369142Y-94791952D02*
X95321523Y-94887190D01*
X95321523Y-94887190D02*
X95273904Y-94934809D01*
X95273904Y-94934809D02*
X95178666Y-94982428D01*
X95178666Y-94982428D02*
X94797714Y-94982428D01*
X96321523Y-95458619D02*
X95750095Y-95458619D01*
X96035809Y-95458619D02*
X96035809Y-94458619D01*
X96035809Y-94458619D02*
X95940571Y-94601476D01*
X95940571Y-94601476D02*
X95845333Y-94696714D01*
X95845333Y-94696714D02*
X95750095Y-94744333D01*
X96654857Y-94458619D02*
X97321523Y-94458619D01*
X97321523Y-94458619D02*
X96892952Y-95458619D01*
G04 #@! TO.C,R16*
X95369142Y-88854619D02*
X95035809Y-88378428D01*
X94797714Y-88854619D02*
X94797714Y-87854619D01*
X94797714Y-87854619D02*
X95178666Y-87854619D01*
X95178666Y-87854619D02*
X95273904Y-87902238D01*
X95273904Y-87902238D02*
X95321523Y-87949857D01*
X95321523Y-87949857D02*
X95369142Y-88045095D01*
X95369142Y-88045095D02*
X95369142Y-88187952D01*
X95369142Y-88187952D02*
X95321523Y-88283190D01*
X95321523Y-88283190D02*
X95273904Y-88330809D01*
X95273904Y-88330809D02*
X95178666Y-88378428D01*
X95178666Y-88378428D02*
X94797714Y-88378428D01*
X96321523Y-88854619D02*
X95750095Y-88854619D01*
X96035809Y-88854619D02*
X96035809Y-87854619D01*
X96035809Y-87854619D02*
X95940571Y-87997476D01*
X95940571Y-87997476D02*
X95845333Y-88092714D01*
X95845333Y-88092714D02*
X95750095Y-88140333D01*
X97178666Y-87854619D02*
X96988190Y-87854619D01*
X96988190Y-87854619D02*
X96892952Y-87902238D01*
X96892952Y-87902238D02*
X96845333Y-87949857D01*
X96845333Y-87949857D02*
X96750095Y-88092714D01*
X96750095Y-88092714D02*
X96702476Y-88283190D01*
X96702476Y-88283190D02*
X96702476Y-88664142D01*
X96702476Y-88664142D02*
X96750095Y-88759380D01*
X96750095Y-88759380D02*
X96797714Y-88807000D01*
X96797714Y-88807000D02*
X96892952Y-88854619D01*
X96892952Y-88854619D02*
X97083428Y-88854619D01*
X97083428Y-88854619D02*
X97178666Y-88807000D01*
X97178666Y-88807000D02*
X97226285Y-88759380D01*
X97226285Y-88759380D02*
X97273904Y-88664142D01*
X97273904Y-88664142D02*
X97273904Y-88426047D01*
X97273904Y-88426047D02*
X97226285Y-88330809D01*
X97226285Y-88330809D02*
X97178666Y-88283190D01*
X97178666Y-88283190D02*
X97083428Y-88235571D01*
X97083428Y-88235571D02*
X96892952Y-88235571D01*
X96892952Y-88235571D02*
X96797714Y-88283190D01*
X96797714Y-88283190D02*
X96750095Y-88330809D01*
X96750095Y-88330809D02*
X96702476Y-88426047D01*
G04 #@! TO.C,R15*
X86987142Y-87712619D02*
X86653809Y-87236428D01*
X86415714Y-87712619D02*
X86415714Y-86712619D01*
X86415714Y-86712619D02*
X86796666Y-86712619D01*
X86796666Y-86712619D02*
X86891904Y-86760238D01*
X86891904Y-86760238D02*
X86939523Y-86807857D01*
X86939523Y-86807857D02*
X86987142Y-86903095D01*
X86987142Y-86903095D02*
X86987142Y-87045952D01*
X86987142Y-87045952D02*
X86939523Y-87141190D01*
X86939523Y-87141190D02*
X86891904Y-87188809D01*
X86891904Y-87188809D02*
X86796666Y-87236428D01*
X86796666Y-87236428D02*
X86415714Y-87236428D01*
X87939523Y-87712619D02*
X87368095Y-87712619D01*
X87653809Y-87712619D02*
X87653809Y-86712619D01*
X87653809Y-86712619D02*
X87558571Y-86855476D01*
X87558571Y-86855476D02*
X87463333Y-86950714D01*
X87463333Y-86950714D02*
X87368095Y-86998333D01*
X88844285Y-86712619D02*
X88368095Y-86712619D01*
X88368095Y-86712619D02*
X88320476Y-87188809D01*
X88320476Y-87188809D02*
X88368095Y-87141190D01*
X88368095Y-87141190D02*
X88463333Y-87093571D01*
X88463333Y-87093571D02*
X88701428Y-87093571D01*
X88701428Y-87093571D02*
X88796666Y-87141190D01*
X88796666Y-87141190D02*
X88844285Y-87188809D01*
X88844285Y-87188809D02*
X88891904Y-87284047D01*
X88891904Y-87284047D02*
X88891904Y-87522142D01*
X88891904Y-87522142D02*
X88844285Y-87617380D01*
X88844285Y-87617380D02*
X88796666Y-87665000D01*
X88796666Y-87665000D02*
X88701428Y-87712619D01*
X88701428Y-87712619D02*
X88463333Y-87712619D01*
X88463333Y-87712619D02*
X88368095Y-87665000D01*
X88368095Y-87665000D02*
X88320476Y-87617380D01*
G04 #@! TO.C,R14*
X92067142Y-70567619D02*
X91733809Y-70091428D01*
X91495714Y-70567619D02*
X91495714Y-69567619D01*
X91495714Y-69567619D02*
X91876666Y-69567619D01*
X91876666Y-69567619D02*
X91971904Y-69615238D01*
X91971904Y-69615238D02*
X92019523Y-69662857D01*
X92019523Y-69662857D02*
X92067142Y-69758095D01*
X92067142Y-69758095D02*
X92067142Y-69900952D01*
X92067142Y-69900952D02*
X92019523Y-69996190D01*
X92019523Y-69996190D02*
X91971904Y-70043809D01*
X91971904Y-70043809D02*
X91876666Y-70091428D01*
X91876666Y-70091428D02*
X91495714Y-70091428D01*
X93019523Y-70567619D02*
X92448095Y-70567619D01*
X92733809Y-70567619D02*
X92733809Y-69567619D01*
X92733809Y-69567619D02*
X92638571Y-69710476D01*
X92638571Y-69710476D02*
X92543333Y-69805714D01*
X92543333Y-69805714D02*
X92448095Y-69853333D01*
X93876666Y-69900952D02*
X93876666Y-70567619D01*
X93638571Y-69520000D02*
X93400476Y-70234285D01*
X93400476Y-70234285D02*
X94019523Y-70234285D01*
G04 #@! TO.C,R13*
X92067142Y-65867619D02*
X91733809Y-65391428D01*
X91495714Y-65867619D02*
X91495714Y-64867619D01*
X91495714Y-64867619D02*
X91876666Y-64867619D01*
X91876666Y-64867619D02*
X91971904Y-64915238D01*
X91971904Y-64915238D02*
X92019523Y-64962857D01*
X92019523Y-64962857D02*
X92067142Y-65058095D01*
X92067142Y-65058095D02*
X92067142Y-65200952D01*
X92067142Y-65200952D02*
X92019523Y-65296190D01*
X92019523Y-65296190D02*
X91971904Y-65343809D01*
X91971904Y-65343809D02*
X91876666Y-65391428D01*
X91876666Y-65391428D02*
X91495714Y-65391428D01*
X93019523Y-65867619D02*
X92448095Y-65867619D01*
X92733809Y-65867619D02*
X92733809Y-64867619D01*
X92733809Y-64867619D02*
X92638571Y-65010476D01*
X92638571Y-65010476D02*
X92543333Y-65105714D01*
X92543333Y-65105714D02*
X92448095Y-65153333D01*
X93352857Y-64867619D02*
X93971904Y-64867619D01*
X93971904Y-64867619D02*
X93638571Y-65248571D01*
X93638571Y-65248571D02*
X93781428Y-65248571D01*
X93781428Y-65248571D02*
X93876666Y-65296190D01*
X93876666Y-65296190D02*
X93924285Y-65343809D01*
X93924285Y-65343809D02*
X93971904Y-65439047D01*
X93971904Y-65439047D02*
X93971904Y-65677142D01*
X93971904Y-65677142D02*
X93924285Y-65772380D01*
X93924285Y-65772380D02*
X93876666Y-65820000D01*
X93876666Y-65820000D02*
X93781428Y-65867619D01*
X93781428Y-65867619D02*
X93495714Y-65867619D01*
X93495714Y-65867619D02*
X93400476Y-65820000D01*
X93400476Y-65820000D02*
X93352857Y-65772380D01*
G04 #@! TO.C,R12*
X101234642Y-64217619D02*
X100901309Y-63741428D01*
X100663214Y-64217619D02*
X100663214Y-63217619D01*
X100663214Y-63217619D02*
X101044166Y-63217619D01*
X101044166Y-63217619D02*
X101139404Y-63265238D01*
X101139404Y-63265238D02*
X101187023Y-63312857D01*
X101187023Y-63312857D02*
X101234642Y-63408095D01*
X101234642Y-63408095D02*
X101234642Y-63550952D01*
X101234642Y-63550952D02*
X101187023Y-63646190D01*
X101187023Y-63646190D02*
X101139404Y-63693809D01*
X101139404Y-63693809D02*
X101044166Y-63741428D01*
X101044166Y-63741428D02*
X100663214Y-63741428D01*
X102187023Y-64217619D02*
X101615595Y-64217619D01*
X101901309Y-64217619D02*
X101901309Y-63217619D01*
X101901309Y-63217619D02*
X101806071Y-63360476D01*
X101806071Y-63360476D02*
X101710833Y-63455714D01*
X101710833Y-63455714D02*
X101615595Y-63503333D01*
X102567976Y-63312857D02*
X102615595Y-63265238D01*
X102615595Y-63265238D02*
X102710833Y-63217619D01*
X102710833Y-63217619D02*
X102948928Y-63217619D01*
X102948928Y-63217619D02*
X103044166Y-63265238D01*
X103044166Y-63265238D02*
X103091785Y-63312857D01*
X103091785Y-63312857D02*
X103139404Y-63408095D01*
X103139404Y-63408095D02*
X103139404Y-63503333D01*
X103139404Y-63503333D02*
X103091785Y-63646190D01*
X103091785Y-63646190D02*
X102520357Y-64217619D01*
X102520357Y-64217619D02*
X103139404Y-64217619D01*
G04 #@! TO.C,R11*
X92067142Y-59772619D02*
X91733809Y-59296428D01*
X91495714Y-59772619D02*
X91495714Y-58772619D01*
X91495714Y-58772619D02*
X91876666Y-58772619D01*
X91876666Y-58772619D02*
X91971904Y-58820238D01*
X91971904Y-58820238D02*
X92019523Y-58867857D01*
X92019523Y-58867857D02*
X92067142Y-58963095D01*
X92067142Y-58963095D02*
X92067142Y-59105952D01*
X92067142Y-59105952D02*
X92019523Y-59201190D01*
X92019523Y-59201190D02*
X91971904Y-59248809D01*
X91971904Y-59248809D02*
X91876666Y-59296428D01*
X91876666Y-59296428D02*
X91495714Y-59296428D01*
X93019523Y-59772619D02*
X92448095Y-59772619D01*
X92733809Y-59772619D02*
X92733809Y-58772619D01*
X92733809Y-58772619D02*
X92638571Y-58915476D01*
X92638571Y-58915476D02*
X92543333Y-59010714D01*
X92543333Y-59010714D02*
X92448095Y-59058333D01*
X93971904Y-59772619D02*
X93400476Y-59772619D01*
X93686190Y-59772619D02*
X93686190Y-58772619D01*
X93686190Y-58772619D02*
X93590952Y-58915476D01*
X93590952Y-58915476D02*
X93495714Y-59010714D01*
X93495714Y-59010714D02*
X93400476Y-59058333D01*
G04 #@! TO.C,R10*
X86987142Y-59772619D02*
X86653809Y-59296428D01*
X86415714Y-59772619D02*
X86415714Y-58772619D01*
X86415714Y-58772619D02*
X86796666Y-58772619D01*
X86796666Y-58772619D02*
X86891904Y-58820238D01*
X86891904Y-58820238D02*
X86939523Y-58867857D01*
X86939523Y-58867857D02*
X86987142Y-58963095D01*
X86987142Y-58963095D02*
X86987142Y-59105952D01*
X86987142Y-59105952D02*
X86939523Y-59201190D01*
X86939523Y-59201190D02*
X86891904Y-59248809D01*
X86891904Y-59248809D02*
X86796666Y-59296428D01*
X86796666Y-59296428D02*
X86415714Y-59296428D01*
X87939523Y-59772619D02*
X87368095Y-59772619D01*
X87653809Y-59772619D02*
X87653809Y-58772619D01*
X87653809Y-58772619D02*
X87558571Y-58915476D01*
X87558571Y-58915476D02*
X87463333Y-59010714D01*
X87463333Y-59010714D02*
X87368095Y-59058333D01*
X88558571Y-58772619D02*
X88653809Y-58772619D01*
X88653809Y-58772619D02*
X88749047Y-58820238D01*
X88749047Y-58820238D02*
X88796666Y-58867857D01*
X88796666Y-58867857D02*
X88844285Y-58963095D01*
X88844285Y-58963095D02*
X88891904Y-59153571D01*
X88891904Y-59153571D02*
X88891904Y-59391666D01*
X88891904Y-59391666D02*
X88844285Y-59582142D01*
X88844285Y-59582142D02*
X88796666Y-59677380D01*
X88796666Y-59677380D02*
X88749047Y-59725000D01*
X88749047Y-59725000D02*
X88653809Y-59772619D01*
X88653809Y-59772619D02*
X88558571Y-59772619D01*
X88558571Y-59772619D02*
X88463333Y-59725000D01*
X88463333Y-59725000D02*
X88415714Y-59677380D01*
X88415714Y-59677380D02*
X88368095Y-59582142D01*
X88368095Y-59582142D02*
X88320476Y-59391666D01*
X88320476Y-59391666D02*
X88320476Y-59153571D01*
X88320476Y-59153571D02*
X88368095Y-58963095D01*
X88368095Y-58963095D02*
X88415714Y-58867857D01*
X88415714Y-58867857D02*
X88463333Y-58820238D01*
X88463333Y-58820238D02*
X88558571Y-58772619D01*
G04 #@! TO.C,R9*
X115045833Y-74502619D02*
X114712500Y-74026428D01*
X114474405Y-74502619D02*
X114474405Y-73502619D01*
X114474405Y-73502619D02*
X114855357Y-73502619D01*
X114855357Y-73502619D02*
X114950595Y-73550238D01*
X114950595Y-73550238D02*
X114998214Y-73597857D01*
X114998214Y-73597857D02*
X115045833Y-73693095D01*
X115045833Y-73693095D02*
X115045833Y-73835952D01*
X115045833Y-73835952D02*
X114998214Y-73931190D01*
X114998214Y-73931190D02*
X114950595Y-73978809D01*
X114950595Y-73978809D02*
X114855357Y-74026428D01*
X114855357Y-74026428D02*
X114474405Y-74026428D01*
X115522024Y-74502619D02*
X115712500Y-74502619D01*
X115712500Y-74502619D02*
X115807738Y-74455000D01*
X115807738Y-74455000D02*
X115855357Y-74407380D01*
X115855357Y-74407380D02*
X115950595Y-74264523D01*
X115950595Y-74264523D02*
X115998214Y-74074047D01*
X115998214Y-74074047D02*
X115998214Y-73693095D01*
X115998214Y-73693095D02*
X115950595Y-73597857D01*
X115950595Y-73597857D02*
X115902976Y-73550238D01*
X115902976Y-73550238D02*
X115807738Y-73502619D01*
X115807738Y-73502619D02*
X115617262Y-73502619D01*
X115617262Y-73502619D02*
X115522024Y-73550238D01*
X115522024Y-73550238D02*
X115474405Y-73597857D01*
X115474405Y-73597857D02*
X115426786Y-73693095D01*
X115426786Y-73693095D02*
X115426786Y-73931190D01*
X115426786Y-73931190D02*
X115474405Y-74026428D01*
X115474405Y-74026428D02*
X115522024Y-74074047D01*
X115522024Y-74074047D02*
X115617262Y-74121666D01*
X115617262Y-74121666D02*
X115807738Y-74121666D01*
X115807738Y-74121666D02*
X115902976Y-74074047D01*
X115902976Y-74074047D02*
X115950595Y-74026428D01*
X115950595Y-74026428D02*
X115998214Y-73931190D01*
G04 #@! TO.C,R8*
X121118333Y-95077619D02*
X120785000Y-94601428D01*
X120546905Y-95077619D02*
X120546905Y-94077619D01*
X120546905Y-94077619D02*
X120927857Y-94077619D01*
X120927857Y-94077619D02*
X121023095Y-94125238D01*
X121023095Y-94125238D02*
X121070714Y-94172857D01*
X121070714Y-94172857D02*
X121118333Y-94268095D01*
X121118333Y-94268095D02*
X121118333Y-94410952D01*
X121118333Y-94410952D02*
X121070714Y-94506190D01*
X121070714Y-94506190D02*
X121023095Y-94553809D01*
X121023095Y-94553809D02*
X120927857Y-94601428D01*
X120927857Y-94601428D02*
X120546905Y-94601428D01*
X121689762Y-94506190D02*
X121594524Y-94458571D01*
X121594524Y-94458571D02*
X121546905Y-94410952D01*
X121546905Y-94410952D02*
X121499286Y-94315714D01*
X121499286Y-94315714D02*
X121499286Y-94268095D01*
X121499286Y-94268095D02*
X121546905Y-94172857D01*
X121546905Y-94172857D02*
X121594524Y-94125238D01*
X121594524Y-94125238D02*
X121689762Y-94077619D01*
X121689762Y-94077619D02*
X121880238Y-94077619D01*
X121880238Y-94077619D02*
X121975476Y-94125238D01*
X121975476Y-94125238D02*
X122023095Y-94172857D01*
X122023095Y-94172857D02*
X122070714Y-94268095D01*
X122070714Y-94268095D02*
X122070714Y-94315714D01*
X122070714Y-94315714D02*
X122023095Y-94410952D01*
X122023095Y-94410952D02*
X121975476Y-94458571D01*
X121975476Y-94458571D02*
X121880238Y-94506190D01*
X121880238Y-94506190D02*
X121689762Y-94506190D01*
X121689762Y-94506190D02*
X121594524Y-94553809D01*
X121594524Y-94553809D02*
X121546905Y-94601428D01*
X121546905Y-94601428D02*
X121499286Y-94696666D01*
X121499286Y-94696666D02*
X121499286Y-94887142D01*
X121499286Y-94887142D02*
X121546905Y-94982380D01*
X121546905Y-94982380D02*
X121594524Y-95030000D01*
X121594524Y-95030000D02*
X121689762Y-95077619D01*
X121689762Y-95077619D02*
X121880238Y-95077619D01*
X121880238Y-95077619D02*
X121975476Y-95030000D01*
X121975476Y-95030000D02*
X122023095Y-94982380D01*
X122023095Y-94982380D02*
X122070714Y-94887142D01*
X122070714Y-94887142D02*
X122070714Y-94696666D01*
X122070714Y-94696666D02*
X122023095Y-94601428D01*
X122023095Y-94601428D02*
X121975476Y-94553809D01*
X121975476Y-94553809D02*
X121880238Y-94506190D01*
G04 #@! TO.C,R7*
X121118333Y-98507619D02*
X120785000Y-98031428D01*
X120546905Y-98507619D02*
X120546905Y-97507619D01*
X120546905Y-97507619D02*
X120927857Y-97507619D01*
X120927857Y-97507619D02*
X121023095Y-97555238D01*
X121023095Y-97555238D02*
X121070714Y-97602857D01*
X121070714Y-97602857D02*
X121118333Y-97698095D01*
X121118333Y-97698095D02*
X121118333Y-97840952D01*
X121118333Y-97840952D02*
X121070714Y-97936190D01*
X121070714Y-97936190D02*
X121023095Y-97983809D01*
X121023095Y-97983809D02*
X120927857Y-98031428D01*
X120927857Y-98031428D02*
X120546905Y-98031428D01*
X121451667Y-97507619D02*
X122118333Y-97507619D01*
X122118333Y-97507619D02*
X121689762Y-98507619D01*
G04 #@! TO.C,JP1*
X119267619Y-68778333D02*
X119981904Y-68778333D01*
X119981904Y-68778333D02*
X120124761Y-68825952D01*
X120124761Y-68825952D02*
X120220000Y-68921190D01*
X120220000Y-68921190D02*
X120267619Y-69064047D01*
X120267619Y-69064047D02*
X120267619Y-69159285D01*
X120267619Y-68302142D02*
X119267619Y-68302142D01*
X119267619Y-68302142D02*
X119267619Y-67921190D01*
X119267619Y-67921190D02*
X119315238Y-67825952D01*
X119315238Y-67825952D02*
X119362857Y-67778333D01*
X119362857Y-67778333D02*
X119458095Y-67730714D01*
X119458095Y-67730714D02*
X119600952Y-67730714D01*
X119600952Y-67730714D02*
X119696190Y-67778333D01*
X119696190Y-67778333D02*
X119743809Y-67825952D01*
X119743809Y-67825952D02*
X119791428Y-67921190D01*
X119791428Y-67921190D02*
X119791428Y-68302142D01*
X120267619Y-66778333D02*
X120267619Y-67349761D01*
X120267619Y-67064047D02*
X119267619Y-67064047D01*
X119267619Y-67064047D02*
X119410476Y-67159285D01*
X119410476Y-67159285D02*
X119505714Y-67254523D01*
X119505714Y-67254523D02*
X119553333Y-67349761D01*
G04 #@! TO.C,J7*
X77136666Y-93562619D02*
X77136666Y-94276904D01*
X77136666Y-94276904D02*
X77089047Y-94419761D01*
X77089047Y-94419761D02*
X76993809Y-94515000D01*
X76993809Y-94515000D02*
X76850952Y-94562619D01*
X76850952Y-94562619D02*
X76755714Y-94562619D01*
X77517619Y-93562619D02*
X78184285Y-93562619D01*
X78184285Y-93562619D02*
X77755714Y-94562619D01*
G04 #@! TO.C,J5*
X77136666Y-65622619D02*
X77136666Y-66336904D01*
X77136666Y-66336904D02*
X77089047Y-66479761D01*
X77089047Y-66479761D02*
X76993809Y-66575000D01*
X76993809Y-66575000D02*
X76850952Y-66622619D01*
X76850952Y-66622619D02*
X76755714Y-66622619D01*
X78089047Y-65622619D02*
X77612857Y-65622619D01*
X77612857Y-65622619D02*
X77565238Y-66098809D01*
X77565238Y-66098809D02*
X77612857Y-66051190D01*
X77612857Y-66051190D02*
X77708095Y-66003571D01*
X77708095Y-66003571D02*
X77946190Y-66003571D01*
X77946190Y-66003571D02*
X78041428Y-66051190D01*
X78041428Y-66051190D02*
X78089047Y-66098809D01*
X78089047Y-66098809D02*
X78136666Y-66194047D01*
X78136666Y-66194047D02*
X78136666Y-66432142D01*
X78136666Y-66432142D02*
X78089047Y-66527380D01*
X78089047Y-66527380D02*
X78041428Y-66575000D01*
X78041428Y-66575000D02*
X77946190Y-66622619D01*
X77946190Y-66622619D02*
X77708095Y-66622619D01*
X77708095Y-66622619D02*
X77612857Y-66575000D01*
X77612857Y-66575000D02*
X77565238Y-66527380D01*
G04 #@! TO.C,J4*
X119267619Y-58753333D02*
X119981904Y-58753333D01*
X119981904Y-58753333D02*
X120124761Y-58800952D01*
X120124761Y-58800952D02*
X120220000Y-58896190D01*
X120220000Y-58896190D02*
X120267619Y-59039047D01*
X120267619Y-59039047D02*
X120267619Y-59134285D01*
X119600952Y-57848571D02*
X120267619Y-57848571D01*
X119220000Y-58086666D02*
X119934285Y-58324761D01*
X119934285Y-58324761D02*
X119934285Y-57705714D01*
G04 #@! TO.C,F1*
X99321666Y-98688809D02*
X98988333Y-98688809D01*
X98988333Y-99212619D02*
X98988333Y-98212619D01*
X98988333Y-98212619D02*
X99464523Y-98212619D01*
X100369285Y-99212619D02*
X99797857Y-99212619D01*
X100083571Y-99212619D02*
X100083571Y-98212619D01*
X100083571Y-98212619D02*
X99988333Y-98355476D01*
X99988333Y-98355476D02*
X99893095Y-98450714D01*
X99893095Y-98450714D02*
X99797857Y-98498333D01*
G04 #@! TO.C,D4*
X114762619Y-63603094D02*
X113762619Y-63603094D01*
X113762619Y-63603094D02*
X113762619Y-63364999D01*
X113762619Y-63364999D02*
X113810238Y-63222142D01*
X113810238Y-63222142D02*
X113905476Y-63126904D01*
X113905476Y-63126904D02*
X114000714Y-63079285D01*
X114000714Y-63079285D02*
X114191190Y-63031666D01*
X114191190Y-63031666D02*
X114334047Y-63031666D01*
X114334047Y-63031666D02*
X114524523Y-63079285D01*
X114524523Y-63079285D02*
X114619761Y-63126904D01*
X114619761Y-63126904D02*
X114715000Y-63222142D01*
X114715000Y-63222142D02*
X114762619Y-63364999D01*
X114762619Y-63364999D02*
X114762619Y-63603094D01*
X114095952Y-62174523D02*
X114762619Y-62174523D01*
X113715000Y-62412618D02*
X114429285Y-62650713D01*
X114429285Y-62650713D02*
X114429285Y-62031666D01*
G04 #@! TO.C,D3*
X119276905Y-83647619D02*
X119276905Y-82647619D01*
X119276905Y-82647619D02*
X119515000Y-82647619D01*
X119515000Y-82647619D02*
X119657857Y-82695238D01*
X119657857Y-82695238D02*
X119753095Y-82790476D01*
X119753095Y-82790476D02*
X119800714Y-82885714D01*
X119800714Y-82885714D02*
X119848333Y-83076190D01*
X119848333Y-83076190D02*
X119848333Y-83219047D01*
X119848333Y-83219047D02*
X119800714Y-83409523D01*
X119800714Y-83409523D02*
X119753095Y-83504761D01*
X119753095Y-83504761D02*
X119657857Y-83600000D01*
X119657857Y-83600000D02*
X119515000Y-83647619D01*
X119515000Y-83647619D02*
X119276905Y-83647619D01*
X120181667Y-82647619D02*
X120800714Y-82647619D01*
X120800714Y-82647619D02*
X120467381Y-83028571D01*
X120467381Y-83028571D02*
X120610238Y-83028571D01*
X120610238Y-83028571D02*
X120705476Y-83076190D01*
X120705476Y-83076190D02*
X120753095Y-83123809D01*
X120753095Y-83123809D02*
X120800714Y-83219047D01*
X120800714Y-83219047D02*
X120800714Y-83457142D01*
X120800714Y-83457142D02*
X120753095Y-83552380D01*
X120753095Y-83552380D02*
X120705476Y-83600000D01*
X120705476Y-83600000D02*
X120610238Y-83647619D01*
X120610238Y-83647619D02*
X120324524Y-83647619D01*
X120324524Y-83647619D02*
X120229286Y-83600000D01*
X120229286Y-83600000D02*
X120181667Y-83552380D01*
X116578095Y-84087619D02*
X116578095Y-83087619D01*
X117149523Y-84087619D02*
X116720952Y-83516190D01*
X117149523Y-83087619D02*
X116578095Y-83659047D01*
G04 #@! TO.C,D2*
X114832619Y-95353094D02*
X113832619Y-95353094D01*
X113832619Y-95353094D02*
X113832619Y-95114999D01*
X113832619Y-95114999D02*
X113880238Y-94972142D01*
X113880238Y-94972142D02*
X113975476Y-94876904D01*
X113975476Y-94876904D02*
X114070714Y-94829285D01*
X114070714Y-94829285D02*
X114261190Y-94781666D01*
X114261190Y-94781666D02*
X114404047Y-94781666D01*
X114404047Y-94781666D02*
X114594523Y-94829285D01*
X114594523Y-94829285D02*
X114689761Y-94876904D01*
X114689761Y-94876904D02*
X114785000Y-94972142D01*
X114785000Y-94972142D02*
X114832619Y-95114999D01*
X114832619Y-95114999D02*
X114832619Y-95353094D01*
X113927857Y-94400713D02*
X113880238Y-94353094D01*
X113880238Y-94353094D02*
X113832619Y-94257856D01*
X113832619Y-94257856D02*
X113832619Y-94019761D01*
X113832619Y-94019761D02*
X113880238Y-93924523D01*
X113880238Y-93924523D02*
X113927857Y-93876904D01*
X113927857Y-93876904D02*
X114023095Y-93829285D01*
X114023095Y-93829285D02*
X114118333Y-93829285D01*
X114118333Y-93829285D02*
X114261190Y-93876904D01*
X114261190Y-93876904D02*
X114832619Y-94448332D01*
X114832619Y-94448332D02*
X114832619Y-93829285D01*
X115202619Y-99956904D02*
X114202619Y-99956904D01*
X115202619Y-99385476D02*
X114631190Y-99814047D01*
X114202619Y-99385476D02*
X114774047Y-99956904D01*
G04 #@! TO.C,D1*
X102766905Y-105872619D02*
X102766905Y-104872619D01*
X102766905Y-104872619D02*
X103005000Y-104872619D01*
X103005000Y-104872619D02*
X103147857Y-104920238D01*
X103147857Y-104920238D02*
X103243095Y-105015476D01*
X103243095Y-105015476D02*
X103290714Y-105110714D01*
X103290714Y-105110714D02*
X103338333Y-105301190D01*
X103338333Y-105301190D02*
X103338333Y-105444047D01*
X103338333Y-105444047D02*
X103290714Y-105634523D01*
X103290714Y-105634523D02*
X103243095Y-105729761D01*
X103243095Y-105729761D02*
X103147857Y-105825000D01*
X103147857Y-105825000D02*
X103005000Y-105872619D01*
X103005000Y-105872619D02*
X102766905Y-105872619D01*
X104290714Y-105872619D02*
X103719286Y-105872619D01*
X104005000Y-105872619D02*
X104005000Y-104872619D01*
X104005000Y-104872619D02*
X103909762Y-105015476D01*
X103909762Y-105015476D02*
X103814524Y-105110714D01*
X103814524Y-105110714D02*
X103719286Y-105158333D01*
X109593095Y-103332619D02*
X109593095Y-102332619D01*
X110164523Y-103332619D02*
X109735952Y-102761190D01*
X110164523Y-102332619D02*
X109593095Y-102904047D01*
G04 #@! TO.C,C11*
X105367380Y-77477857D02*
X105415000Y-77525476D01*
X105415000Y-77525476D02*
X105462619Y-77668333D01*
X105462619Y-77668333D02*
X105462619Y-77763571D01*
X105462619Y-77763571D02*
X105415000Y-77906428D01*
X105415000Y-77906428D02*
X105319761Y-78001666D01*
X105319761Y-78001666D02*
X105224523Y-78049285D01*
X105224523Y-78049285D02*
X105034047Y-78096904D01*
X105034047Y-78096904D02*
X104891190Y-78096904D01*
X104891190Y-78096904D02*
X104700714Y-78049285D01*
X104700714Y-78049285D02*
X104605476Y-78001666D01*
X104605476Y-78001666D02*
X104510238Y-77906428D01*
X104510238Y-77906428D02*
X104462619Y-77763571D01*
X104462619Y-77763571D02*
X104462619Y-77668333D01*
X104462619Y-77668333D02*
X104510238Y-77525476D01*
X104510238Y-77525476D02*
X104557857Y-77477857D01*
X105462619Y-76525476D02*
X105462619Y-77096904D01*
X105462619Y-76811190D02*
X104462619Y-76811190D01*
X104462619Y-76811190D02*
X104605476Y-76906428D01*
X104605476Y-76906428D02*
X104700714Y-77001666D01*
X104700714Y-77001666D02*
X104748333Y-77096904D01*
X105462619Y-75573095D02*
X105462619Y-76144523D01*
X105462619Y-75858809D02*
X104462619Y-75858809D01*
X104462619Y-75858809D02*
X104605476Y-75954047D01*
X104605476Y-75954047D02*
X104700714Y-76049285D01*
X104700714Y-76049285D02*
X104748333Y-76144523D01*
G04 #@! TO.C,C10*
X109177380Y-77477857D02*
X109225000Y-77525476D01*
X109225000Y-77525476D02*
X109272619Y-77668333D01*
X109272619Y-77668333D02*
X109272619Y-77763571D01*
X109272619Y-77763571D02*
X109225000Y-77906428D01*
X109225000Y-77906428D02*
X109129761Y-78001666D01*
X109129761Y-78001666D02*
X109034523Y-78049285D01*
X109034523Y-78049285D02*
X108844047Y-78096904D01*
X108844047Y-78096904D02*
X108701190Y-78096904D01*
X108701190Y-78096904D02*
X108510714Y-78049285D01*
X108510714Y-78049285D02*
X108415476Y-78001666D01*
X108415476Y-78001666D02*
X108320238Y-77906428D01*
X108320238Y-77906428D02*
X108272619Y-77763571D01*
X108272619Y-77763571D02*
X108272619Y-77668333D01*
X108272619Y-77668333D02*
X108320238Y-77525476D01*
X108320238Y-77525476D02*
X108367857Y-77477857D01*
X109272619Y-76525476D02*
X109272619Y-77096904D01*
X109272619Y-76811190D02*
X108272619Y-76811190D01*
X108272619Y-76811190D02*
X108415476Y-76906428D01*
X108415476Y-76906428D02*
X108510714Y-77001666D01*
X108510714Y-77001666D02*
X108558333Y-77096904D01*
X108272619Y-75906428D02*
X108272619Y-75811190D01*
X108272619Y-75811190D02*
X108320238Y-75715952D01*
X108320238Y-75715952D02*
X108367857Y-75668333D01*
X108367857Y-75668333D02*
X108463095Y-75620714D01*
X108463095Y-75620714D02*
X108653571Y-75573095D01*
X108653571Y-75573095D02*
X108891666Y-75573095D01*
X108891666Y-75573095D02*
X109082142Y-75620714D01*
X109082142Y-75620714D02*
X109177380Y-75668333D01*
X109177380Y-75668333D02*
X109225000Y-75715952D01*
X109225000Y-75715952D02*
X109272619Y-75811190D01*
X109272619Y-75811190D02*
X109272619Y-75906428D01*
X109272619Y-75906428D02*
X109225000Y-76001666D01*
X109225000Y-76001666D02*
X109177380Y-76049285D01*
X109177380Y-76049285D02*
X109082142Y-76096904D01*
X109082142Y-76096904D02*
X108891666Y-76144523D01*
X108891666Y-76144523D02*
X108653571Y-76144523D01*
X108653571Y-76144523D02*
X108463095Y-76096904D01*
X108463095Y-76096904D02*
X108367857Y-76049285D01*
X108367857Y-76049285D02*
X108320238Y-76001666D01*
X108320238Y-76001666D02*
X108272619Y-75906428D01*
G04 #@! TO.C,C9*
X87235380Y-94146666D02*
X87283000Y-94194285D01*
X87283000Y-94194285D02*
X87330619Y-94337142D01*
X87330619Y-94337142D02*
X87330619Y-94432380D01*
X87330619Y-94432380D02*
X87283000Y-94575237D01*
X87283000Y-94575237D02*
X87187761Y-94670475D01*
X87187761Y-94670475D02*
X87092523Y-94718094D01*
X87092523Y-94718094D02*
X86902047Y-94765713D01*
X86902047Y-94765713D02*
X86759190Y-94765713D01*
X86759190Y-94765713D02*
X86568714Y-94718094D01*
X86568714Y-94718094D02*
X86473476Y-94670475D01*
X86473476Y-94670475D02*
X86378238Y-94575237D01*
X86378238Y-94575237D02*
X86330619Y-94432380D01*
X86330619Y-94432380D02*
X86330619Y-94337142D01*
X86330619Y-94337142D02*
X86378238Y-94194285D01*
X86378238Y-94194285D02*
X86425857Y-94146666D01*
X87330619Y-93670475D02*
X87330619Y-93479999D01*
X87330619Y-93479999D02*
X87283000Y-93384761D01*
X87283000Y-93384761D02*
X87235380Y-93337142D01*
X87235380Y-93337142D02*
X87092523Y-93241904D01*
X87092523Y-93241904D02*
X86902047Y-93194285D01*
X86902047Y-93194285D02*
X86521095Y-93194285D01*
X86521095Y-93194285D02*
X86425857Y-93241904D01*
X86425857Y-93241904D02*
X86378238Y-93289523D01*
X86378238Y-93289523D02*
X86330619Y-93384761D01*
X86330619Y-93384761D02*
X86330619Y-93575237D01*
X86330619Y-93575237D02*
X86378238Y-93670475D01*
X86378238Y-93670475D02*
X86425857Y-93718094D01*
X86425857Y-93718094D02*
X86521095Y-93765713D01*
X86521095Y-93765713D02*
X86759190Y-93765713D01*
X86759190Y-93765713D02*
X86854428Y-93718094D01*
X86854428Y-93718094D02*
X86902047Y-93670475D01*
X86902047Y-93670475D02*
X86949666Y-93575237D01*
X86949666Y-93575237D02*
X86949666Y-93384761D01*
X86949666Y-93384761D02*
X86902047Y-93289523D01*
X86902047Y-93289523D02*
X86854428Y-93241904D01*
X86854428Y-93241904D02*
X86759190Y-93194285D01*
G04 #@! TO.C,C8*
X90947380Y-66206666D02*
X90995000Y-66254285D01*
X90995000Y-66254285D02*
X91042619Y-66397142D01*
X91042619Y-66397142D02*
X91042619Y-66492380D01*
X91042619Y-66492380D02*
X90995000Y-66635237D01*
X90995000Y-66635237D02*
X90899761Y-66730475D01*
X90899761Y-66730475D02*
X90804523Y-66778094D01*
X90804523Y-66778094D02*
X90614047Y-66825713D01*
X90614047Y-66825713D02*
X90471190Y-66825713D01*
X90471190Y-66825713D02*
X90280714Y-66778094D01*
X90280714Y-66778094D02*
X90185476Y-66730475D01*
X90185476Y-66730475D02*
X90090238Y-66635237D01*
X90090238Y-66635237D02*
X90042619Y-66492380D01*
X90042619Y-66492380D02*
X90042619Y-66397142D01*
X90042619Y-66397142D02*
X90090238Y-66254285D01*
X90090238Y-66254285D02*
X90137857Y-66206666D01*
X90471190Y-65635237D02*
X90423571Y-65730475D01*
X90423571Y-65730475D02*
X90375952Y-65778094D01*
X90375952Y-65778094D02*
X90280714Y-65825713D01*
X90280714Y-65825713D02*
X90233095Y-65825713D01*
X90233095Y-65825713D02*
X90137857Y-65778094D01*
X90137857Y-65778094D02*
X90090238Y-65730475D01*
X90090238Y-65730475D02*
X90042619Y-65635237D01*
X90042619Y-65635237D02*
X90042619Y-65444761D01*
X90042619Y-65444761D02*
X90090238Y-65349523D01*
X90090238Y-65349523D02*
X90137857Y-65301904D01*
X90137857Y-65301904D02*
X90233095Y-65254285D01*
X90233095Y-65254285D02*
X90280714Y-65254285D01*
X90280714Y-65254285D02*
X90375952Y-65301904D01*
X90375952Y-65301904D02*
X90423571Y-65349523D01*
X90423571Y-65349523D02*
X90471190Y-65444761D01*
X90471190Y-65444761D02*
X90471190Y-65635237D01*
X90471190Y-65635237D02*
X90518809Y-65730475D01*
X90518809Y-65730475D02*
X90566428Y-65778094D01*
X90566428Y-65778094D02*
X90661666Y-65825713D01*
X90661666Y-65825713D02*
X90852142Y-65825713D01*
X90852142Y-65825713D02*
X90947380Y-65778094D01*
X90947380Y-65778094D02*
X90995000Y-65730475D01*
X90995000Y-65730475D02*
X91042619Y-65635237D01*
X91042619Y-65635237D02*
X91042619Y-65444761D01*
X91042619Y-65444761D02*
X90995000Y-65349523D01*
X90995000Y-65349523D02*
X90947380Y-65301904D01*
X90947380Y-65301904D02*
X90852142Y-65254285D01*
X90852142Y-65254285D02*
X90661666Y-65254285D01*
X90661666Y-65254285D02*
X90566428Y-65301904D01*
X90566428Y-65301904D02*
X90518809Y-65349523D01*
X90518809Y-65349523D02*
X90471190Y-65444761D01*
G04 #@! TO.C,C7*
X115077380Y-90971666D02*
X115125000Y-91019285D01*
X115125000Y-91019285D02*
X115172619Y-91162142D01*
X115172619Y-91162142D02*
X115172619Y-91257380D01*
X115172619Y-91257380D02*
X115125000Y-91400237D01*
X115125000Y-91400237D02*
X115029761Y-91495475D01*
X115029761Y-91495475D02*
X114934523Y-91543094D01*
X114934523Y-91543094D02*
X114744047Y-91590713D01*
X114744047Y-91590713D02*
X114601190Y-91590713D01*
X114601190Y-91590713D02*
X114410714Y-91543094D01*
X114410714Y-91543094D02*
X114315476Y-91495475D01*
X114315476Y-91495475D02*
X114220238Y-91400237D01*
X114220238Y-91400237D02*
X114172619Y-91257380D01*
X114172619Y-91257380D02*
X114172619Y-91162142D01*
X114172619Y-91162142D02*
X114220238Y-91019285D01*
X114220238Y-91019285D02*
X114267857Y-90971666D01*
X114172619Y-90638332D02*
X114172619Y-89971666D01*
X114172619Y-89971666D02*
X115172619Y-90400237D01*
G04 #@! TO.C,C6*
X123658333Y-94272380D02*
X123610714Y-94320000D01*
X123610714Y-94320000D02*
X123467857Y-94367619D01*
X123467857Y-94367619D02*
X123372619Y-94367619D01*
X123372619Y-94367619D02*
X123229762Y-94320000D01*
X123229762Y-94320000D02*
X123134524Y-94224761D01*
X123134524Y-94224761D02*
X123086905Y-94129523D01*
X123086905Y-94129523D02*
X123039286Y-93939047D01*
X123039286Y-93939047D02*
X123039286Y-93796190D01*
X123039286Y-93796190D02*
X123086905Y-93605714D01*
X123086905Y-93605714D02*
X123134524Y-93510476D01*
X123134524Y-93510476D02*
X123229762Y-93415238D01*
X123229762Y-93415238D02*
X123372619Y-93367619D01*
X123372619Y-93367619D02*
X123467857Y-93367619D01*
X123467857Y-93367619D02*
X123610714Y-93415238D01*
X123610714Y-93415238D02*
X123658333Y-93462857D01*
X124515476Y-93367619D02*
X124325000Y-93367619D01*
X124325000Y-93367619D02*
X124229762Y-93415238D01*
X124229762Y-93415238D02*
X124182143Y-93462857D01*
X124182143Y-93462857D02*
X124086905Y-93605714D01*
X124086905Y-93605714D02*
X124039286Y-93796190D01*
X124039286Y-93796190D02*
X124039286Y-94177142D01*
X124039286Y-94177142D02*
X124086905Y-94272380D01*
X124086905Y-94272380D02*
X124134524Y-94320000D01*
X124134524Y-94320000D02*
X124229762Y-94367619D01*
X124229762Y-94367619D02*
X124420238Y-94367619D01*
X124420238Y-94367619D02*
X124515476Y-94320000D01*
X124515476Y-94320000D02*
X124563095Y-94272380D01*
X124563095Y-94272380D02*
X124610714Y-94177142D01*
X124610714Y-94177142D02*
X124610714Y-93939047D01*
X124610714Y-93939047D02*
X124563095Y-93843809D01*
X124563095Y-93843809D02*
X124515476Y-93796190D01*
X124515476Y-93796190D02*
X124420238Y-93748571D01*
X124420238Y-93748571D02*
X124229762Y-93748571D01*
X124229762Y-93748571D02*
X124134524Y-93796190D01*
X124134524Y-93796190D02*
X124086905Y-93843809D01*
X124086905Y-93843809D02*
X124039286Y-93939047D01*
G04 #@! TO.C,C5*
X107457380Y-101766666D02*
X107505000Y-101814285D01*
X107505000Y-101814285D02*
X107552619Y-101957142D01*
X107552619Y-101957142D02*
X107552619Y-102052380D01*
X107552619Y-102052380D02*
X107505000Y-102195237D01*
X107505000Y-102195237D02*
X107409761Y-102290475D01*
X107409761Y-102290475D02*
X107314523Y-102338094D01*
X107314523Y-102338094D02*
X107124047Y-102385713D01*
X107124047Y-102385713D02*
X106981190Y-102385713D01*
X106981190Y-102385713D02*
X106790714Y-102338094D01*
X106790714Y-102338094D02*
X106695476Y-102290475D01*
X106695476Y-102290475D02*
X106600238Y-102195237D01*
X106600238Y-102195237D02*
X106552619Y-102052380D01*
X106552619Y-102052380D02*
X106552619Y-101957142D01*
X106552619Y-101957142D02*
X106600238Y-101814285D01*
X106600238Y-101814285D02*
X106647857Y-101766666D01*
X106552619Y-100861904D02*
X106552619Y-101338094D01*
X106552619Y-101338094D02*
X107028809Y-101385713D01*
X107028809Y-101385713D02*
X106981190Y-101338094D01*
X106981190Y-101338094D02*
X106933571Y-101242856D01*
X106933571Y-101242856D02*
X106933571Y-101004761D01*
X106933571Y-101004761D02*
X106981190Y-100909523D01*
X106981190Y-100909523D02*
X107028809Y-100861904D01*
X107028809Y-100861904D02*
X107124047Y-100814285D01*
X107124047Y-100814285D02*
X107362142Y-100814285D01*
X107362142Y-100814285D02*
X107457380Y-100861904D01*
X107457380Y-100861904D02*
X107505000Y-100909523D01*
X107505000Y-100909523D02*
X107552619Y-101004761D01*
X107552619Y-101004761D02*
X107552619Y-101242856D01*
X107552619Y-101242856D02*
X107505000Y-101338094D01*
X107505000Y-101338094D02*
X107457380Y-101385713D01*
D11*
G04 #@! TO.C,J9*
X125162000Y-65781000D02*
X125162000Y-64451000D01*
X125162000Y-69651000D02*
X127822000Y-69651000D01*
X125162000Y-67051000D02*
X125162000Y-69651000D01*
X125162000Y-67051000D02*
X127822000Y-67051000D01*
X125162000Y-64451000D02*
X126492000Y-64451000D01*
X127822000Y-67051000D02*
X127822000Y-69651000D01*
G04 #@! TO.C,J8*
X127822000Y-59939000D02*
X127822000Y-62539000D01*
X125162000Y-57339000D02*
X126492000Y-57339000D01*
X125162000Y-59939000D02*
X127822000Y-59939000D01*
X125162000Y-59939000D02*
X125162000Y-62539000D01*
X125162000Y-62539000D02*
X127822000Y-62539000D01*
X125162000Y-58669000D02*
X125162000Y-57339000D01*
G04 #@! TO.C,J3*
X92710000Y-104080000D02*
X94040000Y-104080000D01*
X88840000Y-104080000D02*
X88840000Y-106740000D01*
X91440000Y-104080000D02*
X88840000Y-104080000D01*
X91440000Y-104080000D02*
X91440000Y-106740000D01*
X94040000Y-104080000D02*
X94040000Y-105410000D01*
X91440000Y-106740000D02*
X88840000Y-106740000D01*
G04 #@! TO.C,J2*
X73116000Y-98770000D02*
X81316000Y-98770000D01*
X81316000Y-106970000D02*
X81316000Y-98770000D01*
X73116000Y-106970000D02*
X73116000Y-98770000D01*
X77716000Y-106970000D02*
X77216000Y-106470000D01*
X77216000Y-106470000D02*
X76716000Y-106970000D01*
X73116000Y-106970000D02*
X81316000Y-106970000D01*
G04 #@! TO.C,J1*
X73370000Y-70576000D02*
X81570000Y-70576000D01*
X81570000Y-78776000D02*
X81570000Y-70576000D01*
X73370000Y-78776000D02*
X73370000Y-70576000D01*
X77970000Y-78776000D02*
X77470000Y-78276000D01*
X77470000Y-78276000D02*
X76970000Y-78776000D01*
X73370000Y-78776000D02*
X81570000Y-78776000D01*
G04 #@! TO.C,U3*
X104160000Y-77470000D02*
X104160000Y-79420000D01*
X99040000Y-77470000D02*
X99040000Y-79420000D01*
X104160000Y-77470000D02*
X104160000Y-74020000D01*
X99040000Y-77470000D02*
X99040000Y-75520000D01*
G04 #@! TO.C,U2*
X123230000Y-108680000D02*
X112990000Y-108680000D01*
X119960000Y-108680000D02*
X119960000Y-107170000D01*
X116259000Y-108680000D02*
X116259000Y-107170000D01*
X123230000Y-108680000D02*
X123230000Y-104039000D01*
X123230000Y-104039000D02*
X112990000Y-104039000D01*
X112990000Y-108680000D02*
X112990000Y-104039000D01*
X123230000Y-107170000D02*
X112990000Y-107170000D01*
G04 #@! TO.C,R19*
X98652064Y-85190000D02*
X98197936Y-85190000D01*
X98652064Y-83720000D02*
X98197936Y-83720000D01*
G04 #@! TO.C,R18*
X92482936Y-91340000D02*
X92937064Y-91340000D01*
X92482936Y-92810000D02*
X92937064Y-92810000D01*
G04 #@! TO.C,R17*
X92937064Y-95985000D02*
X92482936Y-95985000D01*
X92937064Y-94515000D02*
X92482936Y-94515000D01*
G04 #@! TO.C,R16*
X92482936Y-88165000D02*
X92937064Y-88165000D01*
X92482936Y-89635000D02*
X92937064Y-89635000D01*
G04 #@! TO.C,R15*
X87402936Y-88165000D02*
X87857064Y-88165000D01*
X87402936Y-89635000D02*
X87857064Y-89635000D01*
G04 #@! TO.C,R14*
X92482936Y-71020000D02*
X92937064Y-71020000D01*
X92482936Y-72490000D02*
X92937064Y-72490000D01*
G04 #@! TO.C,R13*
X92937064Y-68045000D02*
X92482936Y-68045000D01*
X92937064Y-66575000D02*
X92482936Y-66575000D01*
G04 #@! TO.C,R12*
X101650436Y-64670000D02*
X102104564Y-64670000D01*
X101650436Y-66140000D02*
X102104564Y-66140000D01*
G04 #@! TO.C,R11*
X92482936Y-60225000D02*
X92937064Y-60225000D01*
X92482936Y-61695000D02*
X92937064Y-61695000D01*
G04 #@! TO.C,R10*
X87402936Y-60225000D02*
X87857064Y-60225000D01*
X87402936Y-61695000D02*
X87857064Y-61695000D01*
G04 #@! TO.C,R9*
X115439564Y-73125000D02*
X114985436Y-73125000D01*
X115439564Y-71655000D02*
X114985436Y-71655000D01*
G04 #@! TO.C,R8*
X121512064Y-97255000D02*
X121057936Y-97255000D01*
X121512064Y-95785000D02*
X121057936Y-95785000D01*
G04 #@! TO.C,R7*
X121057936Y-98960000D02*
X121512064Y-98960000D01*
X121057936Y-100430000D02*
X121512064Y-100430000D01*
G04 #@! TO.C,JP1*
X111065000Y-66615000D02*
X111065000Y-69275000D01*
X116205000Y-66615000D02*
X111065000Y-66615000D01*
X117475000Y-66615000D02*
X118805000Y-66615000D01*
X116205000Y-69275000D02*
X111065000Y-69275000D01*
X118805000Y-66615000D02*
X118805000Y-67945000D01*
X116205000Y-66615000D02*
X116205000Y-69275000D01*
G04 #@! TO.C,J7*
X73370000Y-84800000D02*
X81570000Y-84800000D01*
X81570000Y-93000000D02*
X81570000Y-84800000D01*
X73370000Y-93000000D02*
X73370000Y-84800000D01*
X77970000Y-93000000D02*
X77470000Y-92500000D01*
X77470000Y-92500000D02*
X76970000Y-93000000D01*
X73370000Y-93000000D02*
X81570000Y-93000000D01*
G04 #@! TO.C,J5*
X73370000Y-56860000D02*
X81570000Y-56860000D01*
X81570000Y-65060000D02*
X81570000Y-56860000D01*
X73370000Y-65060000D02*
X73370000Y-56860000D01*
X77970000Y-65060000D02*
X77470000Y-64560000D01*
X77470000Y-64560000D02*
X76970000Y-65060000D01*
X73370000Y-65060000D02*
X81570000Y-65060000D01*
G04 #@! TO.C,J4*
X117475000Y-57090000D02*
X118805000Y-57090000D01*
X113605000Y-57090000D02*
X113605000Y-59750000D01*
X116205000Y-57090000D02*
X113605000Y-57090000D01*
X116205000Y-57090000D02*
X116205000Y-59750000D01*
X118805000Y-57090000D02*
X118805000Y-58420000D01*
X116205000Y-59750000D02*
X113605000Y-59750000D01*
G04 #@! TO.C,F1*
X96985000Y-99879000D02*
X96985000Y-100545000D01*
X102325000Y-99879000D02*
X102325000Y-100545000D01*
X102325000Y-102655000D02*
X102325000Y-103321000D01*
X96985000Y-99879000D02*
X102325000Y-99879000D01*
X96985000Y-102655000D02*
X96985000Y-103321000D01*
X96985000Y-103321000D02*
X102325000Y-103321000D01*
G04 #@! TO.C,D4*
X111435000Y-61180000D02*
X111435000Y-63865000D01*
X113355000Y-61180000D02*
X111435000Y-61180000D01*
X113355000Y-63865000D02*
X113355000Y-61180000D01*
G04 #@! TO.C,D3*
X120100000Y-84255000D02*
X120100000Y-87195000D01*
X120220000Y-84255000D02*
X120220000Y-87195000D01*
X119200000Y-87195000D02*
X124640000Y-87195000D01*
X125660000Y-85725000D02*
X124640000Y-85725000D01*
X119200000Y-84255000D02*
X119200000Y-87195000D01*
X119980000Y-84255000D02*
X119980000Y-87195000D01*
X124640000Y-87195000D02*
X124640000Y-84255000D01*
X118180000Y-85725000D02*
X119200000Y-85725000D01*
X124640000Y-84255000D02*
X119200000Y-84255000D01*
G04 #@! TO.C,D2*
X115370000Y-96435000D02*
X118310000Y-96435000D01*
X115370000Y-96315000D02*
X118310000Y-96315000D01*
X118310000Y-97335000D02*
X118310000Y-91895000D01*
X116840000Y-90875000D02*
X116840000Y-91895000D01*
X115370000Y-97335000D02*
X118310000Y-97335000D01*
X115370000Y-96555000D02*
X118310000Y-96555000D01*
X118310000Y-91895000D02*
X115370000Y-91895000D01*
X116840000Y-98355000D02*
X116840000Y-97335000D01*
X115370000Y-91895000D02*
X115370000Y-97335000D01*
G04 #@! TO.C,D1*
X106225000Y-106880000D02*
X106225000Y-103940000D01*
X105445000Y-106880000D02*
X105445000Y-103940000D01*
X105205000Y-106880000D02*
X105205000Y-103940000D01*
X106225000Y-103940000D02*
X100785000Y-103940000D01*
X105325000Y-106880000D02*
X105325000Y-103940000D01*
X98495000Y-105410000D02*
X100785000Y-105410000D01*
X100785000Y-103940000D02*
X100785000Y-106880000D01*
X100785000Y-106880000D02*
X106225000Y-106880000D01*
X108515000Y-105410000D02*
X106225000Y-105410000D01*
G04 #@! TO.C,C11*
X107415000Y-77096252D02*
X107415000Y-76573748D01*
X105945000Y-77096252D02*
X105945000Y-76573748D01*
G04 #@! TO.C,C10*
X111225000Y-77096252D02*
X111225000Y-76573748D01*
X109755000Y-77096252D02*
X109755000Y-76573748D01*
G04 #@! TO.C,C9*
X88165000Y-93718748D02*
X88165000Y-94241252D01*
X89635000Y-93718748D02*
X89635000Y-94241252D01*
G04 #@! TO.C,C8*
X89635000Y-65778748D02*
X89635000Y-66301252D01*
X88165000Y-65778748D02*
X88165000Y-66301252D01*
G04 #@! TO.C,C7*
X112295000Y-90543748D02*
X112295000Y-91066252D01*
X113765000Y-90543748D02*
X113765000Y-91066252D01*
G04 #@! TO.C,C6*
X120175000Y-93065000D02*
X128235000Y-93065000D01*
X128235000Y-93065000D02*
X128235000Y-88545000D01*
X128235000Y-88545000D02*
X120175000Y-88545000D01*
G04 #@! TO.C,C5*
X104675000Y-101338748D02*
X104675000Y-101861252D01*
X106145000Y-101338748D02*
X106145000Y-101861252D01*
G04 #@! TD*
M02*
