G04 #@! TF.GenerationSoftware,KiCad,Pcbnew,7.0.2*
G04 #@! TF.CreationDate,2024-02-08T16:58:34+01:00*
G04 #@! TF.ProjectId,FilterAndHalfBuffer,46696c74-6572-4416-9e64-48616c664275,rev?*
G04 #@! TF.SameCoordinates,Original*
G04 #@! TF.FileFunction,Copper,L1,Top*
G04 #@! TF.FilePolarity,Positive*
%FSLAX46Y46*%
G04 Gerber Fmt 4.6, Leading zero omitted, Abs format (unit mm)*
G04 Created by KiCad (PCBNEW 7.0.2) date 2024-02-08 16:58:34*
%MOMM*%
%LPD*%
G01*
G04 APERTURE LIST*
G04 Aperture macros list*
%AMRoundRect*
0 Rectangle with rounded corners*
0 $1 Rounding radius*
0 $2 $3 $4 $5 $6 $7 $8 $9 X,Y pos of 4 corners*
0 Add a 4 corners polygon primitive as box body*
4,1,4,$2,$3,$4,$5,$6,$7,$8,$9,$2,$3,0*
0 Add four circle primitives for the rounded corners*
1,1,$1+$1,$2,$3*
1,1,$1+$1,$4,$5*
1,1,$1+$1,$6,$7*
1,1,$1+$1,$8,$9*
0 Add four rect primitives between the rounded corners*
20,1,$1+$1,$2,$3,$4,$5,0*
20,1,$1+$1,$4,$5,$6,$7,0*
20,1,$1+$1,$6,$7,$8,$9,0*
20,1,$1+$1,$8,$9,$2,$3,0*%
G04 Aperture macros list end*
G04 #@! TA.AperFunction,ComponentPad*
%ADD10R,1.700000X1.700000*%
G04 #@! TD*
G04 #@! TA.AperFunction,ComponentPad*
%ADD11O,1.700000X1.700000*%
G04 #@! TD*
G04 #@! TA.AperFunction,ComponentPad*
%ADD12C,5.600000*%
G04 #@! TD*
G04 #@! TA.AperFunction,ComponentPad*
%ADD13RoundRect,0.200100X0.949900X-0.949900X0.949900X0.949900X-0.949900X0.949900X-0.949900X-0.949900X0*%
G04 #@! TD*
G04 #@! TA.AperFunction,ComponentPad*
%ADD14C,2.500000*%
G04 #@! TD*
G04 #@! TA.AperFunction,SMDPad,CuDef*
%ADD15RoundRect,0.150000X-0.150000X0.825000X-0.150000X-0.825000X0.150000X-0.825000X0.150000X0.825000X0*%
G04 #@! TD*
G04 #@! TA.AperFunction,ComponentPad*
%ADD16R,1.905000X2.000000*%
G04 #@! TD*
G04 #@! TA.AperFunction,ComponentPad*
%ADD17O,1.905000X2.000000*%
G04 #@! TD*
G04 #@! TA.AperFunction,SMDPad,CuDef*
%ADD18RoundRect,0.250000X0.262500X0.450000X-0.262500X0.450000X-0.262500X-0.450000X0.262500X-0.450000X0*%
G04 #@! TD*
G04 #@! TA.AperFunction,SMDPad,CuDef*
%ADD19RoundRect,0.250000X-0.262500X-0.450000X0.262500X-0.450000X0.262500X0.450000X-0.262500X0.450000X0*%
G04 #@! TD*
G04 #@! TA.AperFunction,ComponentPad*
%ADD20C,1.600000*%
G04 #@! TD*
G04 #@! TA.AperFunction,SMDPad,CuDef*
%ADD21RoundRect,0.243750X-0.456250X0.243750X-0.456250X-0.243750X0.456250X-0.243750X0.456250X0.243750X0*%
G04 #@! TD*
G04 #@! TA.AperFunction,ComponentPad*
%ADD22R,2.200000X2.200000*%
G04 #@! TD*
G04 #@! TA.AperFunction,ComponentPad*
%ADD23O,2.200000X2.200000*%
G04 #@! TD*
G04 #@! TA.AperFunction,SMDPad,CuDef*
%ADD24RoundRect,0.250000X0.475000X-0.250000X0.475000X0.250000X-0.475000X0.250000X-0.475000X-0.250000X0*%
G04 #@! TD*
G04 #@! TA.AperFunction,SMDPad,CuDef*
%ADD25RoundRect,0.250000X-0.475000X0.250000X-0.475000X-0.250000X0.475000X-0.250000X0.475000X0.250000X0*%
G04 #@! TD*
G04 #@! TA.AperFunction,SMDPad,CuDef*
%ADD26RoundRect,0.250000X0.787500X1.025000X-0.787500X1.025000X-0.787500X-1.025000X0.787500X-1.025000X0*%
G04 #@! TD*
G04 #@! TA.AperFunction,ViaPad*
%ADD27C,0.800000*%
G04 #@! TD*
G04 #@! TA.AperFunction,Conductor*
%ADD28C,0.250000*%
G04 #@! TD*
G04 APERTURE END LIST*
D10*
G04 #@! TO.P,J9,1,Pin_1*
G04 #@! TO.N,GND*
X126492000Y-65781000D03*
D11*
G04 #@! TO.P,J9,2,Pin_2*
G04 #@! TO.N,Net-(J9-Pin_2)*
X126492000Y-68321000D03*
G04 #@! TD*
G04 #@! TO.P,J8,2,Pin_2*
G04 #@! TO.N,GND*
X126492000Y-61209000D03*
D10*
G04 #@! TO.P,J8,1,Pin_1*
G04 #@! TO.N,Net-(J8-Pin_1)*
X126492000Y-58669000D03*
G04 #@! TD*
D12*
G04 #@! TO.P,REF\u002A\u002A,1*
G04 #@! TO.N,GND*
X123825000Y-80645000D03*
G04 #@! TD*
G04 #@! TO.P,REF\u002A\u002A,1*
G04 #@! TO.N,GND*
X105410000Y-60325000D03*
G04 #@! TD*
G04 #@! TO.P,REF\u002A\u002A,1*
G04 #@! TO.N,GND*
X90170000Y-80645000D03*
G04 #@! TD*
D10*
G04 #@! TO.P,J3,1,Pin_1*
G04 #@! TO.N,GND*
X92710000Y-105410000D03*
D11*
G04 #@! TO.P,J3,2,Pin_2*
G04 #@! TO.N,VCC*
X90170000Y-105410000D03*
G04 #@! TD*
D13*
G04 #@! TO.P,J2,1,In*
G04 #@! TO.N,Net-(J2-In)*
X77216000Y-102870000D03*
D14*
G04 #@! TO.P,J2,2,Ext*
G04 #@! TO.N,GND*
X79756000Y-105410000D03*
X74676000Y-105410000D03*
X74676000Y-100330000D03*
X79756000Y-100330000D03*
G04 #@! TD*
D13*
G04 #@! TO.P,J1,1,In*
G04 #@! TO.N,Net-(J1-In)*
X77470000Y-74676000D03*
D14*
G04 #@! TO.P,J1,2,Ext*
G04 #@! TO.N,GND*
X80010000Y-77216000D03*
X74930000Y-77216000D03*
X74930000Y-72136000D03*
X80010000Y-72136000D03*
G04 #@! TD*
D15*
G04 #@! TO.P,U3,1*
G04 #@! TO.N,Net-(J8-Pin_1)*
X103505000Y-74995000D03*
G04 #@! TO.P,U3,2,-*
G04 #@! TO.N,Net-(U3A--)*
X102235000Y-74995000D03*
G04 #@! TO.P,U3,3,+*
G04 #@! TO.N,Net-(U3A-+)*
X100965000Y-74995000D03*
G04 #@! TO.P,U3,4,V-*
G04 #@! TO.N,GND*
X99695000Y-74995000D03*
G04 #@! TO.P,U3,5,+*
G04 #@! TO.N,Net-(U3B-+)*
X99695000Y-79945000D03*
G04 #@! TO.P,U3,6,-*
G04 #@! TO.N,Net-(U3B--)*
X100965000Y-79945000D03*
G04 #@! TO.P,U3,7*
G04 #@! TO.N,Net-(J9-Pin_2)*
X102235000Y-79945000D03*
G04 #@! TO.P,U3,8,V+*
G04 #@! TO.N,+3V3*
X103505000Y-79945000D03*
G04 #@! TD*
D16*
G04 #@! TO.P,U2,1,ADJ*
G04 #@! TO.N,Net-(D3-A)*
X120650000Y-105410000D03*
D17*
G04 #@! TO.P,U2,2,VO*
G04 #@! TO.N,+3V3*
X118110000Y-105410000D03*
G04 #@! TO.P,U2,3,VI*
G04 #@! TO.N,Net-(D1-K)*
X115570000Y-105410000D03*
G04 #@! TD*
D18*
G04 #@! TO.P,R19,1*
G04 #@! TO.N,Net-(U3B-+)*
X99337500Y-84455000D03*
G04 #@! TO.P,R19,2*
G04 #@! TO.N,Net-(J9-Pin_2)*
X97512500Y-84455000D03*
G04 #@! TD*
D19*
G04 #@! TO.P,R18,1*
G04 #@! TO.N,GND*
X91797500Y-92075000D03*
G04 #@! TO.P,R18,2*
G04 #@! TO.N,Net-(U3B--)*
X93622500Y-92075000D03*
G04 #@! TD*
D18*
G04 #@! TO.P,R17,1*
G04 #@! TO.N,Net-(U3B--)*
X93622500Y-95250000D03*
G04 #@! TO.P,R17,2*
G04 #@! TO.N,Net-(J2-In)*
X91797500Y-95250000D03*
G04 #@! TD*
D19*
G04 #@! TO.P,R16,1*
G04 #@! TO.N,Net-(C9-Pad1)*
X91797500Y-88900000D03*
G04 #@! TO.P,R16,2*
G04 #@! TO.N,Net-(U3B-+)*
X93622500Y-88900000D03*
G04 #@! TD*
G04 #@! TO.P,R15,1*
G04 #@! TO.N,Net-(J7-In)*
X86717500Y-88900000D03*
G04 #@! TO.P,R15,2*
G04 #@! TO.N,Net-(C9-Pad1)*
X88542500Y-88900000D03*
G04 #@! TD*
G04 #@! TO.P,R14,1*
G04 #@! TO.N,GND*
X91797500Y-71755000D03*
G04 #@! TO.P,R14,2*
G04 #@! TO.N,Net-(U3A--)*
X93622500Y-71755000D03*
G04 #@! TD*
D18*
G04 #@! TO.P,R13,1*
G04 #@! TO.N,Net-(U3A--)*
X93622500Y-67310000D03*
G04 #@! TO.P,R13,2*
G04 #@! TO.N,Net-(J1-In)*
X91797500Y-67310000D03*
G04 #@! TD*
D19*
G04 #@! TO.P,R12,1*
G04 #@! TO.N,Net-(U3A-+)*
X100965000Y-65405000D03*
G04 #@! TO.P,R12,2*
G04 #@! TO.N,Net-(J8-Pin_1)*
X102790000Y-65405000D03*
G04 #@! TD*
G04 #@! TO.P,R11,1*
G04 #@! TO.N,Net-(C8-Pad1)*
X91797500Y-60960000D03*
G04 #@! TO.P,R11,2*
G04 #@! TO.N,Net-(U3A-+)*
X93622500Y-60960000D03*
G04 #@! TD*
G04 #@! TO.P,R10,1*
G04 #@! TO.N,Net-(J5-In)*
X86717500Y-60960000D03*
G04 #@! TO.P,R10,2*
G04 #@! TO.N,Net-(C8-Pad1)*
X88542500Y-60960000D03*
G04 #@! TD*
D18*
G04 #@! TO.P,R9,1*
G04 #@! TO.N,+3V3*
X116125000Y-72390000D03*
G04 #@! TO.P,R9,2*
G04 #@! TO.N,Net-(JP1-C)*
X114300000Y-72390000D03*
G04 #@! TD*
G04 #@! TO.P,R8,1*
G04 #@! TO.N,Net-(D3-A)*
X122197500Y-96520000D03*
G04 #@! TO.P,R8,2*
G04 #@! TO.N,GND*
X120372500Y-96520000D03*
G04 #@! TD*
D19*
G04 #@! TO.P,R7,1*
G04 #@! TO.N,+3V3*
X120372500Y-99695000D03*
G04 #@! TO.P,R7,2*
G04 #@! TO.N,Net-(D3-A)*
X122197500Y-99695000D03*
G04 #@! TD*
D10*
G04 #@! TO.P,JP1,1,A*
G04 #@! TO.N,Net-(J4-Pin_1)*
X117475000Y-67945000D03*
D11*
G04 #@! TO.P,JP1,2,C*
G04 #@! TO.N,Net-(JP1-C)*
X114935000Y-67945000D03*
G04 #@! TO.P,JP1,3,B*
G04 #@! TO.N,Net-(D4-A)*
X112395000Y-67945000D03*
G04 #@! TD*
D13*
G04 #@! TO.P,J7,1,In*
G04 #@! TO.N,Net-(J7-In)*
X77470000Y-88900000D03*
D14*
G04 #@! TO.P,J7,2,Ext*
G04 #@! TO.N,GND*
X80010000Y-91440000D03*
X74930000Y-91440000D03*
X74930000Y-86360000D03*
X80010000Y-86360000D03*
G04 #@! TD*
D13*
G04 #@! TO.P,J5,1,In*
G04 #@! TO.N,Net-(J5-In)*
X77470000Y-60960000D03*
D14*
G04 #@! TO.P,J5,2,Ext*
G04 #@! TO.N,GND*
X80010000Y-63500000D03*
X74930000Y-63500000D03*
X74930000Y-58420000D03*
X80010000Y-58420000D03*
G04 #@! TD*
D10*
G04 #@! TO.P,J4,1,Pin_1*
G04 #@! TO.N,Net-(J4-Pin_1)*
X117475000Y-58420000D03*
D11*
G04 #@! TO.P,J4,2,Pin_2*
G04 #@! TO.N,GND*
X114935000Y-58420000D03*
G04 #@! TD*
D20*
G04 #@! TO.P,F1,1*
G04 #@! TO.N,VCC*
X97155000Y-101600000D03*
G04 #@! TO.P,F1,2*
G04 #@! TO.N,Net-(D1-K)*
X102155000Y-101600000D03*
G04 #@! TD*
D21*
G04 #@! TO.P,D4,1,K*
G04 #@! TO.N,GND*
X112395000Y-61927500D03*
G04 #@! TO.P,D4,2,A*
G04 #@! TO.N,Net-(D4-A)*
X112395000Y-63802500D03*
G04 #@! TD*
D22*
G04 #@! TO.P,D3,1,K*
G04 #@! TO.N,+3V3*
X116840000Y-85725000D03*
D23*
G04 #@! TO.P,D3,2,A*
G04 #@! TO.N,Net-(D3-A)*
X127000000Y-85725000D03*
G04 #@! TD*
D22*
G04 #@! TO.P,D2,1,K*
G04 #@! TO.N,Net-(D1-K)*
X116840000Y-99695000D03*
D23*
G04 #@! TO.P,D2,2,A*
G04 #@! TO.N,+3V3*
X116840000Y-89535000D03*
G04 #@! TD*
D22*
G04 #@! TO.P,D1,1,K*
G04 #@! TO.N,Net-(D1-K)*
X109855000Y-105410000D03*
D23*
G04 #@! TO.P,D1,2,A*
G04 #@! TO.N,GND*
X97155000Y-105410000D03*
G04 #@! TD*
D24*
G04 #@! TO.P,C11,1*
G04 #@! TO.N,+3V3*
X106680000Y-77785000D03*
G04 #@! TO.P,C11,2*
G04 #@! TO.N,GND*
X106680000Y-75885000D03*
G04 #@! TD*
G04 #@! TO.P,C10,1*
G04 #@! TO.N,+3V3*
X110490000Y-77785000D03*
G04 #@! TO.P,C10,2*
G04 #@! TO.N,GND*
X110490000Y-75885000D03*
G04 #@! TD*
D25*
G04 #@! TO.P,C9,1*
G04 #@! TO.N,Net-(C9-Pad1)*
X88900000Y-93030000D03*
G04 #@! TO.P,C9,2*
G04 #@! TO.N,Net-(J2-In)*
X88900000Y-94930000D03*
G04 #@! TD*
G04 #@! TO.P,C8,2*
G04 #@! TO.N,Net-(J1-In)*
X88900000Y-66990000D03*
G04 #@! TO.P,C8,1*
G04 #@! TO.N,Net-(C8-Pad1)*
X88900000Y-65090000D03*
G04 #@! TD*
G04 #@! TO.P,C7,1*
G04 #@! TO.N,+3V3*
X113030000Y-89855000D03*
G04 #@! TO.P,C7,2*
G04 #@! TO.N,GND*
X113030000Y-91755000D03*
G04 #@! TD*
D26*
G04 #@! TO.P,C6,1*
G04 #@! TO.N,Net-(D3-A)*
X126937500Y-90805000D03*
G04 #@! TO.P,C6,2*
G04 #@! TO.N,GND*
X120712500Y-90805000D03*
G04 #@! TD*
D25*
G04 #@! TO.P,C5,1*
G04 #@! TO.N,Net-(D1-K)*
X105410000Y-100650000D03*
G04 #@! TO.P,C5,2*
G04 #@! TO.N,GND*
X105410000Y-102550000D03*
G04 #@! TD*
D27*
G04 #@! TO.N,+3V3*
X118745000Y-93980000D03*
X117475000Y-73025000D03*
X116840000Y-78105000D03*
G04 #@! TO.N,GND*
X111760000Y-75565000D03*
X98425000Y-73660000D03*
X105410000Y-75565000D03*
X112395000Y-92710000D03*
X81915000Y-104775000D03*
X90170000Y-91440000D03*
X82550000Y-91440000D03*
X90170000Y-71755000D03*
X82550000Y-71755000D03*
X106680000Y-102870000D03*
G04 #@! TO.N,Net-(J9-Pin_2)*
X97790000Y-82550000D03*
X101689500Y-82550000D03*
G04 #@! TO.N,Net-(U3A--)*
X100240500Y-67310000D03*
X102235000Y-69215000D03*
G04 #@! TD*
D28*
G04 #@! TO.N,Net-(J9-Pin_2)*
X126492000Y-68321000D02*
X121920000Y-72893000D01*
X121920000Y-72893000D02*
X121920000Y-74930000D01*
G04 #@! TO.N,+3V3*
X118745000Y-98067500D02*
X118745000Y-93980000D01*
X120372500Y-99695000D02*
X118745000Y-98067500D01*
G04 #@! TO.N,Net-(J9-Pin_2)*
X101689500Y-82550000D02*
X105410000Y-82550000D01*
X105410000Y-82550000D02*
X108585000Y-79375000D01*
X117475000Y-79375000D02*
X121920000Y-74930000D01*
X108585000Y-79375000D02*
X117475000Y-79375000D01*
G04 #@! TO.N,Net-(J8-Pin_1)*
X121285000Y-70240305D02*
X121285000Y-62230000D01*
X117197805Y-74327500D02*
X121285000Y-70240305D01*
X104172500Y-74327500D02*
X117197805Y-74327500D01*
X103505000Y-74995000D02*
X104172500Y-74327500D01*
X121285000Y-62230000D02*
X125095000Y-58420000D01*
X125095000Y-58420000D02*
X126365000Y-58420000D01*
G04 #@! TO.N,+3V3*
X116840000Y-72390000D02*
X117475000Y-73025000D01*
X116125000Y-72390000D02*
X116840000Y-72390000D01*
G04 #@! TO.N,GND*
X112395000Y-61927500D02*
X112395000Y-60960000D01*
X112395000Y-60960000D02*
X114935000Y-58420000D01*
G04 #@! TO.N,Net-(J4-Pin_1)*
X117475000Y-67945000D02*
X117475000Y-58420000D01*
G04 #@! TO.N,Net-(D4-A)*
X112395000Y-67945000D02*
X112395000Y-63802500D01*
G04 #@! TO.N,Net-(JP1-C)*
X114300000Y-72390000D02*
X114935000Y-71755000D01*
X114935000Y-71755000D02*
X114935000Y-67945000D01*
G04 #@! TO.N,+3V3*
X116840000Y-78105000D02*
X116520000Y-77785000D01*
X116520000Y-77785000D02*
X110490000Y-77785000D01*
G04 #@! TO.N,GND*
X111440000Y-75885000D02*
X111760000Y-75565000D01*
X110490000Y-75885000D02*
X111440000Y-75885000D01*
X106680000Y-75885000D02*
X110490000Y-75885000D01*
X106680000Y-75885000D02*
X105730000Y-75885000D01*
X98425000Y-73725000D02*
X99695000Y-74995000D01*
X105730000Y-75885000D02*
X105410000Y-75565000D01*
X98425000Y-73660000D02*
X98425000Y-73725000D01*
G04 #@! TO.N,+3V3*
X106680000Y-77785000D02*
X110490000Y-77785000D01*
X103505000Y-79945000D02*
X103570000Y-79945000D01*
X105730000Y-77785000D02*
X106680000Y-77785000D01*
X103570000Y-79945000D02*
X105730000Y-77785000D01*
G04 #@! TO.N,GND*
X112395000Y-92710000D02*
X112395000Y-92390000D01*
X112395000Y-92390000D02*
X113030000Y-91755000D01*
X81280000Y-105410000D02*
X81915000Y-104775000D01*
X79756000Y-105410000D02*
X81280000Y-105410000D01*
X80010000Y-91440000D02*
X82550000Y-91440000D01*
X90170000Y-91440000D02*
X91162500Y-91440000D01*
X91162500Y-91440000D02*
X91797500Y-92075000D01*
X80010000Y-72136000D02*
X82169000Y-72136000D01*
X82169000Y-72136000D02*
X82550000Y-71755000D01*
X90170000Y-71755000D02*
X91797500Y-71755000D01*
X74930000Y-58420000D02*
X80010000Y-58420000D01*
X74930000Y-63500000D02*
X74930000Y-58420000D01*
X80010000Y-63500000D02*
X74930000Y-63500000D01*
X80010000Y-72136000D02*
X80010000Y-63500000D01*
X74930000Y-72136000D02*
X80010000Y-72136000D01*
X74930000Y-77216000D02*
X74930000Y-72136000D01*
X80010000Y-77216000D02*
X74930000Y-77216000D01*
X80010000Y-86360000D02*
X80010000Y-77216000D01*
X74930000Y-86360000D02*
X80010000Y-86360000D01*
X74930000Y-91440000D02*
X74930000Y-86360000D01*
X80010000Y-91440000D02*
X74930000Y-91440000D01*
X79756000Y-100330000D02*
X79756000Y-91694000D01*
X79756000Y-91694000D02*
X80010000Y-91440000D01*
X74676000Y-100330000D02*
X79756000Y-100330000D01*
X74676000Y-105410000D02*
X74676000Y-100330000D01*
X79756000Y-105410000D02*
X74676000Y-105410000D01*
X113030000Y-91755000D02*
X113980000Y-91755000D01*
X113980000Y-91755000D02*
X114935000Y-92710000D01*
X114935000Y-92710000D02*
X118807500Y-92710000D01*
X118807500Y-92710000D02*
X120712500Y-90805000D01*
X120372500Y-96520000D02*
X120372500Y-91145000D01*
X120372500Y-91145000D02*
X120712500Y-90805000D01*
X106360000Y-102550000D02*
X106680000Y-102870000D01*
X105410000Y-102550000D02*
X106360000Y-102550000D01*
G04 #@! TO.N,+3V3*
X113030000Y-89855000D02*
X113350000Y-89535000D01*
X113350000Y-89535000D02*
X116840000Y-89535000D01*
X116840000Y-89535000D02*
X116840000Y-85725000D01*
G04 #@! TO.N,Net-(D3-A)*
X126937500Y-90805000D02*
X127000000Y-90742500D01*
X127000000Y-90742500D02*
X127000000Y-85725000D01*
X122197500Y-96520000D02*
X122197500Y-95545000D01*
X122197500Y-95545000D02*
X126937500Y-90805000D01*
X120650000Y-105410000D02*
X120650000Y-103505000D01*
X120650000Y-103505000D02*
X122197500Y-101957500D01*
X122197500Y-101957500D02*
X122197500Y-99695000D01*
X122197500Y-99695000D02*
X122197500Y-96520000D01*
G04 #@! TO.N,+3V3*
X118110000Y-103505000D02*
X120015000Y-101600000D01*
X118110000Y-105410000D02*
X118110000Y-103505000D01*
X120015000Y-101600000D02*
X120015000Y-100052500D01*
X120015000Y-100052500D02*
X120372500Y-99695000D01*
G04 #@! TO.N,Net-(D1-K)*
X115570000Y-105410000D02*
X115570000Y-100965000D01*
X115570000Y-100965000D02*
X116840000Y-99695000D01*
G04 #@! TO.N,VCC*
X90170000Y-105410000D02*
X93980000Y-101600000D01*
X93980000Y-101600000D02*
X97155000Y-101600000D01*
G04 #@! TO.N,GND*
X92710000Y-105410000D02*
X97155000Y-105410000D01*
G04 #@! TO.N,Net-(D1-K)*
X109855000Y-105410000D02*
X115570000Y-105410000D01*
G04 #@! TO.N,GND*
X97155000Y-105410000D02*
X102550000Y-105410000D01*
X102550000Y-105410000D02*
X105410000Y-102550000D01*
G04 #@! TO.N,Net-(D1-K)*
X105410000Y-100650000D02*
X108270000Y-100650000D01*
X108270000Y-100650000D02*
X109855000Y-102235000D01*
X109855000Y-102235000D02*
X109855000Y-105410000D01*
X102155000Y-101600000D02*
X102870000Y-101600000D01*
X102870000Y-101600000D02*
X103820000Y-100650000D01*
X103820000Y-100650000D02*
X105410000Y-100650000D01*
G04 #@! TO.N,Net-(U3B--)*
X93622500Y-95250000D02*
X93622500Y-92075000D01*
G04 #@! TO.N,Net-(J9-Pin_2)*
X101689500Y-82460500D02*
X102235000Y-81915000D01*
X101689500Y-82550000D02*
X101689500Y-82460500D01*
X97512500Y-82827500D02*
X97790000Y-82550000D01*
X97512500Y-84455000D02*
X97512500Y-82827500D01*
X102235000Y-81915000D02*
X102235000Y-79945000D01*
G04 #@! TO.N,Net-(U3A--)*
X93622500Y-71755000D02*
X93622500Y-67310000D01*
G04 #@! TO.N,Net-(J8-Pin_1)*
X103505000Y-74995000D02*
X103505000Y-66120000D01*
X103505000Y-66120000D02*
X102790000Y-65405000D01*
G04 #@! TO.N,Net-(U3B--)*
X95250000Y-95250000D02*
X100965000Y-89535000D01*
X93622500Y-95250000D02*
X95250000Y-95250000D01*
X100965000Y-89535000D02*
X100965000Y-79945000D01*
G04 #@! TO.N,Net-(U3B-+)*
X93622500Y-88900000D02*
X97155000Y-88900000D01*
X99695000Y-86360000D02*
X99695000Y-79945000D01*
X97155000Y-88900000D02*
X99695000Y-86360000D01*
G04 #@! TO.N,Net-(U3A--)*
X102235000Y-74995000D02*
X102235000Y-69215000D01*
X100240500Y-67310000D02*
X93622500Y-67310000D01*
G04 #@! TO.N,Net-(U3A-+)*
X100965000Y-74995000D02*
X100965000Y-62865000D01*
X100965000Y-62865000D02*
X99060000Y-60960000D01*
X99060000Y-60960000D02*
X93622500Y-60960000D01*
G04 #@! TO.N,Net-(J1-In)*
X88900000Y-66990000D02*
X91477500Y-66990000D01*
X91477500Y-66990000D02*
X91797500Y-67310000D01*
G04 #@! TO.N,Net-(J2-In)*
X88900000Y-94930000D02*
X91477500Y-94930000D01*
X91477500Y-94930000D02*
X91797500Y-95250000D01*
X87630000Y-102870000D02*
X88900000Y-101600000D01*
X77216000Y-102870000D02*
X87630000Y-102870000D01*
X88900000Y-101600000D02*
X88900000Y-94930000D01*
G04 #@! TO.N,Net-(J1-In)*
X87884000Y-74676000D02*
X88900000Y-73660000D01*
X77470000Y-74676000D02*
X87884000Y-74676000D01*
X88900000Y-73660000D02*
X88900000Y-66990000D01*
G04 #@! TO.N,Net-(C9-Pad1)*
X88900000Y-93030000D02*
X88900000Y-89257500D01*
X88900000Y-89257500D02*
X88542500Y-88900000D01*
X88542500Y-88900000D02*
X91797500Y-88900000D01*
G04 #@! TO.N,Net-(J7-In)*
X77470000Y-88900000D02*
X86717500Y-88900000D01*
G04 #@! TO.N,Net-(C8-Pad1)*
X88542500Y-60960000D02*
X91797500Y-60960000D01*
X88900000Y-65090000D02*
X88900000Y-61317500D01*
X88900000Y-61317500D02*
X88542500Y-60960000D01*
G04 #@! TO.N,Net-(J5-In)*
X77470000Y-60960000D02*
X86717500Y-60960000D01*
G04 #@! TD*
G04 #@! TA.AperFunction,Conductor*
G04 #@! TO.N,GND*
G36*
X73175703Y-72422113D02*
G01*
X73213477Y-72480891D01*
X73215391Y-72488233D01*
X73253060Y-72653270D01*
X73348882Y-72897424D01*
X73480027Y-73124573D01*
X73527873Y-73184571D01*
X73527874Y-73184571D01*
X74178766Y-72533679D01*
X74222316Y-72615822D01*
X74342009Y-72756735D01*
X74489195Y-72868623D01*
X74531402Y-72888150D01*
X73880831Y-73538720D01*
X74052546Y-73655793D01*
X74288860Y-73769596D01*
X74539496Y-73846908D01*
X74798856Y-73886000D01*
X75061144Y-73886000D01*
X75320503Y-73846908D01*
X75571136Y-73769597D01*
X75641697Y-73735617D01*
X75710639Y-73724265D01*
X75774773Y-73751986D01*
X75813739Y-73809981D01*
X75819500Y-73847337D01*
X75819500Y-75504662D01*
X75799815Y-75571701D01*
X75747011Y-75617456D01*
X75677853Y-75627400D01*
X75641699Y-75616382D01*
X75571142Y-75582404D01*
X75320503Y-75505091D01*
X75061144Y-75466000D01*
X74798856Y-75466000D01*
X74539496Y-75505091D01*
X74288860Y-75582403D01*
X74052545Y-75696206D01*
X73880831Y-75813278D01*
X74531390Y-76463837D01*
X74412569Y-76535331D01*
X74278342Y-76662477D01*
X74175138Y-76814692D01*
X73527873Y-76167427D01*
X73480028Y-76227424D01*
X73348882Y-76454576D01*
X73253059Y-76698729D01*
X73215391Y-76863766D01*
X73181282Y-76924744D01*
X73119621Y-76957602D01*
X73049983Y-76951907D01*
X72994480Y-76909467D01*
X72970732Y-76843757D01*
X72970500Y-76836173D01*
X72970500Y-72515826D01*
X72990185Y-72448787D01*
X73042989Y-72403032D01*
X73112147Y-72393088D01*
X73175703Y-72422113D01*
G37*
G04 #@! TD.AperFunction*
G04 #@! TA.AperFunction,Conductor*
G36*
X73175703Y-58706113D02*
G01*
X73213477Y-58764891D01*
X73215391Y-58772233D01*
X73253060Y-58937270D01*
X73348882Y-59181424D01*
X73480027Y-59408573D01*
X73527873Y-59468571D01*
X73527874Y-59468571D01*
X74178766Y-58817679D01*
X74222316Y-58899822D01*
X74342009Y-59040735D01*
X74489195Y-59152623D01*
X74531402Y-59172150D01*
X73880831Y-59822720D01*
X74052546Y-59939793D01*
X74288860Y-60053596D01*
X74539496Y-60130908D01*
X74798856Y-60170000D01*
X75061144Y-60170000D01*
X75320503Y-60130908D01*
X75571136Y-60053597D01*
X75641697Y-60019617D01*
X75710639Y-60008265D01*
X75774773Y-60035986D01*
X75813739Y-60093981D01*
X75819500Y-60131337D01*
X75819500Y-61788662D01*
X75799815Y-61855701D01*
X75747011Y-61901456D01*
X75677853Y-61911400D01*
X75641699Y-61900382D01*
X75571142Y-61866404D01*
X75320503Y-61789091D01*
X75061144Y-61750000D01*
X74798856Y-61750000D01*
X74539496Y-61789091D01*
X74288860Y-61866403D01*
X74052545Y-61980206D01*
X73880831Y-62097278D01*
X74531390Y-62747837D01*
X74412569Y-62819331D01*
X74278342Y-62946477D01*
X74175138Y-63098692D01*
X73527873Y-62451427D01*
X73480028Y-62511424D01*
X73348882Y-62738576D01*
X73253059Y-62982729D01*
X73215391Y-63147766D01*
X73181282Y-63208744D01*
X73119621Y-63241602D01*
X73049983Y-63235907D01*
X72994480Y-63193467D01*
X72970732Y-63127757D01*
X72970500Y-63120173D01*
X72970500Y-58799826D01*
X72990185Y-58732787D01*
X73042989Y-58687032D01*
X73112147Y-58677088D01*
X73175703Y-58706113D01*
G37*
G04 #@! TD.AperFunction*
G04 #@! TA.AperFunction,Conductor*
G36*
X128212539Y-55900185D02*
G01*
X128258294Y-55952989D01*
X128269500Y-56004500D01*
X128269500Y-84435482D01*
X128249815Y-84502521D01*
X128197011Y-84548276D01*
X128127853Y-84558220D01*
X128064968Y-84529772D01*
X127943659Y-84426164D01*
X127728859Y-84294534D01*
X127612484Y-84246330D01*
X127496110Y-84198126D01*
X127251149Y-84139317D01*
X127062882Y-84124500D01*
X127000000Y-84119551D01*
X126999999Y-84119551D01*
X126748850Y-84139317D01*
X126503889Y-84198126D01*
X126271139Y-84294535D01*
X126056342Y-84426163D01*
X125864776Y-84589776D01*
X125701163Y-84781342D01*
X125569535Y-84996139D01*
X125473126Y-85228889D01*
X125414317Y-85473850D01*
X125394551Y-85725000D01*
X125414317Y-85976149D01*
X125473126Y-86221110D01*
X125473360Y-86221674D01*
X125569534Y-86453859D01*
X125701164Y-86668659D01*
X125864776Y-86860224D01*
X126056341Y-87023836D01*
X126127317Y-87067330D01*
X126271135Y-87155463D01*
X126271138Y-87155464D01*
X126271141Y-87155466D01*
X126297951Y-87166571D01*
X126352354Y-87210408D01*
X126374421Y-87276702D01*
X126374500Y-87281132D01*
X126374500Y-88905500D01*
X126354815Y-88972539D01*
X126302011Y-89018294D01*
X126250501Y-89029500D01*
X126103141Y-89029500D01*
X126103121Y-89029500D01*
X126099992Y-89029501D01*
X126096860Y-89029820D01*
X126096858Y-89029821D01*
X125997203Y-89040000D01*
X125830665Y-89095186D01*
X125681342Y-89187288D01*
X125557288Y-89311342D01*
X125465186Y-89460665D01*
X125410000Y-89627202D01*
X125399819Y-89726858D01*
X125399817Y-89726878D01*
X125399500Y-89729991D01*
X125399500Y-89733119D01*
X125399499Y-89733139D01*
X125399499Y-91407045D01*
X125379814Y-91474085D01*
X125363180Y-91494726D01*
X121813708Y-95044199D01*
X121797610Y-95057096D01*
X121749596Y-95108225D01*
X121746892Y-95111016D01*
X121730128Y-95127780D01*
X121730121Y-95127787D01*
X121727380Y-95130529D01*
X121724999Y-95133597D01*
X121724990Y-95133608D01*
X121724911Y-95133711D01*
X121717342Y-95142572D01*
X121687435Y-95174420D01*
X121677785Y-95191974D01*
X121667109Y-95208228D01*
X121654826Y-95224063D01*
X121637475Y-95264158D01*
X121632338Y-95274644D01*
X121611302Y-95312908D01*
X121606321Y-95332309D01*
X121600020Y-95350711D01*
X121589473Y-95375086D01*
X121544785Y-95428796D01*
X121540767Y-95431382D01*
X121466346Y-95477285D01*
X121372327Y-95571304D01*
X121311004Y-95604788D01*
X121241312Y-95599804D01*
X121196965Y-95571303D01*
X121103345Y-95477683D01*
X120954122Y-95385642D01*
X120787696Y-95330493D01*
X120688109Y-95320319D01*
X120681832Y-95320000D01*
X120622500Y-95320000D01*
X120622500Y-97719999D01*
X120681829Y-97719999D01*
X120688111Y-97719678D01*
X120787695Y-97709506D01*
X120954122Y-97654357D01*
X121103344Y-97562316D01*
X121196964Y-97468696D01*
X121258287Y-97435210D01*
X121327978Y-97440194D01*
X121372327Y-97468695D01*
X121466344Y-97562712D01*
X121513096Y-97591548D01*
X121559821Y-97643495D01*
X121572000Y-97697087D01*
X121572000Y-98517911D01*
X121552315Y-98584950D01*
X121513098Y-98623449D01*
X121466342Y-98652288D01*
X121372681Y-98745950D01*
X121311358Y-98779435D01*
X121241666Y-98774451D01*
X121197319Y-98745950D01*
X121103657Y-98652288D01*
X120954334Y-98560186D01*
X120787797Y-98505000D01*
X120688141Y-98494819D01*
X120688122Y-98494818D01*
X120685009Y-98494500D01*
X120681860Y-98494500D01*
X120107952Y-98494500D01*
X120040913Y-98474815D01*
X120020271Y-98458181D01*
X119406819Y-97844728D01*
X119373334Y-97783405D01*
X119370500Y-97757047D01*
X119370500Y-97590524D01*
X119390185Y-97523485D01*
X119442989Y-97477730D01*
X119512147Y-97467786D01*
X119575703Y-97496811D01*
X119582181Y-97502843D01*
X119641654Y-97562316D01*
X119790877Y-97654357D01*
X119957303Y-97709506D01*
X120056891Y-97719680D01*
X120063167Y-97719999D01*
X120122499Y-97719998D01*
X120122500Y-97719998D01*
X120122500Y-95320000D01*
X120122499Y-95319999D01*
X120063171Y-95320000D01*
X120056888Y-95320321D01*
X119957304Y-95330493D01*
X119790877Y-95385642D01*
X119641654Y-95477683D01*
X119582181Y-95537157D01*
X119520858Y-95570642D01*
X119451166Y-95565658D01*
X119395233Y-95523786D01*
X119370816Y-95458322D01*
X119370500Y-95449476D01*
X119370500Y-94678687D01*
X119390185Y-94611648D01*
X119402350Y-94595714D01*
X119441701Y-94552011D01*
X119477533Y-94512216D01*
X119495749Y-94480666D01*
X119572179Y-94348284D01*
X119598206Y-94268181D01*
X119630674Y-94168256D01*
X119650460Y-93980000D01*
X119630674Y-93791744D01*
X119572179Y-93611716D01*
X119572179Y-93611715D01*
X119477533Y-93447783D01*
X119350870Y-93307110D01*
X119197730Y-93195848D01*
X119024802Y-93118855D01*
X118839648Y-93079500D01*
X118839646Y-93079500D01*
X118650354Y-93079500D01*
X118650352Y-93079500D01*
X118465197Y-93118855D01*
X118292269Y-93195848D01*
X118139129Y-93307110D01*
X118012466Y-93447783D01*
X117917820Y-93611715D01*
X117859326Y-93791742D01*
X117839540Y-93980000D01*
X117859326Y-94168257D01*
X117917820Y-94348284D01*
X118012464Y-94512213D01*
X118087650Y-94595714D01*
X118117880Y-94658706D01*
X118119500Y-94678687D01*
X118119500Y-97970909D01*
X118099815Y-98037948D01*
X118047011Y-98083703D01*
X117989280Y-98094651D01*
X117987873Y-98094500D01*
X117984552Y-98094500D01*
X115695439Y-98094500D01*
X115695420Y-98094500D01*
X115692128Y-98094501D01*
X115688848Y-98094853D01*
X115688840Y-98094854D01*
X115632515Y-98100909D01*
X115497669Y-98151204D01*
X115382454Y-98237454D01*
X115296204Y-98352668D01*
X115250647Y-98474815D01*
X115245909Y-98487517D01*
X115239500Y-98547127D01*
X115239500Y-98550448D01*
X115239500Y-98550449D01*
X115239500Y-100359546D01*
X115219815Y-100426585D01*
X115203183Y-100447224D01*
X115186205Y-100464201D01*
X115186206Y-100464202D01*
X115170109Y-100477097D01*
X115122096Y-100528225D01*
X115119392Y-100531016D01*
X115102628Y-100547780D01*
X115102621Y-100547787D01*
X115099880Y-100550529D01*
X115097499Y-100553597D01*
X115097490Y-100553608D01*
X115097411Y-100553711D01*
X115089842Y-100562572D01*
X115059935Y-100594420D01*
X115050285Y-100611974D01*
X115039609Y-100628228D01*
X115027326Y-100644063D01*
X115009975Y-100684158D01*
X115004838Y-100694644D01*
X114983802Y-100732907D01*
X114978821Y-100752309D01*
X114972520Y-100770711D01*
X114964561Y-100789102D01*
X114957728Y-100832242D01*
X114955360Y-100843674D01*
X114944499Y-100885977D01*
X114944500Y-100906016D01*
X114942972Y-100925414D01*
X114939840Y-100945196D01*
X114940036Y-100947266D01*
X114943950Y-100988673D01*
X114944500Y-101000343D01*
X114944500Y-103974990D01*
X114924815Y-104042029D01*
X114879519Y-104084044D01*
X114772562Y-104141927D01*
X114582536Y-104289829D01*
X114419446Y-104466993D01*
X114287745Y-104668576D01*
X114269439Y-104710310D01*
X114224483Y-104763796D01*
X114157747Y-104784486D01*
X114155883Y-104784500D01*
X111579499Y-104784500D01*
X111512460Y-104764815D01*
X111466705Y-104712011D01*
X111455499Y-104660500D01*
X111455499Y-104265439D01*
X111455499Y-104262128D01*
X111449091Y-104202517D01*
X111398796Y-104067669D01*
X111312546Y-103952454D01*
X111197331Y-103866204D01*
X111062483Y-103815909D01*
X111021066Y-103811456D01*
X111006166Y-103809854D01*
X111006165Y-103809853D01*
X111002873Y-103809500D01*
X110999551Y-103809500D01*
X110604500Y-103809500D01*
X110537461Y-103789815D01*
X110491706Y-103737011D01*
X110480500Y-103685500D01*
X110480500Y-102317739D01*
X110482763Y-102297238D01*
X110482669Y-102294256D01*
X110480561Y-102227143D01*
X110480500Y-102223249D01*
X110480500Y-102199544D01*
X110480500Y-102195650D01*
X110479998Y-102191681D01*
X110479080Y-102180024D01*
X110477709Y-102136372D01*
X110472119Y-102117134D01*
X110468174Y-102098082D01*
X110465664Y-102078208D01*
X110449578Y-102037581D01*
X110445805Y-102026560D01*
X110433617Y-101984610D01*
X110429296Y-101977304D01*
X110423421Y-101967369D01*
X110414863Y-101949902D01*
X110407486Y-101931268D01*
X110381798Y-101895912D01*
X110375409Y-101886184D01*
X110353170Y-101848579D01*
X110339006Y-101834415D01*
X110326369Y-101819620D01*
X110314595Y-101803414D01*
X110301869Y-101792886D01*
X110280935Y-101775568D01*
X110272305Y-101767714D01*
X108770802Y-100266211D01*
X108757906Y-100250113D01*
X108706775Y-100202098D01*
X108703978Y-100199387D01*
X108687227Y-100182636D01*
X108684471Y-100179880D01*
X108681290Y-100177412D01*
X108672422Y-100169837D01*
X108640582Y-100139938D01*
X108623024Y-100130285D01*
X108606764Y-100119604D01*
X108590936Y-100107327D01*
X108550851Y-100089980D01*
X108540361Y-100084841D01*
X108502091Y-100063802D01*
X108482691Y-100058821D01*
X108464284Y-100052519D01*
X108445897Y-100044562D01*
X108402758Y-100037729D01*
X108391324Y-100035361D01*
X108349019Y-100024500D01*
X108328984Y-100024500D01*
X108309586Y-100022973D01*
X108302162Y-100021797D01*
X108289805Y-100019840D01*
X108289804Y-100019840D01*
X108264468Y-100022235D01*
X108246325Y-100023950D01*
X108234656Y-100024500D01*
X106604378Y-100024500D01*
X106537339Y-100004815D01*
X106498839Y-99965596D01*
X106477711Y-99931342D01*
X106353657Y-99807288D01*
X106204334Y-99715186D01*
X106037797Y-99660000D01*
X105938141Y-99649819D01*
X105938122Y-99649818D01*
X105935009Y-99649500D01*
X105931860Y-99649500D01*
X104888140Y-99649500D01*
X104888120Y-99649500D01*
X104884992Y-99649501D01*
X104881860Y-99649820D01*
X104881858Y-99649821D01*
X104782203Y-99660000D01*
X104615665Y-99715186D01*
X104466342Y-99807288D01*
X104342288Y-99931342D01*
X104321161Y-99965596D01*
X104269213Y-100012321D01*
X104215622Y-100024500D01*
X103902744Y-100024500D01*
X103882237Y-100022235D01*
X103812127Y-100024439D01*
X103808232Y-100024500D01*
X103780650Y-100024500D01*
X103776805Y-100024985D01*
X103776780Y-100024987D01*
X103776653Y-100025004D01*
X103765033Y-100025918D01*
X103721369Y-100027290D01*
X103702129Y-100032880D01*
X103683081Y-100036825D01*
X103663209Y-100039335D01*
X103622599Y-100055413D01*
X103611554Y-100059194D01*
X103569610Y-100071381D01*
X103552365Y-100081579D01*
X103534904Y-100090133D01*
X103516267Y-100097512D01*
X103480931Y-100123185D01*
X103471174Y-100129595D01*
X103433580Y-100151829D01*
X103419413Y-100165996D01*
X103404624Y-100178626D01*
X103388413Y-100190404D01*
X103360572Y-100224058D01*
X103352711Y-100232697D01*
X103062604Y-100522804D01*
X103001281Y-100556289D01*
X102931589Y-100551305D01*
X102903802Y-100536699D01*
X102807734Y-100469432D01*
X102682230Y-100410908D01*
X102601497Y-100373261D01*
X102381689Y-100314364D01*
X102155000Y-100294531D01*
X101928310Y-100314364D01*
X101708502Y-100373261D01*
X101502264Y-100469432D01*
X101315859Y-100599953D01*
X101154953Y-100760859D01*
X101024432Y-100947264D01*
X100928261Y-101153502D01*
X100869364Y-101373310D01*
X100849531Y-101600000D01*
X100869364Y-101826689D01*
X100928261Y-102046497D01*
X101024432Y-102252735D01*
X101154953Y-102439140D01*
X101315859Y-102600046D01*
X101502264Y-102730567D01*
X101502265Y-102730567D01*
X101502266Y-102730568D01*
X101708504Y-102826739D01*
X101928308Y-102885635D01*
X102155000Y-102905468D01*
X102381692Y-102885635D01*
X102601496Y-102826739D01*
X102658838Y-102800000D01*
X104185001Y-102800000D01*
X104185001Y-102846829D01*
X104185321Y-102853111D01*
X104195493Y-102952695D01*
X104250642Y-103119122D01*
X104342683Y-103268345D01*
X104466654Y-103392316D01*
X104615877Y-103484357D01*
X104782303Y-103539506D01*
X104881890Y-103549680D01*
X104888168Y-103549999D01*
X105159999Y-103549999D01*
X105160000Y-103549998D01*
X105160000Y-102800000D01*
X105660000Y-102800000D01*
X105660000Y-103549999D01*
X105931829Y-103549999D01*
X105938111Y-103549678D01*
X106037695Y-103539506D01*
X106204122Y-103484357D01*
X106353345Y-103392316D01*
X106477316Y-103268345D01*
X106569357Y-103119122D01*
X106624506Y-102952696D01*
X106634680Y-102853109D01*
X106635000Y-102846831D01*
X106635000Y-102800000D01*
X105660000Y-102800000D01*
X105160000Y-102800000D01*
X104185001Y-102800000D01*
X102658838Y-102800000D01*
X102807734Y-102730568D01*
X102994139Y-102600047D01*
X103155047Y-102439139D01*
X103285568Y-102252734D01*
X103381739Y-102046496D01*
X103400094Y-101977988D01*
X103432186Y-101922402D01*
X104042771Y-101311819D01*
X104104095Y-101278334D01*
X104130453Y-101275500D01*
X104215622Y-101275500D01*
X104282661Y-101295185D01*
X104321161Y-101334404D01*
X104342288Y-101368657D01*
X104466340Y-101492709D01*
X104466342Y-101492710D01*
X104466344Y-101492712D01*
X104469652Y-101494752D01*
X104516379Y-101546698D01*
X104527603Y-101615660D01*
X104499762Y-101679744D01*
X104469659Y-101705830D01*
X104466654Y-101707683D01*
X104342683Y-101831654D01*
X104250642Y-101980877D01*
X104195493Y-102147303D01*
X104185319Y-102246890D01*
X104185000Y-102253168D01*
X104185000Y-102300000D01*
X106634999Y-102300000D01*
X106634999Y-102253170D01*
X106634678Y-102246888D01*
X106624506Y-102147304D01*
X106569357Y-101980877D01*
X106477316Y-101831654D01*
X106353344Y-101707682D01*
X106350343Y-101705831D01*
X106303618Y-101653883D01*
X106292397Y-101584921D01*
X106320240Y-101520839D01*
X106350345Y-101494753D01*
X106353656Y-101492712D01*
X106477712Y-101368656D01*
X106490979Y-101347145D01*
X106498839Y-101334404D01*
X106550787Y-101287679D01*
X106604378Y-101275500D01*
X107959548Y-101275500D01*
X108026587Y-101295185D01*
X108047229Y-101311819D01*
X109193182Y-102457772D01*
X109226666Y-102519093D01*
X109229500Y-102545451D01*
X109229499Y-103685500D01*
X109209814Y-103752540D01*
X109157010Y-103798294D01*
X109105499Y-103809500D01*
X108710439Y-103809500D01*
X108710420Y-103809500D01*
X108707128Y-103809501D01*
X108703848Y-103809853D01*
X108703840Y-103809854D01*
X108647515Y-103815909D01*
X108512669Y-103866204D01*
X108397454Y-103952454D01*
X108311204Y-104067668D01*
X108260910Y-104202515D01*
X108260909Y-104202517D01*
X108254500Y-104262127D01*
X108254500Y-104265448D01*
X108254500Y-104265449D01*
X108254500Y-106554560D01*
X108254500Y-106554578D01*
X108254501Y-106557872D01*
X108260909Y-106617483D01*
X108311204Y-106752331D01*
X108397454Y-106867546D01*
X108502568Y-106946234D01*
X108544438Y-107002167D01*
X108549422Y-107071858D01*
X108515937Y-107133181D01*
X108454614Y-107166666D01*
X108428256Y-107169500D01*
X97711584Y-107169500D01*
X97644545Y-107149815D01*
X97598790Y-107097011D01*
X97588846Y-107027853D01*
X97617871Y-106964297D01*
X97664131Y-106930939D01*
X97883632Y-106840017D01*
X98098364Y-106708430D01*
X98289869Y-106544869D01*
X98453430Y-106353364D01*
X98585017Y-106138632D01*
X98681396Y-105905956D01*
X98740188Y-105661068D01*
X98740272Y-105660000D01*
X97649852Y-105660000D01*
X97698559Y-105522953D01*
X97708877Y-105372114D01*
X97678116Y-105224085D01*
X97644910Y-105160000D01*
X98740271Y-105160000D01*
X98740271Y-105159999D01*
X98740188Y-105158931D01*
X98681396Y-104914043D01*
X98585017Y-104681367D01*
X98453430Y-104466635D01*
X98289869Y-104275130D01*
X98098364Y-104111569D01*
X97883632Y-103979982D01*
X97650956Y-103883603D01*
X97406070Y-103824812D01*
X97405000Y-103824727D01*
X97404999Y-104918315D01*
X97376181Y-104900791D01*
X97230596Y-104860000D01*
X97117378Y-104860000D01*
X97005217Y-104875416D01*
X96905000Y-104918946D01*
X96905000Y-103824727D01*
X96903929Y-103824812D01*
X96659043Y-103883603D01*
X96426367Y-103979982D01*
X96211635Y-104111569D01*
X96020130Y-104275130D01*
X95856569Y-104466635D01*
X95724982Y-104681367D01*
X95628603Y-104914043D01*
X95569811Y-105158931D01*
X95569728Y-105159999D01*
X95569729Y-105160000D01*
X96660148Y-105160000D01*
X96611441Y-105297047D01*
X96601123Y-105447886D01*
X96631884Y-105595915D01*
X96665090Y-105660000D01*
X95569728Y-105660000D01*
X95569811Y-105661068D01*
X95628603Y-105905956D01*
X95724982Y-106138632D01*
X95856569Y-106353364D01*
X96020130Y-106544869D01*
X96211635Y-106708430D01*
X96426367Y-106840017D01*
X96645869Y-106930939D01*
X96700272Y-106974780D01*
X96722337Y-107041074D01*
X96705058Y-107108774D01*
X96653920Y-107156384D01*
X96598416Y-107169500D01*
X80678978Y-107169500D01*
X80611939Y-107149815D01*
X80566184Y-107097011D01*
X80556240Y-107027853D01*
X80585265Y-106964297D01*
X80625178Y-106933779D01*
X80633456Y-106929792D01*
X80805167Y-106812720D01*
X80154609Y-106162161D01*
X80273431Y-106090669D01*
X80407658Y-105963523D01*
X80510861Y-105811308D01*
X81158124Y-106458571D01*
X81205972Y-106398572D01*
X81337117Y-106171423D01*
X81432940Y-105927270D01*
X81491306Y-105671552D01*
X81510907Y-105410000D01*
X81510907Y-105409999D01*
X88814340Y-105409999D01*
X88834936Y-105645407D01*
X88866240Y-105762233D01*
X88896097Y-105873663D01*
X88995965Y-106087830D01*
X89131505Y-106281401D01*
X89298599Y-106448495D01*
X89492170Y-106584035D01*
X89706337Y-106683903D01*
X89934592Y-106745063D01*
X90170000Y-106765659D01*
X90405408Y-106745063D01*
X90633663Y-106683903D01*
X90847830Y-106584035D01*
X91041401Y-106448495D01*
X91163717Y-106326178D01*
X91225036Y-106292696D01*
X91294728Y-106297680D01*
X91350662Y-106339551D01*
X91367577Y-106370528D01*
X91416647Y-106502088D01*
X91502811Y-106617188D01*
X91617910Y-106703352D01*
X91752628Y-106753599D01*
X91808867Y-106759645D01*
X91815482Y-106760000D01*
X92460000Y-106760000D01*
X92460000Y-105845501D01*
X92567685Y-105894680D01*
X92674237Y-105910000D01*
X92745763Y-105910000D01*
X92852315Y-105894680D01*
X92960000Y-105845501D01*
X92960000Y-106760000D01*
X93604518Y-106760000D01*
X93611132Y-106759645D01*
X93667371Y-106753599D01*
X93802089Y-106703352D01*
X93917188Y-106617188D01*
X94003352Y-106502089D01*
X94053599Y-106367371D01*
X94059645Y-106311132D01*
X94060000Y-106304518D01*
X94060000Y-105660000D01*
X93143686Y-105660000D01*
X93169493Y-105619844D01*
X93210000Y-105481889D01*
X93210000Y-105338111D01*
X93169493Y-105200156D01*
X93143686Y-105160000D01*
X94059999Y-105160000D01*
X94060000Y-104515481D01*
X94059645Y-104508867D01*
X94053599Y-104452628D01*
X94003352Y-104317910D01*
X93917188Y-104202811D01*
X93802089Y-104116647D01*
X93667371Y-104066400D01*
X93611132Y-104060354D01*
X93604518Y-104060000D01*
X92960000Y-104060000D01*
X92960000Y-104974498D01*
X92852315Y-104925320D01*
X92745763Y-104910000D01*
X92674237Y-104910000D01*
X92567685Y-104925320D01*
X92460000Y-104974498D01*
X92460000Y-104055951D01*
X92479685Y-103988912D01*
X92496319Y-103968270D01*
X92896601Y-103567989D01*
X94202770Y-102261819D01*
X94264094Y-102228334D01*
X94290452Y-102225500D01*
X95940812Y-102225500D01*
X96007851Y-102245185D01*
X96042387Y-102278377D01*
X96154953Y-102439140D01*
X96315859Y-102600046D01*
X96502264Y-102730567D01*
X96502265Y-102730567D01*
X96502266Y-102730568D01*
X96708504Y-102826739D01*
X96928308Y-102885635D01*
X97079435Y-102898857D01*
X97154999Y-102905468D01*
X97154999Y-102905467D01*
X97155000Y-102905468D01*
X97381692Y-102885635D01*
X97601496Y-102826739D01*
X97807734Y-102730568D01*
X97994139Y-102600047D01*
X98155047Y-102439139D01*
X98285568Y-102252734D01*
X98381739Y-102046496D01*
X98440635Y-101826692D01*
X98460468Y-101600000D01*
X98440635Y-101373308D01*
X98381739Y-101153504D01*
X98285568Y-100947266D01*
X98284118Y-100945194D01*
X98155046Y-100760859D01*
X97994140Y-100599953D01*
X97807735Y-100469432D01*
X97601497Y-100373261D01*
X97381689Y-100314364D01*
X97154999Y-100294531D01*
X96928310Y-100314364D01*
X96708502Y-100373261D01*
X96502264Y-100469432D01*
X96315859Y-100599953D01*
X96154953Y-100760859D01*
X96042387Y-100921623D01*
X95987811Y-100965248D01*
X95940812Y-100974500D01*
X94062744Y-100974500D01*
X94042236Y-100972235D01*
X93972113Y-100974439D01*
X93968219Y-100974500D01*
X93940650Y-100974500D01*
X93936794Y-100974986D01*
X93936791Y-100974987D01*
X93936735Y-100974994D01*
X93936662Y-100975003D01*
X93925043Y-100975917D01*
X93881372Y-100977289D01*
X93862128Y-100982880D01*
X93843084Y-100986824D01*
X93823208Y-100989335D01*
X93782600Y-101005413D01*
X93771554Y-101009194D01*
X93729610Y-101021382D01*
X93729607Y-101021383D01*
X93712365Y-101031579D01*
X93694904Y-101040133D01*
X93676267Y-101047512D01*
X93640931Y-101073185D01*
X93631174Y-101079595D01*
X93593580Y-101101829D01*
X93579413Y-101115996D01*
X93564624Y-101128626D01*
X93548413Y-101140404D01*
X93520572Y-101174058D01*
X93512711Y-101182697D01*
X90625646Y-104069761D01*
X90564323Y-104103246D01*
X90505873Y-104101855D01*
X90405408Y-104074936D01*
X90169999Y-104054340D01*
X89934592Y-104074936D01*
X89706336Y-104136097D01*
X89492170Y-104235965D01*
X89298598Y-104371505D01*
X89131505Y-104538598D01*
X88995965Y-104732170D01*
X88896097Y-104946336D01*
X88834936Y-105174592D01*
X88814340Y-105409999D01*
X81510907Y-105409999D01*
X81491306Y-105148447D01*
X81432940Y-104892729D01*
X81337117Y-104648575D01*
X81205972Y-104421426D01*
X81158125Y-104361427D01*
X80507232Y-105012319D01*
X80463684Y-104930178D01*
X80343991Y-104789265D01*
X80196805Y-104677377D01*
X80154596Y-104657849D01*
X80805167Y-104007278D01*
X80633451Y-103890205D01*
X80397139Y-103776403D01*
X80272611Y-103737991D01*
X80214352Y-103699421D01*
X80186194Y-103635476D01*
X80197078Y-103566459D01*
X80243546Y-103514282D01*
X80309161Y-103495500D01*
X87547256Y-103495500D01*
X87567762Y-103497764D01*
X87570665Y-103497672D01*
X87570667Y-103497673D01*
X87637872Y-103495561D01*
X87641768Y-103495500D01*
X87665448Y-103495500D01*
X87669350Y-103495500D01*
X87673313Y-103494999D01*
X87684962Y-103494080D01*
X87728627Y-103492709D01*
X87747859Y-103487120D01*
X87766918Y-103483174D01*
X87773196Y-103482381D01*
X87786792Y-103480664D01*
X87827407Y-103464582D01*
X87838444Y-103460803D01*
X87880390Y-103448618D01*
X87897629Y-103438422D01*
X87915102Y-103429862D01*
X87933732Y-103422486D01*
X87969064Y-103396814D01*
X87978830Y-103390400D01*
X88016418Y-103368171D01*
X88016417Y-103368171D01*
X88016420Y-103368170D01*
X88030585Y-103354004D01*
X88045373Y-103341373D01*
X88061587Y-103329594D01*
X88089438Y-103295926D01*
X88097279Y-103287309D01*
X89283788Y-102100801D01*
X89299885Y-102087906D01*
X89301873Y-102085787D01*
X89301877Y-102085786D01*
X89347949Y-102036723D01*
X89350534Y-102034055D01*
X89370120Y-102014471D01*
X89372585Y-102011292D01*
X89380167Y-102002416D01*
X89385174Y-101997084D01*
X89410062Y-101970582D01*
X89419717Y-101953018D01*
X89430394Y-101936764D01*
X89442673Y-101920936D01*
X89460018Y-101880852D01*
X89465160Y-101870356D01*
X89476465Y-101849793D01*
X89486197Y-101832092D01*
X89491179Y-101812684D01*
X89497481Y-101794280D01*
X89505437Y-101775896D01*
X89512269Y-101732752D01*
X89514633Y-101721338D01*
X89525500Y-101679019D01*
X89525500Y-101658982D01*
X89527027Y-101639584D01*
X89528473Y-101630453D01*
X89530160Y-101619804D01*
X89526050Y-101576324D01*
X89525500Y-101564655D01*
X89525500Y-96010300D01*
X89545185Y-95943261D01*
X89597989Y-95897506D01*
X89610482Y-95892599D01*
X89694334Y-95864814D01*
X89843656Y-95772712D01*
X89967712Y-95648656D01*
X89988838Y-95614404D01*
X90040787Y-95567679D01*
X90094378Y-95555500D01*
X90660501Y-95555500D01*
X90727540Y-95575185D01*
X90773295Y-95627989D01*
X90784501Y-95679500D01*
X90784501Y-95750008D01*
X90784820Y-95753140D01*
X90784821Y-95753141D01*
X90795000Y-95852796D01*
X90850186Y-96019334D01*
X90942288Y-96168657D01*
X91066342Y-96292711D01*
X91122895Y-96327593D01*
X91215666Y-96384814D01*
X91327017Y-96421712D01*
X91382202Y-96439999D01*
X91481858Y-96450180D01*
X91481859Y-96450180D01*
X91484991Y-96450500D01*
X92110008Y-96450499D01*
X92212797Y-96439999D01*
X92379334Y-96384814D01*
X92528656Y-96292712D01*
X92622320Y-96199047D01*
X92683641Y-96165564D01*
X92753333Y-96170548D01*
X92797679Y-96199047D01*
X92891343Y-96292711D01*
X92891345Y-96292713D01*
X92966004Y-96338762D01*
X93040666Y-96384814D01*
X93152016Y-96421712D01*
X93207202Y-96439999D01*
X93306858Y-96450180D01*
X93306859Y-96450180D01*
X93309991Y-96450500D01*
X93935008Y-96450499D01*
X94037797Y-96439999D01*
X94204334Y-96384814D01*
X94353656Y-96292712D01*
X94477712Y-96168656D01*
X94569814Y-96019334D01*
X94589311Y-95960495D01*
X94629084Y-95903051D01*
X94693600Y-95876228D01*
X94707017Y-95875500D01*
X95167256Y-95875500D01*
X95187762Y-95877764D01*
X95190665Y-95877672D01*
X95190667Y-95877673D01*
X95257872Y-95875561D01*
X95261768Y-95875500D01*
X95285448Y-95875500D01*
X95289350Y-95875500D01*
X95293313Y-95874999D01*
X95304962Y-95874080D01*
X95348627Y-95872709D01*
X95367859Y-95867120D01*
X95386918Y-95863174D01*
X95393196Y-95862381D01*
X95406792Y-95860664D01*
X95447407Y-95844582D01*
X95458444Y-95840803D01*
X95500390Y-95828618D01*
X95517629Y-95818422D01*
X95535102Y-95809862D01*
X95553732Y-95802486D01*
X95589064Y-95776814D01*
X95598830Y-95770400D01*
X95636418Y-95748171D01*
X95636417Y-95748171D01*
X95636420Y-95748170D01*
X95650585Y-95734004D01*
X95665373Y-95721373D01*
X95681587Y-95709594D01*
X95709438Y-95675926D01*
X95717279Y-95667309D01*
X99379588Y-92005000D01*
X111805001Y-92005000D01*
X111805001Y-92051829D01*
X111805321Y-92058111D01*
X111815493Y-92157695D01*
X111870642Y-92324122D01*
X111962683Y-92473345D01*
X112086654Y-92597316D01*
X112235877Y-92689357D01*
X112402303Y-92744506D01*
X112501890Y-92754680D01*
X112508168Y-92754999D01*
X112779999Y-92754999D01*
X112780000Y-92754998D01*
X112780000Y-92005000D01*
X113279999Y-92005000D01*
X113279999Y-92754998D01*
X113280000Y-92754999D01*
X113551829Y-92754999D01*
X113558111Y-92754678D01*
X113657695Y-92744506D01*
X113824122Y-92689357D01*
X113973345Y-92597316D01*
X114097316Y-92473345D01*
X114189357Y-92324122D01*
X114244506Y-92157696D01*
X114254680Y-92058109D01*
X114255000Y-92051831D01*
X114255000Y-92005000D01*
X113279999Y-92005000D01*
X112780000Y-92005000D01*
X111805001Y-92005000D01*
X99379588Y-92005000D01*
X101232711Y-90151877D01*
X111804500Y-90151877D01*
X111804501Y-90155008D01*
X111804820Y-90158140D01*
X111804821Y-90158141D01*
X111815000Y-90257796D01*
X111870186Y-90424334D01*
X111962288Y-90573657D01*
X112086340Y-90697709D01*
X112086342Y-90697710D01*
X112086344Y-90697712D01*
X112089652Y-90699752D01*
X112136379Y-90751698D01*
X112147603Y-90820660D01*
X112119762Y-90884744D01*
X112089659Y-90910830D01*
X112086654Y-90912683D01*
X111962683Y-91036654D01*
X111870642Y-91185877D01*
X111815493Y-91352303D01*
X111805319Y-91451890D01*
X111805000Y-91458168D01*
X111805000Y-91505000D01*
X114254999Y-91505000D01*
X114254999Y-91458170D01*
X114254678Y-91451888D01*
X114244506Y-91352304D01*
X114189357Y-91185877D01*
X114097316Y-91036654D01*
X113973344Y-90912682D01*
X113970343Y-90910831D01*
X113923618Y-90858883D01*
X113912397Y-90789921D01*
X113940240Y-90725839D01*
X113970345Y-90699753D01*
X113973656Y-90697712D01*
X114097712Y-90573656D01*
X114189814Y-90424334D01*
X114244999Y-90257797D01*
X114244999Y-90257796D01*
X114249075Y-90245496D01*
X114288848Y-90188051D01*
X114353364Y-90161228D01*
X114366781Y-90160500D01*
X115283867Y-90160500D01*
X115350906Y-90180185D01*
X115396661Y-90232989D01*
X115398427Y-90237046D01*
X115409532Y-90263857D01*
X115507873Y-90424334D01*
X115541164Y-90478659D01*
X115704776Y-90670224D01*
X115896341Y-90833836D01*
X116111141Y-90965466D01*
X116343889Y-91061873D01*
X116588852Y-91120683D01*
X116840000Y-91140449D01*
X117091148Y-91120683D01*
X117336111Y-91061873D01*
X117352704Y-91055000D01*
X119175001Y-91055000D01*
X119175001Y-91876829D01*
X119175321Y-91883111D01*
X119185493Y-91982695D01*
X119240642Y-92149122D01*
X119332683Y-92298345D01*
X119456654Y-92422316D01*
X119605877Y-92514357D01*
X119772303Y-92569506D01*
X119871890Y-92579680D01*
X119878168Y-92579999D01*
X120462499Y-92579999D01*
X120462500Y-92579998D01*
X120462500Y-91055000D01*
X120962500Y-91055000D01*
X120962500Y-92579999D01*
X121546829Y-92579999D01*
X121553111Y-92579678D01*
X121652695Y-92569506D01*
X121819122Y-92514357D01*
X121968345Y-92422316D01*
X122092316Y-92298345D01*
X122184357Y-92149122D01*
X122239506Y-91982696D01*
X122249680Y-91883109D01*
X122250000Y-91876831D01*
X122250000Y-91055000D01*
X120962500Y-91055000D01*
X120462500Y-91055000D01*
X119175001Y-91055000D01*
X117352704Y-91055000D01*
X117568859Y-90965466D01*
X117783659Y-90833836D01*
X117975224Y-90670224D01*
X118073635Y-90555000D01*
X119175000Y-90555000D01*
X120462500Y-90555000D01*
X120462500Y-89030000D01*
X120962500Y-89030000D01*
X120962500Y-90555000D01*
X122249999Y-90555000D01*
X122249999Y-89733170D01*
X122249678Y-89726888D01*
X122239506Y-89627304D01*
X122184357Y-89460877D01*
X122092316Y-89311654D01*
X121968345Y-89187683D01*
X121819122Y-89095642D01*
X121652696Y-89040493D01*
X121553109Y-89030319D01*
X121546832Y-89030000D01*
X120962500Y-89030000D01*
X120462500Y-89030000D01*
X119878171Y-89030000D01*
X119871888Y-89030321D01*
X119772304Y-89040493D01*
X119605877Y-89095642D01*
X119456654Y-89187683D01*
X119332683Y-89311654D01*
X119240642Y-89460877D01*
X119185493Y-89627303D01*
X119175319Y-89726890D01*
X119175000Y-89733168D01*
X119175000Y-90555000D01*
X118073635Y-90555000D01*
X118138836Y-90478659D01*
X118270466Y-90263859D01*
X118366873Y-90031111D01*
X118425683Y-89786148D01*
X118445449Y-89535000D01*
X118425683Y-89283852D01*
X118366873Y-89038889D01*
X118270466Y-88806141D01*
X118138836Y-88591341D01*
X117975224Y-88399776D01*
X117783659Y-88236164D01*
X117707517Y-88189504D01*
X117568857Y-88104532D01*
X117542046Y-88093427D01*
X117487643Y-88049586D01*
X117465579Y-87983291D01*
X117465500Y-87978867D01*
X117465500Y-87449499D01*
X117485185Y-87382460D01*
X117537989Y-87336705D01*
X117589500Y-87325499D01*
X117984561Y-87325499D01*
X117987872Y-87325499D01*
X118047483Y-87319091D01*
X118182331Y-87268796D01*
X118297546Y-87182546D01*
X118383796Y-87067331D01*
X118434091Y-86932483D01*
X118440500Y-86872873D01*
X118440499Y-84577128D01*
X118434091Y-84517517D01*
X118383796Y-84382669D01*
X118297546Y-84267454D01*
X118182331Y-84181204D01*
X118047483Y-84130909D01*
X117987873Y-84124500D01*
X117984550Y-84124500D01*
X115695439Y-84124500D01*
X115695420Y-84124500D01*
X115692128Y-84124501D01*
X115688848Y-84124853D01*
X115688840Y-84124854D01*
X115632515Y-84130909D01*
X115497669Y-84181204D01*
X115382454Y-84267454D01*
X115296204Y-84382668D01*
X115245910Y-84517515D01*
X115245909Y-84517517D01*
X115239500Y-84577127D01*
X115239500Y-84580448D01*
X115239500Y-84580449D01*
X115239500Y-86869560D01*
X115239500Y-86869578D01*
X115239501Y-86872872D01*
X115239853Y-86876152D01*
X115239854Y-86876159D01*
X115245909Y-86932484D01*
X115263906Y-86980735D01*
X115296204Y-87067331D01*
X115382454Y-87182546D01*
X115497669Y-87268796D01*
X115632517Y-87319091D01*
X115692127Y-87325500D01*
X116090500Y-87325499D01*
X116157539Y-87345183D01*
X116203294Y-87397987D01*
X116214500Y-87449499D01*
X116214500Y-87978867D01*
X116194815Y-88045906D01*
X116142011Y-88091661D01*
X116137954Y-88093427D01*
X116111142Y-88104532D01*
X115896342Y-88236163D01*
X115704776Y-88399776D01*
X115541163Y-88591342D01*
X115409532Y-88806142D01*
X115398427Y-88832954D01*
X115354586Y-88887357D01*
X115288291Y-88909421D01*
X115283867Y-88909500D01*
X113812096Y-88909500D01*
X113773092Y-88903206D01*
X113657797Y-88865000D01*
X113558141Y-88854819D01*
X113558122Y-88854818D01*
X113555009Y-88854500D01*
X113551860Y-88854500D01*
X112508140Y-88854500D01*
X112508120Y-88854500D01*
X112504992Y-88854501D01*
X112501860Y-88854820D01*
X112501858Y-88854821D01*
X112402203Y-88865000D01*
X112235665Y-88920186D01*
X112086342Y-89012288D01*
X111962288Y-89136342D01*
X111870186Y-89285665D01*
X111815000Y-89452202D01*
X111804819Y-89551858D01*
X111804817Y-89551878D01*
X111804500Y-89554991D01*
X111804500Y-89558138D01*
X111804500Y-89558139D01*
X111804500Y-90151858D01*
X111804500Y-90151877D01*
X101232711Y-90151877D01*
X101348786Y-90035802D01*
X101364886Y-90022905D01*
X101366874Y-90020787D01*
X101366877Y-90020786D01*
X101412964Y-89971707D01*
X101415549Y-89969039D01*
X101435120Y-89949470D01*
X101437565Y-89946316D01*
X101445154Y-89937429D01*
X101475062Y-89905582D01*
X101484713Y-89888026D01*
X101495393Y-89871767D01*
X101507674Y-89855936D01*
X101525018Y-89815851D01*
X101530160Y-89805356D01*
X101535468Y-89795701D01*
X101551197Y-89767092D01*
X101556178Y-89747688D01*
X101562480Y-89729283D01*
X101570438Y-89710895D01*
X101577270Y-89667748D01*
X101579639Y-89656316D01*
X101590500Y-89614020D01*
X101590500Y-89593983D01*
X101592027Y-89574584D01*
X101594077Y-89561640D01*
X101595160Y-89554804D01*
X101591050Y-89511324D01*
X101590500Y-89499655D01*
X101590500Y-83574500D01*
X101610185Y-83507461D01*
X101662989Y-83461706D01*
X101714500Y-83450500D01*
X101784148Y-83450500D01*
X101907584Y-83424262D01*
X101969303Y-83411144D01*
X102142230Y-83334151D01*
X102295371Y-83222888D01*
X102301098Y-83216527D01*
X102360584Y-83179879D01*
X102393247Y-83175500D01*
X105327256Y-83175500D01*
X105347762Y-83177764D01*
X105350665Y-83177672D01*
X105350667Y-83177673D01*
X105417872Y-83175561D01*
X105421768Y-83175500D01*
X105445448Y-83175500D01*
X105449350Y-83175500D01*
X105453313Y-83174999D01*
X105464962Y-83174080D01*
X105508627Y-83172709D01*
X105527859Y-83167120D01*
X105546918Y-83163174D01*
X105553196Y-83162381D01*
X105566792Y-83160664D01*
X105607407Y-83144582D01*
X105618444Y-83140803D01*
X105660390Y-83128618D01*
X105677629Y-83118422D01*
X105695102Y-83109862D01*
X105713732Y-83102486D01*
X105749064Y-83076814D01*
X105758830Y-83070400D01*
X105796418Y-83048171D01*
X105796417Y-83048171D01*
X105796420Y-83048170D01*
X105810585Y-83034004D01*
X105825373Y-83021373D01*
X105841587Y-83009594D01*
X105869438Y-82975926D01*
X105877279Y-82967309D01*
X108196234Y-80648356D01*
X120520335Y-80648356D01*
X120539343Y-80998958D01*
X120540069Y-81005630D01*
X120596874Y-81352130D01*
X120598317Y-81358684D01*
X120692251Y-81697001D01*
X120694396Y-81703368D01*
X120824360Y-82029552D01*
X120827169Y-82035626D01*
X120991649Y-82345868D01*
X120995102Y-82351606D01*
X121192147Y-82642225D01*
X121196207Y-82647566D01*
X121321441Y-82795003D01*
X121321442Y-82795004D01*
X122527266Y-81589180D01*
X122690130Y-81779870D01*
X122880818Y-81942732D01*
X121672255Y-83151295D01*
X121683047Y-83161518D01*
X121688157Y-83165858D01*
X121967694Y-83378357D01*
X121973240Y-83382117D01*
X122274099Y-83563137D01*
X122280038Y-83566285D01*
X122598695Y-83713712D01*
X122604937Y-83716199D01*
X122937684Y-83828315D01*
X122944129Y-83830104D01*
X123287053Y-83905588D01*
X123293677Y-83906674D01*
X123642740Y-83944636D01*
X123649437Y-83945000D01*
X124000563Y-83945000D01*
X124007259Y-83944636D01*
X124356322Y-83906674D01*
X124362946Y-83905588D01*
X124705870Y-83830104D01*
X124712315Y-83828315D01*
X125045062Y-83716199D01*
X125051304Y-83713712D01*
X125369961Y-83566285D01*
X125375900Y-83563137D01*
X125676759Y-83382117D01*
X125682305Y-83378357D01*
X125961846Y-83165856D01*
X125966950Y-83161519D01*
X125977742Y-83151296D01*
X125977743Y-83151295D01*
X124769180Y-81942733D01*
X124959870Y-81779870D01*
X125122733Y-81589180D01*
X126328556Y-82795003D01*
X126328557Y-82795003D01*
X126453792Y-82647566D01*
X126457852Y-82642225D01*
X126654897Y-82351606D01*
X126658350Y-82345868D01*
X126822830Y-82035626D01*
X126825639Y-82029552D01*
X126955603Y-81703368D01*
X126957748Y-81697001D01*
X127051682Y-81358684D01*
X127053125Y-81352130D01*
X127109930Y-81005630D01*
X127110656Y-80998958D01*
X127129664Y-80648356D01*
X127129664Y-80641643D01*
X127110656Y-80291041D01*
X127109930Y-80284369D01*
X127053125Y-79937869D01*
X127051682Y-79931315D01*
X126957748Y-79592998D01*
X126955603Y-79586631D01*
X126825639Y-79260447D01*
X126822830Y-79254373D01*
X126658350Y-78944131D01*
X126654897Y-78938393D01*
X126457852Y-78647774D01*
X126453792Y-78642433D01*
X126328557Y-78494995D01*
X126328556Y-78494994D01*
X125122732Y-79700818D01*
X124959870Y-79510130D01*
X124769180Y-79347266D01*
X125977743Y-78138703D01*
X125966942Y-78128473D01*
X125961842Y-78124141D01*
X125682305Y-77911642D01*
X125676759Y-77907882D01*
X125375900Y-77726862D01*
X125369961Y-77723714D01*
X125051304Y-77576287D01*
X125045062Y-77573800D01*
X124712315Y-77461684D01*
X124705870Y-77459895D01*
X124362946Y-77384411D01*
X124356322Y-77383325D01*
X124007259Y-77345363D01*
X124000563Y-77345000D01*
X123649437Y-77345000D01*
X123642740Y-77345363D01*
X123293677Y-77383325D01*
X123287053Y-77384411D01*
X122944129Y-77459895D01*
X122937684Y-77461684D01*
X122604937Y-77573800D01*
X122598695Y-77576287D01*
X122280038Y-77723714D01*
X122274099Y-77726862D01*
X121973240Y-77907882D01*
X121967694Y-77911642D01*
X121688149Y-78124146D01*
X121683054Y-78128474D01*
X121672256Y-78138702D01*
X121672255Y-78138703D01*
X122880819Y-79347266D01*
X122690130Y-79510130D01*
X122527266Y-79700818D01*
X121321442Y-78494994D01*
X121321441Y-78494995D01*
X121196207Y-78642433D01*
X121192147Y-78647774D01*
X120995102Y-78938393D01*
X120991649Y-78944131D01*
X120827169Y-79254373D01*
X120824360Y-79260447D01*
X120694396Y-79586631D01*
X120692251Y-79592998D01*
X120598317Y-79931315D01*
X120596874Y-79937869D01*
X120540069Y-80284369D01*
X120539343Y-80291041D01*
X120520335Y-80641643D01*
X120520335Y-80648356D01*
X108196234Y-80648356D01*
X108807771Y-80036819D01*
X108869095Y-80003334D01*
X108895453Y-80000500D01*
X117392256Y-80000500D01*
X117412762Y-80002764D01*
X117415665Y-80002672D01*
X117415667Y-80002673D01*
X117482872Y-80000561D01*
X117486768Y-80000500D01*
X117510448Y-80000500D01*
X117514350Y-80000500D01*
X117518313Y-79999999D01*
X117529962Y-79999080D01*
X117573627Y-79997709D01*
X117592859Y-79992120D01*
X117611918Y-79988174D01*
X117618196Y-79987381D01*
X117631792Y-79985664D01*
X117672407Y-79969582D01*
X117683444Y-79965803D01*
X117725390Y-79953618D01*
X117742629Y-79943422D01*
X117760102Y-79934862D01*
X117778732Y-79927486D01*
X117814064Y-79901814D01*
X117823830Y-79895400D01*
X117861418Y-79873171D01*
X117861417Y-79873171D01*
X117861420Y-79873170D01*
X117875585Y-79859004D01*
X117890373Y-79846373D01*
X117906587Y-79834594D01*
X117934438Y-79800926D01*
X117942279Y-79792309D01*
X122303789Y-75430800D01*
X122319885Y-75417906D01*
X122321873Y-75415787D01*
X122321877Y-75415786D01*
X122367949Y-75366723D01*
X122370534Y-75364055D01*
X122390120Y-75344471D01*
X122392585Y-75341292D01*
X122400167Y-75332416D01*
X122411562Y-75320282D01*
X122430062Y-75300582D01*
X122439717Y-75283018D01*
X122450394Y-75266764D01*
X122462673Y-75250936D01*
X122480018Y-75210852D01*
X122485160Y-75200356D01*
X122506197Y-75162092D01*
X122511179Y-75142684D01*
X122517481Y-75124280D01*
X122525437Y-75105896D01*
X122532269Y-75062752D01*
X122534637Y-75051326D01*
X122545500Y-75009021D01*
X122545499Y-74988992D01*
X122547025Y-74969590D01*
X122550160Y-74949804D01*
X122546050Y-74906324D01*
X122545500Y-74894655D01*
X122545500Y-73203452D01*
X122565185Y-73136413D01*
X122581819Y-73115771D01*
X124294213Y-71403377D01*
X126036354Y-69661235D01*
X126097675Y-69627752D01*
X126156123Y-69629142D01*
X126256592Y-69656063D01*
X126492000Y-69676659D01*
X126727408Y-69656063D01*
X126955663Y-69594903D01*
X127169830Y-69495035D01*
X127363401Y-69359495D01*
X127530495Y-69192401D01*
X127666035Y-68998830D01*
X127765903Y-68784663D01*
X127827063Y-68556408D01*
X127847659Y-68321000D01*
X127827063Y-68085592D01*
X127765903Y-67857337D01*
X127666035Y-67643171D01*
X127530495Y-67449599D01*
X127408180Y-67327284D01*
X127374696Y-67265962D01*
X127379680Y-67196270D01*
X127421552Y-67140337D01*
X127452528Y-67123422D01*
X127584089Y-67074352D01*
X127699188Y-66988188D01*
X127785352Y-66873089D01*
X127835599Y-66738371D01*
X127841645Y-66682132D01*
X127842000Y-66675518D01*
X127842000Y-66031000D01*
X126925686Y-66031000D01*
X126951493Y-65990844D01*
X126992000Y-65852889D01*
X126992000Y-65709111D01*
X126951493Y-65571156D01*
X126925686Y-65531000D01*
X127842000Y-65531000D01*
X127842000Y-64886481D01*
X127841645Y-64879867D01*
X127835599Y-64823628D01*
X127785352Y-64688910D01*
X127699188Y-64573811D01*
X127584089Y-64487647D01*
X127449371Y-64437400D01*
X127393132Y-64431354D01*
X127386518Y-64431000D01*
X126742000Y-64431000D01*
X126742000Y-65345498D01*
X126634315Y-65296320D01*
X126527763Y-65281000D01*
X126456237Y-65281000D01*
X126349685Y-65296320D01*
X126242000Y-65345498D01*
X126242000Y-64431000D01*
X125597482Y-64431000D01*
X125590867Y-64431354D01*
X125534628Y-64437400D01*
X125399910Y-64487647D01*
X125284811Y-64573811D01*
X125198647Y-64688910D01*
X125148400Y-64823628D01*
X125142354Y-64879867D01*
X125142000Y-64886481D01*
X125142000Y-65531000D01*
X126058314Y-65531000D01*
X126032507Y-65571156D01*
X125992000Y-65709111D01*
X125992000Y-65852889D01*
X126032507Y-65990844D01*
X126058314Y-66031000D01*
X125142000Y-66031000D01*
X125142000Y-66675518D01*
X125142354Y-66682132D01*
X125148400Y-66738371D01*
X125198647Y-66873089D01*
X125284811Y-66988188D01*
X125399911Y-67074352D01*
X125531471Y-67123422D01*
X125587404Y-67165294D01*
X125611821Y-67230758D01*
X125596969Y-67299031D01*
X125575819Y-67327285D01*
X125453503Y-67449601D01*
X125317965Y-67643170D01*
X125218097Y-67857336D01*
X125156936Y-68085592D01*
X125136340Y-68320999D01*
X125156936Y-68556408D01*
X125183855Y-68656873D01*
X125182192Y-68726722D01*
X125151761Y-68776646D01*
X121536208Y-72392199D01*
X121520110Y-72405096D01*
X121472096Y-72456225D01*
X121469392Y-72459016D01*
X121452628Y-72475780D01*
X121452621Y-72475787D01*
X121449880Y-72478529D01*
X121447499Y-72481597D01*
X121447490Y-72481608D01*
X121447411Y-72481711D01*
X121439842Y-72490572D01*
X121409935Y-72522420D01*
X121400285Y-72539974D01*
X121389609Y-72556228D01*
X121377326Y-72572063D01*
X121359975Y-72612158D01*
X121354838Y-72622644D01*
X121333802Y-72660907D01*
X121328821Y-72680309D01*
X121322520Y-72698711D01*
X121314561Y-72717102D01*
X121307728Y-72760242D01*
X121305360Y-72771674D01*
X121294499Y-72813977D01*
X121294500Y-72834016D01*
X121292973Y-72853414D01*
X121289839Y-72873196D01*
X121293949Y-72916676D01*
X121294499Y-72928343D01*
X121294499Y-74619546D01*
X121274814Y-74686585D01*
X121258180Y-74707227D01*
X117940219Y-78025188D01*
X117878896Y-78058673D01*
X117809204Y-78053689D01*
X117753271Y-78011817D01*
X117729218Y-77950470D01*
X117725674Y-77916744D01*
X117667179Y-77736716D01*
X117667179Y-77736715D01*
X117572533Y-77572783D01*
X117445870Y-77432110D01*
X117292730Y-77320848D01*
X117119802Y-77243855D01*
X116934648Y-77204500D01*
X116934646Y-77204500D01*
X116789946Y-77204500D01*
X116759107Y-77200604D01*
X116732690Y-77193821D01*
X116714284Y-77187519D01*
X116695897Y-77179562D01*
X116652758Y-77172729D01*
X116641324Y-77170361D01*
X116599019Y-77159500D01*
X116578984Y-77159500D01*
X116559586Y-77157973D01*
X116552162Y-77156797D01*
X116539805Y-77154840D01*
X116539804Y-77154840D01*
X116506751Y-77157964D01*
X116496325Y-77158950D01*
X116484656Y-77159500D01*
X111684378Y-77159500D01*
X111617339Y-77139815D01*
X111578839Y-77100596D01*
X111557711Y-77066342D01*
X111433659Y-76942290D01*
X111430345Y-76940246D01*
X111383620Y-76888299D01*
X111372396Y-76819336D01*
X111400238Y-76755254D01*
X111430348Y-76729164D01*
X111433348Y-76727313D01*
X111557316Y-76603345D01*
X111649357Y-76454122D01*
X111704506Y-76287696D01*
X111714680Y-76188109D01*
X111715000Y-76181831D01*
X111715000Y-76135000D01*
X109265001Y-76135000D01*
X109265001Y-76181829D01*
X109265321Y-76188111D01*
X109275493Y-76287695D01*
X109330642Y-76454122D01*
X109422683Y-76603345D01*
X109546654Y-76727316D01*
X109549656Y-76729168D01*
X109596380Y-76781117D01*
X109607601Y-76850079D01*
X109579757Y-76914161D01*
X109549659Y-76940242D01*
X109546344Y-76942286D01*
X109422288Y-77066342D01*
X109401161Y-77100596D01*
X109349213Y-77147321D01*
X109295622Y-77159500D01*
X107874378Y-77159500D01*
X107807339Y-77139815D01*
X107768839Y-77100596D01*
X107747711Y-77066342D01*
X107623659Y-76942290D01*
X107620345Y-76940246D01*
X107573620Y-76888299D01*
X107562396Y-76819336D01*
X107590238Y-76755254D01*
X107620348Y-76729164D01*
X107623348Y-76727313D01*
X107747316Y-76603345D01*
X107839357Y-76454122D01*
X107894506Y-76287696D01*
X107904680Y-76188109D01*
X107905000Y-76181831D01*
X107905000Y-76135000D01*
X105455001Y-76135000D01*
X105455001Y-76181829D01*
X105455321Y-76188111D01*
X105465493Y-76287695D01*
X105520642Y-76454122D01*
X105612683Y-76603345D01*
X105736654Y-76727316D01*
X105739656Y-76729168D01*
X105786380Y-76781117D01*
X105797601Y-76850079D01*
X105769757Y-76914161D01*
X105739659Y-76940242D01*
X105736344Y-76942286D01*
X105612288Y-77066342D01*
X105561093Y-77149342D01*
X105509145Y-77196066D01*
X105490153Y-77203319D01*
X105479613Y-77206381D01*
X105462365Y-77216581D01*
X105444903Y-77225135D01*
X105432915Y-77229881D01*
X105426265Y-77232515D01*
X105390926Y-77258189D01*
X105381168Y-77264599D01*
X105343579Y-77286829D01*
X105329410Y-77300998D01*
X105314622Y-77313628D01*
X105298413Y-77325405D01*
X105270572Y-77359058D01*
X105262711Y-77367696D01*
X104107046Y-78523361D01*
X104045723Y-78556846D01*
X103976031Y-78551862D01*
X103956244Y-78542412D01*
X103915397Y-78518255D01*
X103757572Y-78472402D01*
X103723128Y-78469691D01*
X103723114Y-78469690D01*
X103720694Y-78469500D01*
X103289306Y-78469500D01*
X103286886Y-78469690D01*
X103286871Y-78469691D01*
X103252427Y-78472402D01*
X103094602Y-78518255D01*
X102939652Y-78609893D01*
X102938456Y-78607870D01*
X102896358Y-78630858D01*
X102826666Y-78625874D01*
X102800747Y-78609216D01*
X102800348Y-78609893D01*
X102645397Y-78518255D01*
X102487572Y-78472402D01*
X102453128Y-78469691D01*
X102453114Y-78469690D01*
X102450694Y-78469500D01*
X102019306Y-78469500D01*
X102016886Y-78469690D01*
X102016871Y-78469691D01*
X101982427Y-78472402D01*
X101824602Y-78518255D01*
X101669652Y-78609893D01*
X101668456Y-78607870D01*
X101626358Y-78630858D01*
X101556666Y-78625874D01*
X101530747Y-78609216D01*
X101530348Y-78609893D01*
X101375397Y-78518255D01*
X101217572Y-78472402D01*
X101183128Y-78469691D01*
X101183114Y-78469690D01*
X101180694Y-78469500D01*
X100749306Y-78469500D01*
X100746886Y-78469690D01*
X100746871Y-78469691D01*
X100712427Y-78472402D01*
X100554602Y-78518255D01*
X100399652Y-78609893D01*
X100398456Y-78607870D01*
X100356358Y-78630858D01*
X100286666Y-78625874D01*
X100260747Y-78609216D01*
X100260348Y-78609893D01*
X100105397Y-78518255D01*
X99947572Y-78472402D01*
X99913128Y-78469691D01*
X99913114Y-78469690D01*
X99910694Y-78469500D01*
X99479306Y-78469500D01*
X99476886Y-78469690D01*
X99476871Y-78469691D01*
X99442427Y-78472402D01*
X99284602Y-78518255D01*
X99143134Y-78601919D01*
X99026919Y-78718134D01*
X98943255Y-78859602D01*
X98897402Y-79017427D01*
X98894691Y-79051871D01*
X98894690Y-79051886D01*
X98894500Y-79054306D01*
X98894500Y-80835694D01*
X98894690Y-80838114D01*
X98894691Y-80838128D01*
X98897402Y-80872572D01*
X98943255Y-81030397D01*
X99026919Y-81171865D01*
X99033181Y-81178127D01*
X99066666Y-81239450D01*
X99069500Y-81265808D01*
X99069500Y-83137975D01*
X99049815Y-83205014D01*
X98997011Y-83250769D01*
X98958103Y-83261333D01*
X98922203Y-83265000D01*
X98755665Y-83320186D01*
X98606342Y-83412288D01*
X98512681Y-83505950D01*
X98451358Y-83539435D01*
X98381666Y-83534451D01*
X98337319Y-83505950D01*
X98300672Y-83469303D01*
X98267187Y-83407980D01*
X98272171Y-83338288D01*
X98314043Y-83282355D01*
X98315385Y-83281363D01*
X98395871Y-83222888D01*
X98438540Y-83175500D01*
X98522533Y-83082216D01*
X98617179Y-82918284D01*
X98657235Y-82795004D01*
X98675674Y-82738256D01*
X98695460Y-82550000D01*
X98675674Y-82361744D01*
X98617179Y-82181716D01*
X98617179Y-82181715D01*
X98522533Y-82017783D01*
X98395870Y-81877110D01*
X98242730Y-81765848D01*
X98069802Y-81688855D01*
X97884648Y-81649500D01*
X97884646Y-81649500D01*
X97695354Y-81649500D01*
X97695352Y-81649500D01*
X97510197Y-81688855D01*
X97337269Y-81765848D01*
X97184129Y-81877110D01*
X97057466Y-82017783D01*
X96962820Y-82181715D01*
X96904326Y-82361742D01*
X96884540Y-82550000D01*
X96897723Y-82675443D01*
X96894507Y-82719237D01*
X96887000Y-82748478D01*
X96887000Y-82768516D01*
X96885473Y-82787914D01*
X96882339Y-82807696D01*
X96886449Y-82851176D01*
X96886999Y-82862843D01*
X96886999Y-83277912D01*
X96867314Y-83344951D01*
X96828096Y-83383450D01*
X96781343Y-83412287D01*
X96657288Y-83536342D01*
X96565186Y-83685665D01*
X96510000Y-83852202D01*
X96499819Y-83951858D01*
X96499817Y-83951878D01*
X96499500Y-83954991D01*
X96499500Y-83958138D01*
X96499500Y-83958139D01*
X96499500Y-84951859D01*
X96499500Y-84951878D01*
X96499501Y-84955008D01*
X96499820Y-84958140D01*
X96499821Y-84958141D01*
X96510000Y-85057796D01*
X96565186Y-85224334D01*
X96657288Y-85373657D01*
X96781342Y-85497711D01*
X96801266Y-85510000D01*
X96930666Y-85589814D01*
X97042017Y-85626712D01*
X97097202Y-85644999D01*
X97196858Y-85655180D01*
X97196859Y-85655180D01*
X97199991Y-85655500D01*
X97825008Y-85655499D01*
X97927797Y-85644999D01*
X98094334Y-85589814D01*
X98243656Y-85497712D01*
X98337320Y-85404047D01*
X98398641Y-85370564D01*
X98468333Y-85375548D01*
X98512679Y-85404047D01*
X98582482Y-85473850D01*
X98606345Y-85497713D01*
X98626266Y-85510000D01*
X98755666Y-85589814D01*
X98867016Y-85626712D01*
X98922202Y-85644999D01*
X98931329Y-85645931D01*
X98958100Y-85648666D01*
X99022793Y-85675061D01*
X99062945Y-85732241D01*
X99069500Y-85772024D01*
X99069500Y-86049546D01*
X99049815Y-86116585D01*
X99033181Y-86137227D01*
X96932228Y-88238181D01*
X96870905Y-88271666D01*
X96844547Y-88274500D01*
X94707017Y-88274500D01*
X94639978Y-88254815D01*
X94594223Y-88202011D01*
X94589311Y-88189504D01*
X94571092Y-88134524D01*
X94569814Y-88130666D01*
X94477712Y-87981344D01*
X94477711Y-87981342D01*
X94353657Y-87857288D01*
X94204334Y-87765186D01*
X94037797Y-87710000D01*
X93938141Y-87699819D01*
X93938122Y-87699818D01*
X93935009Y-87699500D01*
X93931860Y-87699500D01*
X93313141Y-87699500D01*
X93313121Y-87699500D01*
X93309992Y-87699501D01*
X93306860Y-87699820D01*
X93306858Y-87699821D01*
X93207203Y-87710000D01*
X93040665Y-87765186D01*
X92891342Y-87857288D01*
X92797681Y-87950950D01*
X92736358Y-87984435D01*
X92666666Y-87979451D01*
X92622319Y-87950950D01*
X92528657Y-87857288D01*
X92379334Y-87765186D01*
X92212797Y-87710000D01*
X92113141Y-87699819D01*
X92113122Y-87699818D01*
X92110009Y-87699500D01*
X92106860Y-87699500D01*
X91488141Y-87699500D01*
X91488121Y-87699500D01*
X91484992Y-87699501D01*
X91481860Y-87699820D01*
X91481858Y-87699821D01*
X91382203Y-87710000D01*
X91215665Y-87765186D01*
X91066342Y-87857288D01*
X90942288Y-87981342D01*
X90850186Y-88130665D01*
X90830689Y-88189504D01*
X90790916Y-88246949D01*
X90726400Y-88273772D01*
X90712983Y-88274500D01*
X89627017Y-88274500D01*
X89559978Y-88254815D01*
X89514223Y-88202011D01*
X89509311Y-88189504D01*
X89491092Y-88134524D01*
X89489814Y-88130666D01*
X89397712Y-87981344D01*
X89397711Y-87981342D01*
X89273657Y-87857288D01*
X89124334Y-87765186D01*
X88957797Y-87710000D01*
X88858141Y-87699819D01*
X88858122Y-87699818D01*
X88855009Y-87699500D01*
X88851860Y-87699500D01*
X88233141Y-87699500D01*
X88233121Y-87699500D01*
X88229992Y-87699501D01*
X88226860Y-87699820D01*
X88226858Y-87699821D01*
X88127203Y-87710000D01*
X87960665Y-87765186D01*
X87811342Y-87857288D01*
X87717681Y-87950950D01*
X87656358Y-87984435D01*
X87586666Y-87979451D01*
X87542319Y-87950950D01*
X87448657Y-87857288D01*
X87299334Y-87765186D01*
X87132797Y-87710000D01*
X87033141Y-87699819D01*
X87033122Y-87699818D01*
X87030009Y-87699500D01*
X87026860Y-87699500D01*
X86408141Y-87699500D01*
X86408121Y-87699500D01*
X86404992Y-87699501D01*
X86401860Y-87699820D01*
X86401858Y-87699821D01*
X86302203Y-87710000D01*
X86135665Y-87765186D01*
X85986342Y-87857288D01*
X85862288Y-87981342D01*
X85770186Y-88130665D01*
X85750689Y-88189504D01*
X85710916Y-88246949D01*
X85646400Y-88273772D01*
X85632983Y-88274500D01*
X80563161Y-88274500D01*
X80496122Y-88254815D01*
X80450367Y-88202011D01*
X80440423Y-88132853D01*
X80469448Y-88069297D01*
X80526611Y-88032009D01*
X80651139Y-87993596D01*
X80887456Y-87879792D01*
X81059167Y-87762720D01*
X80408609Y-87112162D01*
X80527431Y-87040669D01*
X80661658Y-86913523D01*
X80764861Y-86761308D01*
X81412124Y-87408571D01*
X81459972Y-87348572D01*
X81591117Y-87121423D01*
X81686940Y-86877270D01*
X81745306Y-86621552D01*
X81764907Y-86360000D01*
X81745306Y-86098447D01*
X81686940Y-85842729D01*
X81591117Y-85598575D01*
X81459972Y-85371426D01*
X81412125Y-85311427D01*
X80761232Y-85962319D01*
X80717684Y-85880178D01*
X80597991Y-85739265D01*
X80450805Y-85627377D01*
X80408596Y-85607849D01*
X81059167Y-84957278D01*
X80887451Y-84840205D01*
X80651139Y-84726403D01*
X80400503Y-84649091D01*
X80141144Y-84610000D01*
X79878856Y-84610000D01*
X79619496Y-84649091D01*
X79368860Y-84726403D01*
X79132545Y-84840206D01*
X78960832Y-84957278D01*
X79611391Y-85607837D01*
X79492569Y-85679331D01*
X79358342Y-85806477D01*
X79255138Y-85958691D01*
X78607874Y-85311428D01*
X78560026Y-85371428D01*
X78428882Y-85598576D01*
X78333059Y-85842729D01*
X78274693Y-86098447D01*
X78255092Y-86360000D01*
X78274693Y-86621552D01*
X78333058Y-86877264D01*
X78412703Y-87080198D01*
X78418871Y-87149795D01*
X78386433Y-87211678D01*
X78325687Y-87246201D01*
X78297274Y-87249500D01*
X76642726Y-87249500D01*
X76575687Y-87229815D01*
X76529932Y-87177011D01*
X76519988Y-87107853D01*
X76527297Y-87080198D01*
X76606941Y-86877264D01*
X76665306Y-86621552D01*
X76684907Y-86360000D01*
X76665306Y-86098447D01*
X76606940Y-85842729D01*
X76511117Y-85598575D01*
X76379972Y-85371426D01*
X76332125Y-85311427D01*
X75681232Y-85962319D01*
X75637684Y-85880178D01*
X75517991Y-85739265D01*
X75370805Y-85627377D01*
X75328596Y-85607849D01*
X75979167Y-84957278D01*
X75807451Y-84840205D01*
X75571139Y-84726403D01*
X75320503Y-84649091D01*
X75061144Y-84610000D01*
X74798856Y-84610000D01*
X74539496Y-84649091D01*
X74288860Y-84726403D01*
X74052545Y-84840206D01*
X73880832Y-84957278D01*
X74531391Y-85607837D01*
X74412569Y-85679331D01*
X74278342Y-85806477D01*
X74175138Y-85958692D01*
X73527873Y-85311427D01*
X73480028Y-85371424D01*
X73348882Y-85598576D01*
X73253059Y-85842729D01*
X73215391Y-86007766D01*
X73181282Y-86068744D01*
X73119621Y-86101602D01*
X73049983Y-86095907D01*
X72994480Y-86053467D01*
X72970732Y-85987757D01*
X72970500Y-85980173D01*
X72970500Y-84599900D01*
X72970383Y-84599618D01*
X72970383Y-84599617D01*
X72970381Y-84599616D01*
X72970001Y-84599459D01*
X72969999Y-84599459D01*
X72969618Y-84599616D01*
X72969616Y-84599618D01*
X72969500Y-84599900D01*
X72969500Y-84599901D01*
X72969500Y-93200099D01*
X72969617Y-93200383D01*
X72969808Y-93200462D01*
X72969999Y-93200541D01*
X72970000Y-93200541D01*
X72970001Y-93200541D01*
X72970127Y-93200488D01*
X72970383Y-93200383D01*
X72970500Y-93200099D01*
X72970500Y-91819826D01*
X72990185Y-91752787D01*
X73042989Y-91707032D01*
X73112147Y-91697088D01*
X73175703Y-91726113D01*
X73213477Y-91784891D01*
X73215391Y-91792233D01*
X73253060Y-91957270D01*
X73348882Y-92201424D01*
X73480027Y-92428573D01*
X73527873Y-92488571D01*
X73527874Y-92488571D01*
X74178766Y-91837679D01*
X74222316Y-91919822D01*
X74342009Y-92060735D01*
X74489195Y-92172623D01*
X74531402Y-92192150D01*
X73880831Y-92842720D01*
X74052546Y-92959793D01*
X74288860Y-93073596D01*
X74539496Y-93150908D01*
X74798856Y-93190000D01*
X75061144Y-93190000D01*
X75320503Y-93150908D01*
X75571139Y-93073596D01*
X75807456Y-92959792D01*
X75979167Y-92842720D01*
X75328609Y-92192161D01*
X75447431Y-92120669D01*
X75581658Y-91993523D01*
X75684861Y-91841308D01*
X76332124Y-92488571D01*
X76379972Y-92428572D01*
X76511117Y-92201423D01*
X76606940Y-91957270D01*
X76665306Y-91701552D01*
X76684907Y-91440000D01*
X76665306Y-91178447D01*
X76606941Y-90922735D01*
X76527297Y-90719802D01*
X76521129Y-90650205D01*
X76553567Y-90588322D01*
X76614313Y-90553799D01*
X76642726Y-90550500D01*
X78297274Y-90550500D01*
X78364313Y-90570185D01*
X78410068Y-90622989D01*
X78420012Y-90692147D01*
X78412703Y-90719802D01*
X78333058Y-90922735D01*
X78274693Y-91178447D01*
X78255092Y-91440000D01*
X78274693Y-91701552D01*
X78333059Y-91957270D01*
X78428882Y-92201424D01*
X78560027Y-92428573D01*
X78607873Y-92488571D01*
X79258766Y-91837678D01*
X79302316Y-91919822D01*
X79422009Y-92060735D01*
X79569195Y-92172623D01*
X79611402Y-92192150D01*
X78960831Y-92842720D01*
X79132546Y-92959793D01*
X79368860Y-93073596D01*
X79619496Y-93150908D01*
X79878856Y-93190000D01*
X80141144Y-93190000D01*
X80400503Y-93150908D01*
X80651139Y-93073596D01*
X80887456Y-92959792D01*
X81059167Y-92842720D01*
X80408609Y-92192161D01*
X80527431Y-92120669D01*
X80661658Y-91993523D01*
X80764861Y-91841308D01*
X81412124Y-92488571D01*
X81459972Y-92428572D01*
X81591117Y-92201423D01*
X81686940Y-91957270D01*
X81745306Y-91701552D01*
X81764907Y-91440000D01*
X81745306Y-91178447D01*
X81686940Y-90922729D01*
X81591117Y-90678575D01*
X81459972Y-90451426D01*
X81412125Y-90391427D01*
X80761232Y-91042319D01*
X80717684Y-90960178D01*
X80597991Y-90819265D01*
X80450805Y-90707377D01*
X80408596Y-90687849D01*
X81059167Y-90037278D01*
X80887451Y-89920205D01*
X80651139Y-89806403D01*
X80526611Y-89767991D01*
X80468352Y-89729421D01*
X80440194Y-89665476D01*
X80451078Y-89596459D01*
X80497546Y-89544282D01*
X80563161Y-89525500D01*
X85632983Y-89525500D01*
X85700022Y-89545185D01*
X85745777Y-89597989D01*
X85750689Y-89610496D01*
X85770186Y-89669334D01*
X85862288Y-89818657D01*
X85986342Y-89942711D01*
X86001749Y-89952214D01*
X86135666Y-90034814D01*
X86247016Y-90071712D01*
X86302202Y-90089999D01*
X86401858Y-90100180D01*
X86401859Y-90100180D01*
X86404991Y-90100500D01*
X87030008Y-90100499D01*
X87132797Y-90089999D01*
X87299334Y-90034814D01*
X87448656Y-89942712D01*
X87542320Y-89849047D01*
X87603641Y-89815564D01*
X87673333Y-89820548D01*
X87717679Y-89849047D01*
X87774213Y-89905581D01*
X87811345Y-89942713D01*
X87826749Y-89952214D01*
X87960666Y-90034814D01*
X88072016Y-90071712D01*
X88127202Y-90089999D01*
X88136329Y-90090931D01*
X88163100Y-90093666D01*
X88227793Y-90120061D01*
X88267945Y-90177241D01*
X88274500Y-90217024D01*
X88274500Y-91949698D01*
X88254815Y-92016737D01*
X88202011Y-92062492D01*
X88189505Y-92067404D01*
X88105664Y-92095186D01*
X87956342Y-92187288D01*
X87832288Y-92311342D01*
X87740186Y-92460665D01*
X87685000Y-92627202D01*
X87674819Y-92726858D01*
X87674817Y-92726878D01*
X87674500Y-92729991D01*
X87674500Y-92733138D01*
X87674500Y-92733139D01*
X87674500Y-93326858D01*
X87674500Y-93326877D01*
X87674501Y-93330008D01*
X87674820Y-93333140D01*
X87674821Y-93333141D01*
X87685000Y-93432796D01*
X87740186Y-93599334D01*
X87832288Y-93748657D01*
X87956344Y-93872713D01*
X87959181Y-93874463D01*
X88005905Y-93926412D01*
X88017125Y-93995374D01*
X87989280Y-94059456D01*
X87959181Y-94085537D01*
X87956344Y-94087286D01*
X87832288Y-94211342D01*
X87740186Y-94360665D01*
X87685000Y-94527202D01*
X87674819Y-94626858D01*
X87674817Y-94626878D01*
X87674500Y-94629991D01*
X87674500Y-94633138D01*
X87674500Y-94633139D01*
X87674500Y-95226858D01*
X87674500Y-95226877D01*
X87674501Y-95230008D01*
X87674820Y-95233140D01*
X87674821Y-95233141D01*
X87685000Y-95332796D01*
X87740186Y-95499334D01*
X87832288Y-95648657D01*
X87956342Y-95772711D01*
X87956344Y-95772712D01*
X88105666Y-95864814D01*
X88189505Y-95892595D01*
X88246948Y-95932366D01*
X88273772Y-95996881D01*
X88274500Y-96010300D01*
X88274500Y-101289546D01*
X88254815Y-101356585D01*
X88238181Y-101377227D01*
X87407228Y-102208181D01*
X87345905Y-102241666D01*
X87319547Y-102244500D01*
X80309161Y-102244500D01*
X80242122Y-102224815D01*
X80196367Y-102172011D01*
X80186423Y-102102853D01*
X80215448Y-102039297D01*
X80272611Y-102002009D01*
X80397139Y-101963596D01*
X80633456Y-101849792D01*
X80805167Y-101732720D01*
X80154609Y-101082162D01*
X80273431Y-101010669D01*
X80407658Y-100883523D01*
X80510861Y-100731308D01*
X81158124Y-101378571D01*
X81205972Y-101318572D01*
X81337117Y-101091423D01*
X81432940Y-100847270D01*
X81491306Y-100591552D01*
X81510907Y-100330000D01*
X81491306Y-100068447D01*
X81432940Y-99812729D01*
X81337117Y-99568575D01*
X81205972Y-99341426D01*
X81158125Y-99281427D01*
X80507232Y-99932319D01*
X80463684Y-99850178D01*
X80343991Y-99709265D01*
X80196805Y-99597377D01*
X80154596Y-99577849D01*
X80805167Y-98927278D01*
X80633451Y-98810205D01*
X80397139Y-98696403D01*
X80146503Y-98619091D01*
X79887144Y-98580000D01*
X79624856Y-98580000D01*
X79365496Y-98619091D01*
X79114860Y-98696403D01*
X78878545Y-98810206D01*
X78706832Y-98927278D01*
X79357391Y-99577837D01*
X79238569Y-99649331D01*
X79104342Y-99776477D01*
X79001138Y-99928691D01*
X78353874Y-99281428D01*
X78306026Y-99341428D01*
X78174882Y-99568576D01*
X78079059Y-99812729D01*
X78020693Y-100068447D01*
X78001092Y-100330000D01*
X78020693Y-100591552D01*
X78079058Y-100847264D01*
X78158703Y-101050198D01*
X78164871Y-101119795D01*
X78132433Y-101181678D01*
X78071687Y-101216201D01*
X78043274Y-101219500D01*
X76388726Y-101219500D01*
X76321687Y-101199815D01*
X76275932Y-101147011D01*
X76265988Y-101077853D01*
X76273297Y-101050198D01*
X76352941Y-100847264D01*
X76411306Y-100591552D01*
X76430907Y-100330000D01*
X76411306Y-100068447D01*
X76352940Y-99812729D01*
X76257117Y-99568575D01*
X76125972Y-99341426D01*
X76078125Y-99281427D01*
X75427232Y-99932319D01*
X75383684Y-99850178D01*
X75263991Y-99709265D01*
X75116805Y-99597377D01*
X75074596Y-99577849D01*
X75725167Y-98927278D01*
X75553451Y-98810205D01*
X75317139Y-98696403D01*
X75066503Y-98619091D01*
X74807144Y-98580000D01*
X74544856Y-98580000D01*
X74285496Y-98619091D01*
X74034860Y-98696403D01*
X73798545Y-98810206D01*
X73626832Y-98927278D01*
X74277391Y-99577837D01*
X74158569Y-99649331D01*
X74024342Y-99776477D01*
X73921138Y-99928691D01*
X73273874Y-99281428D01*
X73226026Y-99341428D01*
X73094882Y-99568576D01*
X72999059Y-99812729D01*
X72961391Y-99977766D01*
X72927282Y-100038744D01*
X72865621Y-100071602D01*
X72795983Y-100065907D01*
X72740480Y-100023467D01*
X72716732Y-99957757D01*
X72716500Y-99950173D01*
X72716500Y-80648356D01*
X86865335Y-80648356D01*
X86884343Y-80998958D01*
X86885069Y-81005630D01*
X86941874Y-81352130D01*
X86943317Y-81358684D01*
X87037251Y-81697001D01*
X87039396Y-81703368D01*
X87169360Y-82029552D01*
X87172169Y-82035626D01*
X87336649Y-82345868D01*
X87340102Y-82351606D01*
X87537147Y-82642225D01*
X87541207Y-82647566D01*
X87666441Y-82795003D01*
X87666442Y-82795004D01*
X88872266Y-81589180D01*
X89035130Y-81779870D01*
X89225818Y-81942732D01*
X88017255Y-83151295D01*
X88028047Y-83161518D01*
X88033157Y-83165858D01*
X88312694Y-83378357D01*
X88318240Y-83382117D01*
X88619099Y-83563137D01*
X88625038Y-83566285D01*
X88943695Y-83713712D01*
X88949937Y-83716199D01*
X89282684Y-83828315D01*
X89289129Y-83830104D01*
X89632053Y-83905588D01*
X89638677Y-83906674D01*
X89987740Y-83944636D01*
X89994437Y-83945000D01*
X90345563Y-83945000D01*
X90352259Y-83944636D01*
X90701322Y-83906674D01*
X90707946Y-83905588D01*
X91050870Y-83830104D01*
X91057315Y-83828315D01*
X91390062Y-83716199D01*
X91396304Y-83713712D01*
X91714961Y-83566285D01*
X91720900Y-83563137D01*
X92021759Y-83382117D01*
X92027305Y-83378357D01*
X92306846Y-83165856D01*
X92311950Y-83161519D01*
X92322742Y-83151296D01*
X92322743Y-83151295D01*
X91114180Y-81942733D01*
X91304870Y-81779870D01*
X91467733Y-81589180D01*
X92673556Y-82795003D01*
X92673557Y-82795003D01*
X92798792Y-82647566D01*
X92802852Y-82642225D01*
X92999897Y-82351606D01*
X93003350Y-82345868D01*
X93167830Y-82035626D01*
X93170639Y-82029552D01*
X93300603Y-81703368D01*
X93302748Y-81697001D01*
X93396682Y-81358684D01*
X93398125Y-81352130D01*
X93454930Y-81005630D01*
X93455656Y-80998958D01*
X93474664Y-80648356D01*
X93474664Y-80641643D01*
X93455656Y-80291041D01*
X93454930Y-80284369D01*
X93398125Y-79937869D01*
X93396682Y-79931315D01*
X93302748Y-79592998D01*
X93300603Y-79586631D01*
X93170639Y-79260447D01*
X93167830Y-79254373D01*
X93003350Y-78944131D01*
X92999897Y-78938393D01*
X92802852Y-78647774D01*
X92798792Y-78642433D01*
X92673557Y-78494995D01*
X92673556Y-78494994D01*
X91467732Y-79700818D01*
X91304870Y-79510130D01*
X91114180Y-79347266D01*
X92322743Y-78138703D01*
X92311942Y-78128473D01*
X92306842Y-78124141D01*
X92027305Y-77911642D01*
X92021759Y-77907882D01*
X91720900Y-77726862D01*
X91714961Y-77723714D01*
X91396304Y-77576287D01*
X91390062Y-77573800D01*
X91057315Y-77461684D01*
X91050870Y-77459895D01*
X90707946Y-77384411D01*
X90701322Y-77383325D01*
X90352259Y-77345363D01*
X90345563Y-77345000D01*
X89994437Y-77345000D01*
X89987740Y-77345363D01*
X89638677Y-77383325D01*
X89632053Y-77384411D01*
X89289129Y-77459895D01*
X89282684Y-77461684D01*
X88949937Y-77573800D01*
X88943695Y-77576287D01*
X88625038Y-77723714D01*
X88619099Y-77726862D01*
X88318240Y-77907882D01*
X88312694Y-77911642D01*
X88033149Y-78124146D01*
X88028054Y-78128474D01*
X88017256Y-78138702D01*
X88017255Y-78138703D01*
X89225819Y-79347266D01*
X89035130Y-79510130D01*
X88872266Y-79700818D01*
X87666442Y-78494994D01*
X87666441Y-78494995D01*
X87541207Y-78642433D01*
X87537147Y-78647774D01*
X87340102Y-78938393D01*
X87336649Y-78944131D01*
X87172169Y-79254373D01*
X87169360Y-79260447D01*
X87039396Y-79586631D01*
X87037251Y-79592998D01*
X86943317Y-79931315D01*
X86941874Y-79937869D01*
X86885069Y-80284369D01*
X86884343Y-80291041D01*
X86865335Y-80641643D01*
X86865335Y-80648356D01*
X72716500Y-80648356D01*
X72716500Y-78976099D01*
X72969500Y-78976099D01*
X72969617Y-78976383D01*
X72969808Y-78976462D01*
X72969999Y-78976541D01*
X72970000Y-78976541D01*
X72970001Y-78976541D01*
X72970127Y-78976488D01*
X72970383Y-78976383D01*
X72970500Y-78976099D01*
X72970500Y-77595826D01*
X72990185Y-77528787D01*
X73042989Y-77483032D01*
X73112147Y-77473088D01*
X73175703Y-77502113D01*
X73213477Y-77560891D01*
X73215391Y-77568233D01*
X73253060Y-77733270D01*
X73348882Y-77977424D01*
X73480027Y-78204573D01*
X73527873Y-78264571D01*
X73527874Y-78264571D01*
X74178766Y-77613679D01*
X74222316Y-77695822D01*
X74342009Y-77836735D01*
X74489195Y-77948623D01*
X74531402Y-77968150D01*
X73880831Y-78618720D01*
X74052546Y-78735793D01*
X74288860Y-78849596D01*
X74539496Y-78926908D01*
X74798856Y-78966000D01*
X75061144Y-78966000D01*
X75320503Y-78926908D01*
X75571139Y-78849596D01*
X75807456Y-78735792D01*
X75979167Y-78618720D01*
X75328609Y-77968161D01*
X75447431Y-77896669D01*
X75581658Y-77769523D01*
X75684861Y-77617308D01*
X76332124Y-78264571D01*
X76379972Y-78204572D01*
X76511117Y-77977423D01*
X76606940Y-77733270D01*
X76665306Y-77477552D01*
X76684907Y-77216000D01*
X76665306Y-76954447D01*
X76606941Y-76698735D01*
X76527297Y-76495802D01*
X76521129Y-76426205D01*
X76553567Y-76364322D01*
X76614313Y-76329799D01*
X76642726Y-76326500D01*
X78297274Y-76326500D01*
X78364313Y-76346185D01*
X78410068Y-76398989D01*
X78420012Y-76468147D01*
X78412703Y-76495802D01*
X78333058Y-76698735D01*
X78274693Y-76954447D01*
X78255092Y-77216000D01*
X78274693Y-77477552D01*
X78333059Y-77733270D01*
X78428882Y-77977424D01*
X78560027Y-78204573D01*
X78607873Y-78264571D01*
X79258766Y-77613678D01*
X79302316Y-77695822D01*
X79422009Y-77836735D01*
X79569195Y-77948623D01*
X79611402Y-77968150D01*
X78960831Y-78618720D01*
X79132546Y-78735793D01*
X79368860Y-78849596D01*
X79619496Y-78926908D01*
X79878856Y-78966000D01*
X80141144Y-78966000D01*
X80400503Y-78926908D01*
X80651139Y-78849596D01*
X80887456Y-78735792D01*
X81059167Y-78618720D01*
X80408609Y-77968161D01*
X80527431Y-77896669D01*
X80661658Y-77769523D01*
X80764861Y-77617308D01*
X81412124Y-78264571D01*
X81459972Y-78204572D01*
X81591117Y-77977423D01*
X81686940Y-77733270D01*
X81745306Y-77477552D01*
X81764907Y-77216000D01*
X81745306Y-76954447D01*
X81686940Y-76698729D01*
X81591117Y-76454575D01*
X81459972Y-76227426D01*
X81412125Y-76167427D01*
X80761232Y-76818319D01*
X80717684Y-76736178D01*
X80597991Y-76595265D01*
X80450805Y-76483377D01*
X80408596Y-76463849D01*
X81059167Y-75813278D01*
X80887451Y-75696205D01*
X80651139Y-75582403D01*
X80526611Y-75543991D01*
X80468352Y-75505421D01*
X80440194Y-75441476D01*
X80451078Y-75372459D01*
X80497546Y-75320282D01*
X80563161Y-75301500D01*
X87801256Y-75301500D01*
X87821762Y-75303764D01*
X87824665Y-75303672D01*
X87824667Y-75303673D01*
X87891872Y-75301561D01*
X87895768Y-75301500D01*
X87919448Y-75301500D01*
X87923350Y-75301500D01*
X87927313Y-75300999D01*
X87938962Y-75300080D01*
X87982627Y-75298709D01*
X88001859Y-75293120D01*
X88020918Y-75289174D01*
X88027196Y-75288381D01*
X88040792Y-75286664D01*
X88081407Y-75270582D01*
X88092444Y-75266803D01*
X88134390Y-75254618D01*
X88150652Y-75245000D01*
X98895000Y-75245000D01*
X98895000Y-75883196D01*
X98895191Y-75888076D01*
X98897900Y-75922493D01*
X98943717Y-76080197D01*
X99027317Y-76221557D01*
X99143442Y-76337682D01*
X99284799Y-76421280D01*
X99442511Y-76467099D01*
X99445000Y-76467295D01*
X99445000Y-75245000D01*
X98895000Y-75245000D01*
X88150652Y-75245000D01*
X88151629Y-75244422D01*
X88169102Y-75235862D01*
X88187732Y-75228486D01*
X88223064Y-75202814D01*
X88232830Y-75196400D01*
X88270418Y-75174171D01*
X88270417Y-75174171D01*
X88270420Y-75174170D01*
X88284585Y-75160004D01*
X88299373Y-75147373D01*
X88315587Y-75135594D01*
X88343438Y-75101926D01*
X88351279Y-75093309D01*
X88699588Y-74745000D01*
X98895000Y-74745000D01*
X99445000Y-74745000D01*
X99445000Y-73522703D01*
X99442512Y-73522900D01*
X99284799Y-73568719D01*
X99143442Y-73652317D01*
X99027317Y-73768442D01*
X98943717Y-73909802D01*
X98897900Y-74067506D01*
X98895191Y-74101923D01*
X98895000Y-74106803D01*
X98895000Y-74745000D01*
X88699588Y-74745000D01*
X89283788Y-74160801D01*
X89299885Y-74147906D01*
X89301873Y-74145787D01*
X89301877Y-74145786D01*
X89347949Y-74096723D01*
X89350534Y-74094055D01*
X89370120Y-74074471D01*
X89372585Y-74071292D01*
X89380167Y-74062416D01*
X89391357Y-74050500D01*
X89410062Y-74030582D01*
X89419712Y-74013027D01*
X89430400Y-73996757D01*
X89442671Y-73980938D01*
X89442673Y-73980936D01*
X89460026Y-73940832D01*
X89465157Y-73930362D01*
X89486197Y-73892092D01*
X89491175Y-73872699D01*
X89497481Y-73854282D01*
X89499018Y-73850728D01*
X89505438Y-73835896D01*
X89512272Y-73792745D01*
X89514635Y-73781331D01*
X89525500Y-73739019D01*
X89525500Y-73718983D01*
X89527027Y-73699584D01*
X89527121Y-73698990D01*
X89530160Y-73679804D01*
X89526050Y-73636324D01*
X89525500Y-73624655D01*
X89525500Y-72005000D01*
X90785001Y-72005000D01*
X90785001Y-72251829D01*
X90785321Y-72258111D01*
X90795493Y-72357695D01*
X90850642Y-72524122D01*
X90942683Y-72673345D01*
X91066654Y-72797316D01*
X91215877Y-72889357D01*
X91382303Y-72944506D01*
X91481891Y-72954680D01*
X91488167Y-72954999D01*
X91547499Y-72954998D01*
X91547500Y-72954998D01*
X91547500Y-72005000D01*
X90785001Y-72005000D01*
X89525500Y-72005000D01*
X89525500Y-71505000D01*
X90785000Y-71505000D01*
X91547500Y-71505000D01*
X91547500Y-70555000D01*
X91547499Y-70554999D01*
X91488171Y-70555000D01*
X91481888Y-70555321D01*
X91382304Y-70565493D01*
X91215877Y-70620642D01*
X91066654Y-70712683D01*
X90942683Y-70836654D01*
X90850642Y-70985877D01*
X90795493Y-71152303D01*
X90785319Y-71251890D01*
X90785000Y-71258168D01*
X90785000Y-71505000D01*
X89525500Y-71505000D01*
X89525500Y-68070300D01*
X89545185Y-68003261D01*
X89597989Y-67957506D01*
X89610482Y-67952599D01*
X89694334Y-67924814D01*
X89843656Y-67832712D01*
X89967712Y-67708656D01*
X89988838Y-67674404D01*
X90040787Y-67627679D01*
X90094378Y-67615500D01*
X90660501Y-67615500D01*
X90727540Y-67635185D01*
X90773295Y-67687989D01*
X90784501Y-67739500D01*
X90784501Y-67810008D01*
X90784820Y-67813140D01*
X90784821Y-67813141D01*
X90795000Y-67912796D01*
X90850186Y-68079334D01*
X90942288Y-68228657D01*
X91066342Y-68352711D01*
X91113095Y-68381548D01*
X91215666Y-68444814D01*
X91327017Y-68481712D01*
X91382202Y-68499999D01*
X91481858Y-68510180D01*
X91481859Y-68510180D01*
X91484991Y-68510500D01*
X92110008Y-68510499D01*
X92212797Y-68499999D01*
X92379334Y-68444814D01*
X92528656Y-68352712D01*
X92622320Y-68259047D01*
X92683641Y-68225564D01*
X92753333Y-68230548D01*
X92797681Y-68259049D01*
X92891344Y-68352712D01*
X92938096Y-68381548D01*
X92984821Y-68433495D01*
X92997000Y-68487087D01*
X92997000Y-70577911D01*
X92977315Y-70644950D01*
X92938098Y-70683449D01*
X92891344Y-70712287D01*
X92797327Y-70806304D01*
X92736004Y-70839788D01*
X92666312Y-70834804D01*
X92621965Y-70806303D01*
X92528345Y-70712683D01*
X92379122Y-70620642D01*
X92212696Y-70565493D01*
X92113109Y-70555319D01*
X92106832Y-70555000D01*
X92047500Y-70555000D01*
X92047500Y-72954999D01*
X92106829Y-72954999D01*
X92113111Y-72954678D01*
X92212695Y-72944506D01*
X92379122Y-72889357D01*
X92528344Y-72797316D01*
X92621964Y-72703696D01*
X92683287Y-72670210D01*
X92752978Y-72675194D01*
X92797325Y-72703693D01*
X92850367Y-72756735D01*
X92891345Y-72797713D01*
X92966005Y-72843763D01*
X93040666Y-72889814D01*
X93149249Y-72925795D01*
X93207202Y-72944999D01*
X93306858Y-72955180D01*
X93306859Y-72955180D01*
X93309991Y-72955500D01*
X93935008Y-72955499D01*
X94037797Y-72944999D01*
X94204334Y-72889814D01*
X94353656Y-72797712D01*
X94477712Y-72673656D01*
X94569814Y-72524334D01*
X94624999Y-72357797D01*
X94635500Y-72255009D01*
X94635499Y-71254992D01*
X94624999Y-71152203D01*
X94569814Y-70985666D01*
X94477712Y-70836344D01*
X94477711Y-70836342D01*
X94353657Y-70712288D01*
X94306902Y-70683449D01*
X94260178Y-70631501D01*
X94248000Y-70577911D01*
X94248000Y-68487087D01*
X94267685Y-68420048D01*
X94306903Y-68381548D01*
X94353656Y-68352712D01*
X94477712Y-68228656D01*
X94569814Y-68079334D01*
X94589311Y-68020495D01*
X94629084Y-67963051D01*
X94693600Y-67936228D01*
X94707017Y-67935500D01*
X99536753Y-67935500D01*
X99603792Y-67955185D01*
X99628900Y-67976526D01*
X99634629Y-67982888D01*
X99787770Y-68094151D01*
X99787771Y-68094151D01*
X99787772Y-68094152D01*
X99960697Y-68171144D01*
X100145852Y-68210500D01*
X100215500Y-68210500D01*
X100282539Y-68230185D01*
X100328294Y-68282989D01*
X100339500Y-68334500D01*
X100339500Y-73489888D01*
X100319815Y-73556927D01*
X100267011Y-73602682D01*
X100197853Y-73612626D01*
X100152380Y-73596620D01*
X100105203Y-73568720D01*
X99947487Y-73522900D01*
X99945000Y-73522703D01*
X99945000Y-76467295D01*
X99947488Y-76467099D01*
X100105200Y-76421280D01*
X100260040Y-76329709D01*
X100261245Y-76331746D01*
X100303269Y-76308792D01*
X100372962Y-76313766D01*
X100399305Y-76330693D01*
X100399652Y-76330107D01*
X100413134Y-76338080D01*
X100413135Y-76338081D01*
X100460344Y-76366000D01*
X100554602Y-76421744D01*
X100712427Y-76467597D01*
X100712431Y-76467598D01*
X100749306Y-76470500D01*
X100751751Y-76470500D01*
X101178249Y-76470500D01*
X101180694Y-76470500D01*
X101217569Y-76467598D01*
X101375398Y-76421744D01*
X101503162Y-76346185D01*
X101530349Y-76330107D01*
X101531545Y-76332129D01*
X101573633Y-76309144D01*
X101643325Y-76314123D01*
X101669250Y-76330784D01*
X101669651Y-76330107D01*
X101824602Y-76421744D01*
X101982427Y-76467597D01*
X101982431Y-76467598D01*
X102019306Y-76470500D01*
X102021751Y-76470500D01*
X102448249Y-76470500D01*
X102450694Y-76470500D01*
X102487569Y-76467598D01*
X102645398Y-76421744D01*
X102773162Y-76346185D01*
X102800349Y-76330107D01*
X102801545Y-76332129D01*
X102843633Y-76309144D01*
X102913325Y-76314123D01*
X102939250Y-76330784D01*
X102939651Y-76330107D01*
X103094602Y-76421744D01*
X103252427Y-76467597D01*
X103252431Y-76467598D01*
X103289306Y-76470500D01*
X103291751Y-76470500D01*
X103718249Y-76470500D01*
X103720694Y-76470500D01*
X103757569Y-76467598D01*
X103915398Y-76421744D01*
X104056865Y-76338081D01*
X104173081Y-76221865D01*
X104256744Y-76080398D01*
X104302598Y-75922569D01*
X104305500Y-75885694D01*
X104305500Y-75130451D01*
X104325185Y-75063413D01*
X104341819Y-75042771D01*
X104395271Y-74989319D01*
X104456594Y-74955834D01*
X104482952Y-74953000D01*
X105526976Y-74953000D01*
X105594015Y-74972685D01*
X105639770Y-75025489D01*
X105649714Y-75094647D01*
X105620689Y-75158203D01*
X105614657Y-75164681D01*
X105612683Y-75166654D01*
X105520642Y-75315877D01*
X105465493Y-75482303D01*
X105455319Y-75581890D01*
X105455000Y-75588168D01*
X105455000Y-75635000D01*
X107904999Y-75635000D01*
X107904999Y-75588170D01*
X107904678Y-75581888D01*
X107894506Y-75482304D01*
X107839357Y-75315877D01*
X107747316Y-75166654D01*
X107745343Y-75164681D01*
X107711858Y-75103358D01*
X107716842Y-75033666D01*
X107758714Y-74977733D01*
X107824178Y-74953316D01*
X107833024Y-74953000D01*
X109336976Y-74953000D01*
X109404015Y-74972685D01*
X109449770Y-75025489D01*
X109459714Y-75094647D01*
X109430689Y-75158203D01*
X109424657Y-75164681D01*
X109422683Y-75166654D01*
X109330642Y-75315877D01*
X109275493Y-75482303D01*
X109265319Y-75581890D01*
X109265000Y-75588168D01*
X109265000Y-75635000D01*
X111714999Y-75635000D01*
X111714999Y-75588170D01*
X111714678Y-75581888D01*
X111704506Y-75482304D01*
X111649357Y-75315877D01*
X111557316Y-75166654D01*
X111555343Y-75164681D01*
X111521858Y-75103358D01*
X111526842Y-75033666D01*
X111568714Y-74977733D01*
X111634178Y-74953316D01*
X111643024Y-74953000D01*
X117115061Y-74953000D01*
X117135567Y-74955264D01*
X117138470Y-74955172D01*
X117138472Y-74955173D01*
X117205677Y-74953061D01*
X117209573Y-74953000D01*
X117233253Y-74953000D01*
X117237155Y-74953000D01*
X117241118Y-74952499D01*
X117252767Y-74951580D01*
X117296432Y-74950209D01*
X117315664Y-74944620D01*
X117334723Y-74940674D01*
X117341001Y-74939881D01*
X117354597Y-74938164D01*
X117395212Y-74922082D01*
X117406249Y-74918303D01*
X117448195Y-74906118D01*
X117465434Y-74895922D01*
X117482907Y-74887362D01*
X117501537Y-74879986D01*
X117536869Y-74854314D01*
X117546635Y-74847900D01*
X117584223Y-74825671D01*
X117584222Y-74825671D01*
X117584225Y-74825670D01*
X117598390Y-74811504D01*
X117613178Y-74798873D01*
X117629392Y-74787094D01*
X117657243Y-74753426D01*
X117665084Y-74744809D01*
X121668786Y-70741107D01*
X121684886Y-70728210D01*
X121686874Y-70726092D01*
X121686877Y-70726091D01*
X121732964Y-70677012D01*
X121735549Y-70674344D01*
X121755120Y-70654775D01*
X121757565Y-70651621D01*
X121765154Y-70642734D01*
X121795062Y-70610887D01*
X121804713Y-70593331D01*
X121815393Y-70577072D01*
X121827674Y-70561241D01*
X121845018Y-70521156D01*
X121850160Y-70510661D01*
X121854700Y-70502403D01*
X121871197Y-70472397D01*
X121876178Y-70452993D01*
X121882480Y-70434588D01*
X121890438Y-70416200D01*
X121897270Y-70373053D01*
X121899639Y-70361621D01*
X121910499Y-70319326D01*
X121910500Y-70319324D01*
X121910500Y-70299278D01*
X121912024Y-70279907D01*
X121915160Y-70260109D01*
X121911050Y-70216629D01*
X121910500Y-70204960D01*
X121910500Y-62540451D01*
X121930185Y-62473412D01*
X121946814Y-62452775D01*
X124929821Y-59469767D01*
X124991142Y-59436284D01*
X125060834Y-59441268D01*
X125116767Y-59483140D01*
X125141184Y-59548604D01*
X125141500Y-59557437D01*
X125141500Y-59563554D01*
X125141500Y-59563572D01*
X125141501Y-59566872D01*
X125147909Y-59626483D01*
X125198204Y-59761331D01*
X125284454Y-59876546D01*
X125399669Y-59962796D01*
X125531598Y-60012002D01*
X125587532Y-60053873D01*
X125611949Y-60119337D01*
X125597097Y-60187610D01*
X125575947Y-60215865D01*
X125453888Y-60337924D01*
X125318400Y-60531421D01*
X125218569Y-60745507D01*
X125161364Y-60958999D01*
X125161364Y-60959000D01*
X126058314Y-60959000D01*
X126032507Y-60999156D01*
X125992000Y-61137111D01*
X125992000Y-61280889D01*
X126032507Y-61418844D01*
X126058314Y-61459000D01*
X125161364Y-61459000D01*
X125218569Y-61672492D01*
X125318399Y-61886576D01*
X125453893Y-62080081D01*
X125620918Y-62247106D01*
X125814423Y-62382600D01*
X126028509Y-62482430D01*
X126242000Y-62539634D01*
X126242000Y-61644501D01*
X126349685Y-61693680D01*
X126456237Y-61709000D01*
X126527763Y-61709000D01*
X126634315Y-61693680D01*
X126742000Y-61644501D01*
X126742000Y-62539633D01*
X126955490Y-62482430D01*
X127169576Y-62382600D01*
X127363081Y-62247106D01*
X127530106Y-62080081D01*
X127665600Y-61886576D01*
X127765430Y-61672492D01*
X127822636Y-61459000D01*
X126925686Y-61459000D01*
X126951493Y-61418844D01*
X126992000Y-61280889D01*
X126992000Y-61137111D01*
X126951493Y-60999156D01*
X126925686Y-60959000D01*
X127822636Y-60959000D01*
X127822635Y-60958999D01*
X127765430Y-60745507D01*
X127665599Y-60531421D01*
X127530109Y-60337921D01*
X127408053Y-60215865D01*
X127374568Y-60154542D01*
X127379552Y-60084850D01*
X127421424Y-60028917D01*
X127452397Y-60012004D01*
X127584331Y-59962796D01*
X127699546Y-59876546D01*
X127785796Y-59761331D01*
X127836091Y-59626483D01*
X127842500Y-59566873D01*
X127842499Y-57771128D01*
X127836091Y-57711517D01*
X127785796Y-57576669D01*
X127699546Y-57461454D01*
X127584331Y-57375204D01*
X127449483Y-57324909D01*
X127389873Y-57318500D01*
X127386550Y-57318500D01*
X125597439Y-57318500D01*
X125597420Y-57318500D01*
X125594128Y-57318501D01*
X125590848Y-57318853D01*
X125590840Y-57318854D01*
X125534515Y-57324909D01*
X125399669Y-57375204D01*
X125284454Y-57461454D01*
X125198204Y-57576669D01*
X125146424Y-57715497D01*
X125104552Y-57771430D01*
X125039088Y-57795847D01*
X125034140Y-57796102D01*
X124996372Y-57797289D01*
X124977128Y-57802880D01*
X124958084Y-57806824D01*
X124938208Y-57809335D01*
X124897600Y-57825413D01*
X124886554Y-57829194D01*
X124844610Y-57841382D01*
X124844607Y-57841383D01*
X124827365Y-57851579D01*
X124809904Y-57860133D01*
X124791267Y-57867512D01*
X124755931Y-57893185D01*
X124746174Y-57899595D01*
X124708580Y-57921829D01*
X124694413Y-57935996D01*
X124679624Y-57948626D01*
X124663413Y-57960404D01*
X124635572Y-57994058D01*
X124627711Y-58002697D01*
X120901208Y-61729199D01*
X120885110Y-61742096D01*
X120837096Y-61793225D01*
X120834392Y-61796016D01*
X120817628Y-61812780D01*
X120817621Y-61812787D01*
X120814880Y-61815529D01*
X120812499Y-61818597D01*
X120812490Y-61818608D01*
X120812411Y-61818711D01*
X120804842Y-61827572D01*
X120774935Y-61859420D01*
X120765285Y-61876974D01*
X120754609Y-61893228D01*
X120742326Y-61909063D01*
X120724975Y-61949158D01*
X120719838Y-61959644D01*
X120698802Y-61997907D01*
X120693821Y-62017309D01*
X120687520Y-62035711D01*
X120679561Y-62054102D01*
X120672728Y-62097242D01*
X120670360Y-62108674D01*
X120659500Y-62150977D01*
X120659500Y-62171016D01*
X120657973Y-62190414D01*
X120654840Y-62210194D01*
X120658950Y-62253673D01*
X120659500Y-62265343D01*
X120659500Y-69929851D01*
X120639815Y-69996890D01*
X120623181Y-70017532D01*
X118271689Y-72369023D01*
X118210366Y-72402508D01*
X118140674Y-72397524D01*
X118091858Y-72364314D01*
X118080870Y-72352110D01*
X117927730Y-72240848D01*
X117754802Y-72163855D01*
X117569648Y-72124500D01*
X117569646Y-72124500D01*
X117510453Y-72124500D01*
X117443414Y-72104815D01*
X117422772Y-72088181D01*
X117340802Y-72006211D01*
X117327906Y-71990113D01*
X117276775Y-71942098D01*
X117273978Y-71939387D01*
X117257227Y-71922636D01*
X117254471Y-71919880D01*
X117251290Y-71917412D01*
X117242422Y-71909837D01*
X117210582Y-71879938D01*
X117193024Y-71870285D01*
X117176765Y-71859605D01*
X117172572Y-71856353D01*
X117131668Y-71799709D01*
X117130871Y-71797381D01*
X117127499Y-71787205D01*
X117127499Y-71787203D01*
X117072314Y-71620666D01*
X116980212Y-71471344D01*
X116980211Y-71471342D01*
X116856157Y-71347288D01*
X116706834Y-71255186D01*
X116540297Y-71200000D01*
X116440641Y-71189819D01*
X116440622Y-71189818D01*
X116437509Y-71189500D01*
X116434360Y-71189500D01*
X115815641Y-71189500D01*
X115815621Y-71189500D01*
X115812492Y-71189501D01*
X115809360Y-71189820D01*
X115809358Y-71189821D01*
X115697101Y-71201288D01*
X115628408Y-71188518D01*
X115577524Y-71140637D01*
X115560500Y-71077930D01*
X115560500Y-69220227D01*
X115580185Y-69153188D01*
X115613373Y-69118654D01*
X115806401Y-68983495D01*
X115928329Y-68861566D01*
X115989648Y-68828084D01*
X116059340Y-68833068D01*
X116115274Y-68874939D01*
X116132189Y-68905916D01*
X116181204Y-69037331D01*
X116267454Y-69152546D01*
X116382669Y-69238796D01*
X116517517Y-69289091D01*
X116577127Y-69295500D01*
X118372872Y-69295499D01*
X118432483Y-69289091D01*
X118567331Y-69238796D01*
X118682546Y-69152546D01*
X118768796Y-69037331D01*
X118819091Y-68902483D01*
X118825500Y-68842873D01*
X118825499Y-67047128D01*
X118819091Y-66987517D01*
X118768796Y-66852669D01*
X118682546Y-66737454D01*
X118567331Y-66651204D01*
X118432483Y-66600909D01*
X118419415Y-66599504D01*
X118376166Y-66594854D01*
X118376165Y-66594853D01*
X118372873Y-66594500D01*
X118369551Y-66594500D01*
X118224500Y-66594500D01*
X118157461Y-66574815D01*
X118111706Y-66522011D01*
X118100500Y-66470500D01*
X118100500Y-59894499D01*
X118120185Y-59827460D01*
X118172989Y-59781705D01*
X118224500Y-59770499D01*
X118369561Y-59770499D01*
X118372872Y-59770499D01*
X118432483Y-59764091D01*
X118567331Y-59713796D01*
X118682546Y-59627546D01*
X118768796Y-59512331D01*
X118819091Y-59377483D01*
X118825500Y-59317873D01*
X118825499Y-57522128D01*
X118819091Y-57462517D01*
X118768796Y-57327669D01*
X118682546Y-57212454D01*
X118567331Y-57126204D01*
X118432483Y-57075909D01*
X118372873Y-57069500D01*
X118369550Y-57069500D01*
X116580439Y-57069500D01*
X116580420Y-57069500D01*
X116577128Y-57069501D01*
X116573848Y-57069853D01*
X116573840Y-57069854D01*
X116517515Y-57075909D01*
X116382669Y-57126204D01*
X116267454Y-57212454D01*
X116181204Y-57327669D01*
X116131997Y-57459599D01*
X116090125Y-57515532D01*
X116024661Y-57539949D01*
X115956388Y-57525097D01*
X115928134Y-57503946D01*
X115806081Y-57381893D01*
X115612576Y-57246399D01*
X115398492Y-57146569D01*
X115185000Y-57089364D01*
X115185000Y-57984498D01*
X115077315Y-57935320D01*
X114970763Y-57920000D01*
X114899237Y-57920000D01*
X114792685Y-57935320D01*
X114685000Y-57984498D01*
X114685000Y-57089364D01*
X114684999Y-57089364D01*
X114471507Y-57146569D01*
X114257421Y-57246400D01*
X114063921Y-57381890D01*
X113896890Y-57548921D01*
X113761400Y-57742421D01*
X113661569Y-57956507D01*
X113604364Y-58169999D01*
X113604364Y-58170000D01*
X114501314Y-58170000D01*
X114475507Y-58210156D01*
X114435000Y-58348111D01*
X114435000Y-58491889D01*
X114475507Y-58629844D01*
X114501314Y-58670000D01*
X113604364Y-58670000D01*
X113661569Y-58883492D01*
X113761399Y-59097576D01*
X113896893Y-59291081D01*
X114063918Y-59458106D01*
X114257423Y-59593600D01*
X114471509Y-59693430D01*
X114685000Y-59750634D01*
X114685000Y-58855501D01*
X114792685Y-58904680D01*
X114899237Y-58920000D01*
X114970763Y-58920000D01*
X115077315Y-58904680D01*
X115185000Y-58855501D01*
X115185000Y-59750633D01*
X115398490Y-59693430D01*
X115612576Y-59593600D01*
X115806077Y-59458109D01*
X115928133Y-59336053D01*
X115989456Y-59302568D01*
X116059148Y-59307552D01*
X116115082Y-59349423D01*
X116131996Y-59380399D01*
X116181204Y-59512331D01*
X116267454Y-59627546D01*
X116382669Y-59713796D01*
X116517517Y-59764091D01*
X116577127Y-59770500D01*
X116725500Y-59770499D01*
X116792539Y-59790183D01*
X116838294Y-59842987D01*
X116849500Y-59894499D01*
X116849500Y-66470500D01*
X116829815Y-66537539D01*
X116777011Y-66583294D01*
X116725501Y-66594500D01*
X116580439Y-66594500D01*
X116580420Y-66594500D01*
X116577128Y-66594501D01*
X116573848Y-66594853D01*
X116573840Y-66594854D01*
X116517515Y-66600909D01*
X116382669Y-66651204D01*
X116267454Y-66737454D01*
X116181204Y-66852669D01*
X116132189Y-66984083D01*
X116090317Y-67040016D01*
X116024852Y-67064433D01*
X115956580Y-67049581D01*
X115928326Y-67028430D01*
X115806404Y-66906508D01*
X115806403Y-66906508D01*
X115806401Y-66906505D01*
X115612830Y-66770965D01*
X115398663Y-66671097D01*
X115337502Y-66654709D01*
X115170407Y-66609936D01*
X114934999Y-66589340D01*
X114699592Y-66609936D01*
X114471336Y-66671097D01*
X114257170Y-66770965D01*
X114063598Y-66906505D01*
X113896505Y-67073598D01*
X113766575Y-67259159D01*
X113711998Y-67302784D01*
X113642500Y-67309978D01*
X113580145Y-67278455D01*
X113563425Y-67259159D01*
X113433494Y-67073598D01*
X113266401Y-66906505D01*
X113189515Y-66852669D01*
X113073374Y-66771346D01*
X113029751Y-66716771D01*
X113020500Y-66669778D01*
X113020500Y-64863753D01*
X113040185Y-64796714D01*
X113092989Y-64750960D01*
X113105492Y-64746049D01*
X113167925Y-64725362D01*
X113316003Y-64634026D01*
X113439026Y-64511003D01*
X113530362Y-64362925D01*
X113585087Y-64197775D01*
X113595500Y-64095848D01*
X113595500Y-63509152D01*
X113585087Y-63407225D01*
X113581433Y-63396199D01*
X113530362Y-63242076D01*
X113530362Y-63242075D01*
X113439026Y-63093997D01*
X113439025Y-63093996D01*
X113439024Y-63093994D01*
X113316002Y-62970972D01*
X113314818Y-62970242D01*
X113310758Y-62965728D01*
X113305755Y-62960725D01*
X113306019Y-62960460D01*
X113268094Y-62918293D01*
X113256874Y-62849331D01*
X113284719Y-62785249D01*
X113314829Y-62759161D01*
X113315695Y-62758626D01*
X113438629Y-62635692D01*
X113529905Y-62487710D01*
X113584593Y-62322673D01*
X113594680Y-62223938D01*
X113595000Y-62217660D01*
X113595000Y-62177500D01*
X111195000Y-62177500D01*
X111195000Y-62217660D01*
X111195319Y-62223938D01*
X111205406Y-62322673D01*
X111260094Y-62487710D01*
X111351370Y-62635692D01*
X111474305Y-62758627D01*
X111475174Y-62759163D01*
X111478155Y-62762477D01*
X111484558Y-62768880D01*
X111484219Y-62769218D01*
X111521901Y-62811109D01*
X111533126Y-62880071D01*
X111505286Y-62944154D01*
X111475185Y-62970240D01*
X111473997Y-62970972D01*
X111350975Y-63093994D01*
X111259637Y-63242076D01*
X111204912Y-63407224D01*
X111194819Y-63506019D01*
X111194817Y-63506039D01*
X111194500Y-63509152D01*
X111194500Y-64095848D01*
X111194818Y-64098961D01*
X111194819Y-64098980D01*
X111204912Y-64197775D01*
X111259637Y-64362923D01*
X111350975Y-64511005D01*
X111473994Y-64634024D01*
X111473996Y-64634025D01*
X111473997Y-64634026D01*
X111622075Y-64725362D01*
X111684503Y-64746048D01*
X111741948Y-64785820D01*
X111768772Y-64850336D01*
X111769500Y-64863754D01*
X111769500Y-66669773D01*
X111749815Y-66736812D01*
X111716624Y-66771348D01*
X111523595Y-66906508D01*
X111356505Y-67073598D01*
X111220965Y-67267170D01*
X111121097Y-67481336D01*
X111059936Y-67709592D01*
X111039340Y-67944999D01*
X111059936Y-68180407D01*
X111087423Y-68282989D01*
X111121097Y-68408663D01*
X111220965Y-68622830D01*
X111356505Y-68816401D01*
X111523599Y-68983495D01*
X111717170Y-69119035D01*
X111931337Y-69218903D01*
X112159592Y-69280063D01*
X112395000Y-69300659D01*
X112630408Y-69280063D01*
X112858663Y-69218903D01*
X113072830Y-69119035D01*
X113266401Y-68983495D01*
X113433495Y-68816401D01*
X113563426Y-68630839D01*
X113618002Y-68587216D01*
X113687500Y-68580022D01*
X113749855Y-68611545D01*
X113766571Y-68630837D01*
X113896505Y-68816401D01*
X114063599Y-68983495D01*
X114256625Y-69118653D01*
X114300248Y-69173229D01*
X114309500Y-69220227D01*
X114309499Y-71065500D01*
X114289814Y-71132540D01*
X114237010Y-71178294D01*
X114185500Y-71189500D01*
X113990641Y-71189500D01*
X113990621Y-71189500D01*
X113987492Y-71189501D01*
X113984360Y-71189820D01*
X113984358Y-71189821D01*
X113884703Y-71200000D01*
X113718165Y-71255186D01*
X113568842Y-71347288D01*
X113444788Y-71471342D01*
X113352686Y-71620665D01*
X113297500Y-71787202D01*
X113287319Y-71886858D01*
X113287317Y-71886878D01*
X113287000Y-71889991D01*
X113287000Y-71893138D01*
X113287000Y-71893139D01*
X113287000Y-72886859D01*
X113287000Y-72886878D01*
X113287001Y-72890008D01*
X113287320Y-72893140D01*
X113287321Y-72893141D01*
X113297500Y-72992796D01*
X113352686Y-73159334D01*
X113444788Y-73308657D01*
X113568842Y-73432711D01*
X113633288Y-73472461D01*
X113680013Y-73524408D01*
X113691236Y-73593371D01*
X113663393Y-73657453D01*
X113605324Y-73696310D01*
X113568192Y-73702000D01*
X104255244Y-73702000D01*
X104228086Y-73698990D01*
X104227342Y-73698823D01*
X104166242Y-73664933D01*
X104133162Y-73603390D01*
X104130500Y-73577833D01*
X104130500Y-66202743D01*
X104132764Y-66182239D01*
X104132542Y-66175186D01*
X104130561Y-66112112D01*
X104130500Y-66108218D01*
X104130500Y-66084541D01*
X104130500Y-66080650D01*
X104129998Y-66076683D01*
X104129081Y-66065027D01*
X104127710Y-66021373D01*
X104122118Y-66002126D01*
X104118174Y-65983085D01*
X104115664Y-65963208D01*
X104099579Y-65922583D01*
X104095808Y-65911568D01*
X104083618Y-65869610D01*
X104073414Y-65852355D01*
X104064861Y-65834895D01*
X104057486Y-65816269D01*
X104057486Y-65816268D01*
X104031808Y-65780925D01*
X104025401Y-65771171D01*
X104003169Y-65733579D01*
X103989006Y-65719416D01*
X103976367Y-65704617D01*
X103964595Y-65688413D01*
X103930941Y-65660573D01*
X103922299Y-65652709D01*
X103839318Y-65569728D01*
X103805833Y-65508405D01*
X103802999Y-65482047D01*
X103802999Y-64908140D01*
X103802999Y-64908139D01*
X103802999Y-64904992D01*
X103792499Y-64802203D01*
X103737314Y-64635666D01*
X103645212Y-64486344D01*
X103645211Y-64486342D01*
X103521157Y-64362288D01*
X103371834Y-64270186D01*
X103205297Y-64215000D01*
X103105641Y-64204819D01*
X103105622Y-64204818D01*
X103102509Y-64204500D01*
X103099360Y-64204500D01*
X102480641Y-64204500D01*
X102480621Y-64204500D01*
X102477492Y-64204501D01*
X102474360Y-64204820D01*
X102474358Y-64204821D01*
X102374703Y-64215000D01*
X102208165Y-64270186D01*
X102058842Y-64362288D01*
X101965181Y-64455950D01*
X101903858Y-64489435D01*
X101834166Y-64484451D01*
X101789819Y-64455950D01*
X101696157Y-64362288D01*
X101649402Y-64333449D01*
X101602678Y-64281501D01*
X101590500Y-64227911D01*
X101590500Y-63624636D01*
X101590500Y-62947733D01*
X101592764Y-62927238D01*
X101590561Y-62857126D01*
X101590500Y-62853231D01*
X101590500Y-62829540D01*
X101590500Y-62825650D01*
X101589998Y-62821677D01*
X101589080Y-62810018D01*
X101587709Y-62766373D01*
X101582120Y-62747140D01*
X101578174Y-62728082D01*
X101575664Y-62708206D01*
X101559588Y-62667604D01*
X101555804Y-62656553D01*
X101548143Y-62630185D01*
X101543618Y-62614610D01*
X101533414Y-62597355D01*
X101524861Y-62579895D01*
X101517486Y-62561269D01*
X101517486Y-62561268D01*
X101491808Y-62525925D01*
X101485401Y-62516171D01*
X101482594Y-62511424D01*
X101463170Y-62478580D01*
X101449006Y-62464416D01*
X101436367Y-62449617D01*
X101424595Y-62433413D01*
X101390941Y-62405573D01*
X101382299Y-62397709D01*
X99560802Y-60576211D01*
X99547906Y-60560113D01*
X99496775Y-60512098D01*
X99493978Y-60509387D01*
X99477227Y-60492636D01*
X99474471Y-60489880D01*
X99471290Y-60487412D01*
X99462422Y-60479837D01*
X99430582Y-60449938D01*
X99413024Y-60440285D01*
X99396764Y-60429604D01*
X99380936Y-60417327D01*
X99340851Y-60399980D01*
X99330361Y-60394841D01*
X99292091Y-60373802D01*
X99272691Y-60368821D01*
X99254284Y-60362519D01*
X99235897Y-60354562D01*
X99192758Y-60347729D01*
X99181324Y-60345361D01*
X99139019Y-60334500D01*
X99118984Y-60334500D01*
X99099586Y-60332973D01*
X99092162Y-60331797D01*
X99079805Y-60329840D01*
X99079804Y-60329840D01*
X99046751Y-60332964D01*
X99036325Y-60333950D01*
X99024656Y-60334500D01*
X94707017Y-60334500D01*
X94686093Y-60328356D01*
X102105335Y-60328356D01*
X102124343Y-60678958D01*
X102125069Y-60685630D01*
X102181874Y-61032130D01*
X102183317Y-61038684D01*
X102277251Y-61377001D01*
X102279396Y-61383368D01*
X102409360Y-61709552D01*
X102412169Y-61715626D01*
X102576649Y-62025868D01*
X102580102Y-62031606D01*
X102777147Y-62322225D01*
X102781207Y-62327566D01*
X102906441Y-62475003D01*
X102906442Y-62475004D01*
X104112266Y-61269180D01*
X104275130Y-61459870D01*
X104465818Y-61622732D01*
X103257255Y-62831295D01*
X103268047Y-62841518D01*
X103273157Y-62845858D01*
X103552694Y-63058357D01*
X103558240Y-63062117D01*
X103859099Y-63243137D01*
X103865038Y-63246285D01*
X104183695Y-63393712D01*
X104189937Y-63396199D01*
X104522684Y-63508315D01*
X104529129Y-63510104D01*
X104872053Y-63585588D01*
X104878677Y-63586674D01*
X105227740Y-63624636D01*
X105234437Y-63625000D01*
X105585563Y-63625000D01*
X105592259Y-63624636D01*
X105941322Y-63586674D01*
X105947946Y-63585588D01*
X106290870Y-63510104D01*
X106297315Y-63508315D01*
X106630062Y-63396199D01*
X106636304Y-63393712D01*
X106954961Y-63246285D01*
X106960900Y-63243137D01*
X107261759Y-63062117D01*
X107267305Y-63058357D01*
X107546846Y-62845856D01*
X107551950Y-62841519D01*
X107562742Y-62831296D01*
X107562743Y-62831295D01*
X106354180Y-61622733D01*
X106544870Y-61459870D01*
X106707733Y-61269180D01*
X107913556Y-62475003D01*
X107913557Y-62475003D01*
X108038792Y-62327566D01*
X108042852Y-62322225D01*
X108239897Y-62031606D01*
X108243350Y-62025868D01*
X108407830Y-61715626D01*
X108410639Y-61709552D01*
X108423410Y-61677500D01*
X111195000Y-61677500D01*
X112145000Y-61677500D01*
X112145000Y-60940000D01*
X112645000Y-60940000D01*
X112645000Y-61677500D01*
X113595000Y-61677500D01*
X113595000Y-61637339D01*
X113594680Y-61631061D01*
X113584593Y-61532326D01*
X113529905Y-61367289D01*
X113438629Y-61219307D01*
X113315692Y-61096370D01*
X113167710Y-61005094D01*
X113002673Y-60950406D01*
X112903938Y-60940319D01*
X112897661Y-60940000D01*
X112645000Y-60940000D01*
X112145000Y-60940000D01*
X111892339Y-60940000D01*
X111886061Y-60940319D01*
X111787326Y-60950406D01*
X111622289Y-61005094D01*
X111474307Y-61096370D01*
X111351370Y-61219307D01*
X111260094Y-61367289D01*
X111205406Y-61532326D01*
X111195319Y-61631061D01*
X111195000Y-61637339D01*
X111195000Y-61677500D01*
X108423410Y-61677500D01*
X108540603Y-61383368D01*
X108542748Y-61377001D01*
X108636682Y-61038684D01*
X108638125Y-61032130D01*
X108694930Y-60685630D01*
X108695656Y-60678958D01*
X108714664Y-60328356D01*
X108714664Y-60321643D01*
X108695656Y-59971041D01*
X108694930Y-59964369D01*
X108638125Y-59617869D01*
X108636682Y-59611315D01*
X108542748Y-59272998D01*
X108540603Y-59266631D01*
X108410639Y-58940447D01*
X108407830Y-58934373D01*
X108243350Y-58624131D01*
X108239897Y-58618393D01*
X108042852Y-58327774D01*
X108038792Y-58322433D01*
X107913557Y-58174995D01*
X107913556Y-58174994D01*
X106707732Y-59380818D01*
X106544870Y-59190130D01*
X106354180Y-59027266D01*
X107562743Y-57818703D01*
X107551942Y-57808473D01*
X107546842Y-57804141D01*
X107267305Y-57591642D01*
X107261759Y-57587882D01*
X106960900Y-57406862D01*
X106954961Y-57403714D01*
X106636304Y-57256287D01*
X106630062Y-57253800D01*
X106297315Y-57141684D01*
X106290870Y-57139895D01*
X105947946Y-57064411D01*
X105941322Y-57063325D01*
X105592259Y-57025363D01*
X105585563Y-57025000D01*
X105234437Y-57025000D01*
X105227740Y-57025363D01*
X104878677Y-57063325D01*
X104872053Y-57064411D01*
X104529129Y-57139895D01*
X104522684Y-57141684D01*
X104189937Y-57253800D01*
X104183695Y-57256287D01*
X103865038Y-57403714D01*
X103859099Y-57406862D01*
X103558240Y-57587882D01*
X103552694Y-57591642D01*
X103273149Y-57804146D01*
X103268054Y-57808474D01*
X103257256Y-57818702D01*
X103257255Y-57818703D01*
X104465819Y-59027266D01*
X104275130Y-59190130D01*
X104112266Y-59380818D01*
X102906442Y-58174994D01*
X102906441Y-58174995D01*
X102781207Y-58322433D01*
X102777147Y-58327774D01*
X102580102Y-58618393D01*
X102576649Y-58624131D01*
X102412169Y-58934373D01*
X102409360Y-58940447D01*
X102279396Y-59266631D01*
X102277251Y-59272998D01*
X102183317Y-59611315D01*
X102181874Y-59617869D01*
X102125069Y-59964369D01*
X102124343Y-59971041D01*
X102105335Y-60321643D01*
X102105335Y-60328356D01*
X94686093Y-60328356D01*
X94639978Y-60314815D01*
X94594223Y-60262011D01*
X94589311Y-60249504D01*
X94571092Y-60194524D01*
X94569814Y-60190666D01*
X94477712Y-60041344D01*
X94477711Y-60041342D01*
X94353657Y-59917288D01*
X94204334Y-59825186D01*
X94037797Y-59770000D01*
X93938141Y-59759819D01*
X93938122Y-59759818D01*
X93935009Y-59759500D01*
X93931860Y-59759500D01*
X93313141Y-59759500D01*
X93313121Y-59759500D01*
X93309992Y-59759501D01*
X93306860Y-59759820D01*
X93306858Y-59759821D01*
X93207203Y-59770000D01*
X93040665Y-59825186D01*
X92891342Y-59917288D01*
X92797681Y-60010950D01*
X92736358Y-60044435D01*
X92666666Y-60039451D01*
X92622319Y-60010950D01*
X92528657Y-59917288D01*
X92379334Y-59825186D01*
X92212797Y-59770000D01*
X92113141Y-59759819D01*
X92113122Y-59759818D01*
X92110009Y-59759500D01*
X92106860Y-59759500D01*
X91488141Y-59759500D01*
X91488121Y-59759500D01*
X91484992Y-59759501D01*
X91481860Y-59759820D01*
X91481858Y-59759821D01*
X91382203Y-59770000D01*
X91215665Y-59825186D01*
X91066342Y-59917288D01*
X90942288Y-60041342D01*
X90850186Y-60190665D01*
X90830689Y-60249504D01*
X90790916Y-60306949D01*
X90726400Y-60333772D01*
X90712983Y-60334500D01*
X89627017Y-60334500D01*
X89559978Y-60314815D01*
X89514223Y-60262011D01*
X89509311Y-60249504D01*
X89491092Y-60194524D01*
X89489814Y-60190666D01*
X89397712Y-60041344D01*
X89397711Y-60041342D01*
X89273657Y-59917288D01*
X89124334Y-59825186D01*
X88957797Y-59770000D01*
X88858141Y-59759819D01*
X88858122Y-59759818D01*
X88855009Y-59759500D01*
X88851860Y-59759500D01*
X88233141Y-59759500D01*
X88233121Y-59759500D01*
X88229992Y-59759501D01*
X88226860Y-59759820D01*
X88226858Y-59759821D01*
X88127203Y-59770000D01*
X87960665Y-59825186D01*
X87811344Y-59917287D01*
X87717680Y-60010951D01*
X87656357Y-60044435D01*
X87586665Y-60039451D01*
X87542319Y-60010951D01*
X87448656Y-59917288D01*
X87448655Y-59917287D01*
X87448654Y-59917286D01*
X87299334Y-59825186D01*
X87132797Y-59770000D01*
X87033141Y-59759819D01*
X87033122Y-59759818D01*
X87030009Y-59759500D01*
X87026860Y-59759500D01*
X86408141Y-59759500D01*
X86408121Y-59759500D01*
X86404992Y-59759501D01*
X86401860Y-59759820D01*
X86401858Y-59759821D01*
X86302203Y-59770000D01*
X86135665Y-59825186D01*
X85986342Y-59917288D01*
X85862288Y-60041342D01*
X85770186Y-60190665D01*
X85750689Y-60249504D01*
X85710916Y-60306949D01*
X85646400Y-60333772D01*
X85632983Y-60334500D01*
X80563161Y-60334500D01*
X80496122Y-60314815D01*
X80450367Y-60262011D01*
X80440423Y-60192853D01*
X80469448Y-60129297D01*
X80526611Y-60092009D01*
X80651139Y-60053596D01*
X80887456Y-59939792D01*
X81059167Y-59822720D01*
X80408609Y-59172162D01*
X80527431Y-59100669D01*
X80661658Y-58973523D01*
X80764861Y-58821308D01*
X81412124Y-59468571D01*
X81459972Y-59408572D01*
X81591117Y-59181423D01*
X81686940Y-58937270D01*
X81745306Y-58681552D01*
X81764907Y-58420000D01*
X81745306Y-58158447D01*
X81686940Y-57902729D01*
X81591117Y-57658575D01*
X81459972Y-57431426D01*
X81412125Y-57371427D01*
X80761232Y-58022319D01*
X80717684Y-57940178D01*
X80597991Y-57799265D01*
X80450805Y-57687377D01*
X80408596Y-57667849D01*
X81059167Y-57017278D01*
X80887451Y-56900205D01*
X80651139Y-56786403D01*
X80400503Y-56709091D01*
X80141144Y-56670000D01*
X79878856Y-56670000D01*
X79619496Y-56709091D01*
X79368860Y-56786403D01*
X79132545Y-56900206D01*
X78960832Y-57017278D01*
X79611391Y-57667837D01*
X79492569Y-57739331D01*
X79358342Y-57866477D01*
X79255138Y-58018691D01*
X78607874Y-57371428D01*
X78560026Y-57431428D01*
X78428882Y-57658576D01*
X78333059Y-57902729D01*
X78274693Y-58158447D01*
X78255092Y-58420000D01*
X78274693Y-58681552D01*
X78333058Y-58937264D01*
X78412703Y-59140198D01*
X78418871Y-59209795D01*
X78386433Y-59271678D01*
X78325687Y-59306201D01*
X78297274Y-59309500D01*
X76642726Y-59309500D01*
X76575687Y-59289815D01*
X76529932Y-59237011D01*
X76519988Y-59167853D01*
X76527297Y-59140198D01*
X76606941Y-58937264D01*
X76665306Y-58681552D01*
X76684907Y-58420000D01*
X76665306Y-58158447D01*
X76606940Y-57902729D01*
X76511117Y-57658575D01*
X76379972Y-57431426D01*
X76332125Y-57371427D01*
X75681232Y-58022319D01*
X75637684Y-57940178D01*
X75517991Y-57799265D01*
X75370805Y-57687377D01*
X75328596Y-57667849D01*
X75979167Y-57017278D01*
X75807451Y-56900205D01*
X75571139Y-56786403D01*
X75320503Y-56709091D01*
X75061144Y-56670000D01*
X74798856Y-56670000D01*
X74539496Y-56709091D01*
X74288860Y-56786403D01*
X74052545Y-56900206D01*
X73880832Y-57017278D01*
X74531391Y-57667837D01*
X74412569Y-57739331D01*
X74278342Y-57866477D01*
X74175138Y-58018692D01*
X73527873Y-57371427D01*
X73480028Y-57431424D01*
X73348882Y-57658576D01*
X73253059Y-57902729D01*
X73215391Y-58067766D01*
X73181282Y-58128744D01*
X73119621Y-58161602D01*
X73049983Y-58155907D01*
X72994480Y-58113467D01*
X72970732Y-58047757D01*
X72970500Y-58040173D01*
X72970500Y-56659900D01*
X72970383Y-56659618D01*
X72970383Y-56659617D01*
X72970381Y-56659616D01*
X72970001Y-56659459D01*
X72969999Y-56659459D01*
X72969618Y-56659616D01*
X72969616Y-56659618D01*
X72969500Y-56659900D01*
X72969500Y-56659901D01*
X72969500Y-65260099D01*
X72969617Y-65260383D01*
X72969808Y-65260462D01*
X72969999Y-65260541D01*
X72970000Y-65260541D01*
X72970001Y-65260541D01*
X72970127Y-65260488D01*
X72970383Y-65260383D01*
X72970500Y-65260099D01*
X72970500Y-63879826D01*
X72990185Y-63812787D01*
X73042989Y-63767032D01*
X73112147Y-63757088D01*
X73175703Y-63786113D01*
X73213477Y-63844891D01*
X73215391Y-63852233D01*
X73253060Y-64017270D01*
X73348882Y-64261424D01*
X73480027Y-64488573D01*
X73527873Y-64548571D01*
X73527874Y-64548571D01*
X74178766Y-63897679D01*
X74222316Y-63979822D01*
X74342009Y-64120735D01*
X74489195Y-64232623D01*
X74531402Y-64252150D01*
X73880831Y-64902720D01*
X74052546Y-65019793D01*
X74288860Y-65133596D01*
X74539496Y-65210908D01*
X74798856Y-65250000D01*
X75061144Y-65250000D01*
X75320503Y-65210908D01*
X75571139Y-65133596D01*
X75807456Y-65019792D01*
X75979167Y-64902720D01*
X75328609Y-64252161D01*
X75447431Y-64180669D01*
X75581658Y-64053523D01*
X75684861Y-63901308D01*
X76332124Y-64548571D01*
X76379972Y-64488572D01*
X76511117Y-64261423D01*
X76606940Y-64017270D01*
X76665306Y-63761552D01*
X76684907Y-63500000D01*
X76665306Y-63238447D01*
X76606941Y-62982735D01*
X76527297Y-62779802D01*
X76521129Y-62710205D01*
X76553567Y-62648322D01*
X76614313Y-62613799D01*
X76642726Y-62610500D01*
X78297274Y-62610500D01*
X78364313Y-62630185D01*
X78410068Y-62682989D01*
X78420012Y-62752147D01*
X78412703Y-62779802D01*
X78333058Y-62982735D01*
X78274693Y-63238447D01*
X78255092Y-63500000D01*
X78274693Y-63761552D01*
X78333059Y-64017270D01*
X78428882Y-64261424D01*
X78560027Y-64488573D01*
X78607873Y-64548571D01*
X79258766Y-63897678D01*
X79302316Y-63979822D01*
X79422009Y-64120735D01*
X79569195Y-64232623D01*
X79611402Y-64252150D01*
X78960831Y-64902720D01*
X79132546Y-65019793D01*
X79368860Y-65133596D01*
X79619496Y-65210908D01*
X79878856Y-65250000D01*
X80141144Y-65250000D01*
X80400503Y-65210908D01*
X80651139Y-65133596D01*
X80887456Y-65019792D01*
X81059167Y-64902720D01*
X80408609Y-64252161D01*
X80527431Y-64180669D01*
X80661658Y-64053523D01*
X80764861Y-63901308D01*
X81412124Y-64548571D01*
X81459972Y-64488572D01*
X81591117Y-64261423D01*
X81686940Y-64017270D01*
X81745306Y-63761552D01*
X81764907Y-63500000D01*
X81745306Y-63238447D01*
X81686940Y-62982729D01*
X81591117Y-62738575D01*
X81459972Y-62511426D01*
X81412125Y-62451427D01*
X80761232Y-63102319D01*
X80717684Y-63020178D01*
X80597991Y-62879265D01*
X80450805Y-62767377D01*
X80408596Y-62747849D01*
X81059167Y-62097278D01*
X80887451Y-61980205D01*
X80651139Y-61866403D01*
X80526611Y-61827991D01*
X80468352Y-61789421D01*
X80440194Y-61725476D01*
X80451078Y-61656459D01*
X80497546Y-61604282D01*
X80563161Y-61585500D01*
X85632983Y-61585500D01*
X85700022Y-61605185D01*
X85745777Y-61657989D01*
X85750689Y-61670496D01*
X85770186Y-61729334D01*
X85862288Y-61878657D01*
X85986342Y-62002711D01*
X86023886Y-62025868D01*
X86135666Y-62094814D01*
X86247016Y-62131712D01*
X86302202Y-62149999D01*
X86401858Y-62160180D01*
X86401859Y-62160180D01*
X86404991Y-62160500D01*
X87030008Y-62160499D01*
X87132797Y-62149999D01*
X87299334Y-62094814D01*
X87448656Y-62002712D01*
X87542320Y-61909047D01*
X87603641Y-61875564D01*
X87673333Y-61880548D01*
X87717679Y-61909047D01*
X87768276Y-61959644D01*
X87811345Y-62002713D01*
X87858189Y-62031606D01*
X87960666Y-62094814D01*
X88072017Y-62131712D01*
X88127202Y-62149999D01*
X88136329Y-62150931D01*
X88163100Y-62153666D01*
X88227793Y-62180061D01*
X88267945Y-62237241D01*
X88274500Y-62277024D01*
X88274500Y-64009698D01*
X88254815Y-64076737D01*
X88202011Y-64122492D01*
X88189505Y-64127404D01*
X88105664Y-64155186D01*
X87956342Y-64247288D01*
X87832288Y-64371342D01*
X87740186Y-64520665D01*
X87685000Y-64687202D01*
X87674819Y-64786858D01*
X87674817Y-64786878D01*
X87674500Y-64789991D01*
X87674500Y-64793138D01*
X87674500Y-64793139D01*
X87674500Y-65386858D01*
X87674500Y-65386877D01*
X87674501Y-65390008D01*
X87674820Y-65393140D01*
X87674821Y-65393141D01*
X87685000Y-65492796D01*
X87740186Y-65659334D01*
X87832288Y-65808657D01*
X87956342Y-65932711D01*
X87959176Y-65934459D01*
X88005902Y-65986405D01*
X88017126Y-66055368D01*
X87989284Y-66119450D01*
X87959186Y-66145533D01*
X87956346Y-66147284D01*
X87832288Y-66271342D01*
X87740186Y-66420665D01*
X87685000Y-66587202D01*
X87674819Y-66686858D01*
X87674817Y-66686878D01*
X87674500Y-66689991D01*
X87674500Y-66693138D01*
X87674500Y-66693139D01*
X87674500Y-67286858D01*
X87674500Y-67286877D01*
X87674501Y-67290008D01*
X87674820Y-67293140D01*
X87674821Y-67293141D01*
X87685000Y-67392796D01*
X87740186Y-67559334D01*
X87832288Y-67708657D01*
X87956342Y-67832711D01*
X87956344Y-67832712D01*
X88105666Y-67924814D01*
X88189505Y-67952595D01*
X88246948Y-67992366D01*
X88273772Y-68056881D01*
X88274500Y-68070300D01*
X88274500Y-73349547D01*
X88254815Y-73416586D01*
X88238181Y-73437228D01*
X87661228Y-74014181D01*
X87599905Y-74047666D01*
X87573547Y-74050500D01*
X80563161Y-74050500D01*
X80496122Y-74030815D01*
X80450367Y-73978011D01*
X80440423Y-73908853D01*
X80469448Y-73845297D01*
X80526611Y-73808009D01*
X80651139Y-73769596D01*
X80887456Y-73655792D01*
X81059167Y-73538720D01*
X80408609Y-72888162D01*
X80527431Y-72816669D01*
X80661658Y-72689523D01*
X80764861Y-72537308D01*
X81412124Y-73184571D01*
X81459972Y-73124572D01*
X81591117Y-72897423D01*
X81686940Y-72653270D01*
X81745306Y-72397552D01*
X81764907Y-72136000D01*
X81745306Y-71874447D01*
X81686940Y-71618729D01*
X81591117Y-71374575D01*
X81459972Y-71147426D01*
X81412125Y-71087427D01*
X80761232Y-71738319D01*
X80717684Y-71656178D01*
X80597991Y-71515265D01*
X80450805Y-71403377D01*
X80408596Y-71383849D01*
X81059167Y-70733278D01*
X80887451Y-70616205D01*
X80651139Y-70502403D01*
X80400503Y-70425091D01*
X80141144Y-70386000D01*
X79878856Y-70386000D01*
X79619496Y-70425091D01*
X79368860Y-70502403D01*
X79132545Y-70616206D01*
X78960832Y-70733278D01*
X79611391Y-71383837D01*
X79492569Y-71455331D01*
X79358342Y-71582477D01*
X79255138Y-71734691D01*
X78607874Y-71087428D01*
X78560026Y-71147428D01*
X78428882Y-71374576D01*
X78333059Y-71618729D01*
X78274693Y-71874447D01*
X78255092Y-72136000D01*
X78274693Y-72397552D01*
X78333058Y-72653264D01*
X78412703Y-72856198D01*
X78418871Y-72925795D01*
X78386433Y-72987678D01*
X78325687Y-73022201D01*
X78297274Y-73025500D01*
X76642726Y-73025500D01*
X76575687Y-73005815D01*
X76529932Y-72953011D01*
X76519988Y-72883853D01*
X76527297Y-72856198D01*
X76606941Y-72653264D01*
X76665306Y-72397552D01*
X76684907Y-72136000D01*
X76665306Y-71874447D01*
X76606940Y-71618729D01*
X76511117Y-71374575D01*
X76379972Y-71147426D01*
X76332125Y-71087427D01*
X75681232Y-71738319D01*
X75637684Y-71656178D01*
X75517991Y-71515265D01*
X75370805Y-71403377D01*
X75328596Y-71383849D01*
X75979167Y-70733278D01*
X75807451Y-70616205D01*
X75571139Y-70502403D01*
X75320503Y-70425091D01*
X75061144Y-70386000D01*
X74798856Y-70386000D01*
X74539496Y-70425091D01*
X74288860Y-70502403D01*
X74052545Y-70616206D01*
X73880832Y-70733278D01*
X74531391Y-71383837D01*
X74412569Y-71455331D01*
X74278342Y-71582477D01*
X74175138Y-71734692D01*
X73527873Y-71087427D01*
X73480028Y-71147424D01*
X73348882Y-71374576D01*
X73253059Y-71618729D01*
X73215391Y-71783766D01*
X73181282Y-71844744D01*
X73119621Y-71877602D01*
X73049983Y-71871907D01*
X72994480Y-71829467D01*
X72970732Y-71763757D01*
X72970500Y-71756173D01*
X72970500Y-70375900D01*
X72970383Y-70375618D01*
X72970383Y-70375617D01*
X72970381Y-70375616D01*
X72970001Y-70375459D01*
X72969999Y-70375459D01*
X72969618Y-70375616D01*
X72969616Y-70375618D01*
X72969500Y-70375900D01*
X72969500Y-70375901D01*
X72969500Y-78976099D01*
X72716500Y-78976099D01*
X72716500Y-56004500D01*
X72736185Y-55937461D01*
X72788989Y-55891706D01*
X72840500Y-55880500D01*
X128145500Y-55880500D01*
X128212539Y-55900185D01*
G37*
G04 #@! TD.AperFunction*
G04 #@! TA.AperFunction,Conductor*
G36*
X72921703Y-105696113D02*
G01*
X72959477Y-105754891D01*
X72961391Y-105762233D01*
X72999060Y-105927270D01*
X73094882Y-106171424D01*
X73226027Y-106398573D01*
X73273873Y-106458571D01*
X73924766Y-105807678D01*
X73968316Y-105889822D01*
X74088009Y-106030735D01*
X74235195Y-106142623D01*
X74277402Y-106162150D01*
X73626831Y-106812720D01*
X73798549Y-106929795D01*
X73806825Y-106933781D01*
X73858684Y-106980604D01*
X73876996Y-107048031D01*
X73855947Y-107114655D01*
X73802220Y-107159322D01*
X73753022Y-107169500D01*
X72840500Y-107169500D01*
X72773461Y-107149815D01*
X72727706Y-107097011D01*
X72716500Y-107045500D01*
X72716500Y-105789826D01*
X72736185Y-105722787D01*
X72788989Y-105677032D01*
X72858147Y-105667088D01*
X72921703Y-105696113D01*
G37*
G04 #@! TD.AperFunction*
G04 #@! TA.AperFunction,Conductor*
G36*
X72921703Y-100616113D02*
G01*
X72959477Y-100674891D01*
X72961391Y-100682233D01*
X72999060Y-100847270D01*
X73094882Y-101091424D01*
X73226027Y-101318573D01*
X73273873Y-101378571D01*
X73924766Y-100727678D01*
X73968316Y-100809822D01*
X74088009Y-100950735D01*
X74235195Y-101062623D01*
X74277402Y-101082150D01*
X73626831Y-101732720D01*
X73798546Y-101849793D01*
X74034860Y-101963596D01*
X74285496Y-102040908D01*
X74544856Y-102080000D01*
X74807144Y-102080000D01*
X75066503Y-102040908D01*
X75317136Y-101963597D01*
X75387697Y-101929617D01*
X75456639Y-101918265D01*
X75520773Y-101945986D01*
X75559739Y-102003981D01*
X75565500Y-102041337D01*
X75565500Y-103698662D01*
X75545815Y-103765701D01*
X75493011Y-103811456D01*
X75423853Y-103821400D01*
X75387699Y-103810382D01*
X75317142Y-103776404D01*
X75066503Y-103699091D01*
X74807144Y-103660000D01*
X74544856Y-103660000D01*
X74285496Y-103699091D01*
X74034860Y-103776403D01*
X73798545Y-103890206D01*
X73626831Y-104007278D01*
X74277390Y-104657837D01*
X74158569Y-104729331D01*
X74024342Y-104856477D01*
X73921138Y-105008691D01*
X73273874Y-104361428D01*
X73226026Y-104421428D01*
X73094882Y-104648576D01*
X72999059Y-104892729D01*
X72961391Y-105057766D01*
X72927282Y-105118744D01*
X72865621Y-105151602D01*
X72795983Y-105145907D01*
X72740480Y-105103467D01*
X72716732Y-105037757D01*
X72716500Y-105030173D01*
X72716500Y-100709826D01*
X72736185Y-100642787D01*
X72788989Y-100597032D01*
X72858147Y-100587088D01*
X72921703Y-100616113D01*
G37*
G04 #@! TD.AperFunction*
G04 #@! TA.AperFunction,Conductor*
G36*
X78110313Y-104540185D02*
G01*
X78156068Y-104592989D01*
X78166012Y-104662147D01*
X78158703Y-104689802D01*
X78079058Y-104892735D01*
X78020693Y-105148447D01*
X78001092Y-105410000D01*
X78020693Y-105671552D01*
X78079059Y-105927270D01*
X78174882Y-106171424D01*
X78306027Y-106398573D01*
X78353873Y-106458571D01*
X79004766Y-105807678D01*
X79048316Y-105889822D01*
X79168009Y-106030735D01*
X79315195Y-106142623D01*
X79357402Y-106162150D01*
X78706831Y-106812720D01*
X78878549Y-106929795D01*
X78886825Y-106933781D01*
X78938684Y-106980604D01*
X78956996Y-107048031D01*
X78935947Y-107114655D01*
X78882220Y-107159322D01*
X78833022Y-107169500D01*
X75598978Y-107169500D01*
X75531939Y-107149815D01*
X75486184Y-107097011D01*
X75476240Y-107027853D01*
X75505265Y-106964297D01*
X75545178Y-106933779D01*
X75553456Y-106929792D01*
X75725167Y-106812720D01*
X75074609Y-106162161D01*
X75193431Y-106090669D01*
X75327658Y-105963523D01*
X75430861Y-105811308D01*
X76078124Y-106458571D01*
X76125972Y-106398572D01*
X76257117Y-106171423D01*
X76352940Y-105927270D01*
X76411306Y-105671552D01*
X76430907Y-105410000D01*
X76411306Y-105148447D01*
X76352941Y-104892735D01*
X76273297Y-104689802D01*
X76267129Y-104620205D01*
X76299567Y-104558322D01*
X76360313Y-104523799D01*
X76388726Y-104520500D01*
X78043274Y-104520500D01*
X78110313Y-104540185D01*
G37*
G04 #@! TD.AperFunction*
G04 #@! TA.AperFunction,Conductor*
G36*
X100255159Y-86783119D02*
G01*
X100312381Y-86823212D01*
X100338844Y-86887876D01*
X100339499Y-86900606D01*
X100339500Y-89224547D01*
X100319815Y-89291586D01*
X100303181Y-89312228D01*
X95027228Y-94588181D01*
X94965905Y-94621666D01*
X94939547Y-94624500D01*
X94707017Y-94624500D01*
X94639978Y-94604815D01*
X94594223Y-94552011D01*
X94589311Y-94539504D01*
X94585235Y-94527203D01*
X94569814Y-94480666D01*
X94477712Y-94331344D01*
X94477711Y-94331342D01*
X94353657Y-94207288D01*
X94306902Y-94178449D01*
X94260178Y-94126501D01*
X94248000Y-94072911D01*
X94248000Y-93252087D01*
X94267685Y-93185048D01*
X94306903Y-93146548D01*
X94353656Y-93117712D01*
X94477712Y-92993656D01*
X94569814Y-92844334D01*
X94624999Y-92677797D01*
X94635500Y-92575009D01*
X94635499Y-91574992D01*
X94624999Y-91472203D01*
X94569814Y-91305666D01*
X94491345Y-91178447D01*
X94477711Y-91156342D01*
X94353657Y-91032288D01*
X94204334Y-90940186D01*
X94037797Y-90885000D01*
X93938141Y-90874819D01*
X93938122Y-90874818D01*
X93935009Y-90874500D01*
X93931860Y-90874500D01*
X93313141Y-90874500D01*
X93313121Y-90874500D01*
X93309992Y-90874501D01*
X93306860Y-90874820D01*
X93306858Y-90874821D01*
X93207203Y-90885000D01*
X93040665Y-90940186D01*
X92891344Y-91032287D01*
X92797327Y-91126304D01*
X92736004Y-91159788D01*
X92666312Y-91154804D01*
X92621965Y-91126303D01*
X92528345Y-91032683D01*
X92379122Y-90940642D01*
X92212696Y-90885493D01*
X92113109Y-90875319D01*
X92106832Y-90875000D01*
X92047500Y-90875000D01*
X92047500Y-93274999D01*
X92106829Y-93274999D01*
X92113111Y-93274678D01*
X92212695Y-93264506D01*
X92379122Y-93209357D01*
X92528344Y-93117316D01*
X92621964Y-93023696D01*
X92683287Y-92990210D01*
X92752978Y-92995194D01*
X92797327Y-93023695D01*
X92891344Y-93117712D01*
X92938096Y-93146548D01*
X92984821Y-93198495D01*
X92997000Y-93252087D01*
X92997000Y-94072911D01*
X92977315Y-94139950D01*
X92938098Y-94178449D01*
X92891342Y-94207288D01*
X92797681Y-94300950D01*
X92736358Y-94334435D01*
X92666666Y-94329451D01*
X92622319Y-94300950D01*
X92528657Y-94207288D01*
X92379334Y-94115186D01*
X92212797Y-94060000D01*
X92113141Y-94049819D01*
X92113122Y-94049818D01*
X92110009Y-94049500D01*
X92106860Y-94049500D01*
X91488141Y-94049500D01*
X91488121Y-94049500D01*
X91484992Y-94049501D01*
X91481860Y-94049820D01*
X91481858Y-94049821D01*
X91382203Y-94060000D01*
X91215665Y-94115186D01*
X91066345Y-94207286D01*
X91035898Y-94237733D01*
X91005449Y-94268182D01*
X90944129Y-94301666D01*
X90917770Y-94304500D01*
X90094378Y-94304500D01*
X90027339Y-94284815D01*
X89988839Y-94245596D01*
X89967711Y-94211342D01*
X89843655Y-94087286D01*
X89840816Y-94085535D01*
X89794093Y-94033585D01*
X89782874Y-93964622D01*
X89810720Y-93900541D01*
X89840823Y-93874458D01*
X89843656Y-93872712D01*
X89967712Y-93748656D01*
X90059814Y-93599334D01*
X90114999Y-93432797D01*
X90125500Y-93330009D01*
X90125499Y-92729992D01*
X90114999Y-92627203D01*
X90059814Y-92460666D01*
X89989623Y-92346868D01*
X89976135Y-92325000D01*
X90785001Y-92325000D01*
X90785001Y-92571829D01*
X90785321Y-92578111D01*
X90795493Y-92677695D01*
X90850642Y-92844122D01*
X90942683Y-92993345D01*
X91066654Y-93117316D01*
X91215877Y-93209357D01*
X91382303Y-93264506D01*
X91481891Y-93274680D01*
X91488167Y-93274999D01*
X91547499Y-93274998D01*
X91547500Y-93274998D01*
X91547500Y-92325000D01*
X90785001Y-92325000D01*
X89976135Y-92325000D01*
X89967711Y-92311342D01*
X89843657Y-92187288D01*
X89735649Y-92120669D01*
X89694334Y-92095186D01*
X89610494Y-92067404D01*
X89553050Y-92027631D01*
X89526227Y-91963115D01*
X89525500Y-91949716D01*
X89525500Y-91825000D01*
X90785000Y-91825000D01*
X91547500Y-91825000D01*
X91547500Y-90875000D01*
X91547499Y-90874999D01*
X91488171Y-90875000D01*
X91481888Y-90875321D01*
X91382304Y-90885493D01*
X91215877Y-90940642D01*
X91066654Y-91032683D01*
X90942683Y-91156654D01*
X90850642Y-91305877D01*
X90795493Y-91472303D01*
X90785319Y-91571890D01*
X90785000Y-91578168D01*
X90785000Y-91825000D01*
X89525500Y-91825000D01*
X89525500Y-89649499D01*
X89545185Y-89582460D01*
X89597989Y-89536706D01*
X89649500Y-89525500D01*
X90712983Y-89525500D01*
X90780022Y-89545185D01*
X90825777Y-89597989D01*
X90830689Y-89610496D01*
X90850186Y-89669334D01*
X90942288Y-89818657D01*
X91066342Y-89942711D01*
X91081749Y-89952214D01*
X91215666Y-90034814D01*
X91327017Y-90071712D01*
X91382202Y-90089999D01*
X91481858Y-90100180D01*
X91481859Y-90100180D01*
X91484991Y-90100500D01*
X92110008Y-90100499D01*
X92212797Y-90089999D01*
X92379334Y-90034814D01*
X92528656Y-89942712D01*
X92622320Y-89849047D01*
X92683641Y-89815564D01*
X92753333Y-89820548D01*
X92797679Y-89849047D01*
X92854213Y-89905581D01*
X92891345Y-89942713D01*
X92906749Y-89952214D01*
X93040666Y-90034814D01*
X93152016Y-90071712D01*
X93207202Y-90089999D01*
X93306858Y-90100180D01*
X93306859Y-90100180D01*
X93309991Y-90100500D01*
X93935008Y-90100499D01*
X94037797Y-90089999D01*
X94204334Y-90034814D01*
X94353656Y-89942712D01*
X94477712Y-89818656D01*
X94569814Y-89669334D01*
X94589311Y-89610495D01*
X94629084Y-89553051D01*
X94693600Y-89526228D01*
X94707017Y-89525500D01*
X97072256Y-89525500D01*
X97092762Y-89527764D01*
X97095665Y-89527672D01*
X97095667Y-89527673D01*
X97162872Y-89525561D01*
X97166768Y-89525500D01*
X97190448Y-89525500D01*
X97194350Y-89525500D01*
X97198313Y-89524999D01*
X97209962Y-89524080D01*
X97253627Y-89522709D01*
X97272859Y-89517120D01*
X97291918Y-89513174D01*
X97298196Y-89512381D01*
X97311792Y-89510664D01*
X97352407Y-89494582D01*
X97363444Y-89490803D01*
X97405390Y-89478618D01*
X97422629Y-89468422D01*
X97440102Y-89459862D01*
X97458732Y-89452486D01*
X97494064Y-89426814D01*
X97503830Y-89420400D01*
X97541418Y-89398171D01*
X97541417Y-89398171D01*
X97541420Y-89398170D01*
X97555585Y-89384004D01*
X97570373Y-89371373D01*
X97586587Y-89359594D01*
X97614438Y-89325926D01*
X97622279Y-89317309D01*
X100078789Y-86860800D01*
X100094885Y-86847906D01*
X100096873Y-86845787D01*
X100096877Y-86845786D01*
X100125109Y-86815721D01*
X100185345Y-86780328D01*
X100255159Y-86783119D01*
G37*
G04 #@! TD.AperFunction*
G04 #@! TA.AperFunction,Conductor*
G36*
X73175703Y-86646113D02*
G01*
X73213477Y-86704891D01*
X73215391Y-86712233D01*
X73253060Y-86877270D01*
X73348882Y-87121424D01*
X73480027Y-87348573D01*
X73527873Y-87408571D01*
X73527874Y-87408571D01*
X74178766Y-86757679D01*
X74222316Y-86839822D01*
X74342009Y-86980735D01*
X74489195Y-87092623D01*
X74531402Y-87112150D01*
X73880831Y-87762720D01*
X74052546Y-87879793D01*
X74288860Y-87993596D01*
X74539496Y-88070908D01*
X74798856Y-88110000D01*
X75061144Y-88110000D01*
X75320503Y-88070908D01*
X75571136Y-87993597D01*
X75641697Y-87959617D01*
X75710639Y-87948265D01*
X75774773Y-87975986D01*
X75813739Y-88033981D01*
X75819500Y-88071337D01*
X75819500Y-89728662D01*
X75799815Y-89795701D01*
X75747011Y-89841456D01*
X75677853Y-89851400D01*
X75641699Y-89840382D01*
X75571142Y-89806404D01*
X75320503Y-89729091D01*
X75061144Y-89690000D01*
X74798856Y-89690000D01*
X74539496Y-89729091D01*
X74288860Y-89806403D01*
X74052545Y-89920206D01*
X73880831Y-90037278D01*
X74531390Y-90687837D01*
X74412569Y-90759331D01*
X74278342Y-90886477D01*
X74175138Y-91038692D01*
X73527873Y-90391427D01*
X73480028Y-90451424D01*
X73348882Y-90678576D01*
X73253059Y-90922729D01*
X73215391Y-91087766D01*
X73181282Y-91148744D01*
X73119621Y-91181602D01*
X73049983Y-91175907D01*
X72994480Y-91133467D01*
X72970732Y-91067757D01*
X72970500Y-91060173D01*
X72970500Y-86739826D01*
X72990185Y-86672787D01*
X73042989Y-86627032D01*
X73112147Y-86617088D01*
X73175703Y-86646113D01*
G37*
G04 #@! TD.AperFunction*
G04 #@! TD*
M02*
