M48
INCH,TZ
T1C0.0157
T2C0.0315
T3C0.0394
T4C0.0433
T5C0.0591
T6C0.0669
T7C0.1260
%
G90
G05
T1
X32250Y-41250
X32500Y-28250
X32500Y-36000
X35500Y-28250
X35500Y-36000
X38500Y-32500
X38750Y-29000
X39465Y-26500
X40035Y-32500
X40250Y-27250
X41500Y-29750
X42000Y-40500
X44000Y-29750
X44250Y-36500
X46000Y-30750
X46250Y-28750
X46750Y-37000
T2
X38250Y-40000
X40219Y-40000
T3
X35500Y-41500
X36500Y-41500
X44250Y-26750
X45250Y-23000
X45250Y-26750
X46250Y-23000
X46250Y-26750
X49800Y-23098
X49800Y-24098
X49800Y-25898
X49800Y-26898
T4
X38250Y-41500
X43250Y-41500
X45500Y-41500
X46000Y-33750
X46000Y-35250
X46000Y-39250
X46500Y-41500
X47500Y-41500
X50000Y-33750
T5
X30400Y-40500
X30500Y-24000
X30500Y-29400
X30500Y-35000
T6
X29400Y-39500
X29400Y-41500
X29500Y-23000
X29500Y-25000
X29500Y-28400
X29500Y-30400
X29500Y-34000
X29500Y-36000
X31400Y-39500
X31400Y-41500
X31500Y-23000
X31500Y-25000
X31500Y-28400
X31500Y-30400
X31500Y-34000
X31500Y-36000
T7
X35500Y-31750
X41500Y-23750
X48750Y-31750
T0
M30
